<svg width="44" height="44" viewBox="0 0 44 44" fill="none" xmlns="http://www.w3.org/2000/svg">
<path d="M43.986 21.2209C43.9371 19.7815 43.7485 18.377 43.434 17.0214C43.0777 15.4912 42.5676 14.0308 41.9177 12.6403C41.2959 11.3267 40.5482 10.0829 39.6887 8.92298C38.9341 7.89582 38.0816 6.93156 37.1593 6.05812C35.07 4.0667 32.5895 2.48753 29.8434 1.43942C28.5717 0.950294 27.2371 0.579959 25.8606 0.335398C24.6098 0.118787 23.3171 0 22.0035 0C20.613 0 19.2504 0.132762 17.9298 0.377323C16.4065 0.663808 14.9462 1.10402 13.5487 1.67699C9.74051 3.27013 6.47038 5.89741 4.09465 9.21645C3.22122 10.4253 2.47356 11.7319 1.86565 13.1085C1.28569 14.4291 0.82452 15.8196 0.517071 17.259C0.230586 18.5377 0.0628874 19.8653 0.0139752 21.2209C0.00698777 21.4794 0 21.738 0 21.9965C0 23.1774 0.0908365 24.3373 0.27251 25.4693C0.524059 27.0554 0.943306 28.5857 1.51628 30.0391C2.06829 31.4505 2.76005 32.7851 3.57758 34.0289C4.31126 35.1469 5.14277 36.195 6.05812 37.1593C8.17532 39.3813 10.7467 41.1561 13.6255 42.344C14.9811 42.903 16.3926 43.3222 17.8669 43.6017C19.2085 43.8603 20.592 43.993 22.0035 43.993C23.4988 43.993 24.9522 43.8463 26.3637 43.5598C27.9917 43.2314 29.5499 42.7283 31.0173 42.0645C32.9738 41.191 34.7836 40.0311 36.3837 38.6406H34.9023C33.5957 39.6608 32.1702 40.5203 30.647 41.205C29.2355 41.8479 27.7402 42.337 26.189 42.6514C24.8334 42.9239 23.4359 43.0637 22.0035 43.0637C20.6479 43.0637 19.3203 42.9379 18.0346 42.6864C16.6232 42.4208 15.2606 42.0156 13.9679 41.4705C12.277 40.7788 10.6908 39.8634 9.25838 38.7734H8.99984V38.5708C8.41988 38.1166 7.86787 37.6344 7.34382 37.1243H7.33683C7.1272 36.9147 6.92457 36.7051 6.72193 36.4955C5.84151 35.5731 5.04494 34.5669 4.35318 33.4909C3.57059 32.296 2.90678 31.0103 2.38272 29.6617C1.83071 28.2712 1.43243 26.8039 1.19486 25.2876C1.02716 24.2185 0.936319 23.1145 0.936319 21.9965C0.936319 21.738 0.943307 21.4794 0.957282 21.2209C0.999207 19.9212 1.15992 18.6565 1.43942 17.4267C1.73988 16.0502 2.18009 14.7226 2.74607 13.4648C3.32603 12.1442 4.03875 10.9004 4.87026 9.74051C5.60394 8.71336 6.42846 7.74909 7.33683 6.87566H7.34382C7.86787 6.35858 8.41988 5.87645 8.99984 5.42925C9.09068 5.35938 9.18152 5.2895 9.27235 5.21963C10.6908 4.13657 12.249 3.2282 13.919 2.53645C15.2536 1.98444 16.6511 1.5582 18.1045 1.29268C19.3692 1.05511 20.6689 0.929332 22.0035 0.929332C23.2612 0.929332 24.491 1.04113 25.6859 1.25774C27.0065 1.48134 28.2782 1.8377 29.501 2.30586C31.4715 3.05352 33.3022 4.09465 34.9373 5.37335H35.8247V6.11402C36.0553 6.30967 36.2789 6.51231 36.4955 6.72193C37.3829 7.55344 38.2004 8.46879 38.9201 9.45403C39.7446 10.558 40.4644 11.7529 41.0513 13.0106C41.6872 14.3383 42.1763 15.7427 42.5117 17.2031C42.8191 18.5028 43.0008 19.8444 43.0427 21.2209C43.0567 21.4794 43.0637 21.738 43.0637 21.9965C43.0637 23.0376 42.9868 24.0578 42.8401 25.057C42.6375 26.4894 42.2811 27.866 41.799 29.1866C41.2959 30.5981 40.639 31.9327 39.8495 33.1764C38.9481 34.6159 37.879 35.9365 36.6632 37.1174V38.3961C38.2004 37.0265 39.535 35.4543 40.632 33.7005C41.4496 32.4008 42.1344 31.0033 42.6724 29.543C43.1755 28.1594 43.5458 26.72 43.7624 25.2247C43.9231 24.1696 44 23.0935 44 21.9965C44 21.738 43.993 21.4794 43.986 21.2209Z" fill="white"/>
</svg>
