<svg width="140" height="40" viewBox="0 0 140 40" fill="none" xmlns="http://www.w3.org/2000/svg">
<path d="M9.13477 5.53259C9.05404 5.59469 8.97331 5.6568 8.89258 5.7189V5.53259H9.13477Z" fill="white"/>
<path d="M18.7358 33.8882H9.51367V34.7328H18.7358V33.8882Z" fill="white"/>
<path d="M20.2381 31.6525V33.2672H8.03516V31.6525H9.04741V32.2487H19.2259V31.6525H20.2381Z" fill="white"/>
<path d="M26.026 5.66919L25.9453 5.87413V5.66919H26.026Z" fill="white"/>
<path d="M32.1135 6.29022V6.30939C32.1135 6.30939 32.0943 6.29022 32.0879 6.29022H32.1135Z" fill="white"/>
<path d="M33.4789 35.0185V35.2358H33.2305C33.3112 35.1675 33.3981 35.093 33.4789 35.0185Z" fill="white"/>
<path d="M32.0879 6.29022C32.0879 6.29022 32.1071 6.29022 32.1135 6.30939V6.29022H32.0879Z" fill="white"/>
<path d="M20.4512 37.9994V34.7949" stroke="white" stroke-miterlimit="10"/>
<path d="M20.4512 6.09153V2.88708" stroke="white" stroke-miterlimit="10"/>
<path d="M6.11035 19.7539H2.91211" stroke="white" stroke-miterlimit="10"/>
<path d="M37.9814 19.7539H34.7832" stroke="white" stroke-miterlimit="10"/>
<path d="M6.24781 22.5298L3.10547 23.1446" stroke="white" stroke-miterlimit="10"/>
<path d="M37.5291 16.4066L34.3867 17.0214" stroke="white" stroke-miterlimit="10"/>
<path d="M7.0237 25.5294L4.08008 26.7962" stroke="white" stroke-miterlimit="10"/>
<path d="M36.3046 12.9227L33.3672 14.1895" stroke="white" stroke-miterlimit="10"/>
<path d="M8.35186 28.1625L5.71875 29.9883" stroke="white" stroke-miterlimit="10"/>
<path d="M34.5292 9.96045L31.9023 11.7862" stroke="white" stroke-miterlimit="10"/>
<path d="M31.4365 8.7619L30.2441 9.95425" stroke="white" stroke-miterlimit="10"/>
<path d="M14.2599 35.3539L13.7383 36.6704" stroke="white" stroke-miterlimit="10"/>
<path d="M26.678 4.02972L26.0259 5.66921L25.9452 5.87414L25.498 7.0044" fill="white"/>
<path d="M26.678 4.02972L26.0259 5.66921L25.9452 5.87414L25.498 7.0044" stroke="white" stroke-miterlimit="10"/>
<path d="M17.5675 35.3539L17.1328 37.6827" stroke="white" stroke-miterlimit="10"/>
<path d="M23.5115 3.16034L22.9277 6.3089" stroke="white" stroke-miterlimit="10"/>
<path d="M23.9468 37.6454L23.332 34.5031" stroke="white" stroke-miterlimit="10"/>
<path d="M17.2148 3.19141L17.6682 5.53264L17.7862 6.15366" fill="white"/>
<path d="M17.2148 3.19141L17.6682 5.53264L17.7862 6.15366" stroke="white" stroke-miterlimit="10"/>
<path d="M27.6662 36.4468L27.1445 35.2358" stroke="white" stroke-miterlimit="10"/>
<path d="M13.7324 4.22223L14.2975 5.53257L14.5708 6.15359" fill="white"/>
<path d="M13.7324 4.22223L14.2975 5.53257L14.5708 6.15359" stroke="white" stroke-miterlimit="10"/>
<path d="M35.3415 29.7274L32.6836 27.9451" stroke="white" stroke-miterlimit="10"/>
<path d="M8.85522 11.9787L6.19727 10.2026" stroke="white" stroke-miterlimit="10"/>
<path d="M36.963 26.3988L33.9883 25.2064" stroke="white" stroke-miterlimit="10"/>
<path d="M7.38448 14.4939L4.41602 13.2953" stroke="white" stroke-miterlimit="10"/>
<path d="M37.8126 22.9522L34.6641 22.3684" stroke="white" stroke-miterlimit="10"/>
<path d="M6.47082 17.1767L3.32227 16.5991" stroke="white" stroke-miterlimit="10"/>
<path d="M39.9875 19.7539C39.9441 18.4746 39.7764 17.2264 39.4969 16.0216C39.1802 14.6616 38.7269 13.3636 38.1493 12.1278C37.5966 10.9603 36.9321 9.85489 36.1683 8.824C35.4976 7.91111 34.7399 7.0541 33.9202 6.27783C32.0634 4.50793 29.8588 3.10444 27.4182 2.17291C26.2879 1.7382 25.1018 1.40906 23.8784 1.1917C22.7667 0.999189 21.6179 0.893616 20.4504 0.893616C19.2145 0.893616 18.0035 1.01161 16.8298 1.22896C15.476 1.48358 14.1781 1.87482 12.936 2.38406C9.55151 3.79997 6.64515 6.135 4.53369 9.08483C3.75742 10.1592 3.09293 11.3205 2.55265 12.5439C2.0372 13.7176 1.62733 14.9534 1.35408 16.2327C1.09947 17.3692 0.950423 18.5491 0.906952 19.7539C0.900742 19.9837 0.894531 20.2135 0.894531 20.4432C0.894531 21.4927 0.975263 22.5236 1.13673 23.5297C1.36029 24.9394 1.7329 26.2994 2.24214 27.5911C2.73274 28.8456 3.34755 30.0317 4.07414 31.1371C4.72621 32.1308 5.46522 33.0623 6.27875 33.9193C8.16043 35.8941 10.4458 37.4715 13.0044 38.5272C14.2091 39.0241 15.4636 39.3967 16.7739 39.6451C17.9663 39.8748 19.1959 39.9928 20.4504 39.9928C21.7793 39.9928 23.071 39.8624 24.3255 39.6078C25.7725 39.3159 27.1573 38.8688 28.4615 38.2788C30.2003 37.5026 31.8088 36.4717 33.2309 35.2359H31.9143C30.753 36.1425 29.4861 36.9064 28.1323 37.515C26.8779 38.0863 25.5489 38.521 24.1702 38.8005C22.9655 39.0427 21.7234 39.1669 20.4504 39.1669C19.2456 39.1669 18.0656 39.0551 16.923 38.8315C15.6685 38.5956 14.4575 38.2354 13.3087 37.751C11.8058 37.1362 10.3961 36.3226 9.123 35.3538H8.89323V35.1738C8.37779 34.7701 7.88718 34.3416 7.42142 33.8882H7.41521C7.2289 33.7019 7.04881 33.5156 6.86871 33.3293C6.08623 32.5096 5.37827 31.6153 4.76347 30.659C4.06793 29.597 3.47796 28.4543 3.0122 27.2558C2.5216 26.02 2.16762 24.7158 1.95647 23.3682C1.80743 22.4181 1.72669 21.4369 1.72669 20.4432C1.72669 20.2135 1.7329 19.9837 1.74532 19.7539C1.78259 18.5988 1.92542 17.4748 2.17383 16.3818C2.44086 15.1584 2.8321 13.9784 3.33513 12.8606C3.85057 11.6869 4.48401 10.5815 5.22302 9.55059C5.87509 8.6377 6.60789 7.78069 7.41521 7.00442H7.42142C7.88718 6.54487 8.37779 6.11637 8.89323 5.71892C8.97396 5.65682 9.05469 5.59471 9.13543 5.53261C10.3961 4.57004 11.781 3.76271 13.2652 3.14791C14.4513 2.6573 15.6934 2.27848 16.9851 2.0425C18.1091 1.83135 19.2642 1.71957 20.4504 1.71957C21.5682 1.71957 22.6612 1.81893 23.7231 2.01145C24.8968 2.21017 26.0271 2.52689 27.1139 2.94297C28.8651 3.60746 30.4922 4.53277 31.9454 5.66924H32.7341V6.32751C32.939 6.5014 33.1377 6.68149 33.3302 6.8678C34.1189 7.60681 34.8455 8.42034 35.4852 9.29597C36.218 10.2772 36.8576 11.3391 37.3793 12.457C37.9444 13.6369 38.3791 14.8851 38.6772 16.1831C38.9504 17.3381 39.1119 18.5305 39.1492 19.7539C39.1616 19.9837 39.1678 20.2135 39.1678 20.4432C39.1678 21.3685 39.0995 22.2752 38.9691 23.1633C38.789 24.4364 38.4723 25.6598 38.0438 26.8335C37.5966 28.0879 37.0129 29.2741 36.3111 30.3795C35.51 31.6588 34.5599 32.8325 33.4793 33.882V35.0185C34.8455 33.8013 36.0317 32.404 37.0067 30.8453C37.7332 29.6902 38.3419 28.4481 38.82 27.1502C39.2672 25.9206 39.5963 24.6413 39.7888 23.3123C39.9317 22.3746 40 21.4182 40 20.4432C40 20.2135 39.9938 19.9837 39.9875 19.7539Z" fill="white"/>
<path d="M32.7774 32.9318L31.3491 32.5965C31.3491 32.5965 30.9206 31.9631 30.2375 30.9384C30.1257 30.7769 30.0139 30.603 29.8959 30.4229C27.7844 27.2247 23.9403 21.2505 22.3257 17.748C24.7663 14.1585 27.3746 11.1279 28.8153 9.53814C28.9706 9.37047 29.101 9.22763 29.2252 9.09101C29.6785 8.60041 29.9456 8.32716 29.9456 8.32716L32.1129 8.04149V6.30885C32.1129 6.30885 32.0943 6.29022 32.0881 6.29022H26.5672V8.07875L26.5362 8.12222L18.5934 19.2571H17.8544V9.25868H14.7493V19.2571H13.6563V9.25868H10.3835V19.2571H9.64453V21.3126H10.3835V31.6277H13.6563V21.3126H14.7493V31.6277H17.8544V21.3126H18.5934L25.7413 33.1244L26.058 33.646L26.648 34.6148H32.8581V32.9505L32.7774 32.9318ZM12.6316 30.8887H11.4331V21.3126H12.6316V30.8887ZM12.6316 19.2571H11.4331V10.1343H12.6316V19.2571Z" fill="white"/>
<path d="M20.2401 7.6192V9.23385H19.2278V8.63767H9.04937V9.23385H8.03711V7.6192H20.2401Z" fill="white"/>
<path d="M26.9703 3.3094C25.9083 2.89953 24.8029 2.59523 23.6541 2.39651C22.617 2.20399 21.5426 2.11084 20.4496 2.11084C19.2945 2.11084 18.1581 2.21641 17.0651 2.42756C15.7982 2.65733 14.581 3.02373 13.4197 3.50813C12.1218 4.0422 10.9046 4.72532 9.78675 5.53264H11.184C11.9914 5.02962 12.8422 4.5887 13.7302 4.2223C14.8356 3.76274 16.0031 3.40877 17.2141 3.19141C18.2636 2.98647 19.3442 2.88711 20.4496 2.88711C21.4929 2.88711 22.5176 2.98026 23.5112 3.16036C24.6042 3.34666 25.6661 3.63854 26.6784 4.02978C27.8211 4.46449 28.9141 5.01099 29.9263 5.66927H31.2864C29.9698 4.68806 28.5228 3.89316 26.9703 3.3094ZM3.32196 16.5992C3.57037 15.4503 3.94298 14.3449 4.41495 13.2954C4.89934 12.1962 5.49552 11.1653 6.19727 10.2027C6.57609 9.67483 6.97975 9.1718 7.41446 8.69362V7.55716C6.73755 8.24028 6.11654 8.97929 5.55141 9.76798C4.81861 10.774 4.19759 11.8546 3.69457 13.0035C3.20397 14.1027 2.81894 15.2578 2.55811 16.4563C2.31591 17.5245 2.17308 18.6237 2.13582 19.7539C2.1234 19.9837 2.11719 20.2135 2.11719 20.4433C2.11719 21.412 2.19171 22.3622 2.34075 23.2937C2.54569 24.6165 2.89346 25.8958 3.37164 27.1068C3.82498 28.2805 4.39632 29.3921 5.07944 30.4354C5.68182 31.3732 6.37736 32.2488 7.14742 33.0499C7.23437 33.1431 7.32752 33.2362 7.41446 33.3169V32.1929C6.78723 31.5036 6.22211 30.7708 5.71909 29.9883C5.06702 28.9884 4.51431 27.9203 4.0796 26.7963C3.62626 25.635 3.29712 24.4116 3.1046 23.1447C2.96177 22.2628 2.89346 21.3624 2.89346 20.4433C2.89346 20.2135 2.89967 19.9837 2.91209 19.7539C2.94935 18.6734 3.08597 17.6176 3.32196 16.5992ZM29.9015 35.2359C29.1873 35.6954 28.4421 36.0991 27.6658 36.4469C26.4921 36.9809 25.2439 37.3908 23.9459 37.6454C22.8157 37.8814 21.6482 37.9994 20.4496 37.9994C19.3131 37.9994 18.2077 37.8938 17.1334 37.6827C15.9534 37.4591 14.817 37.1176 13.7364 36.6704C12.8484 36.304 11.9914 35.8631 11.184 35.3539H9.79296C10.9232 36.1674 12.1466 36.8505 13.4507 37.3908C14.5748 37.8566 15.7609 38.2168 16.9905 38.4465C18.1084 38.6639 19.2697 38.7757 20.4496 38.7757C21.6979 38.7757 22.915 38.6515 24.095 38.4093C25.4488 38.1422 26.7467 37.7199 27.9763 37.161C29.1438 36.6332 30.2493 35.9873 31.2677 35.2359H29.9015ZM38.7572 19.7539C38.7199 18.5554 38.5585 17.3879 38.2914 16.2576C37.9995 14.9845 37.571 13.7673 37.0245 12.6122C36.5091 11.5192 35.8819 10.4821 35.1677 9.51957C34.5343 8.66257 33.8263 7.86767 33.0562 7.14108C32.9507 7.04171 32.8451 6.94235 32.7333 6.8492V7.91735C33.3854 8.54457 33.9816 9.22769 34.5281 9.96049C35.2112 10.8796 35.8136 11.8732 36.3042 12.9227C36.832 14.0219 37.2481 15.1895 37.5276 16.4066C37.7884 17.4872 37.9436 18.605 37.9809 19.7539C37.9933 19.9837 37.9995 20.2135 37.9995 20.4433C37.9995 21.2941 37.9374 22.1324 37.8132 22.9522C37.6518 24.1445 37.3599 25.2934 36.9624 26.3988C36.5402 27.5725 35.9999 28.6842 35.3416 29.7275C34.7454 30.69 34.0499 31.5905 33.2798 32.4165L33.4785 32.4599V33.3356C34.4287 32.373 35.2671 31.3111 35.9874 30.1622C36.6706 29.0754 37.2419 27.9141 37.6828 26.6907C38.0989 25.5418 38.4094 24.337 38.5833 23.0888C38.7137 22.2256 38.7758 21.3437 38.7758 20.4433C38.7758 20.2135 38.7758 19.9837 38.7572 19.7539Z" fill="white"/>
<path d="M18.7358 6.15363H9.51367V7.16588H18.7358V6.15363Z" fill="white"/>
<path d="M34.7847 19.7539C34.7413 18.8161 34.6108 17.9032 34.3873 17.0214C34.1513 16.034 33.8035 15.0838 33.3688 14.1896C32.9589 13.3388 32.4621 12.5314 31.9032 11.7862C31.4002 11.1279 30.8475 10.5193 30.2451 9.95422C30.0712 9.79275 29.8911 9.63129 29.711 9.48224C29.5868 9.61887 29.4502 9.76791 29.3012 9.93559C29.475 10.0722 29.6489 10.2275 29.8166 10.3827C30.3941 10.923 30.922 11.513 31.4002 12.1402C31.9405 12.8482 32.4124 13.612 32.8099 14.4255C33.226 15.2825 33.5613 16.1892 33.7911 17.1394C34.0022 17.984 34.1327 18.8596 34.1761 19.7539C34.1886 19.9836 34.1948 20.2134 34.1948 20.4432C34.1948 21.058 34.1513 21.6666 34.0706 22.2628C33.9526 23.2005 33.729 24.1072 33.4247 24.9766C33.1018 25.9019 32.6857 26.79 32.1827 27.6097C31.6548 28.4605 31.04 29.2616 30.3507 29.9758C30.4687 30.1559 30.5804 30.3298 30.6922 30.4975C31.4499 29.7212 32.1206 28.8704 32.6857 27.9451C33.2136 27.0881 33.6545 26.169 33.9898 25.2064C34.3128 24.2997 34.5425 23.3496 34.6667 22.3683C34.7599 21.7411 34.8034 21.0953 34.8034 20.4432C34.8034 20.2134 34.7972 19.9836 34.7847 19.7539ZM25.159 33.3541C24.5317 33.5839 23.8797 33.7702 23.2152 33.9068C22.3209 34.0931 21.3956 34.1863 20.4517 34.1863C20.0853 34.1863 19.7189 34.1739 19.3587 34.1428V34.7514C19.7189 34.7825 20.0853 34.7949 20.4517 34.7949C21.4391 34.7949 22.4017 34.6955 23.3332 34.503C24.0722 34.354 24.7864 34.149 25.4819 33.882L25.159 33.3541ZM7.08117 17.2884C7.27989 16.3942 7.57798 15.5372 7.9568 14.7236C8.34183 13.8728 8.8138 13.0717 9.36651 12.3265C9.49692 12.1526 9.62734 11.9787 9.76396 11.8048V10.8609C9.44103 11.2211 9.14294 11.5937 8.85727 11.9787C8.28594 12.7612 7.78913 13.5996 7.38547 14.4939C6.99422 15.3446 6.68372 16.2451 6.47257 17.1766C6.27384 18.0088 6.14964 18.872 6.11238 19.7539C6.09996 19.9836 6.09375 20.2134 6.09375 20.4432C6.09375 21.1512 6.14343 21.8467 6.249 22.5298C6.39805 23.5669 6.65888 24.573 7.02528 25.5293C7.37304 26.4546 7.82018 27.3365 8.35425 28.1624C8.76412 28.8145 9.2361 29.4355 9.76396 30.0131V29.0753C9.43482 28.6717 9.13052 28.2556 8.85106 27.8147C8.34804 27.026 7.92575 26.1752 7.5904 25.2871C7.24263 24.3742 6.99422 23.4117 6.85139 22.4118C6.75824 21.7722 6.70856 21.1139 6.70856 20.4432C6.70856 20.2134 6.70856 19.9836 6.72719 19.7539C6.76445 18.9093 6.88244 18.0833 7.08117 17.2884ZM25.5005 7.00439C24.6746 6.69388 23.8176 6.45789 22.9295 6.30885C22.1222 6.16601 21.2962 6.09149 20.4517 6.09149C20.0791 6.09149 19.7189 6.10391 19.3587 6.13496V6.74977C19.7189 6.71251 20.0853 6.70009 20.4517 6.70009C21.259 6.70009 22.0539 6.7684 22.8239 6.91123C23.6685 7.05407 24.4883 7.27763 25.277 7.56951C25.5067 7.65645 25.7303 7.74961 25.9477 7.84276V7.18448C25.7986 7.12238 25.6496 7.06028 25.5005 7.00439Z" fill="white" stroke="white" stroke-width="0.75" stroke-miterlimit="10"/>
<path d="M53.4922 26.0479V25.4736C54.0482 25.4326 54.3604 25.3962 54.4287 25.3643C54.4788 25.3415 54.5153 25.3118 54.5381 25.2754C54.5837 25.2116 54.6201 25.0749 54.6475 24.8652C54.6976 24.5052 54.7249 23.8398 54.7295 22.8691L54.7363 20.292C54.7363 19.4717 54.7227 18.7858 54.6953 18.2344C54.6725 17.6829 54.6383 17.3617 54.5928 17.2705C54.5654 17.2113 54.5199 17.1657 54.4561 17.1338C54.3604 17.0882 54.0391 17.054 53.4922 17.0312V16.457C54.3125 16.4889 55.0439 16.5049 55.6865 16.5049C56.4567 16.5049 57.1859 16.4889 57.874 16.457V17.0312C57.2998 17.0723 56.9671 17.1224 56.876 17.1816C56.7894 17.2409 56.737 17.3844 56.7188 17.6123C56.696 17.8994 56.6823 19.0479 56.6777 21.0576H56.7734C57.2337 20.6885 57.8968 20.071 58.7627 19.2051C59.6286 18.3346 60.2985 17.61 60.7725 17.0312L60.7793 16.7783L60.7725 16.5254L60.834 16.457C61.3307 16.4889 61.7546 16.5049 62.1055 16.5049C62.4746 16.5049 62.8893 16.4889 63.3496 16.457V17.0312L62.96 17.0723C62.6501 17.1042 62.4495 17.1383 62.3584 17.1748C62.1761 17.2568 61.9323 17.4255 61.627 17.6807C61.1712 18.0589 60.5947 18.5785 59.8975 19.2393L58.6807 20.3877L59.3096 21.1602C60.0524 22.0716 60.9388 23.1061 61.9688 24.2637C62.5612 24.929 62.9167 25.2959 63.0352 25.3643C63.1172 25.4098 63.3337 25.4463 63.6846 25.4736V26.0479L63.3223 26.0342L62.1055 26C61.7773 26 61.3535 26.016 60.834 26.0479C60.4648 25.5739 59.8405 24.8151 58.9609 23.7715C58.3047 22.9876 57.6781 22.2767 57.0811 21.6387C57.0036 21.5566 56.9489 21.5088 56.917 21.4951C56.8896 21.486 56.8623 21.4814 56.835 21.4814C56.7666 21.4814 56.7188 21.5088 56.6914 21.5635C56.6777 21.5999 56.6709 21.7822 56.6709 22.1104L56.6982 24.1816C56.7074 24.7878 56.7324 25.1364 56.7734 25.2275C56.8008 25.2913 56.8464 25.3369 56.9102 25.3643C57.0013 25.4053 57.3226 25.4417 57.874 25.4736V26.0479C57.1995 26.016 56.4521 26 55.6318 26C55.2171 26 54.5039 26.016 53.4922 26.0479ZM64.3271 25.4258C64.7555 25.403 65.0199 25.3597 65.1201 25.2959C65.1885 25.2503 65.2956 25.0771 65.4414 24.7764C65.7194 24.1839 66.0749 23.3613 66.5078 22.3086L68.9277 16.3818H69.9326L73.0225 23.7236C73.4235 24.6761 73.6696 25.1979 73.7607 25.2891C73.8564 25.3802 74.1458 25.4417 74.6289 25.4736V26.0479C73.8861 26.016 73.1842 26 72.5234 26C71.735 26 70.9854 26.016 70.2744 26.0479V25.4736C70.8167 25.4508 71.1289 25.4212 71.2109 25.3848C71.2975 25.3438 71.3408 25.2731 71.3408 25.1729C71.3408 25.0863 71.2451 24.79 71.0537 24.2842L70.6025 23.1152C70.0374 23.1061 69.4062 23.1016 68.709 23.1016C68.1029 23.1016 67.5514 23.1061 67.0547 23.1152L66.7539 23.9014C66.6719 24.1156 66.5716 24.4346 66.4531 24.8584C66.4258 24.9541 66.4121 25.0407 66.4121 25.1182C66.4121 25.223 66.4554 25.2982 66.542 25.3438C66.6331 25.3848 66.9544 25.4281 67.5059 25.4736V26.0479C67.0592 26.016 66.5033 26 65.8379 26C65.2044 26 64.7008 26.016 64.3271 26.0479V25.4258ZM68.8115 18.8018L67.3691 22.3086C67.7884 22.3314 68.251 22.3428 68.7568 22.3428C69.2855 22.3428 69.7913 22.3314 70.2744 22.3086L68.8115 18.8018ZM85.9902 17.0312C85.3796 17.054 85.015 17.111 84.8965 17.2021C84.778 17.2933 84.7188 18.3734 84.7188 20.4424C84.7188 20.5153 84.7256 21.0531 84.7393 22.0557L84.7598 24.2568C84.7643 24.7262 84.7803 25.0111 84.8076 25.1113C84.8395 25.207 84.876 25.2731 84.917 25.3096C84.958 25.3415 85.0218 25.3688 85.1084 25.3916C85.195 25.4144 85.4889 25.4417 85.9902 25.4736V26.0479C85.8809 26.0479 85.6302 26.041 85.2383 26.0273C84.6686 26.0091 84.2334 26 83.9326 26C83.2354 26 82.4287 26.016 81.5127 26.0479V25.4736C82.137 25.4463 82.4902 25.3916 82.5723 25.3096C82.6543 25.2275 82.7067 24.8516 82.7295 24.1816C82.7568 23.5072 82.7705 22.0124 82.7705 19.6973L82.7227 17.3047L81.8545 17.2568C81.777 17.2523 81.679 17.25 81.5605 17.25H79.708L78.5459 17.3047C78.5459 17.5098 78.5391 17.8219 78.5254 18.2412C78.5026 19.0205 78.4912 19.6745 78.4912 20.2031C78.4912 22.4499 78.5026 23.8398 78.5254 24.373C78.5482 24.9062 78.5983 25.2116 78.6758 25.2891C78.7578 25.3665 79.1156 25.4281 79.749 25.4736V26.0479C79.7354 26.0479 79.6009 26.0433 79.3457 26.0342C78.5801 26.0114 78.0127 26 77.6436 26C77.3975 26 76.6068 26.016 75.2715 26.0479V25.4736C75.8685 25.4463 76.2057 25.4076 76.2832 25.3574C76.3652 25.3027 76.4245 25.1729 76.4609 24.9678C76.4974 24.7581 76.5156 24.1475 76.5156 23.1357C76.5156 20.3968 76.5088 18.7425 76.4951 18.1729C76.486 17.6032 76.4427 17.2819 76.3652 17.209C76.2878 17.1315 75.9232 17.0723 75.2715 17.0312V16.457C76.3379 16.498 77.1696 16.5186 77.7666 16.5186H83.502C84.0898 16.5186 84.9193 16.498 85.9902 16.457V17.0312ZM97.7822 16.457V17.0312C97.1396 17.054 96.766 17.1201 96.6611 17.2295C96.5609 17.3343 96.5107 18.3688 96.5107 20.333C96.5107 22.4795 96.5221 23.8239 96.5449 24.3662C96.5723 24.9085 96.6247 25.2184 96.7021 25.2959C96.7796 25.3688 97.1396 25.4281 97.7822 25.4736V26.0479C97.7686 26.0479 97.6341 26.0433 97.3789 26.0342C96.6133 26.0114 96.0459 26 95.6768 26C95.4307 26 94.64 26.016 93.3047 26.0479V25.4736C93.9427 25.4554 94.3118 25.3984 94.4121 25.3027C94.5124 25.2025 94.5625 24.4733 94.5625 23.1152L94.5967 19.2939C94.5967 19.0798 94.5853 18.6787 94.5625 18.0908L93.6738 19.5879C92.3704 21.8027 91.4727 23.2679 90.9805 23.9834C90.4928 24.6989 89.9505 25.387 89.3535 26.0479C88.752 26.139 88.3646 26.2051 88.1914 26.2461L88.0752 26.1436C88.139 25.4326 88.1709 23.6165 88.1709 20.6953C88.1709 18.5306 88.1367 17.3867 88.0684 17.2637C88.0046 17.1361 87.6172 17.0586 86.9062 17.0312V16.457C87.877 16.4935 88.5264 16.5117 88.8545 16.5117C89.8252 16.5117 90.6683 16.4935 91.3838 16.457V17.0312C90.7367 17.054 90.363 17.1201 90.2627 17.2295C90.167 17.3389 90.1191 18.3506 90.1191 20.2646C90.1191 20.6201 90.1396 21.8027 90.1807 23.8125L91.0488 22.459C92.4434 20.2852 93.6374 18.3005 94.6309 16.5049L95.2324 16.5117C96.2077 16.5117 97.0576 16.4935 97.7822 16.457ZM100.571 26.0479V25.4736C100.831 25.4736 101.102 25.4508 101.385 25.4053C101.517 25.3825 101.61 25.346 101.665 25.2959C101.72 25.2412 101.761 25.1432 101.788 25.002C101.82 24.806 101.847 24.0859 101.87 22.8418C101.884 21.9577 101.891 21.0553 101.891 20.1348C101.891 18.3255 101.884 17.4049 101.87 17.373C101.861 17.3366 101.701 17.3184 101.392 17.3184C100.758 17.3184 100.214 17.3366 99.7578 17.373C99.4935 17.3958 99.3431 17.4186 99.3066 17.4414C99.2747 17.4642 99.2497 17.5052 99.2314 17.5645C99.2132 17.6191 99.1745 18.0179 99.1152 18.7607H98.5273C98.5365 17.8903 98.5114 17.1406 98.4521 16.5117L98.5273 16.457C99.9629 16.5208 101.36 16.5527 102.718 16.5527C104.071 16.5527 105.587 16.5208 107.264 16.457L107.339 16.5664C107.252 17.1908 107.191 17.9222 107.154 18.7607H106.587C106.546 17.9997 106.505 17.5872 106.464 17.5234C106.432 17.4733 106.359 17.4391 106.245 17.4209C105.881 17.3617 105.156 17.332 104.071 17.332C103.98 17.332 103.925 17.3457 103.907 17.373C103.889 17.4049 103.88 17.5257 103.88 17.7354L103.839 22.3291C103.839 23.6598 103.85 24.4779 103.873 24.7832C103.896 25.084 103.951 25.2663 104.037 25.3301C104.096 25.3711 104.454 25.4189 105.11 25.4736V26.0479C104.44 26.016 103.729 26 102.978 26C101.989 26 101.187 26.016 100.571 26.0479ZM108.508 26.0479V25.6787C108.749 25.5693 108.97 25.4417 109.171 25.2959C109.262 24.585 109.308 23.0902 109.308 20.8115C109.308 19.2575 109.292 18.2275 109.26 17.7217C109.246 17.4528 109.198 17.2842 109.116 17.2158C109.039 17.1429 108.701 17.0814 108.104 17.0312V16.457C109.18 16.498 110.03 16.5186 110.654 16.5186L114.421 16.4775C114.817 16.4775 115.175 16.4935 115.494 16.5254L115.542 16.6006C115.442 17.0973 115.369 17.7581 115.323 18.583H114.783C114.76 17.9176 114.733 17.5622 114.701 17.5166C114.674 17.471 114.571 17.4277 114.394 17.3867C114.015 17.3047 113.437 17.2637 112.657 17.2637C112.274 17.2637 111.828 17.2796 111.317 17.3115C111.258 18.7197 111.224 19.8408 111.215 20.6748C111.702 20.7067 112.16 20.7227 112.589 20.7227C113.222 20.7227 113.603 20.7021 113.73 20.6611C113.808 20.6338 113.863 20.5677 113.895 20.4629C113.922 20.3809 113.954 20.0938 113.99 19.6016H114.578C114.555 20.3717 114.544 20.873 114.544 21.1055L114.578 22.6436H113.99C113.958 22.0465 113.917 21.7025 113.867 21.6113C113.84 21.5566 113.778 21.5179 113.683 21.4951C113.455 21.445 112.942 21.4199 112.145 21.4199C111.894 21.4199 111.6 21.4336 111.263 21.4609C111.254 21.7025 111.249 21.9486 111.249 22.1992C111.249 23.5026 111.272 24.5052 111.317 25.207L112.671 25.2275C113.441 25.2275 114.145 25.1865 114.783 25.1045C114.897 24.6852 115.007 24.209 115.111 23.6758H115.679C115.574 24.4779 115.512 25.248 115.494 25.9863C115.079 26.0319 114.681 26.0547 114.298 26.0547C114.047 26.0547 113.553 26.0456 112.814 26.0273C112.126 26.0091 111.493 26 110.914 26C110.153 26 109.351 26.016 108.508 26.0479ZM123.103 17.3047L122.241 17.2568C122.164 17.2523 122.063 17.25 121.94 17.25H120.983L120.621 17.2705C120.243 17.2796 119.99 17.2887 119.862 17.2979C119.844 17.512 119.821 18.0293 119.794 18.8496C119.744 20.4401 119.685 21.6592 119.616 22.5068C119.548 23.3499 119.407 24.0449 119.192 24.5918C118.983 25.1341 118.689 25.5352 118.311 25.7949C117.937 26.0547 117.497 26.1846 116.991 26.1846C116.763 26.1846 116.506 26.1527 116.219 26.0889C116.242 25.9339 116.253 25.7881 116.253 25.6514C116.253 25.4053 116.242 25.1113 116.219 24.7695L116.403 24.6807C116.768 25.0863 117.119 25.2891 117.456 25.2891C117.903 25.2891 118.229 25.0247 118.434 24.4961C118.643 23.9674 118.787 22.9512 118.864 21.4473C118.942 19.9388 118.98 18.7767 118.98 17.9609C118.98 17.528 118.933 17.2751 118.837 17.2021C118.746 17.1247 118.381 17.0677 117.743 17.0312V16.457C118.586 16.4935 119.37 16.5117 120.095 16.5117H123.882C124.515 16.5117 125.347 16.4935 126.377 16.457V17.0312C125.826 17.0632 125.504 17.0973 125.413 17.1338C125.326 17.1702 125.265 17.2295 125.229 17.3115C125.197 17.389 125.167 17.8516 125.14 18.6992C125.117 19.5423 125.105 20.1393 125.105 20.4902C125.105 20.5632 125.11 21.1032 125.119 22.1104L125.146 24.291C125.151 24.7376 125.167 25.0111 125.194 25.1113C125.226 25.2116 125.263 25.2799 125.304 25.3164C125.345 25.3483 125.409 25.3757 125.495 25.3984C125.586 25.4167 125.88 25.4417 126.377 25.4736V26.0479C126.268 26.0479 126.017 26.041 125.625 26.0273C125.055 26.0091 124.62 26 124.319 26C123.618 26 122.811 26.016 121.899 26.0479V25.4736C122.524 25.4463 122.877 25.3916 122.959 25.3096C123.041 25.2275 123.093 24.8516 123.116 24.1816C123.144 23.5072 123.157 22.0101 123.157 19.6904L123.103 17.3047ZM127.901 26.0479V25.7266C128.175 25.5625 128.373 25.4212 128.496 25.3027C128.551 24.8242 128.578 23.3454 128.578 20.8662C128.578 18.5602 128.519 17.3503 128.4 17.2363C128.286 17.1178 127.929 17.0495 127.327 17.0312V16.457C128.211 16.4935 128.936 16.5117 129.501 16.5117C130.335 16.5117 131.103 16.4935 131.805 16.457V17.0312C131.18 17.0723 130.827 17.1247 130.745 17.1885C130.663 17.2523 130.606 17.4482 130.574 17.7764C130.547 18.0999 130.533 18.9772 130.533 20.4082C130.688 20.4082 130.884 20.4036 131.121 20.3945C131.354 20.3854 131.531 20.3809 131.654 20.3809C132.971 20.3809 133.924 20.6292 134.512 21.126C135.1 21.6182 135.394 22.238 135.394 22.9854C135.394 23.5869 135.227 24.1156 134.895 24.5713C134.562 25.027 134.138 25.387 133.623 25.6514C133.108 25.9111 132.336 26.041 131.306 26.041C131.105 26.041 130.804 26.0342 130.403 26.0205C130.043 26.0068 129.784 26 129.624 26C129.223 26 128.649 26.016 127.901 26.0479ZM130.54 25.2686C130.777 25.3369 131.021 25.3711 131.271 25.3711C132.616 25.3711 133.288 24.6305 133.288 23.1494C133.288 22.7028 133.206 22.3223 133.042 22.0078C132.878 21.6888 132.65 21.4655 132.358 21.3379C132.071 21.2057 131.688 21.1396 131.21 21.1396L130.533 21.1465C130.524 21.4473 130.52 22.2471 130.52 23.5459C130.52 24.3936 130.526 24.9678 130.54 25.2686Z" fill="white"/>
</svg>
