<svg width="33" height="33" viewBox="0 0 33 33" fill="none" xmlns="http://www.w3.org/2000/svg">
<path d="M1.07123 31.4074H1.01953C1.03705 31.4082 1.05459 31.4082 1.07123 31.4082C1.12556 31.4082 1.17989 31.4065 1.23509 31.4056C1.17989 31.4065 1.12556 31.4074 1.07123 31.4074ZM27.6042 7.33362C27.8583 7.33362 28.1132 7.33449 28.3682 7.33449C28.5873 7.33362 28.808 7.33362 29.0271 7.33362H27.6042ZM28.8536 32.4511C28.2675 32.4511 27.6813 32.4529 27.0951 32.4529C27.6813 32.4529 28.2675 32.452 28.8536 32.452C29.4179 32.452 29.9821 32.452 30.5464 32.452C29.9821 32.452 29.4187 32.452 28.8536 32.452V32.4511Z" fill="white"/>
<path d="M32.5208 12.9804C32.463 12.7105 32.2834 12.5699 32.0074 12.5707C31.7305 12.5716 31.5509 12.7122 31.4966 12.9839C31.4738 13.0992 31.4843 13.2223 31.4843 13.342V25.1806C31.4843 26.0505 31.3599 26.1728 30.4741 26.1728C23.3911 26.1728 16.3073 26.1719 9.2244 26.1728C9.09385 26.1728 8.94315 26.137 8.83626 26.1894C8.68206 26.2637 8.48665 26.3816 8.4446 26.5222C8.39728 26.6794 8.4481 26.9283 8.55499 27.0515C8.654 27.1659 8.88358 27.2105 9.05618 27.2122C10.4659 27.2236 11.8757 27.2218 13.2863 27.2148C13.4712 27.2148 13.6017 27.2559 13.6745 27.4314C13.9242 28.0385 14.1747 28.6464 14.4385 29.2875C13.0191 29.4473 11.9782 29.9801 11.5874 31.4056H3.92973C3.82021 31.4056 3.70893 31.3969 3.60204 31.4126C3.31028 31.4554 3.15606 31.6336 3.15431 31.9244C3.15256 32.2162 3.30502 32.3961 3.59503 32.4432C3.70192 32.4607 3.81319 32.4511 3.92271 32.4511C10.4046 32.4511 16.8865 32.4511 23.3684 32.4511C23.4884 32.4511 23.6312 32.4852 23.7232 32.4319C23.8722 32.3463 24.0535 32.2223 24.0982 32.0773C24.1429 31.9297 24.0877 31.6956 23.9861 31.575C23.8932 31.4659 23.6794 31.4152 23.5182 31.4126C22.6665 31.3977 21.8149 31.4056 20.9493 31.4056C20.5935 29.9531 19.5159 29.443 18.1017 29.2849C18.3541 28.6595 18.5906 28.0778 18.8237 27.4943C18.9131 27.2716 19.0664 27.2122 19.3065 27.2131C23.0994 27.2209 26.8923 27.2192 30.6852 27.2183C31.8645 27.2183 32.5331 26.5501 32.5331 25.3745C32.5339 21.3514 32.5339 17.3292 32.5331 13.3062C32.5331 13.1979 32.5427 13.0852 32.5208 12.9804ZM17.7302 27.2367C17.4928 27.911 17.2545 28.5888 17.0056 29.2945H15.5284C15.2822 28.5957 15.0448 27.9223 14.8038 27.2367H17.7302ZM18.4478 30.3671C19.0918 30.3741 19.6113 30.789 19.7936 31.3864H12.7387C12.9279 30.7846 13.4458 30.3741 14.0889 30.3671C15.5416 30.3514 16.9951 30.3514 18.4478 30.3671Z" fill="white"/>
<path d="M24.1359 18.2123C24.1359 13.7866 24.1385 9.36087 24.1298 4.93515C24.1298 4.71591 24.0772 4.47747 23.9808 4.28181C23.3447 2.99262 22.6868 1.7139 22.0419 0.429072C21.9306 0.207218 21.7922 0.0499992 21.5223 0.0569867C21.2621 0.0631007 21.1009 0.198484 20.9887 0.422084C20.3325 1.72613 19.6692 3.02581 19.0209 4.33335C18.9376 4.50105 18.8956 4.70631 18.8947 4.8941C18.8877 8.14242 18.8894 11.3907 18.8894 14.6391C18.8894 15.8933 18.871 17.1467 18.8956 18.4001C18.935 20.3924 21.1245 21.5951 22.8313 20.5662C22.9785 20.4771 23.1275 20.2832 23.1502 20.1208C23.2168 19.65 22.7656 19.4133 22.2968 19.6648C21.6739 20.0002 21.0737 19.9775 20.5191 19.5469C19.947 19.1015 19.8795 18.4787 19.9636 17.807H23.0889C23.0889 18.0376 23.0793 18.242 23.0907 18.4464C23.1082 18.7608 23.3272 18.9897 23.5927 18.9905C23.8696 18.9914 24.1175 18.7416 24.135 18.4411C24.1403 18.3652 24.1359 18.2892 24.1359 18.2123ZM21.5136 1.68595C21.9473 2.55153 22.3477 3.34811 22.763 4.17613H20.2633C20.6794 3.34636 21.0799 2.54978 21.5136 1.68595ZM23.0609 16.7301H19.9592V15.7116H23.0609V16.7301ZM23.0714 14.6347H22.0375V14.2932C22.0375 12.5935 22.0358 10.8938 22.0393 9.19491C22.0393 8.94162 22.0086 8.70928 21.7484 8.58962C21.3515 8.40707 20.9914 8.66212 20.9896 9.13552C20.9852 10.3776 20.9887 11.6196 20.9887 12.8616C20.9879 13.4477 20.9887 14.0338 20.9887 14.6399H19.9549V5.26618H20.9887C20.9887 5.70115 20.9861 6.14399 20.9887 6.58595C20.9914 7.01743 21.1622 7.22094 21.5162 7.21919C21.8684 7.21745 22.0349 7.01568 22.0366 6.57983C22.0393 6.14661 22.0375 5.71251 22.0375 5.25657H23.0714V14.6347Z" fill="white"/>
<path d="M13.6426 3.0494V19.1076C13.6426 20.2955 12.9925 20.9383 11.7939 20.9392C11.2147 20.9392 10.6347 20.9444 10.0556 20.9374C9.10319 20.9278 8.39876 20.23 8.39788 19.2788C8.3935 14.4932 8.39525 9.70675 8.397 4.92118C8.397 4.51066 8.56872 4.31239 8.91042 4.30802C9.26615 4.30366 9.44402 4.50717 9.44402 4.93515C9.44402 9.64474 9.44402 14.3543 9.44402 19.0639C9.44402 19.726 9.61137 19.8928 10.2773 19.8928H11.687C12.4834 19.8928 12.6639 19.6849 12.5614 18.8456C12.0611 18.8456 11.581 18.849 11.1008 18.8447C10.7039 18.8412 10.4928 18.6534 10.4954 18.3171C10.4989 17.9835 10.7083 17.8035 11.1114 17.8009C11.5906 17.7966 12.0699 17.8 12.5711 17.8V15.7064C12.0865 15.7064 11.609 15.7082 11.1315 15.7055C10.7066 15.7029 10.4919 15.5212 10.4954 15.1762C10.4998 14.833 10.7118 14.6627 11.1455 14.66C11.6143 14.6583 12.0822 14.66 12.5711 14.66V12.5664C12.1076 12.5664 11.6511 12.5673 11.1955 12.5664C10.7127 12.5655 10.4902 12.3961 10.4954 12.0345C10.5007 11.6842 10.7162 11.5218 11.1797 11.52C11.6371 11.5191 12.0944 11.52 12.5719 11.52V9.42638C12.0839 9.42638 11.6064 9.429 11.128 9.42551C10.7057 9.42289 10.4902 9.23859 10.4954 8.89271C10.5016 8.55905 10.7101 8.38437 11.1166 8.38087C11.595 8.37825 12.0743 8.38 12.5728 8.38V6.28724C12.0822 6.28724 11.6046 6.28898 11.1263 6.28636C10.7039 6.28374 10.4884 6.0977 10.4954 5.75095C10.5024 5.41817 10.7109 5.24435 11.1184 5.24173C11.5967 5.23824 12.076 5.24086 12.5737 5.24086V3.14722H11.4531C11.3102 3.14722 11.1683 3.15246 11.0264 3.1446C10.6856 3.12713 10.4884 2.92537 10.4954 2.61006C10.5024 2.30785 10.6943 2.11307 11.0211 2.10433C11.4364 2.09385 11.8526 2.10084 12.2679 2.10084H12.5912C12.5912 1.92615 12.5991 1.77679 12.5894 1.62918C12.5675 1.28505 12.3476 1.06319 11.9963 1.05795C11.3514 1.04747 10.7066 1.04835 10.0617 1.05708C9.67445 1.06232 9.45716 1.28505 9.44577 1.67198C9.43789 1.97681 9.44927 2.28252 9.44226 2.58822C9.43263 2.94022 9.246 3.13761 8.93233 3.1446C8.60639 3.15246 8.40401 2.94633 8.397 2.58211C8.38999 2.24409 8.38647 1.90606 8.39874 1.56804C8.4294 0.725174 9.11194 0.0351559 9.95744 0.01332C10.6566 -0.00502228 11.3567 -0.0032754 12.0559 0.0115731C12.9338 0.0307888 13.6198 0.728667 13.6391 1.60997C13.6496 2.08949 13.6417 2.56988 13.6417 3.0494H13.6426Z" fill="white"/>
<path d="M24.133 22.5122C24.1313 22.8031 23.9762 22.9821 23.6853 23.0241C23.567 23.0415 23.4452 23.0319 23.3243 23.0319C16.0451 23.0328 8.76507 23.0319 1.485 23.0319H1.05042V24.0827C1.05042 24.5404 1.04692 24.998 1.05042 25.4557C1.05481 25.951 1.2756 26.1684 1.77852 26.1711C2.37957 26.1754 2.98061 26.1693 3.58166 26.1737C3.98382 26.1763 4.19323 26.358 4.19585 26.6916C4.19761 27.027 3.98646 27.2148 3.58868 27.2174C2.98763 27.2218 2.38569 27.2209 1.78464 27.2183C0.692062 27.2139 0.00165498 26.53 0.000778815 25.4417C-0.000973518 21.4737 0.000778815 17.5057 0.000778815 13.5376C0.000778815 12.0659 -0.000973518 10.5941 0.000778815 9.12327C0.00253115 8.014 0.685948 7.33533 1.80394 7.33446C3.38892 7.33184 4.97391 7.33533 6.55889 7.33271C6.81736 7.33184 7.04254 7.38163 7.1468 7.6489C7.301 8.04369 7.05216 8.37647 6.59042 8.37822C5.44265 8.38346 4.29486 8.37997 3.14709 8.37997C2.69936 8.37997 2.25078 8.37822 1.80306 8.38084C1.26159 8.38346 1.05042 8.59396 1.05042 9.13724C1.04867 11.3933 1.05042 13.6503 1.05042 15.9064V21.9864H23.3322C23.4523 21.9864 23.574 21.9768 23.6923 21.9951C23.9832 22.0397 24.1348 22.2222 24.133 22.5122Z" fill="white"/>
<path d="M32.5316 10.885C32.5289 11.3069 32.344 11.5226 31.9988 11.5174C31.6563 11.513 31.4845 11.2999 31.4837 10.8684C31.481 10.2911 31.4845 9.71375 31.4819 9.1364C31.4802 8.59487 31.2699 8.38175 30.7301 8.38088C29.0917 8.37913 27.4533 8.37913 25.8157 8.38088C25.5581 8.38175 25.3356 8.33109 25.2278 8.06469C25.0754 7.68824 25.3137 7.34061 25.7474 7.33712C26.366 7.331 26.9854 7.33188 27.604 7.33362H28.368C29.0278 7.33362 29.6866 7.331 30.3464 7.33362C30.4953 7.33275 30.6443 7.33362 30.7932 7.3345C31.8236 7.34061 32.5219 8.03238 32.5307 9.05517C32.5359 9.66483 32.5342 10.2754 32.5307 10.885H32.5316Z" fill="white"/>
<path d="M32.5304 31.9174C32.5365 32.2423 32.3306 32.4476 31.9652 32.4493C31.4921 32.452 31.0198 32.452 30.5467 32.452C29.9825 32.452 29.4182 32.452 28.854 32.452C28.2678 32.452 27.6816 32.4528 27.0955 32.4528C26.6557 32.4528 26.2158 32.4528 25.776 32.4502C25.3432 32.4476 25.0987 32.1532 25.2073 31.7785C25.2853 31.5086 25.4842 31.4056 25.7532 31.4056C27.8271 31.4065 29.901 31.4038 31.9749 31.4082C32.3253 31.4091 32.5242 31.6047 32.5304 31.9174Z" fill="white"/>
<path d="M17.8391 7.84632C17.8452 8.17124 17.6393 8.37039 17.274 8.37825C17.0383 8.38349 16.8017 8.38174 16.5652 8.38087C16.4635 8.37999 16.3628 8.37912 16.2611 8.37912C16.0561 8.37912 15.8511 8.38174 15.6469 8.38174C15.5138 8.38174 15.3806 8.38087 15.2474 8.37737C14.8987 8.36951 14.7007 8.1791 14.6954 7.86641C14.6902 7.54149 14.8952 7.33973 15.2605 7.33623C15.9361 7.32925 16.6116 7.32925 17.2871 7.33623C17.6358 7.3406 17.8339 7.5345 17.8391 7.84632Z" fill="white"/>
<path d="M30.4212 20.1059C30.3774 20.4789 30.1768 20.7898 29.8027 20.8658C29.4469 20.9374 29.0667 20.9418 28.704 20.906C28.4323 20.8789 28.3193 20.6387 28.3404 20.3679C28.3623 20.0928 28.5226 19.9277 28.7968 19.9006C28.9782 19.8823 29.1631 19.8971 29.3874 19.8971C29.3874 19.6718 29.376 19.498 29.39 19.3259C29.4137 19.0281 29.6161 18.849 29.907 18.8481C30.1987 18.8481 30.4081 19.0255 30.4265 19.3233C30.4432 19.5836 30.4519 19.8482 30.4212 20.1059Z" fill="white"/>
<path d="M4.19166 9.99671C4.16976 10.2727 4.00852 10.4378 3.73341 10.4657C3.55204 10.4841 3.36717 10.4692 3.14463 10.4692C3.14463 10.6955 3.15601 10.8702 3.14199 11.0422C3.11659 11.3401 2.91069 11.5191 2.6198 11.5174C2.32891 11.5165 2.1239 11.3357 2.10463 11.037C2.08973 10.7985 2.08448 10.5566 2.10726 10.319C2.14493 9.92858 2.35608 9.60978 2.72932 9.51632C3.07891 9.42898 3.46355 9.42723 3.82629 9.46042C4.09877 9.484 4.21269 9.72682 4.19166 9.99671Z" fill="white"/>
<path d="M3.14514 13.6258C3.14514 13.8101 3.15652 13.9962 3.14251 14.1796C3.11885 14.4766 2.91646 14.6556 2.62645 14.6574C2.33644 14.6591 2.12004 14.4801 2.10689 14.1857C2.08937 13.8066 2.08937 13.4258 2.10689 13.0468C2.12004 12.7489 2.3303 12.5707 2.62119 12.569C2.91208 12.5672 3.11885 12.7445 3.14251 13.0398C3.15828 13.2337 3.14601 13.4302 3.14601 13.6258H3.14514Z" fill="white"/>
<path d="M2.09797 31.934C2.09534 32.2231 1.91485 32.4319 1.61607 32.445C1.23582 32.4607 0.853806 32.4625 0.474426 32.4441C0.178281 32.4293 0.00130662 32.2127 0.00393512 31.9227C0.00656363 31.6327 0.186177 31.4327 0.48495 31.4108C0.662812 31.3977 0.841539 31.4065 1.02115 31.4073H1.07285C1.12718 31.4073 1.18151 31.4073 1.23671 31.4056C1.35587 31.4039 1.47589 31.4021 1.59505 31.4091C1.91222 31.4292 2.10147 31.6318 2.09797 31.934Z" fill="white"/>
<path d="M7.34483 26.6899C7.34746 26.9799 7.16783 27.1877 6.87081 27.2122C6.68682 27.2279 6.49933 27.2157 6.31358 27.2157V27.2174C6.14974 27.2174 5.98589 27.2253 5.82204 27.2157C5.49436 27.1974 5.31125 27.0096 5.30862 26.7012C5.30599 26.3903 5.48648 26.1894 5.81066 26.1772C6.15938 26.1641 6.51072 26.1632 6.85943 26.1789C7.16083 26.1929 7.3422 26.399 7.34483 26.6899Z" fill="white"/>
<path d="M26.233 22.5079C26.233 22.7909 25.9955 23.0293 25.7116 23.0293C25.4278 23.0302 25.1895 22.7935 25.1895 22.5096C25.1886 22.2249 25.4243 21.989 25.7099 21.9882C25.9946 21.9882 26.2321 22.224 26.233 22.5079Z" fill="white"/>
<path d="M28.3328 22.5219C28.3258 22.8049 28.0804 23.0372 27.7974 23.0293C27.5136 23.0223 27.2814 22.7787 27.2893 22.4957C27.2971 22.2109 27.5398 21.9812 27.8237 21.9882C28.1085 21.9961 28.3406 22.2389 28.3328 22.5219Z" fill="white"/>
<path d="M30.4322 22.514C30.4287 22.797 30.1878 23.0328 29.9048 23.0293C29.62 23.0267 29.3852 22.7874 29.3887 22.5035C29.3913 22.2188 29.6305 21.9856 29.9153 21.9882C30.2 21.9917 30.4349 22.231 30.4322 22.514Z" fill="white"/>
</svg>
