<svg width="47" height="47" viewBox="0 0 47 47"  xmlns="http://www.w3.org/2000/svg">
<path d="M29.3219 46.7415H15.3564C15.1372 46.7196 14.9399 46.6977 14.7206 46.6758C13.3175 46.5223 11.8924 46.4565 10.5112 46.1715C5.46877 45.1192 2.15827 42.1595 0.777074 37.1389C0.0974358 34.6177 0.0316677 32.0307 0.00974391 29.4437C-0.0121799 25.3878 0.00974391 21.3099 0.00974391 17.254C0.00974391 14.974 0.0974391 12.7158 0.557839 10.4796C1.19363 7.23485 2.75021 4.58207 5.46877 2.63086C7.79269 0.964647 10.4455 0.241162 13.2298 0.17539C18.1407 0.0438476 23.0517 0 27.9845 0C30.6154 0 33.2462 0 35.8552 0.416552C41.2923 1.31543 44.9535 4.73554 46.1594 10.1069C46.5978 11.9923 46.6636 13.8997 46.7074 15.829C46.7074 16.4209 46.7513 17.0129 46.7951 17.6048V29.2902C46.7732 29.8383 46.7294 30.3864 46.7074 30.9126C46.6636 32.8199 46.5978 34.7492 46.1374 36.6128C44.9097 41.6114 41.8842 44.8123 36.8636 46.04C34.9563 46.5004 33.0051 46.5881 31.0758 46.6319C30.5057 46.6319 29.9357 46.6758 29.3438 46.7196L29.3219 46.7415ZM42.4762 22.6473C42.4762 22.6473 42.52 22.6473 42.5419 22.6473C42.5419 20.9372 42.5858 19.2053 42.5419 17.4952C42.4542 15.4344 42.4104 13.3516 42.1034 11.3127C41.5773 8.00219 39.648 5.78788 36.3594 4.93286C35.0221 4.58207 33.6409 4.34091 32.2816 4.29707C29.0588 4.16552 25.836 4.16552 22.6132 4.1436C20.2893 4.1436 17.9653 4.1436 15.6195 4.20937C13.9094 4.23129 12.2213 4.31899 10.5551 4.75747C7.81461 5.48095 5.92917 7.10331 5.0303 9.82186C4.35066 11.8827 4.17527 14.0312 4.17527 16.1798C4.13142 21.1126 4.13142 26.0455 4.17527 30.9783C4.17527 32.4692 4.32873 33.96 4.63567 35.4289C5.38108 39.0682 7.55153 41.3921 11.2786 42.0499C12.7913 42.3129 14.3479 42.4664 15.9045 42.4883C20.3331 42.5541 24.7617 42.5979 29.1903 42.5541C31.2292 42.5541 33.2681 42.4226 35.2851 42.1156C38.8587 41.5895 41.2703 39.3313 41.9938 35.8673C42.2788 34.5081 42.4542 33.1049 42.4762 31.7018C42.5419 28.6983 42.4981 25.6947 42.4981 22.7131L42.4762 22.6473Z" />
<path d="M23.3806 11.3574C30.0016 11.3574 35.351 16.6849 35.3948 23.3278C35.4386 29.9269 30.0892 35.3201 23.4463 35.3421C16.8034 35.364 11.4102 30.0146 11.4102 23.3497C11.4102 16.7068 16.7377 11.3574 23.3806 11.3574ZM23.4244 15.5668C19.1054 15.5668 15.6415 19.0088 15.6195 23.3059C15.6195 27.6249 19.0616 31.1108 23.3586 31.1327C27.6996 31.1327 31.1854 27.6907 31.1854 23.3717C31.1854 19.0527 27.7434 15.5887 23.4244 15.5668Z" />
<path d="M35.3728 6.64062C37.3898 6.64062 38.9903 8.19721 39.0122 10.2142C39.0341 12.2531 37.4337 13.8755 35.4167 13.8974C33.4216 13.8974 31.7773 12.297 31.7773 10.3238C31.7773 8.28491 33.3559 6.66255 35.3728 6.66255V6.64062Z" />
</svg>
