<svg width="40" height="40" viewBox="0 0 40 40" fill="none" xmlns="http://www.w3.org/2000/svg">
<path d="M1.26977 33.5659C2.56446 32.7493 3.79765 32.762 5.05947 33.548C5.06795 33.3946 5.07961 33.2824 5.07961 33.1703C5.07961 23.2221 5.08067 13.2728 5.07961 3.32457C5.07961 1.88481 3.93019 0.972929 2.609 1.35588C1.8413 1.57803 1.34718 2.23921 1.26129 3.08445C1.24008 3.29814 1.14041 3.57741 0.981352 3.68425C0.821239 3.7911 0.495713 3.80168 0.327118 3.70542C0.162763 3.61127 0.0217362 3.33304 0.0153741 3.13099C-0.048247 1.27866 1.75647 -0.259488 3.61421 0.0367156C5.25563 0.299068 6.34567 1.55053 6.34673 3.21985C6.35097 14.1709 6.35203 25.122 6.34673 36.0742C6.34673 37.9 4.96297 39.2816 3.17628 39.2827C1.40443 39.2827 0.00583348 37.9096 0.00477313 36.1165C-0.00264932 26.0223 0.000528623 15.9291 0.00158897 5.83491C0.00158897 5.74288 -0.00265528 5.64766 0.0185517 5.55986C0.094897 5.25307 0.298485 5.08806 0.61553 5.08065C0.94848 5.07325 1.17646 5.23192 1.24962 5.55986C1.28356 5.71113 1.26977 5.87511 1.26977 6.03274C1.26977 15.031 1.26977 24.0303 1.26977 33.0285C1.26977 33.1851 1.26977 33.3417 1.26977 33.567V33.5659ZM5.07855 36.1017C5.07219 35.0258 4.23451 34.206 3.15083 34.2165C2.08942 34.2261 1.27295 35.0491 1.27083 36.1101C1.26765 37.1881 2.09897 38.0175 3.1784 38.0164C4.25678 38.0143 5.08491 37.1807 5.07855 36.1027V36.1017Z" fill="white"/>
<path d="M25.3823 30.3881V29.1673C24.8861 29.0848 24.1852 29.3525 24.1375 28.5062C24.112 28.0544 24.3273 27.9508 25.3739 27.8545V26.6316C24.885 26.5502 24.1852 26.8178 24.1375 25.9715C24.112 25.5198 24.3262 25.4182 25.3739 25.3198V24.0969C24.884 24.0165 24.1852 24.2831 24.1375 23.4358C24.112 22.9851 24.3252 22.8836 25.3739 22.7852V21.5633C24.884 21.4829 24.1842 21.7495 24.1375 20.9022C24.112 20.4515 24.3241 20.351 25.3749 20.2516V19.0297C24.884 18.9494 24.1852 19.2159 24.1375 18.3686C24.1131 17.919 24.3231 17.8185 25.3749 17.718V15.2172C25.2668 15.342 25.1819 15.4288 25.1088 15.524C21.0551 20.7181 17.0024 25.9133 12.9497 31.1085C12.901 31.1709 12.8532 31.2344 12.8034 31.2958C12.4715 31.7157 12.1354 31.7951 11.795 31.537C11.4854 31.3011 11.4801 30.935 11.7961 30.5277C13.3696 28.5062 14.9464 26.4877 16.5221 24.4683C19.4794 20.679 22.4335 16.8886 25.4025 13.1078C25.5403 12.9311 25.7874 12.7809 26.0058 12.7396C26.3674 12.673 26.6325 12.9406 26.6654 13.3109C26.6749 13.4156 26.6686 13.5214 26.6686 13.6272C26.6686 21.0439 26.6686 28.4607 26.6686 35.8774C26.6686 36.6645 26.5127 36.8178 25.7132 36.8178C20.0117 36.8178 14.3112 36.8178 8.60972 36.8178C8.51747 36.8178 8.42416 36.8221 8.33191 36.8168C7.71372 36.7819 7.40728 36.2149 7.77204 35.7208C8.40719 34.8608 9.07203 34.0219 9.73581 33.1841C9.96591 32.8931 10.3201 32.8699 10.617 33.0899C10.8905 33.292 10.9552 33.6199 10.7389 33.932C10.4908 34.2885 10.2055 34.6207 9.93727 34.9634C9.81851 35.1147 9.69976 35.267 9.54707 35.4627H12.7016C12.7016 35.2691 12.6953 35.0766 12.7027 34.8851C12.7186 34.463 12.9455 34.2239 13.3262 34.2187C13.7079 34.2144 13.9486 34.4525 13.9677 34.8671C13.9761 35.0512 13.9687 35.2363 13.9687 35.4521H15.2411C15.2411 35.2564 15.2316 35.0502 15.2433 34.8449C15.2645 34.4525 15.4988 34.2229 15.8657 34.2187C16.2336 34.2144 16.4796 34.4419 16.5051 34.828C16.5178 35.0248 16.5072 35.2236 16.5072 35.4521H17.7807C17.7807 35.2564 17.7712 35.0502 17.7828 34.8449C17.804 34.4535 18.0384 34.2229 18.4063 34.2187C18.7742 34.2144 19.0202 34.4429 19.0446 34.8291C19.0574 35.0258 19.0467 35.2247 19.0467 35.4532H20.3202C20.3202 35.2564 20.3107 35.0502 20.3224 34.8449C20.3436 34.4535 20.579 34.2229 20.9458 34.2197C21.3138 34.2155 21.5587 34.444 21.5842 34.8301C21.5969 35.0269 21.5863 35.2258 21.5863 35.4532H22.8598C22.8598 35.2564 22.8502 35.0491 22.8619 34.8439C22.8831 34.4525 23.1185 34.2229 23.4854 34.2187C23.8533 34.2155 24.0983 34.4429 24.1237 34.8291C24.1364 35.0258 24.1258 35.2247 24.1258 35.4521H25.3717V34.2335C24.885 34.152 24.1842 34.4207 24.1364 33.5744C24.111 33.1206 24.3262 33.018 25.3728 32.9228V31.6999C24.885 31.6184 24.1842 31.8871 24.1364 31.0408C24.111 30.587 24.3241 30.4844 25.3813 30.3892L25.3823 30.3881Z" fill="white"/>
<path d="M30.475 19.0319C30.475 19.2656 30.4877 19.4751 30.4718 19.6824C30.4453 20.0495 30.2099 20.2685 29.8579 20.2759C29.4899 20.2833 29.2312 20.0559 29.2142 19.6719C29.1771 18.8414 29.2121 18.048 29.6479 17.2694C30.3891 15.9482 31.0243 14.5687 31.6976 13.2114C31.8471 12.911 32.0252 12.673 32.4017 12.6688C32.7749 12.6645 32.9212 12.9173 33.0612 13.2009C33.8225 14.7358 34.5987 16.2634 35.3462 17.8058C35.4724 18.0671 35.5477 18.3813 35.5477 18.6701C35.5594 23.6177 35.5604 28.5664 35.5541 33.5141C35.552 35.303 34.2477 36.6824 32.5268 36.7448C30.6765 36.8115 29.2185 35.4278 29.21 33.5659C29.1983 30.6367 29.2068 27.7074 29.2068 24.7782C29.2068 23.9467 29.2036 23.1152 29.2079 22.2848C29.21 21.8014 29.4337 21.5485 29.8409 21.5485C30.247 21.5485 30.4739 21.8024 30.475 22.2848C30.4782 24.409 30.4761 26.5332 30.4761 28.6574C30.4761 28.8013 30.4761 28.9452 30.4761 29.1187H31.722V19.0319H30.4729H30.475ZM33.0432 19.0202V29.1176H34.2562V19.0202H33.0432ZM30.5004 32.9682C30.404 33.8907 30.5418 34.6979 31.3986 35.2152C32.0698 35.6203 32.9371 35.5632 33.5596 35.0893C34.1714 34.6227 34.4397 33.7701 34.2276 32.9682H30.5004ZM34.2604 31.6639V30.4452H30.4994V31.6639H34.2604ZM33.9031 17.7381C33.392 16.7204 32.9085 15.7556 32.3826 14.7083C31.8556 15.762 31.3699 16.732 30.8663 17.7381H33.9031Z" fill="white"/>
<path d="M7.62052 10.1267C7.62052 7.44818 7.62052 4.76965 7.62052 2.09007C7.62052 0.779363 8.40095 0.00816841 9.72321 0.00711054C12.1302 0.00605267 14.5383 0.00605267 16.9453 0.00711054C18.2686 0.00711054 19.0479 0.778306 19.049 2.09112C19.0501 6.59131 19.049 11.0904 19.049 15.5906C19.049 15.67 19.0522 15.7493 19.0469 15.8276C19.0235 16.2412 18.7839 16.4803 18.4022 16.4739C18.0364 16.4686 17.8052 16.237 17.7819 15.8445C17.7745 15.726 17.7798 15.6075 17.7798 15.488C17.7798 11.0545 17.7798 6.61986 17.7798 2.18632C17.7798 1.43418 17.6218 1.27233 16.8837 1.27233C14.5033 1.27233 12.1217 1.27233 9.74123 1.27233C9.07108 1.27233 8.89082 1.45005 8.89082 2.11122C8.89082 7.46828 8.89082 12.8264 8.89082 18.1835C8.89082 18.8214 9.07851 19.0086 9.71684 19.0086C12.1376 19.0097 14.5573 19.0097 16.9781 19.0086C17.5475 19.0086 17.6981 18.8753 17.784 18.3178C17.8434 17.9327 18.0915 17.7222 18.4594 17.7455C18.8221 17.7677 19.0405 18.0142 19.0479 18.4077C19.0638 19.3598 18.2357 20.2569 17.2453 20.2653C14.6401 20.2876 12.0337 20.2897 9.42843 20.2653C8.42428 20.2558 7.62477 19.3598 7.62265 18.3199C7.61628 15.5885 7.62052 12.8571 7.62052 10.1257V10.1267Z" fill="white"/>
<path d="M38.0993 3.80802H37.5787C32.1433 3.80802 26.7079 3.80802 21.2736 3.80802C21.1156 3.80802 20.9513 3.82176 20.7997 3.78685C20.471 3.71174 20.3151 3.4822 20.3246 3.15003C20.3342 2.83478 20.5006 2.62954 20.8092 2.55973C20.9227 2.53434 21.0457 2.5428 21.1644 2.5428C26.9433 2.5428 32.7222 2.5428 38.5012 2.5428C39.1936 2.5428 39.3675 2.71629 39.3675 3.40602C39.3675 12.1134 39.3675 20.8207 39.3675 29.5291C39.3675 29.6084 39.3707 29.6878 39.3653 29.7661C39.342 30.1786 39.1013 30.4188 38.7207 30.4124C38.3548 30.4061 38.1237 30.1755 38.1004 29.783C38.0919 29.6518 38.0982 29.5196 38.0982 29.3873C38.0982 21.0354 38.0982 12.6846 38.0982 4.33272C38.0982 4.17615 38.0982 4.01959 38.0982 3.80802H38.0993Z" fill="white"/>
<path d="M21.6968 7.61212C22.2439 6.54155 23.1304 6.11628 24.1048 6.44422C24.5332 6.58809 24.863 6.8568 25.1005 7.24716C25.1546 7.33602 25.303 7.44815 25.3804 7.43017C26.4821 7.17099 27.5775 6.89065 28.7736 6.59127C28.5806 6.45375 28.4629 6.36489 28.3399 6.28344C28.044 6.08773 27.9306 5.74498 28.0727 5.46359C28.2126 5.18748 28.5922 5.03938 28.8944 5.22557C29.2825 5.46465 29.643 5.75979 29.9802 6.06869C30.1361 6.2115 30.24 6.26333 30.4542 6.20726C31.8454 5.84018 33.2345 5.45829 34.6394 5.15363C35.1834 5.03514 35.7687 5.07534 36.3328 5.09967C36.6424 5.11343 36.8121 5.36202 36.8237 5.67727C36.8354 6.00732 36.6806 6.23054 36.3551 6.32258C36.3169 6.33316 36.2766 6.34056 36.2374 6.33739C34.7751 6.20833 33.4359 6.78487 32.0469 7.07366C31.6089 7.16464 31.1795 7.2937 30.7511 7.40372V9.1143C32.5378 9.38512 34.2386 10.2293 36.1324 10.1489C36.5788 10.1298 36.829 10.389 36.8259 10.7815C36.8227 11.174 36.5714 11.3718 36.1218 11.4141C34.8748 11.5326 33.7254 11.102 32.5505 10.8164C31.8581 10.6482 31.1657 10.4768 30.4797 10.2843C30.2581 10.2219 30.1372 10.2589 29.9707 10.4261C29.6759 10.7223 29.343 10.9888 28.9931 11.2184C28.6368 11.4522 28.2741 11.3654 28.0918 11.0661C27.8839 10.7254 27.9783 10.4197 28.3643 10.1775C28.4745 10.1076 28.5795 10.0315 28.7736 9.89818C28.2794 9.77229 27.8691 9.66651 27.4577 9.5639C26.8045 9.39993 26.1534 9.2296 25.4971 9.0815C25.3878 9.05717 25.2002 9.09419 25.144 9.17142C24.1218 10.5816 22.5185 10.4599 21.6968 8.87205C21.4486 8.87205 21.1836 8.88579 20.9217 8.86887C20.5378 8.84454 20.313 8.58959 20.3226 8.22039C20.3321 7.86918 20.5527 7.63539 20.9227 7.61318C21.1857 7.59731 21.4497 7.61 21.6978 7.61L21.6968 7.61212ZM24.126 8.26059C24.1356 7.89563 23.8928 7.63116 23.5312 7.61212C23.1484 7.59202 22.8706 7.84591 22.861 8.22463C22.8515 8.59065 23.0933 8.85512 23.4548 8.87416C23.8355 8.89426 24.1154 8.63825 24.126 8.26165V8.26059ZM29.5179 7.72426C28.8107 7.89669 28.1893 8.04797 27.5679 8.19924L27.5796 8.29339C28.2031 8.44255 28.8255 8.59276 29.5179 8.75885V7.72426Z" fill="white"/>
<path d="M38.0972 38.0164C38.0972 37.3849 38.0941 36.8051 38.0972 36.2265C38.1015 35.7409 38.3188 35.4881 38.725 35.4849C39.1321 35.4817 39.3612 35.7356 39.3643 36.2149C39.3697 36.9935 39.3697 37.7721 39.3643 38.5496C39.3601 39.0764 39.1491 39.2806 38.6051 39.2816C36.529 39.2848 34.4528 39.2827 32.3766 39.2827C24.4431 39.2827 16.5095 39.2827 8.57494 39.2827C7.89101 39.2827 7.63122 39.1155 7.61956 38.6681C7.60683 38.2047 7.88359 38.0154 8.576 38.0154C18.2284 38.0154 27.8818 38.0154 37.5342 38.0154C37.7038 38.0154 37.8735 38.0154 38.0951 38.0154L38.0972 38.0164Z" fill="white"/>
<path d="M22.8591 28.5612C22.8591 29.7618 22.8612 30.9625 22.8591 32.1632C22.858 32.7482 22.6587 32.9471 22.0723 32.9481C20.2739 32.9503 18.4756 32.9439 16.6772 32.9534C16.3315 32.9556 16.0336 32.835 15.9488 32.5303C15.8904 32.3208 15.9721 32.0035 16.1089 31.8194C17.9412 29.3493 19.7957 26.8971 21.6375 24.4344C21.8528 24.1467 22.12 24.0694 22.436 24.1625C22.7615 24.2577 22.8633 24.518 22.8612 24.8406C22.8569 26.0804 22.8591 27.3213 22.8591 28.5612ZM21.5538 31.6628V26.6612C20.2782 28.358 19.0545 29.9872 17.7948 31.6628H21.5538Z" fill="white"/>
<path d="M13.3159 6.34161C12.5238 6.34161 11.7307 6.34373 10.9386 6.34161C10.3713 6.3395 10.1646 6.14062 10.1614 5.58947C10.1571 4.82569 10.1571 4.06084 10.1614 3.29706C10.1646 2.75649 10.3671 2.54491 10.8962 2.54385C12.5207 2.53962 14.1451 2.53962 15.7706 2.54385C16.3019 2.54491 16.5055 2.75544 16.5086 3.29495C16.5129 4.05874 16.5129 4.82357 16.5086 5.58735C16.5055 6.13956 16.2987 6.3395 15.7335 6.34161C14.9277 6.34479 14.1218 6.34161 13.3159 6.34161ZM11.4593 3.82389V5.04255H15.2182V3.82389H11.4593Z" fill="white"/>
<path d="M2.53955 22.1832C2.53955 20.5224 2.53743 18.8615 2.54062 17.2007C2.54168 16.7267 2.78025 16.4718 3.18849 16.4802C3.57976 16.4887 3.80455 16.7352 3.80668 17.1911C3.81198 18.4966 3.80879 19.8009 3.80879 21.1063C3.80879 23.1099 3.80773 25.1135 3.80985 27.1171C3.80985 27.4102 3.76214 27.6704 3.46418 27.8122C2.99232 28.0375 2.54274 27.7318 2.54062 27.1658C2.53425 25.5843 2.53849 24.0017 2.53849 22.4202C2.53849 22.3409 2.53849 22.2615 2.53849 22.1832H2.53955Z" fill="white"/>
<path d="M16.5097 14.575C16.5097 15.3779 16.5129 16.1819 16.5097 16.9848C16.5076 17.4884 16.2754 17.7518 15.8576 17.7412C15.4568 17.7306 15.2437 17.4778 15.2426 16.988C15.2394 15.3811 15.2394 13.7742 15.2426 12.1673C15.2426 11.6616 15.4748 11.4014 15.8937 11.4109C16.2956 11.4215 16.5076 11.6743 16.5097 12.1631C16.514 12.966 16.5097 13.77 16.5097 14.5729V14.575Z" fill="white"/>
<path d="M10.1606 8.8276C10.1606 8.63084 10.1521 8.43302 10.1627 8.23626C10.1839 7.8459 10.4172 7.6174 10.782 7.61105C11.1489 7.60576 11.4065 7.8311 11.4214 8.21405C11.4383 8.66047 11.4394 9.10794 11.4203 9.55436C11.4044 9.91721 11.1552 10.1351 10.8042 10.1404C10.4384 10.1457 10.1882 9.91828 10.1638 9.53745C10.1489 9.30154 10.1606 9.06457 10.1606 8.8276Z" fill="white"/>
<path d="M13.9681 8.88582C13.9681 9.08258 13.9745 9.2804 13.9671 9.47716C13.9501 9.89608 13.7221 10.1352 13.3446 10.1404C12.9513 10.1457 12.7116 9.8982 12.7021 9.45707C12.6936 9.06354 12.6925 8.66895 12.7021 8.27436C12.7127 7.85545 12.9449 7.61637 13.3234 7.61108C13.7168 7.60579 13.9533 7.85228 13.9671 8.29341C13.9734 8.49017 13.9681 8.68799 13.9671 8.88476L13.9681 8.88582Z" fill="white"/>
<path d="M16.506 8.8964C16.506 9.11961 16.5208 9.34388 16.5028 9.56603C16.4731 9.92465 16.225 10.1415 15.8751 10.1405C15.5241 10.1405 15.2654 9.92359 15.2495 9.56497C15.2293 9.10585 15.2293 8.64463 15.2495 8.18551C15.2654 7.8269 15.523 7.61108 15.8751 7.61108C16.2271 7.61108 16.4646 7.8269 16.506 8.18551C16.5092 8.21196 16.5092 8.23841 16.5092 8.2638C16.5092 8.47431 16.5092 8.68377 16.5092 8.89428C16.5092 8.89428 16.5071 8.89428 16.506 8.89428V8.8964Z" fill="white"/>
<path d="M11.4265 12.6804C11.4265 12.9036 11.4392 13.1278 11.4233 13.35C11.3968 13.715 11.1614 13.9329 10.8114 13.9413C10.4446 13.9498 10.1827 13.7234 10.1678 13.3436C10.1498 12.8972 10.1498 12.4497 10.1678 12.0033C10.1827 11.6384 10.4276 11.4204 10.7786 11.412C11.1465 11.4035 11.3978 11.6278 11.4243 12.0097C11.4392 12.2318 11.4275 12.4561 11.4265 12.6793V12.6804Z" fill="white"/>
<path d="M13.965 12.6963C13.965 12.9195 13.9798 13.1437 13.9618 13.3659C13.9321 13.7245 13.6851 13.9414 13.3341 13.9403C12.9831 13.9403 12.7244 13.7235 12.7085 13.3648C12.6883 12.9057 12.6883 12.4445 12.7085 11.9854C12.7244 11.6267 12.982 11.4109 13.3341 11.4109C13.6861 11.4109 13.9332 11.6267 13.9618 11.9854C13.9809 12.2202 13.965 12.4582 13.965 12.6941V12.6963Z" fill="white"/>
<path d="M11.4252 16.4792C11.4252 16.7024 11.4379 16.9267 11.422 17.1488C11.3944 17.5276 11.1389 17.7529 10.772 17.7423C10.4221 17.7317 10.1803 17.5117 10.1655 17.1457C10.1485 16.6992 10.1474 16.2518 10.1655 15.8054C10.1803 15.4393 10.4231 15.2214 10.7741 15.2129C11.1421 15.2034 11.3955 15.4277 11.422 15.8085C11.4379 16.0307 11.4252 16.2549 11.4241 16.4782L11.4252 16.4792Z" fill="white"/>
<path d="M12.7021 16.4728C12.7021 16.2496 12.6894 16.0253 12.7053 15.8032C12.7307 15.4393 12.9672 15.2214 13.3181 15.214C13.6861 15.2065 13.9459 15.4308 13.9618 15.8127C13.9798 16.2591 13.9798 16.7066 13.9618 17.153C13.9459 17.518 13.6999 17.7359 13.35 17.7433C12.9831 17.7507 12.7307 17.5243 12.7053 17.1446C12.6904 16.9224 12.7021 16.6982 12.7031 16.4749L12.7021 16.4728Z" fill="white"/>
<path d="M3.80642 30.4103C3.80642 30.6335 3.81914 30.8578 3.80324 31.0799C3.77673 31.4608 3.52437 31.6872 3.15855 31.6787C2.80757 31.6713 2.56157 31.4523 2.54672 31.0884C2.5287 30.642 2.5287 30.1945 2.54672 29.7481C2.56157 29.3672 2.82135 29.1419 3.1893 29.1493C3.54027 29.1567 3.77673 29.3747 3.80324 29.7386C3.81914 29.9607 3.80642 30.185 3.80642 30.4082V30.4103Z" fill="white"/>
<path d="M39.3638 32.964C39.3638 33.1872 39.3776 33.4115 39.3606 33.6336C39.332 33.9933 39.0881 34.2112 38.7372 34.2133C38.3862 34.2155 38.1243 33.9997 38.1073 33.6432C38.0861 33.184 38.0872 32.7228 38.1073 32.2637C38.1232 31.903 38.3766 31.6872 38.7287 31.685C39.0807 31.6829 39.3309 31.8977 39.3606 32.2552C39.3797 32.4901 39.3638 32.7281 39.3649 32.964H39.3638Z" fill="white"/>
</svg>
