<svg width="47" height="41" viewBox="0 0 47 41"  xmlns="http://www.w3.org/2000/svg">
<path d="M0.40549 14.099C5.53566 17.2998 10.4904 20.3911 15.4233 23.4604C17.4622 24.732 19.523 25.9817 21.54 27.2971C22.702 28.0644 23.7324 28.0425 24.9163 27.2971C31.6469 23.0658 38.4214 18.8564 45.1739 14.6471C45.415 14.4936 45.6781 14.3621 46.0289 14.1428C46.0289 14.5813 46.0728 14.9102 46.0728 15.239C46.0728 22.145 46.0728 29.051 46.0728 35.9351C46.0728 38.8509 44.4285 40.4733 41.4907 40.4733C29.323 40.4733 17.1553 40.4514 5.00947 40.4733C2.26899 40.4733 0.339697 38.6098 0.383545 35.8474C0.47124 29.0072 0.40549 22.145 0.40549 15.2829C0.40549 14.9102 0.40549 14.5594 0.40549 14.0332V14.099Z" />
<path d="M45.6536 13.8781H0.863281C1.14829 13.6808 1.34563 13.5273 1.54295 13.4177C8.58049 9.011 15.64 4.62624 22.6775 0.219552C23.0283 0.000313966 23.3133 -0.109305 23.7298 0.153781C30.8331 4.60431 37.9364 9.03292 45.0617 13.4615C45.2151 13.5492 45.3686 13.6808 45.6755 13.8781H45.6536Z" />
</svg>
