<svg width="33" height="33" viewBox="0 0 33 33" fill="none" xmlns="http://www.w3.org/2000/svg">
<path d="M5.2502 2.62946C5.16871 1.65557 4.72011 0.905288 3.84131 0.455466C2.05393 -0.460772 0.0115906 0.804842 0.00896205 2.83297C0.00282888 8.92521 0.0072294 15.0175 0.0072294 21.1097C0.0072294 21.1857 0.0010834 21.2643 0.0159782 21.3377C0.0711767 21.6076 0.235893 21.7552 0.517143 21.7595C0.812411 21.7639 0.994657 21.6207 1.04635 21.3324C1.06738 21.2163 1.056 21.094 1.056 20.9734C1.05687 14.9467 1.056 8.91997 1.05688 2.89324C1.05688 1.89664 1.69559 1.21361 2.62345 1.21012C3.55569 1.20662 4.20494 1.88703 4.20494 2.87839C4.20669 11.1071 4.20581 19.3349 4.20494 27.5627C4.20494 27.6535 4.19179 27.7435 4.18303 27.8605C3.13514 27.2063 2.11616 27.2098 1.056 27.8745C1.056 27.5819 1.0595 27.353 1.05512 27.1251C1.04811 26.7364 0.850086 26.5198 0.516266 26.5294C0.195589 26.5381 0.00983736 26.7469 0.00808503 27.1233C0.00458036 28.0928 -0.00505491 29.0632 0.0107161 30.0328C0.0405058 31.77 1.67894 32.9675 3.36205 32.495C4.53174 32.1666 5.25458 31.1674 5.25546 29.8642C5.25634 20.873 5.25546 11.8818 5.25546 2.89062C5.25546 2.80327 5.25808 2.71593 5.2502 2.62946ZM2.63485 31.5517C1.74204 31.5534 1.05512 30.8686 1.05688 29.9786C1.0595 29.1025 1.73415 28.423 2.61119 28.4143C3.50664 28.4055 4.19968 29.0825 4.20494 29.9707C4.21019 30.8608 3.52679 31.5499 2.63485 31.5517Z" fill="white"/>
<path d="M32.4339 1.83638C31.8539 -0.0781992 29.4278 -0.631087 27.9541 0.826684C25.5253 3.22952 23.1115 5.6472 20.6941 8.06226C20.6056 8.15048 20.5154 8.26752 20.4909 8.38543C20.2394 9.58903 19.9932 10.7935 19.7645 12.0023C19.6752 12.4766 20.0081 12.7911 20.4839 12.6985C21.6518 12.4723 22.8188 12.2399 23.9833 11.9954C24.1427 11.9613 24.3092 11.867 24.4275 11.7543C24.9024 11.3036 25.3597 10.8346 25.8241 10.3725C27.7718 8.43085 29.7169 6.48657 31.6699 4.54928C32.2236 4.00076 32.5364 3.35704 32.5557 2.45914C32.5303 2.32551 32.5057 2.07396 32.4339 1.83638ZM20.9552 11.5123C21.0963 10.8354 21.2251 10.2223 21.3381 9.67987C21.8113 10.148 22.308 10.638 22.804 11.128C22.2528 11.2425 21.6308 11.3717 20.9552 11.5123ZM23.9535 10.6677C23.7774 10.4965 23.5908 10.314 23.3761 10.1052C23.4602 10.0144 23.5364 9.92793 23.6162 9.84582C24.6369 8.7977 25.6585 7.75131 26.6775 6.70144C26.7677 6.60886 26.8615 6.51103 26.9228 6.39923C27.042 6.18087 26.9903 5.97212 26.8133 5.80616C26.6372 5.64021 26.4269 5.59916 26.2131 5.73279C26.1132 5.79481 26.0274 5.88303 25.9424 5.96688C24.9129 6.99142 23.8851 8.01684 22.8565 9.04138C22.7724 9.12436 22.6857 9.20472 22.591 9.29381C22.3168 9.01081 22.0557 8.74092 21.8402 8.51819C23.7747 6.54073 25.719 4.55278 27.6623 2.5657C27.9392 2.84171 28.1731 3.07404 28.4552 3.35529C28.1319 3.661 27.7955 3.96932 27.4695 4.28813C27.1454 4.60518 27.1147 4.89953 27.3662 5.13449C27.6062 5.35984 27.9164 5.31005 28.2213 4.99299C28.5174 4.68729 28.811 4.37984 29.0922 4.08723C29.3437 4.35189 29.5881 4.6078 29.8089 4.84014C27.8954 6.74511 25.9275 8.70336 23.9535 10.6677ZM30.6921 3.99203C29.95 3.25834 29.2236 2.54037 28.4973 1.82241C29.2893 0.894813 30.2663 0.7341 30.9768 1.4215C31.7689 2.18663 31.6646 3.10811 30.6921 3.99203Z" fill="white"/>
<path d="M29.4001 9.79517C29.401 17.1513 29.401 24.5074 29.4001 31.8635C29.4001 32.4592 29.2626 32.5989 28.672 32.5989H6.59527C6.11338 32.5989 5.90924 32.4539 5.89522 32.1054C5.88208 31.7919 6.05818 31.5849 6.37185 31.5569C6.48049 31.5464 6.59089 31.5525 6.69953 31.5525H28.3514V9.86592C28.3514 9.74625 28.3417 9.62485 28.3592 9.50693C28.4013 9.21695 28.5809 9.06235 28.8727 9.06148C29.1653 9.05973 29.3449 9.21258 29.3923 9.50169C29.408 9.59777 29.4001 9.69734 29.4001 9.79517Z" fill="white"/>
<path d="M14.7034 17.4561C14.6868 17.1076 14.501 16.9102 14.1865 16.9067C13.8702 16.9024 13.6739 17.0997 13.6564 17.4421C13.652 17.5286 13.6546 17.616 13.6546 17.7033V25.2585H12.605V24.883C12.6041 23.7938 12.612 22.7046 12.6024 21.6154C12.5936 20.7044 11.9198 20.0424 11.0253 20.0441C10.1333 20.0459 9.46481 20.7132 9.4578 21.6259C9.44904 22.5954 9.45517 23.5641 9.45517 24.5336V25.2551H8.40465C8.40465 25.0638 8.41078 24.8908 8.40289 24.7188C8.38887 24.3755 8.19086 24.1737 7.87895 24.1746C7.56615 24.1755 7.36815 24.3772 7.35851 24.7223C7.34975 25.0157 7.355 25.3101 7.35588 25.6044C7.35675 26.1757 7.49958 26.3207 8.06821 26.3207C10.0361 26.3215 12.0031 26.3215 13.9701 26.3207C14.565 26.3207 14.7043 26.1826 14.7043 25.5922V17.6194C14.7043 17.5644 14.706 17.5103 14.7034 17.4561ZM11.551 25.2673H10.5302C10.5215 25.1808 10.5066 25.0978 10.5057 25.0157C10.5048 23.9038 10.5022 22.792 10.5057 21.6809C10.5074 21.2582 10.7747 21.0206 11.1453 21.101C11.3871 21.1534 11.544 21.3115 11.5466 21.5552C11.5554 22.7832 11.5501 24.0121 11.5501 25.2673H11.551Z" fill="white"/>
<path d="M26.0321 29.3646C25.7368 29.6703 25.4337 29.969 25.1288 30.2651C24.8572 30.5289 24.5654 30.5629 24.3402 30.3708C24.1054 30.169 24.1028 29.9262 24.3315 29.5864C24.349 29.5611 24.363 29.534 24.3989 29.4746H9.20007C9.25702 29.5707 9.30257 29.6406 9.342 29.714C9.46904 29.9515 9.45854 30.1865 9.2614 30.3734C9.05287 30.5717 8.79177 30.5324 8.6034 30.3664C8.22051 30.0267 7.85691 29.6633 7.51345 29.2834C7.31544 29.0641 7.37239 28.7174 7.59931 28.4842C7.88845 28.1872 8.18372 27.8955 8.47986 27.6064C8.76111 27.3312 9.02483 27.2963 9.25877 27.4963C9.49884 27.7016 9.50497 27.9435 9.27892 28.2789C9.26139 28.3051 9.24386 28.3313 9.20707 28.3863H24.3954C24.3385 28.2937 24.2807 28.2082 24.2307 28.1173C24.1107 27.8998 24.1343 27.6954 24.3166 27.5242C24.505 27.3469 24.7476 27.2832 24.9404 27.457C25.361 27.8361 25.7684 28.2335 26.1407 28.6588C26.3414 28.8877 26.2319 29.1585 26.0321 29.3646Z" fill="white"/>
<path d="M15.6106 14.9345C14.2692 12.9334 12.9313 10.9298 11.5899 8.92871C11.2543 8.42735 10.8531 8.43172 10.5131 8.94006C9.17782 10.9324 7.84606 12.9264 6.51078 14.9188C6.3776 15.1162 6.26106 15.3153 6.38986 15.5529C6.52478 15.8027 6.75522 15.8621 7.02771 15.8603C8.37262 15.8542 9.71754 15.8577 11.0616 15.8577C12.4056 15.8577 13.7514 15.8542 15.0963 15.8603C15.3557 15.8621 15.5756 15.8097 15.7088 15.5703C15.8384 15.3371 15.7456 15.1354 15.6106 14.9345ZM7.83641 14.7982C8.90796 13.1885 9.95234 11.6172 11.0283 9.99867C12.0981 11.6067 13.1433 13.1771 14.2228 14.7982H7.83641Z" fill="white"/>
<path d="M26.2509 17.6369C26.2518 20.2843 26.2518 22.9308 26.2518 25.5773C26.2518 26.1879 26.1169 26.3206 25.4992 26.3206H16.5158C16.4072 26.3206 16.2951 26.3303 16.189 26.311C15.8999 26.2586 15.7527 26.0743 15.7579 25.7844C15.7632 25.5083 15.9104 25.3345 16.1838 25.2856C16.2898 25.2664 16.4011 25.2751 16.5106 25.2751H25.2022V24.1554C25.2022 21.9875 25.2022 19.8205 25.203 17.6526C25.203 17.5434 25.1934 17.4325 25.2136 17.3268C25.2661 17.0552 25.4422 16.9119 25.7191 16.9085C25.9951 16.9041 26.1765 17.0421 26.2378 17.312C26.2614 17.4159 26.2509 17.5286 26.2509 17.6369Z" fill="white"/>
<path d="M24.1466 2.76134C24.1545 3.05045 24.009 3.23736 23.7199 3.29152C23.6139 3.31073 23.5017 3.302 23.3922 3.302H7.06573C6.95621 3.302 6.84406 3.31073 6.73804 3.29152C6.44891 3.23911 6.30347 3.05394 6.30873 2.76309C6.31486 2.48795 6.46293 2.31501 6.73629 2.2661C6.84231 2.24688 6.95445 2.25649 7.0631 2.25649C12.5058 2.25562 17.9477 2.25562 23.3905 2.25649C23.5 2.25649 23.6113 2.24776 23.7173 2.2661C23.9915 2.31326 24.1405 2.48621 24.1466 2.76134Z" fill="white"/>
<path d="M20.7834 6.34596C20.4803 6.65866 20.1701 6.96611 19.8564 7.26919C19.5831 7.5321 19.3132 7.56267 19.1021 7.36964C18.8655 7.15302 18.8515 6.88924 19.0626 6.58092C19.0845 6.5486 19.1099 6.51891 19.159 6.45689H12.3486C12.4011 6.53201 12.4379 6.58005 12.4704 6.63158C12.6543 6.92505 12.6359 7.1801 12.4038 7.35828C12.1541 7.54956 11.9026 7.50065 11.6905 7.30325C11.3559 6.99144 11.0334 6.66477 10.7154 6.33548C10.4385 6.04812 10.435 5.79657 10.711 5.50659C11.0194 5.18254 11.3383 4.86985 11.6599 4.55891C11.921 4.30561 12.1847 4.28465 12.4151 4.48204C12.6412 4.67595 12.6543 4.89693 12.4563 5.21049C12.4283 5.25417 12.3959 5.29609 12.3424 5.37033H19.1564C19.0854 5.25941 19.0284 5.1808 18.9811 5.09695C18.8611 4.87859 18.8865 4.67507 19.0696 4.50388C19.258 4.32832 19.5007 4.26543 19.6935 4.43925C20.1131 4.81832 20.5206 5.21573 20.8921 5.64023C21.0927 5.86907 20.9832 6.13983 20.7834 6.34596Z" fill="white"/>
<path d="M26.8254 15.8533C26.7614 15.8612 26.6949 15.8577 26.6291 15.8577H17.4837C17.4285 15.8577 17.3742 15.8595 17.3199 15.856C16.9852 15.8315 16.7898 15.6201 16.8056 15.3048C16.8213 15.0026 16.9817 14.8681 17.333 14.8681C20.0202 14.8681 22.7083 14.869 25.3964 14.869H25.831C25.5523 14.4017 25.3079 13.9938 25.0643 13.585C24.9294 13.3588 24.9005 13.1335 25.0897 12.9221C25.3342 12.6487 25.7232 12.6653 25.93 12.9823C26.3759 13.6671 26.8096 14.3589 27.2328 15.0576C27.4475 15.4114 27.2372 15.8001 26.8254 15.8533Z" fill="white"/>
<path d="M3.1559 7.06565C3.1559 9.0798 3.15939 11.0931 3.14888 13.1064C3.148 13.2784 3.10507 13.5151 2.98941 13.6042C2.85273 13.7108 2.60741 13.7422 2.42517 13.7108C2.18071 13.668 2.10625 13.4418 2.10625 13.2042C2.10713 12.3989 2.10625 11.5927 2.10625 10.7874V9.54709C2.10625 8.36009 2.10362 7.17396 2.108 5.98783C2.10888 5.58779 2.32966 5.36943 2.68012 5.39826C2.96575 5.42184 3.14363 5.60788 3.15239 5.92319C3.1629 6.30314 3.1559 6.68483 3.1559 7.06565Z" fill="white"/>
<path d="M19.9495 9.06148C19.9469 9.40387 19.7331 9.57856 19.3029 9.57943C17.2825 9.58031 15.2629 9.58118 13.2425 9.57943C12.8175 9.57943 12.6029 9.39688 12.6055 9.05188C12.6081 8.70861 12.821 8.53567 13.2521 8.5348C14.2676 8.53218 15.2831 8.53393 16.2985 8.53393C17.314 8.53393 18.3076 8.53218 19.3126 8.5348C19.7384 8.53567 19.953 8.71647 19.9495 9.06148Z" fill="white"/>
<path d="M8.40481 17.5531C8.40656 19.1113 8.40656 20.6695 8.40481 22.2286C8.40393 22.6618 8.23132 22.8627 7.8756 22.8601C7.52426 22.8575 7.35779 22.654 7.35692 22.2181C7.35429 21.4329 7.35604 20.6485 7.35604 19.8633C7.35604 19.0781 7.35429 18.3156 7.35692 17.5426C7.35692 17.1163 7.53916 16.9032 7.88613 16.9067C8.23046 16.9093 8.40481 17.1216 8.40481 17.5531Z" fill="white"/>
<path d="M1.05284 24.1231C1.05284 24.3292 1.06685 24.5371 1.04933 24.7415C1.0248 25.0288 0.861828 25.1974 0.564807 25.2131C0.280053 25.228 0.0338519 25.0498 0.018957 24.7659C-0.0038233 24.3117 -0.00995305 23.8532 0.0224651 23.399C0.042617 23.1125 0.25728 22.9719 0.550796 22.9815C0.847817 22.9902 1.02129 23.1518 1.04758 23.4392C1.0686 23.6654 1.05196 23.8951 1.05196 24.1231H1.05284Z" fill="white"/>
<path d="M3.15308 3.32383C3.15308 3.50813 3.16535 3.6933 3.14958 3.87672C3.12417 4.17107 2.91564 4.34925 2.62563 4.34576C2.33562 4.34314 2.12621 4.16408 2.11394 3.86624C2.09817 3.48717 2.09642 3.10547 2.11482 2.72728C2.12884 2.43205 2.34612 2.25562 2.63701 2.25824C2.9279 2.26086 3.12855 2.43991 3.15045 2.73776C3.16535 2.93253 3.15308 3.12818 3.15308 3.32383Z" fill="white"/>
</svg>
