<svg width="49" height="41" viewBox="0 0 49 41"  xmlns="http://www.w3.org/2000/svg">
<path fill-rule="evenodd" clip-rule="evenodd" d="M3.9868 17.4454C16.9657 11.7891 25.6256 8.06205 29.9446 6.2643C42.3096 1.11221 44.8747 0.235254 46.5409 0.191406C46.9136 0.191406 47.7248 0.279101 48.2729 0.717577C48.7333 1.09028 48.8429 1.57261 48.9087 1.92339C48.9744 2.27417 49.0402 3.06342 48.9744 3.67729C48.2948 10.7148 45.4009 27.7935 43.932 35.686C43.3181 39.0185 42.0684 40.1366 40.8845 40.2462C38.2975 40.4874 36.3463 38.5361 33.8251 36.8918C29.9007 34.3268 27.6864 32.7263 23.8936 30.227C19.5088 27.3331 22.337 25.7326 24.8583 23.1456C25.516 22.466 36.8944 12.096 37.1137 11.1752C37.1356 11.0656 37.1575 10.6271 36.9163 10.386C36.6752 10.1448 36.2805 10.2325 35.9955 10.2983C35.6009 10.386 29.3526 14.5296 17.2288 22.7071C15.4529 23.9349 13.8525 24.5268 12.4055 24.483C10.827 24.4391 7.75769 23.5841 5.47762 22.8387C2.69329 21.9398 0.478985 21.4575 0.6763 19.9228C0.785919 19.1116 1.88211 18.3005 3.9868 17.4674V17.4454Z"/>
</svg>
