<svg width="67" height="77" viewBox="0 0 67 77" fill="none" xmlns="http://www.w3.org/2000/svg">
<path d="M28.5779 73.9761H3.98828V76.2281H28.5779V73.9761Z" fill="white"/>
<path d="M32.5808 68.015V72.3202H0.0429688V68.015H2.74204V69.6046H29.8817V68.015H32.5808Z" fill="white"/>
<path d="M64.2352 0.389343V0.439761C64.2352 0.439761 64.1848 0.389343 64.168 0.389343H64.2352Z" fill="white"/>
<path d="M64.168 0.389465C64.168 0.389465 64.2184 0.389466 64.2352 0.439883V0.389465H64.168Z" fill="white"/>
<path d="M66.0092 71.4262L62.2007 70.532C62.2007 70.532 61.0582 68.8431 59.2367 66.1109C58.9387 65.6804 58.6406 65.2167 58.326 64.7365C52.696 56.2088 42.4462 40.2793 38.141 30.9402C44.6485 21.3693 51.6032 13.2887 55.4448 9.04966C55.8587 8.60257 56.2065 8.22172 56.5376 7.85743C57.7464 6.5493 58.4585 5.82071 58.4585 5.82071L64.2374 5.05901V0.439143C64.2374 0.439143 64.1878 0.389465 64.1712 0.389465H49.4505V5.15837L49.3677 5.27428L28.1892 34.964H26.2187V8.30452H17.9394V34.964H15.025V8.30452H6.29861V34.964H4.32812V40.4449H6.29861V67.9489H15.025V40.4449H17.9394V67.9489H26.2187V40.4449H28.1892L47.2482 71.9395L48.0927 73.3305L49.6658 75.9136H66.2245V71.4759L66.0092 71.4262ZM12.2929 65.9784H9.09703V40.4449H12.2929V65.9784ZM12.2929 34.964H9.09703V10.6393H12.2929V34.964Z" fill="white"/>
<path d="M32.5886 3.93298V8.23824H29.8895V6.64861H2.74985V8.23824H0.0507812V3.93298H32.5886Z" fill="white"/>
<path d="M28.5779 0.0252686H3.98828V2.72433H28.5779V0.0252686Z" fill="white"/>
</svg>
