<svg width="125" height="125" viewBox="0 0 125 125" fill="none" xmlns="http://www.w3.org/2000/svg">
<path d="M31.9739 22.3692C31.7586 22.5348 31.5434 22.7004 31.3281 22.866V22.3692H31.9739Z" fill="white"/>
<path d="M77.016 22.7334L76.8008 23.2798V22.7334H77.016Z" fill="white"/>
<path d="M93.2352 24.3894V24.4398C93.2352 24.4398 93.1848 24.3894 93.168 24.3894H93.2352Z" fill="white"/>
<path d="M96.885 100.99V101.569H96.2227C96.4379 101.387 96.6697 101.189 96.885 100.99Z" fill="white"/>
<path d="M93.168 24.3895C93.168 24.3895 93.2184 24.3895 93.2352 24.4399V24.3895H93.168Z" fill="white"/>
<path d="M62.1484 108.938V100.394" stroke="white" stroke-miterlimit="10"/>
<path d="M62.1484 23.8596V15.3154" stroke="white" stroke-miterlimit="10"/>
<path d="M23.9144 60.2887H15.3867" stroke="white" stroke-miterlimit="10"/>
<path d="M108.879 60.2887H100.352" stroke="white" stroke-miterlimit="10"/>
<path d="M24.2693 67.6903L15.8906 69.3296" stroke="white" stroke-miterlimit="10"/>
<path d="M107.679 51.3636L99.3008 53.0029" stroke="white" stroke-miterlimit="10"/>
<path d="M26.3371 75.6883L18.4883 79.0663" stroke="white" stroke-miterlimit="10"/>
<path d="M104.422 42.074L96.5898 45.452" stroke="white" stroke-miterlimit="10"/>
<path d="M29.8803 82.7092L22.8594 87.5774" stroke="white" stroke-miterlimit="10"/>
<path d="M99.684 34.1756L92.6797 39.0439" stroke="white" stroke-miterlimit="10"/>
<path d="M91.4293 30.9799L88.25 34.1591" stroke="white" stroke-miterlimit="10"/>
<path d="M78.7594 18.3621L77.0208 22.7335L76.8055 23.28L75.6133 26.2937" fill="white"/>
<path d="M78.7594 18.3621L77.0208 22.7335L76.8055 23.28L75.6133 26.2937" stroke="white" stroke-miterlimit="10"/>
<path d="M54.8989 98.0874L52.4088 107.881" stroke="white" stroke-miterlimit="10"/>
<path d="M70.3065 16.0439L68.75 24.4392" stroke="white" stroke-miterlimit="10"/>
<path d="M71.4674 107.994L69.8281 99.6156" stroke="white" stroke-miterlimit="10"/>
<path d="M82 106L78 97" stroke="white" stroke-miterlimit="10"/>
<path d="M53.5195 16.1266L54.7283 22.3693L55.0429 24.0251" fill="white"/>
<path d="M53.5195 16.1266L54.7283 22.3693L55.0429 24.0251" stroke="white" stroke-miterlimit="10"/>
<path d="M44 18.3274L47.167 25.971L48 28" fill="white"/>
<path d="M44 18.3274L47.167 25.971L48 28" stroke="white" stroke-miterlimit="10"/>
<path d="M81.387 104.798L79.9961 101.57" stroke="white" stroke-miterlimit="10"/>
<path d="M44.2344 18.8753L45.7412 22.3692L46.4698 24.0251" fill="white"/>
<path d="M44.2344 18.8753L45.7412 22.3692L46.4698 24.0251" stroke="white" stroke-miterlimit="10"/>
<path d="M101.849 86.882L94.7617 82.1297" stroke="white" stroke-miterlimit="10"/>
<path d="M31.2199 39.5572L24.1328 34.8214" stroke="white" stroke-miterlimit="10"/>
<path d="M106.174 78.0064L98.2422 74.8271" stroke="white" stroke-miterlimit="10"/>
<path d="M27.2979 46.2634L19.3828 43.0676" stroke="white" stroke-miterlimit="10"/>
<path d="M108.434 68.8165L100.039 67.26" stroke="white" stroke-miterlimit="10"/>
<path d="M24.8601 53.4169L16.4648 51.8769" stroke="white" stroke-miterlimit="10"/>
<path d="M114.237 60.2887C114.121 56.8776 113.674 53.5493 112.929 50.3369C112.084 46.7106 110.875 43.2498 109.336 39.9547C107.862 36.8416 106.09 33.8942 104.053 31.1454C102.265 28.7113 100.245 26.4262 98.0591 24.3564C93.108 19.6372 87.2297 15.8949 80.7221 13.4111C77.7084 12.252 74.5457 11.3744 71.2837 10.7948C68.3197 10.2815 65.2563 10 62.1433 10C58.8481 10 55.6192 10.3146 52.4896 10.8942C48.8798 11.5731 45.419 12.6163 42.1073 13.9741C33.0828 17.7495 25.3333 23.9755 19.7034 31.8409C17.6336 34.7056 15.8618 37.802 14.4212 41.0641C13.0468 44.1937 11.9539 47.4889 11.2253 50.8999C10.5464 53.9302 10.149 57.0763 10.0331 60.2887C10.0166 60.9014 10 61.5141 10 62.1267C10 64.9251 10.2153 67.6739 10.6458 70.3564C11.2419 74.1152 12.2354 77.7416 13.5932 81.1858C14.9014 84.5306 16.5407 87.6933 18.478 90.6408C20.2167 93.2902 22.1872 95.774 24.3564 98.0591C29.3737 103.325 35.4673 107.531 42.2894 110.346C45.5018 111.67 48.8467 112.664 52.3405 113.326C55.5198 113.939 58.7984 114.253 62.1433 114.253C65.6868 114.253 69.1311 113.906 72.4759 113.227C76.3341 112.449 80.0267 111.256 83.504 109.683C88.1404 107.613 92.4291 104.865 96.2211 101.57H92.7106C89.6141 103.987 86.2362 106.024 82.6264 107.647C79.2815 109.17 75.738 110.329 72.0619 111.074C68.8496 111.72 65.5378 112.051 62.1433 112.051C58.9309 112.051 55.7848 111.753 52.738 111.157C49.3931 110.528 46.1642 109.567 43.1008 108.276C39.0936 106.636 35.3348 104.467 31.9403 101.884H31.3276V101.404C29.9532 100.328 28.6451 99.1851 27.4032 97.9763H27.3866C26.8899 97.4795 26.4097 96.9828 25.9295 96.486C23.8431 94.3002 21.9554 91.9158 20.3161 89.3658C18.4615 86.5342 16.8884 83.4874 15.6465 80.2916C14.3384 76.9964 13.3945 73.5191 12.8315 69.9259C12.4341 67.3924 12.2189 64.7761 12.2189 62.1267C12.2189 61.5141 12.2354 60.9014 12.2685 60.2887C12.3679 57.2088 12.7487 54.2117 13.4111 51.2974C14.1231 48.0353 15.1663 44.8891 16.5076 41.9086C17.8819 38.779 19.5709 35.8315 21.5414 33.0828C23.2801 30.6487 25.234 28.3636 27.3866 26.2937H27.4032C28.6451 25.0684 29.9532 23.9259 31.3276 22.8661C31.5428 22.7005 31.7581 22.5349 31.9734 22.3693C35.3348 19.8027 39.0274 17.6501 42.9849 16.0108C46.1476 14.7027 49.4593 13.6926 52.9035 13.0634C55.9007 12.5004 58.9806 12.2023 62.1433 12.2023C65.1239 12.2023 68.0382 12.4672 70.8697 12.9806C73.9993 13.5104 77.013 14.3549 79.9108 15.4644C84.5803 17.2361 88.9187 19.7034 92.7934 22.7336H94.8964V24.4888C95.4428 24.9525 95.9727 25.4327 96.486 25.9295C98.5889 27.8999 100.526 30.0691 102.232 32.4039C104.186 35.0202 105.891 37.8517 107.282 40.8323C108.789 43.9784 109.948 47.3067 110.743 50.7675C111.472 53.8474 111.902 57.0267 112.001 60.2887C112.035 60.9014 112.051 61.5141 112.051 62.1267C112.051 64.594 111.869 67.0115 111.521 69.3794C111.041 72.774 110.197 76.036 109.054 79.1656C107.862 82.5105 106.305 85.6732 104.434 88.6206C102.298 92.0317 99.7646 95.1613 96.8834 97.9597V100.99C100.526 97.7445 103.689 94.0188 106.289 89.8625C108.226 86.7826 109.849 83.4709 111.124 80.0101C112.316 76.7315 113.194 73.3204 113.707 69.7768C114.088 67.2765 114.27 64.7264 114.27 62.1267C114.27 61.5141 114.253 60.9014 114.237 60.2887Z" fill="white"/>
<path d="M113.173 51.4919C112.482 48.1497 111.477 44.9452 110.199 41.9054C108.752 38.4745 106.975 35.2684 104.899 32.2816C102.92 29.4631 100.674 26.8583 98.2015 24.4942C96.0268 22.398 93.6489 20.4881 91.1442 18.8183C85.4654 15.0057 79.0383 12.3129 72.2041 10.967C69.0376 10.335 65.772 10.0057 62.4589 9.98693C59.4508 9.98297 56.384 10.2243 53.3159 10.7515C50.0684 11.3095 46.9393 12.1664 43.9531 13.2676C40.5104 14.548 37.2763 16.1622 34.2423 18.0612C25.9875 23.3104 19.4044 30.7588 15.1877 39.464C13.6329 42.6378 12.4111 45.9896 11.5437 49.4485C10.7192 52.7657 10.2001 56.1983 10.0597 59.6835C9.9038 62.785 10.0449 65.953 10.4747 69.1386C10.5621 69.7452 10.6496 70.3518 10.7533 70.9557C11.2272 73.7137 11.9049 76.3863 12.7835 78.9571C14.0075 82.5607 15.6008 85.9664 17.5223 89.1309C19.3779 92.2059 21.5292 95.0453 23.9377 97.6221C26.0999 99.9388 28.4626 102.053 30.9874 103.938C36.8239 108.278 43.5418 111.391 50.7421 113.01C54.1324 113.772 57.5972 114.184 61.1528 114.245C64.3899 114.311 67.6745 114.066 70.971 113.499C74.4634 112.899 77.799 111.973 80.9805 110.738C84.6512 109.317 88.0885 107.517 91.2492 105.378C95.4682 102.552 99.2294 99.1172 102.409 95.2274L98.9488 95.8219C96.3065 98.7289 93.3222 101.308 90.0394 103.519C87.0008 105.587 83.7047 107.329 80.208 108.686C77.1514 109.867 73.9436 110.754 70.5981 111.329C67.4321 111.873 64.2809 112.112 61.1771 112.04C57.774 111.986 54.4291 111.587 51.1913 110.833C46.9643 109.896 42.8924 108.394 39.1095 106.423L38.5057 106.527L38.4244 106.054C36.8876 105.226 35.4048 104.321 33.9762 103.34L33.9598 103.343C33.3861 102.938 32.8287 102.529 32.2714 102.121C29.8449 100.32 27.5807 98.2899 25.5332 96.0543C23.2259 93.5777 21.1596 90.8413 19.3944 87.902C17.5472 84.8759 16.0281 81.6086 14.8647 78.1626C14.044 75.7331 13.3888 73.191 12.9401 70.5799C12.8364 69.9761 12.7489 69.3695 12.6778 68.76C12.2542 65.7078 12.122 62.6894 12.2812 59.705C12.4305 56.3695 12.9259 53.0922 13.743 49.9275C14.5675 46.6104 15.733 43.4195 17.2095 40.3767C18.5108 37.6833 20.0496 35.1003 21.8206 32.6959L21.8369 32.6931C22.8534 31.2751 23.9491 29.9275 25.1242 28.6503C25.3083 28.4507 25.4924 28.251 25.6765 28.0514C28.5547 24.9526 31.8294 22.2057 35.4522 19.9199C38.3477 18.0951 41.4405 16.5387 44.7284 15.3353C47.5869 14.2729 50.5719 13.4576 53.6889 12.922C56.6264 12.4172 59.5435 12.1848 62.4211 12.2112C65.5952 12.2034 68.7084 12.5254 71.7521 13.1281C76.6543 14.0835 81.3478 15.7804 85.6798 18.1107L87.7523 17.7545L88.0496 19.4844C88.6666 19.8488 89.2702 20.2324 89.8602 20.635C92.2665 22.2209 94.5432 24.0307 96.6195 26.0429C98.9883 28.2905 101.149 30.7923 103.024 33.4943C105.042 36.3398 106.748 39.4237 108.118 42.6999C109.357 45.6119 110.32 48.6724 110.97 51.8705C111.107 52.4687 111.227 53.0697 111.33 53.6735C111.748 56.1052 111.978 58.5187 112.036 60.9112C112.138 64.3381 111.858 67.696 111.262 70.9739C110.654 74.4723 109.655 77.8529 108.31 81.0747C106.783 84.7982 104.816 88.3117 102.45 91.5576L102.963 94.5441C106.004 90.7285 108.49 86.521 110.348 81.9846C111.736 78.6211 112.775 75.0824 113.445 71.4557C114.065 68.0225 114.352 64.5121 114.258 60.9327C114.21 58.404 113.958 55.86 113.517 53.2978C113.414 52.694 113.293 52.093 113.173 51.4919Z" fill="white"/>
<path d="M79.5257 16.4414C76.6941 15.3485 73.7467 14.5371 70.6833 14.0072C67.918 13.4939 65.0534 13.2455 62.139 13.2455C59.0591 13.2455 56.0289 13.527 53.1146 14.09C49.7366 14.7027 46.4911 15.6797 43.3946 16.9712C39.9339 18.3953 36.6883 20.2167 33.7078 22.3694H37.4335C39.5861 21.0281 41.8547 19.8525 44.2226 18.8755C47.17 17.6502 50.283 16.7063 53.512 16.1268C56.3104 15.5803 59.1916 15.3154 62.139 15.3154C64.9209 15.3154 67.6531 15.5638 70.3025 16.044C73.2168 16.5407 76.0483 17.319 78.7474 18.3622C81.7942 19.5213 84.7085 20.9784 87.4076 22.7337H91.0339C87.5235 20.1174 83.6653 17.9979 79.5257 16.4414ZM16.4702 51.877C17.1325 48.8136 18.1261 45.8661 19.3845 43.0677C20.6761 40.1368 22.2657 37.3881 24.1369 34.8215C25.1469 33.414 26.2233 32.0728 27.3824 30.7977V27.7675C25.5775 29.589 23.9216 31.5594 22.4148 33.6624C20.4608 36.3449 18.805 39.2261 17.4637 42.2895C16.1556 45.2204 15.1289 48.3003 14.4335 51.4961C13.7877 54.3442 13.4068 57.2751 13.3075 60.2888C13.2744 60.9014 13.2578 61.5141 13.2578 62.1268C13.2578 64.7099 13.4565 67.2434 13.8539 69.7272C14.4004 73.2542 15.3276 76.6653 16.6027 79.8942C17.8115 83.0238 19.3348 85.9878 21.1563 88.7697C22.7625 91.2701 24.6171 93.6048 26.6703 95.7409C26.9022 95.9893 27.1505 96.2377 27.3824 96.4529V93.4558C25.7099 91.6178 24.2031 89.6639 22.8618 87.5775C21.1232 84.9115 19.6495 82.0634 18.4904 79.0663C17.2816 75.9698 16.404 72.7078 15.8906 69.3298C15.5098 66.9785 15.3276 64.5775 15.3276 62.1268C15.3276 61.5141 15.3442 60.9014 15.3773 60.2888C15.4767 57.4075 15.841 54.5926 16.4702 51.877ZM87.3414 101.57C85.4371 102.795 83.4501 103.871 81.3802 104.798C78.2506 106.223 74.9223 107.315 71.4616 107.994C68.4479 108.624 65.3349 108.938 62.139 108.938C59.1088 108.938 56.1614 108.657 53.2967 108.094C50.1506 107.498 47.1203 106.587 44.2391 105.395C41.8712 104.418 39.5861 103.242 37.4335 101.884H33.7243C36.738 104.053 40.0001 105.875 43.4774 107.315C46.4745 108.557 49.6372 109.518 52.9159 110.13C55.8964 110.71 58.9929 111.008 62.139 111.008C65.4673 111.008 68.7128 110.677 71.859 110.031C75.4688 109.319 78.9295 108.193 82.2082 106.703C85.3212 105.295 88.2686 103.573 90.9843 101.57H87.3414ZM110.954 60.2888C110.855 57.0929 110.424 53.9799 109.712 50.9662C108.934 47.5717 107.791 44.3262 106.334 41.2463C104.96 38.3319 103.287 35.5666 101.383 33.0001C99.6941 30.715 97.8064 28.5954 95.7532 26.6581C95.4717 26.3931 95.1902 26.1282 94.8921 25.8798V28.7279C96.6308 30.4003 98.2204 32.2218 99.6776 34.1757C101.499 36.6264 103.105 39.2758 104.413 42.0742C105.821 45.0051 106.93 48.1181 107.675 51.3636C108.371 54.2448 108.785 57.2254 108.884 60.2888C108.917 60.9014 108.934 61.5141 108.934 62.1268C108.934 64.3953 108.768 66.6307 108.437 68.8165C108.007 71.9957 107.228 75.0591 106.169 78.0065C105.043 81.1361 103.602 84.1001 101.847 86.882C100.257 89.4486 98.4026 91.8496 96.3493 94.0519L96.8792 94.1678V96.5026C99.4126 93.936 101.648 91.1045 103.569 88.0411C105.39 85.1433 106.914 82.0469 108.089 78.7848C109.199 75.7215 110.027 72.5091 110.49 69.1808C110.838 66.8791 111.004 64.5278 111.004 62.1268C111.004 61.5141 111.004 60.9014 110.954 60.2888Z" fill="white"/>
<path d="M64.0429 13.2791C61.0107 13.1468 57.9584 13.3182 54.8861 13.7934C52.1015 14.1892 49.3073 14.8677 46.5453 15.7976C43.6264 16.7802 40.8443 18.0138 38.2619 19.4772C35.256 21.1356 32.4918 23.097 29.9692 25.309C27.1437 27.7628 24.6489 30.5245 22.5109 33.5156L26.0419 32.3269C27.6541 30.369 29.429 28.531 31.3614 26.8496C33.7639 24.7479 36.4131 22.8601 39.2884 21.2807C41.7662 19.87 44.4123 18.6996 47.2057 17.7592C49.8422 16.8717 52.5108 16.2354 55.1749 15.8452C58.0955 15.3862 61.0273 15.2203 63.9182 15.3479C67.1755 15.4743 70.4025 15.9255 73.5205 16.7278L76.9573 15.5709C72.7956 14.2113 68.4628 13.4335 64.0429 13.2791ZM15.5887 66.9807C15.239 63.8661 15.2402 60.7557 15.5401 57.7021C15.8291 54.5123 16.4586 51.4 17.4131 48.3706C17.9213 46.7144 18.5134 45.0998 19.2052 43.5216L18.2384 40.6497C17.1089 42.9519 16.1683 45.3477 15.4112 47.8215C14.4152 50.9872 13.7651 54.2461 13.4714 57.5773C13.1667 60.7724 13.1764 64.0189 13.5369 67.2696C13.8335 70.1749 14.4077 73.0741 15.275 75.962C15.4391 76.5532 15.6189 77.1391 15.8144 77.7198C16.6385 80.1679 17.6352 82.5056 18.8043 84.7328C20.4474 87.9011 22.4146 90.8381 24.6532 93.4915C26.7973 96.0718 29.1867 98.3949 31.8005 100.45C34.1205 102.307 36.6231 103.929 39.2506 105.298C39.5495 105.459 39.8642 105.615 40.1526 105.745L39.1963 102.905C37.0249 101.697 34.9734 100.326 33.0366 98.7762C30.5382 96.8043 28.2328 94.5752 26.178 92.1045C24.0445 89.5556 22.172 86.744 20.6078 83.7063C19.4966 81.5994 18.5579 79.382 17.776 77.0594C17.5806 76.4787 17.4008 75.8928 17.2367 75.3016C16.4116 72.5392 15.8587 69.7552 15.5887 66.9807ZM98.6104 91.4647C97.1966 93.2335 95.6568 94.8876 93.991 96.4268C91.4793 98.7749 88.6737 100.873 85.6104 102.62C82.955 104.178 80.105 105.469 77.0762 106.489C74.2043 107.456 71.3211 108.129 68.4266 108.51C65.2546 108.949 62.0922 109.052 58.9812 108.842C56.4253 108.671 53.8846 108.286 51.4112 107.686L47.8959 108.869C51.4442 109.964 55.1169 110.649 58.8721 110.905C62.1088 111.126 65.4127 111.027 68.7154 110.562C71.7251 110.16 74.7549 109.454 77.7366 108.451C80.8909 107.389 83.8612 106.039 86.6368 104.424C89.8308 102.597 92.7514 100.426 95.3832 97.9674C97.8845 95.6402 100.128 93.0677 102.063 90.3024L98.6104 91.4647ZM107.818 44.8077C106.705 41.8106 105.303 38.9976 103.667 36.3686C101.846 33.3998 99.728 30.6884 97.3644 28.2344C95.132 25.9109 92.6647 23.8237 90.0411 21.9988C87.7113 20.372 85.2461 18.9655 82.682 17.7845C82.3306 17.6232 81.9793 17.4619 81.6176 17.3216L82.5263 20.0209C84.7077 21.0512 86.7954 22.2703 88.7998 23.6571C91.3079 25.3986 93.6755 27.3971 95.8081 29.6319C98.0771 31.9605 100.122 34.5569 101.863 37.395C103.442 39.9038 104.785 42.5965 105.857 45.4681C106.084 46.0381 106.295 46.6135 106.49 47.1942C107.214 49.3441 107.77 51.5156 108.154 53.6927C108.76 56.8432 109 59.9948 108.936 63.1263C108.867 66.4516 108.448 69.7203 107.672 72.9168C106.984 75.8564 105.992 78.7236 104.749 81.4659L105.288 81.4067L106.033 83.6195C107.615 80.3787 108.83 76.982 109.674 73.4659C110.475 70.1384 110.931 66.7177 111.005 63.251C111.079 59.9938 110.838 56.6852 110.216 53.3829C109.811 51.0906 109.218 48.8093 108.452 46.5338C108.256 45.9531 108.061 45.3725 107.818 44.8077Z" fill="white"/>
<path d="M100.364 60.2887C100.248 57.7883 99.9007 55.3542 99.3046 53.0028C98.6754 50.37 97.7481 47.8365 96.589 45.4521C95.4961 43.1835 94.1714 41.0309 92.6812 39.0439C91.3399 37.2887 89.8662 35.6659 88.26 34.1591C87.7964 33.7285 87.3161 33.298 86.8359 32.9006C86.5048 33.2649 86.1405 33.6623 85.7431 34.1094C86.2067 34.4737 86.6704 34.8876 87.1174 35.3016C88.6574 36.7422 90.0649 38.3153 91.3399 39.9877C92.7805 41.8754 94.039 43.9121 95.0987 46.0813C96.2082 48.3664 97.1023 50.784 97.715 53.3175C98.278 55.5694 98.6257 57.9042 98.7416 60.2887C98.7748 60.9013 98.7913 61.514 98.7913 62.1267C98.7913 63.766 98.6754 65.3887 98.4601 66.9784C98.1455 69.4787 97.5494 71.8963 96.738 74.2145C95.877 76.6818 94.7676 79.0497 93.4263 81.2354C92.0188 83.5039 90.3795 85.64 88.5415 87.5443C88.8561 88.0245 89.1542 88.4881 89.4522 88.9352C91.4724 86.8653 93.2607 84.5968 94.7676 82.1296C96.175 79.8445 97.3507 77.3938 98.2449 74.8272C99.1059 72.4096 99.7186 69.8761 100.05 67.2599C100.298 65.5874 100.414 63.8653 100.414 62.1267C100.414 61.514 100.398 60.9013 100.364 60.2887ZM74.6984 96.5522C73.026 97.1649 71.2873 97.6616 69.5156 98.0259C67.1311 98.5227 64.6639 98.771 62.147 98.771C61.17 98.771 60.193 98.7379 59.2326 98.6551V100.278C60.193 100.361 61.17 100.394 62.147 100.394C64.7798 100.394 67.3464 100.129 69.8302 99.6155C71.8007 99.2181 73.7049 98.6717 75.5595 97.9597L74.6984 96.5522ZM26.4961 53.7149C27.026 51.3304 27.8208 49.0453 28.8309 46.8761C29.8575 44.6076 31.116 42.4715 32.5897 40.4845C32.9374 40.0208 33.2852 39.5572 33.6495 39.0935V36.5766C32.7884 37.537 31.9936 38.5306 31.2319 39.5572C29.7085 41.6436 28.3838 43.879 27.3075 46.2635C26.2643 48.532 25.4364 50.933 24.8734 53.4168C24.3435 55.6357 24.0123 57.9373 23.913 60.2887C23.8798 60.9013 23.8633 61.514 23.8633 62.1267C23.8633 64.0144 23.9958 65.8689 24.2772 67.6904C24.6747 70.4557 25.3701 73.1382 26.3471 75.6882C27.2744 78.1555 28.4666 80.5068 29.8906 82.7091C30.9835 84.4478 32.242 86.1037 33.6495 87.6436V85.1433C32.7719 84.0669 31.9605 82.9575 31.2153 81.7818C29.8741 79.6789 28.7481 77.4103 27.8539 75.0425C26.9266 72.6083 26.2643 70.0417 25.8834 67.3758C25.6351 65.6702 25.5026 63.915 25.5026 62.1267C25.5026 61.514 25.5026 60.9013 25.5523 60.2887C25.6516 58.0367 25.9662 55.8344 26.4961 53.7149ZM75.6092 26.2937C73.4069 25.4658 71.1218 24.8365 68.7539 24.4391C66.6012 24.0583 64.3989 23.8596 62.147 23.8596C61.1534 23.8596 60.193 23.8927 59.2326 23.9755V25.6148C60.193 25.5154 61.17 25.4823 62.147 25.4823C64.2996 25.4823 66.4191 25.6645 68.4724 26.0453C70.7244 26.4262 72.9101 27.0223 75.013 27.8005C75.6257 28.0324 76.2218 28.2807 76.8014 28.5291V26.7739C76.404 26.6083 76.0066 26.4427 75.6092 26.2937Z" fill="white" stroke="white" stroke-width="0.75" stroke-miterlimit="10"/>
<path d="M54.7148 24.5837C52.2585 25.0651 49.9017 25.766 47.6632 26.7005C45.1511 27.7091 42.781 28.9978 40.5923 30.4941C38.5086 31.9078 36.5735 33.5339 34.8265 35.2995C33.2869 36.8836 31.8978 38.5794 30.6428 40.3892C30.285 40.911 29.9295 41.4491 29.6068 41.9824C30.0157 42.2566 30.4623 42.5586 30.9628 42.8862C31.2552 42.3741 31.5967 41.8548 31.9406 41.3518C33.1398 39.6173 34.4894 37.9943 35.9568 36.4878C37.6128 34.7859 39.443 33.2424 41.4333 31.876C43.531 30.4434 45.7913 29.2044 48.2075 28.2268C50.3526 27.3397 52.6111 26.6533 54.9528 26.189C55.554 26.0664 56.1576 25.9601 56.7637 25.8703C58.3852 25.6299 60.0074 25.5066 61.6115 25.4864C64.1309 25.4309 66.6098 25.666 69.0219 26.1287C71.5888 26.6186 74.0938 27.3688 76.4526 28.375C78.903 29.4346 81.2564 30.7429 83.4096 32.2818C83.8384 31.9002 84.2534 31.5373 84.6519 31.1769C82.3082 29.4822 79.8019 28.0458 77.1404 26.9171C74.6736 25.86 72.077 25.0564 69.407 24.5483C66.8893 24.0511 64.2934 23.8166 61.6568 23.8726C59.966 23.8722 58.2455 24.0101 56.5257 24.2651C55.9196 24.3549 55.316 24.4611 54.7148 24.5837ZM94.3502 44.6542C95.2015 46.2187 95.9479 47.8657 96.568 49.5649C97.4091 51.8507 98.0166 54.2549 98.3857 56.7446C98.529 57.711 98.6395 58.6822 98.6985 59.6444L100.304 59.4064C100.245 58.4443 100.134 57.473 99.9909 56.5066C99.6048 53.9022 98.9664 51.4022 98.0943 49.0206C97.4123 47.1297 96.5925 45.3261 95.6162 43.596L94.3502 44.6542ZM59.0449 98.6175C56.6085 98.443 54.2315 97.9919 51.9377 97.3108C49.5431 96.628 47.2456 95.6964 45.0639 94.53C44.5543 94.254 44.0446 93.978 43.5326 93.6857L41.0429 94.0548C42.1192 94.7657 43.2185 95.4062 44.3458 96.0091C46.633 97.2101 49.0385 98.1926 51.555 98.9076C53.952 99.6068 56.4485 100.074 58.988 100.266C61.2606 100.465 63.5859 100.455 65.9264 100.209C66.5373 100.152 67.1458 100.078 67.7518 99.9882C69.6191 99.7114 71.4342 99.3084 73.1947 98.7628C75.8718 97.9642 78.4233 96.8828 80.8025 95.5425C83.1071 94.2634 85.2582 92.7392 87.2278 91.0076C88.7874 89.6716 90.2408 88.1839 91.5577 86.5658L89.0844 86.9325C88.1484 87.9584 87.17 88.9237 86.1163 89.8332C84.2328 91.4684 82.1539 92.9149 79.9427 94.1466C77.6709 95.4209 75.2292 96.4524 72.6479 97.2201C70.9972 97.7159 69.2804 98.1044 67.5114 98.3666C66.9054 98.4565 66.2993 98.5463 65.686 98.5871C63.4438 98.819 61.2192 98.8308 59.0449 98.6175ZM24.7177 54.0567C24.2217 56.3566 23.9344 58.7093 23.8885 61.1098C23.8275 63.2951 23.9539 65.5027 24.2841 67.7303C24.4298 68.7131 24.6035 69.6583 24.8262 70.5961L26.4478 70.3557C26.2087 69.4203 26.0326 68.4587 25.8894 67.4923C25.5737 65.363 25.443 63.2397 25.5186 61.1528C25.5651 58.8693 25.8343 56.6197 26.2957 54.4254C26.4352 53.7853 26.5934 53.1593 26.7541 52.5495L25.0179 52.8069C24.9124 53.2243 24.8069 53.6417 24.7177 54.0567Z" fill="white" stroke="white" stroke-width="0.75" stroke-miterlimit="10"/>
<path d="M96.5457 45.3689C95.4535 43.1167 94.1744 41.0168 92.6997 39.0908C91.0835 36.9192 89.2326 34.9565 87.2274 33.222C85.3288 31.568 83.2628 30.1118 81.1099 28.8732C79.1854 27.7888 77.1913 26.8784 75.1212 26.1267C74.5253 25.9138 73.9143 25.7075 73.3163 25.5315C73.1556 25.9969 72.9775 26.5057 72.7885 27.0732C73.3582 27.2253 73.9474 27.4229 74.5215 27.6271C76.5047 28.3441 78.4183 29.2349 80.2493 30.2693C82.3174 31.4363 84.2768 32.812 86.1059 34.3877C88.0263 36.0505 89.801 37.9198 91.3628 40.0066C92.7679 41.8543 94.0078 43.863 95.0543 46.0086C95.3263 46.5586 95.583 47.1152 95.8245 47.6782C96.4707 49.1848 97.0039 50.7218 97.4327 52.2676C98.1292 54.6895 98.5344 57.1463 98.7025 59.5967C98.8838 62.2035 98.7976 64.817 98.4266 67.3545C98.0273 69.9942 97.3628 72.6035 96.4242 75.0781C96.9027 75.3954 97.3594 75.704 97.8095 75.9974C98.8502 73.2988 99.5995 70.509 100.012 67.6476C100.404 64.9927 100.519 62.277 100.329 59.5657C100.167 57.0045 99.7315 54.4346 99.0046 51.8997C98.5736 50.2648 98.0012 48.6364 97.3159 47.0385C97.0744 46.4755 96.8176 45.9189 96.5457 45.3689ZM87.253 88.8135C85.9576 90.0359 84.5555 91.1778 83.0708 92.211C81.0753 93.6075 78.9057 94.8083 76.5926 95.8005C75.6947 96.1856 74.7838 96.5403 73.8686 96.8428L74.5082 98.3341C75.4235 98.0316 76.3344 97.677 77.2323 97.2918C79.6519 96.254 81.9062 94.9987 83.9866 93.5479C85.6408 92.4059 87.1755 91.153 88.5992 89.7676L87.253 88.8135ZM26.0675 68.4463C25.6145 66.046 25.4442 63.6326 25.5174 61.2409C25.5666 58.7514 25.8811 56.2922 26.4522 53.8851C26.589 53.3219 26.7259 52.7588 26.8779 52.1891L25.8857 49.8759C25.473 51.098 25.1342 52.3244 24.8388 53.5682C24.2612 56.0861 23.925 58.6627 23.8758 61.2784C23.8113 63.7745 23.9969 66.3074 24.4586 68.812C24.8463 71.0601 25.4493 73.3059 26.2849 75.506C26.496 76.0821 26.7223 76.6517 26.9638 77.2148C27.7079 78.9496 28.5607 80.6018 29.5374 82.1648C30.9927 84.5495 32.6893 86.7407 34.5924 88.6991C36.4172 90.601 38.4398 92.292 40.6166 93.7546C42.3064 94.9217 44.1157 95.9474 46.0163 96.8078L45.0306 94.5099C43.7998 93.8667 42.6168 93.1669 41.4685 92.3802C39.4069 90.9763 37.4778 89.3353 35.7227 87.5116C33.9109 85.6401 32.2905 83.5424 30.8895 81.2425C29.9889 79.773 29.1753 78.2121 28.4703 76.5686C28.2288 76.0055 27.9873 75.4425 27.7914 74.8598C26.995 72.751 26.416 70.603 26.0675 68.4463ZM60.3942 23.8852C58.0439 23.9924 55.6958 24.315 53.3629 24.8831C51.2345 25.3817 49.1322 26.0672 47.0626 26.955C46.1495 27.3466 45.2799 27.7556 44.4299 28.2103L45.0761 29.7169C45.9196 29.247 46.8044 28.8314 47.7023 28.4463C49.6806 27.5977 51.7003 26.9296 53.7374 26.4702C55.9572 25.9325 58.2009 25.6187 60.4403 25.505C61.0948 25.4765 61.7405 25.4698 62.3711 25.4696L61.6792 23.8565C61.2487 23.861 60.8182 23.8655 60.3942 23.8852Z" fill="white" stroke="white" stroke-width="0.75" stroke-miterlimit="10"/>
<path d="M38.5117 21.625L42.4504 28.901L43.4883 30.8333" fill="white"/>
<path d="M38.5117 21.625L42.4504 28.901L43.4883 30.8333" stroke="white" stroke-miterlimit="10"/>
<path d="M32.2148 25.0966L37.3962 31.547L38.7642 33.2615" fill="white"/>
<path d="M32.2148 25.0966L37.3962 31.547L38.7642 33.2615" stroke="white" stroke-miterlimit="10"/>
<path d="M27 29.1251L33.1175 34.6021L34.7345 36.0593" fill="white"/>
<path d="M27 29.1251L33.1175 34.6021L34.7345 36.0593" stroke="white" stroke-miterlimit="10"/>
</svg>
