<svg width="40" height="40" viewBox="0 0 40 40" fill="none" xmlns="http://www.w3.org/2000/svg">
<path d="M9.13477 5.53259C9.05404 5.59469 8.97331 5.6568 8.89258 5.7189V5.53259H9.13477Z" fill="white"/>
<path d="M18.7358 33.8882H9.51367V34.7328H18.7358V33.8882Z" fill="white"/>
<path d="M20.2381 31.6525V33.2672H8.03516V31.6525H9.04741V32.2487H19.2259V31.6525H20.2381Z" fill="white"/>
<path d="M26.026 5.66919L25.9453 5.87413V5.66919H26.026Z" fill="white"/>
<path d="M32.1135 6.29022V6.30939C32.1135 6.30939 32.0943 6.29022 32.0879 6.29022H32.1135Z" fill="white"/>
<path d="M33.4789 35.0185V35.2358H33.2305C33.3112 35.1675 33.3981 35.093 33.4789 35.0185Z" fill="white"/>
<path d="M32.0879 6.29022C32.0879 6.29022 32.1071 6.29022 32.1135 6.30939V6.29022H32.0879Z" fill="white"/>
<path d="M20.4512 37.9994V34.7949" stroke="white" stroke-miterlimit="10"/>
<path d="M20.4512 6.09153V2.88708" stroke="white" stroke-miterlimit="10"/>
<path d="M6.11035 19.7539H2.91211" stroke="white" stroke-miterlimit="10"/>
<path d="M37.9814 19.7539H34.7832" stroke="white" stroke-miterlimit="10"/>
<path d="M6.24781 22.5298L3.10547 23.1446" stroke="white" stroke-miterlimit="10"/>
<path d="M37.5291 16.4066L34.3867 17.0214" stroke="white" stroke-miterlimit="10"/>
<path d="M7.0237 25.5294L4.08008 26.7962" stroke="white" stroke-miterlimit="10"/>
<path d="M36.3046 12.9227L33.3672 14.1895" stroke="white" stroke-miterlimit="10"/>
<path d="M8.35186 28.1625L5.71875 29.9883" stroke="white" stroke-miterlimit="10"/>
<path d="M34.5292 9.96045L31.9023 11.7862" stroke="white" stroke-miterlimit="10"/>
<path d="M31.4365 8.7619L30.2441 9.95425" stroke="white" stroke-miterlimit="10"/>
<path d="M14.2599 35.3539L13.7383 36.6704" stroke="white" stroke-miterlimit="10"/>
<path d="M26.678 4.02972L26.0259 5.66921L25.9452 5.87414L25.498 7.0044" fill="white"/>
<path d="M26.678 4.02972L26.0259 5.66921L25.9452 5.87414L25.498 7.0044" stroke="white" stroke-miterlimit="10"/>
<path d="M17.5675 35.3539L17.1328 37.6827" stroke="white" stroke-miterlimit="10"/>
<path d="M23.5115 3.16034L22.9277 6.3089" stroke="white" stroke-miterlimit="10"/>
<path d="M23.9468 37.6454L23.332 34.5031" stroke="white" stroke-miterlimit="10"/>
<path d="M17.2148 3.19141L17.6682 5.53264L17.7862 6.15366" fill="white"/>
<path d="M17.2148 3.19141L17.6682 5.53264L17.7862 6.15366" stroke="white" stroke-miterlimit="10"/>
<path d="M27.6662 36.4468L27.1445 35.2358" stroke="white" stroke-miterlimit="10"/>
<path d="M13.7324 4.22223L14.2975 5.53257L14.5708 6.15359" fill="white"/>
<path d="M13.7324 4.22223L14.2975 5.53257L14.5708 6.15359" stroke="white" stroke-miterlimit="10"/>
<path d="M35.3415 29.7274L32.6836 27.9451" stroke="white" stroke-miterlimit="10"/>
<path d="M8.85522 11.9787L6.19727 10.2026" stroke="white" stroke-miterlimit="10"/>
<path d="M36.963 26.3988L33.9883 25.2064" stroke="white" stroke-miterlimit="10"/>
<path d="M7.38448 14.4939L4.41602 13.2953" stroke="white" stroke-miterlimit="10"/>
<path d="M37.8126 22.9522L34.6641 22.3684" stroke="white" stroke-miterlimit="10"/>
<path d="M6.47082 17.1767L3.32227 16.5991" stroke="white" stroke-miterlimit="10"/>
<path d="M39.9875 19.7539C39.9441 18.4746 39.7764 17.2264 39.4969 16.0216C39.1802 14.6616 38.7269 13.3636 38.1493 12.1278C37.5966 10.9603 36.9321 9.85489 36.1683 8.824C35.4976 7.91111 34.7399 7.0541 33.9202 6.27783C32.0634 4.50793 29.8588 3.10444 27.4182 2.17291C26.2879 1.7382 25.1018 1.40906 23.8784 1.1917C22.7667 0.999189 21.6179 0.893616 20.4504 0.893616C19.2145 0.893616 18.0035 1.01161 16.8298 1.22896C15.476 1.48358 14.1781 1.87482 12.936 2.38406C9.55151 3.79997 6.64515 6.135 4.53369 9.08483C3.75742 10.1592 3.09293 11.3205 2.55265 12.5439C2.0372 13.7176 1.62733 14.9534 1.35408 16.2327C1.09947 17.3692 0.950423 18.5491 0.906952 19.7539C0.900742 19.9837 0.894531 20.2135 0.894531 20.4432C0.894531 21.4927 0.975263 22.5236 1.13673 23.5297C1.36029 24.9394 1.7329 26.2994 2.24214 27.5911C2.73274 28.8456 3.34755 30.0317 4.07414 31.1371C4.72621 32.1308 5.46522 33.0623 6.27875 33.9193C8.16043 35.8941 10.4458 37.4715 13.0044 38.5272C14.2091 39.0241 15.4636 39.3967 16.7739 39.6451C17.9663 39.8748 19.1959 39.9928 20.4504 39.9928C21.7793 39.9928 23.071 39.8624 24.3255 39.6078C25.7725 39.3159 27.1573 38.8688 28.4615 38.2788C30.2003 37.5026 31.8088 36.4717 33.2309 35.2359H31.9143C30.753 36.1425 29.4861 36.9064 28.1323 37.515C26.8779 38.0863 25.5489 38.521 24.1702 38.8005C22.9655 39.0427 21.7234 39.1669 20.4504 39.1669C19.2456 39.1669 18.0656 39.0551 16.923 38.8315C15.6685 38.5956 14.4575 38.2354 13.3087 37.751C11.8058 37.1362 10.3961 36.3226 9.123 35.3538H8.89323V35.1738C8.37779 34.7701 7.88718 34.3416 7.42142 33.8882H7.41521C7.2289 33.7019 7.04881 33.5156 6.86871 33.3293C6.08623 32.5096 5.37827 31.6153 4.76347 30.659C4.06793 29.597 3.47796 28.4543 3.0122 27.2558C2.5216 26.02 2.16762 24.7158 1.95647 23.3682C1.80743 22.4181 1.72669 21.4369 1.72669 20.4432C1.72669 20.2135 1.7329 19.9837 1.74532 19.7539C1.78259 18.5988 1.92542 17.4748 2.17383 16.3818C2.44086 15.1584 2.8321 13.9784 3.33513 12.8606C3.85057 11.6869 4.48401 10.5815 5.22302 9.55059C5.87509 8.6377 6.60789 7.78069 7.41521 7.00442H7.42142C7.88718 6.54487 8.37779 6.11637 8.89323 5.71892C8.97396 5.65682 9.05469 5.59471 9.13543 5.53261C10.3961 4.57004 11.781 3.76271 13.2652 3.14791C14.4513 2.6573 15.6934 2.27848 16.9851 2.0425C18.1091 1.83135 19.2642 1.71957 20.4504 1.71957C21.5682 1.71957 22.6612 1.81893 23.7231 2.01145C24.8968 2.21017 26.0271 2.52689 27.1139 2.94297C28.8651 3.60746 30.4922 4.53277 31.9454 5.66924H32.7341V6.32751C32.939 6.5014 33.1377 6.68149 33.3302 6.8678C34.1189 7.60681 34.8455 8.42034 35.4852 9.29597C36.218 10.2772 36.8576 11.3391 37.3793 12.457C37.9444 13.6369 38.3791 14.8851 38.6772 16.1831C38.9504 17.3381 39.1119 18.5305 39.1492 19.7539C39.1616 19.9837 39.1678 20.2135 39.1678 20.4432C39.1678 21.3685 39.0995 22.2752 38.9691 23.1633C38.789 24.4364 38.4723 25.6598 38.0438 26.8335C37.5966 28.0879 37.0129 29.2741 36.3111 30.3795C35.51 31.6588 34.5599 32.8325 33.4793 33.882V35.0185C34.8455 33.8013 36.0317 32.404 37.0067 30.8453C37.7332 29.6902 38.3419 28.4481 38.82 27.1502C39.2672 25.9206 39.5963 24.6413 39.7888 23.3123C39.9317 22.3746 40 21.4182 40 20.4432C40 20.2135 39.9938 19.9837 39.9875 19.7539Z" fill="white"/>
<path d="M32.7774 32.9318L31.3491 32.5965C31.3491 32.5965 30.9206 31.9631 30.2375 30.9384C30.1257 30.7769 30.0139 30.603 29.8959 30.4229C27.7844 27.2247 23.9403 21.2505 22.3257 17.748C24.7663 14.1585 27.3746 11.1279 28.8153 9.53814C28.9706 9.37047 29.101 9.22763 29.2252 9.09101C29.6785 8.60041 29.9456 8.32716 29.9456 8.32716L32.1129 8.04149V6.30885C32.1129 6.30885 32.0943 6.29022 32.0881 6.29022H26.5672V8.07875L26.5362 8.12222L18.5934 19.2571H17.8544V9.25868H14.7493V19.2571H13.6563V9.25868H10.3835V19.2571H9.64453V21.3126H10.3835V31.6277H13.6563V21.3126H14.7493V31.6277H17.8544V21.3126H18.5934L25.7413 33.1244L26.058 33.646L26.648 34.6148H32.8581V32.9505L32.7774 32.9318ZM12.6316 30.8887H11.4331V21.3126H12.6316V30.8887ZM12.6316 19.2571H11.4331V10.1343H12.6316V19.2571Z" fill="white"/>
<path d="M20.2401 7.6192V9.23385H19.2278V8.63767H9.04937V9.23385H8.03711V7.6192H20.2401Z" fill="white"/>
<path d="M26.9703 3.3094C25.9083 2.89953 24.8029 2.59523 23.6541 2.39651C22.617 2.20399 21.5426 2.11084 20.4496 2.11084C19.2945 2.11084 18.1581 2.21641 17.0651 2.42756C15.7982 2.65733 14.581 3.02373 13.4197 3.50813C12.1218 4.0422 10.9046 4.72532 9.78675 5.53264H11.184C11.9914 5.02962 12.8422 4.5887 13.7302 4.2223C14.8356 3.76274 16.0031 3.40877 17.2141 3.19141C18.2636 2.98647 19.3442 2.88711 20.4496 2.88711C21.4929 2.88711 22.5176 2.98026 23.5112 3.16036C24.6042 3.34666 25.6661 3.63854 26.6784 4.02978C27.8211 4.46449 28.9141 5.01099 29.9263 5.66927H31.2864C29.9698 4.68806 28.5228 3.89316 26.9703 3.3094ZM3.32196 16.5992C3.57037 15.4503 3.94298 14.3449 4.41495 13.2954C4.89934 12.1962 5.49552 11.1653 6.19727 10.2027C6.57609 9.67483 6.97975 9.1718 7.41446 8.69362V7.55716C6.73755 8.24028 6.11654 8.97929 5.55141 9.76798C4.81861 10.774 4.19759 11.8546 3.69457 13.0035C3.20397 14.1027 2.81894 15.2578 2.55811 16.4563C2.31591 17.5245 2.17308 18.6237 2.13582 19.7539C2.1234 19.9837 2.11719 20.2135 2.11719 20.4433C2.11719 21.412 2.19171 22.3622 2.34075 23.2937C2.54569 24.6165 2.89346 25.8958 3.37164 27.1068C3.82498 28.2805 4.39632 29.3921 5.07944 30.4354C5.68182 31.3732 6.37736 32.2488 7.14742 33.0499C7.23437 33.1431 7.32752 33.2362 7.41446 33.3169V32.1929C6.78723 31.5036 6.22211 30.7708 5.71909 29.9883C5.06702 28.9884 4.51431 27.9203 4.0796 26.7963C3.62626 25.635 3.29712 24.4116 3.1046 23.1447C2.96177 22.2628 2.89346 21.3624 2.89346 20.4433C2.89346 20.2135 2.89967 19.9837 2.91209 19.7539C2.94935 18.6734 3.08597 17.6176 3.32196 16.5992ZM29.9015 35.2359C29.1873 35.6954 28.4421 36.0991 27.6658 36.4469C26.4921 36.9809 25.2439 37.3908 23.9459 37.6454C22.8157 37.8814 21.6482 37.9994 20.4496 37.9994C19.3131 37.9994 18.2077 37.8938 17.1334 37.6827C15.9534 37.4591 14.817 37.1176 13.7364 36.6704C12.8484 36.304 11.9914 35.8631 11.184 35.3539H9.79296C10.9232 36.1674 12.1466 36.8505 13.4507 37.3908C14.5748 37.8566 15.7609 38.2168 16.9905 38.4465C18.1084 38.6639 19.2697 38.7757 20.4496 38.7757C21.6979 38.7757 22.915 38.6515 24.095 38.4093C25.4488 38.1422 26.7467 37.7199 27.9763 37.161C29.1438 36.6332 30.2493 35.9873 31.2677 35.2359H29.9015ZM38.7572 19.7539C38.7199 18.5554 38.5585 17.3879 38.2914 16.2576C37.9995 14.9845 37.571 13.7673 37.0245 12.6122C36.5091 11.5192 35.8819 10.4821 35.1677 9.51957C34.5343 8.66257 33.8263 7.86767 33.0562 7.14108C32.9507 7.04171 32.8451 6.94235 32.7333 6.8492V7.91735C33.3854 8.54457 33.9816 9.22769 34.5281 9.96049C35.2112 10.8796 35.8136 11.8732 36.3042 12.9227C36.832 14.0219 37.2481 15.1895 37.5276 16.4066C37.7884 17.4872 37.9436 18.605 37.9809 19.7539C37.9933 19.9837 37.9995 20.2135 37.9995 20.4433C37.9995 21.2941 37.9374 22.1324 37.8132 22.9522C37.6518 24.1445 37.3599 25.2934 36.9624 26.3988C36.5402 27.5725 35.9999 28.6842 35.3416 29.7275C34.7454 30.69 34.0499 31.5905 33.2798 32.4165L33.4785 32.4599V33.3356C34.4287 32.373 35.2671 31.3111 35.9874 30.1622C36.6706 29.0754 37.2419 27.9141 37.6828 26.6907C38.0989 25.5418 38.4094 24.337 38.5833 23.0888C38.7137 22.2256 38.7758 21.3437 38.7758 20.4433C38.7758 20.2135 38.7758 19.9837 38.7572 19.7539Z" fill="white"/>
<path d="M18.7358 6.15363H9.51367V7.16588H18.7358V6.15363Z" fill="white"/>
<path d="M34.7847 19.7539C34.7413 18.8161 34.6108 17.9032 34.3873 17.0214C34.1513 16.034 33.8035 15.0838 33.3688 14.1896C32.9589 13.3388 32.4621 12.5314 31.9032 11.7862C31.4002 11.1279 30.8475 10.5193 30.2451 9.95422C30.0712 9.79275 29.8911 9.63129 29.711 9.48224C29.5868 9.61887 29.4502 9.76791 29.3012 9.93559C29.475 10.0722 29.6489 10.2275 29.8166 10.3827C30.3941 10.923 30.922 11.513 31.4002 12.1402C31.9405 12.8482 32.4124 13.612 32.8099 14.4255C33.226 15.2825 33.5613 16.1892 33.7911 17.1394C34.0022 17.984 34.1327 18.8596 34.1761 19.7539C34.1886 19.9836 34.1948 20.2134 34.1948 20.4432C34.1948 21.058 34.1513 21.6666 34.0706 22.2628C33.9526 23.2005 33.729 24.1072 33.4247 24.9766C33.1018 25.9019 32.6857 26.79 32.1827 27.6097C31.6548 28.4605 31.04 29.2616 30.3507 29.9758C30.4687 30.1559 30.5804 30.3298 30.6922 30.4975C31.4499 29.7212 32.1206 28.8704 32.6857 27.9451C33.2136 27.0881 33.6545 26.169 33.9898 25.2064C34.3128 24.2997 34.5425 23.3496 34.6667 22.3683C34.7599 21.7411 34.8034 21.0953 34.8034 20.4432C34.8034 20.2134 34.7972 19.9836 34.7847 19.7539ZM25.159 33.3541C24.5317 33.5839 23.8797 33.7702 23.2152 33.9068C22.3209 34.0931 21.3956 34.1863 20.4517 34.1863C20.0853 34.1863 19.7189 34.1739 19.3587 34.1428V34.7514C19.7189 34.7825 20.0853 34.7949 20.4517 34.7949C21.4391 34.7949 22.4017 34.6955 23.3332 34.503C24.0722 34.354 24.7864 34.149 25.4819 33.882L25.159 33.3541ZM7.08117 17.2884C7.27989 16.3942 7.57798 15.5372 7.9568 14.7236C8.34183 13.8728 8.8138 13.0717 9.36651 12.3265C9.49692 12.1526 9.62734 11.9787 9.76396 11.8048V10.8609C9.44103 11.2211 9.14294 11.5937 8.85727 11.9787C8.28594 12.7612 7.78913 13.5996 7.38547 14.4939C6.99422 15.3446 6.68372 16.2451 6.47257 17.1766C6.27384 18.0088 6.14964 18.872 6.11238 19.7539C6.09996 19.9836 6.09375 20.2134 6.09375 20.4432C6.09375 21.1512 6.14343 21.8467 6.249 22.5298C6.39805 23.5669 6.65888 24.573 7.02528 25.5293C7.37304 26.4546 7.82018 27.3365 8.35425 28.1624C8.76412 28.8145 9.2361 29.4355 9.76396 30.0131V29.0753C9.43482 28.6717 9.13052 28.2556 8.85106 27.8147C8.34804 27.026 7.92575 26.1752 7.5904 25.2871C7.24263 24.3742 6.99422 23.4117 6.85139 22.4118C6.75824 21.7722 6.70856 21.1139 6.70856 20.4432C6.70856 20.2134 6.70856 19.9836 6.72719 19.7539C6.76445 18.9093 6.88244 18.0833 7.08117 17.2884ZM25.5005 7.00439C24.6746 6.69388 23.8176 6.45789 22.9295 6.30885C22.1222 6.16601 21.2962 6.09149 20.4517 6.09149C20.0791 6.09149 19.7189 6.10391 19.3587 6.13496V6.74977C19.7189 6.71251 20.0853 6.70009 20.4517 6.70009C21.259 6.70009 22.0539 6.7684 22.8239 6.91123C23.6685 7.05407 24.4883 7.27763 25.277 7.56951C25.5067 7.65645 25.7303 7.74961 25.9477 7.84276V7.18448C25.7986 7.12238 25.6496 7.06028 25.5005 7.00439Z" fill="white" stroke="white" stroke-width="0.75" stroke-miterlimit="10"/>
</svg>
