<svg width="76" height="76" viewBox="0 0 76 76" fill="none" xmlns="http://www.w3.org/2000/svg">
<g opacity="0.56">
<path d="M63.332 12.6667H12.6654C10.9857 12.6667 9.37475 13.3339 8.18702 14.5217C6.99929 15.7094 6.33203 17.3203 6.33203 19V57C6.33203 58.6797 6.99929 60.2906 8.18702 61.4784C9.37475 62.6661 10.9857 63.3334 12.6654 63.3334H63.332C65.0117 63.3334 66.6226 62.6661 67.8104 61.4784C68.9981 60.2906 69.6654 58.6797 69.6654 57V19C69.6654 17.3203 68.9981 15.7094 67.8104 14.5217C66.6226 13.3339 65.0117 12.6667 63.332 12.6667ZM63.332 27.55L37.9987 44.441L12.6654 27.55V19.9405L37.9987 36.8284L63.332 19.9405V27.55Z" fill="white"/>
</g>
</svg>
