<svg width="76" height="76" viewBox="0 0 76 76" fill="none" xmlns="http://www.w3.org/2000/svg">
<g opacity="0.56">
<path fill-rule="evenodd" clip-rule="evenodd" d="M58.2762 17.8378C55.6426 15.1869 52.5092 13.085 49.0576 11.6538C45.6059 10.2225 41.9045 9.49047 38.1678 9.49997C22.4992 9.49997 9.74383 22.2521 9.7375 37.9271C9.7375 42.9368 11.0453 47.8261 13.5312 52.1391L9.5 66.8673L24.5702 62.9121C28.7387 65.1814 33.409 66.3712 38.1552 66.3733H38.1678C53.8333 66.3733 66.5887 53.6211 66.595 37.9461C66.6058 34.211 65.8761 30.5108 64.4482 27.0593C63.0204 23.6079 60.9226 20.4736 58.2762 17.8378ZM38.1678 61.5758H38.1583C33.9261 61.5762 29.7718 60.4376 26.1313 58.2793L25.27 57.7663L16.3273 60.1128L18.7118 51.395L18.1513 50.502C15.7852 46.735 14.5326 42.3756 14.5382 37.9271C14.5445 24.8995 25.1433 14.3006 38.1773 14.3006C41.2815 14.2937 44.3561 14.9026 47.2234 16.0919C50.0907 17.2812 52.6936 19.0273 54.8815 21.2293C57.0811 23.4208 58.8246 26.0265 60.0111 28.8958C61.1977 31.7651 61.8038 34.8412 61.7943 37.9461C61.788 50.9738 51.1892 61.5758 38.1678 61.5758ZM51.129 43.8773C50.4165 43.5195 46.9268 41.8031 46.2745 41.5656C45.6253 41.3281 45.1535 41.211 44.6785 41.9203C44.2035 42.6296 42.8418 44.2288 42.427 44.7038C42.0122 45.1788 41.5973 45.2358 40.888 44.8811C40.1787 44.5265 37.8892 43.776 35.1753 41.3566C33.0632 39.4725 31.6382 37.1481 31.2233 36.4356C30.8085 35.7231 31.179 35.34 31.5368 34.9853C31.8567 34.6686 32.2462 34.1556 32.6008 33.7408C32.9555 33.326 33.0727 33.0315 33.3102 32.5565C33.5477 32.0815 33.4305 31.6666 33.25 31.312C33.0727 30.9541 31.6508 27.4581 31.0587 26.0363C30.4855 24.6588 29.8997 24.8425 29.4627 24.8235C29.0101 24.805 28.5571 24.7965 28.1042 24.7981C27.744 24.8073 27.3896 24.8908 27.0632 25.0434C26.7368 25.196 26.4454 25.4143 26.2073 25.6848C25.555 26.3973 23.7215 28.1136 23.7215 31.6096C23.7215 35.1056 26.2675 38.4845 26.6222 38.9595C26.9768 39.4345 31.6318 46.607 38.7568 49.685C40.4542 50.4165 41.7778 50.8535 42.807 51.1828C44.5075 51.7243 46.056 51.6451 47.2815 51.4646C48.6463 51.262 51.4837 49.7483 52.0758 48.089C52.668 46.4296 52.668 45.0078 52.4907 44.7101C52.3133 44.4125 51.8352 44.232 51.129 43.8773Z" fill="white"/>
</g>
</svg>
