<svg width="38" height="40" viewBox="0 0 38 40" fill="none" xmlns="http://www.w3.org/2000/svg">
<path d="M37.3753 34.8009C37.3679 34.3598 36.9278 34.1101 36.5153 34.2656C36.21 34.3799 36.1135 34.6222 36.1156 34.9258C36.1177 35.4283 36.1156 35.9318 36.1156 36.4353C35.2715 35.2907 34.5007 34.1408 33.75 32.9782C33.6821 32.8735 33.698 32.6757 33.7446 32.5445C34.4774 30.4552 35.2206 28.3701 35.964 26.2851C35.9894 26.2131 36.0371 26.1497 36.1156 26.0058C36.1156 26.9177 36.1145 27.7354 36.1166 28.5531C36.1177 29.0831 36.3181 29.3286 36.7423 29.3317C37.1706 29.336 37.3848 29.0884 37.3848 28.569C37.3869 26.4977 37.3976 24.4253 37.3721 22.353C37.3689 22.0779 37.247 21.7457 37.0657 21.5405C30.8446 14.4845 24.6087 7.44015 18.3749 0.395786C17.9189 -0.119398 17.6411 -0.128918 17.1586 0.351355C15.9975 1.50761 14.8312 2.65963 13.6839 3.82964C13.4771 4.03909 13.3 4.30568 13.194 4.57967C12.3277 6.83082 11.4826 9.08937 10.6301 11.3448C9.64711 13.9461 8.66417 16.5463 7.66638 19.1857C7.54232 19.1635 7.45218 19.1518 7.36417 19.1317C5.07275 18.6377 2.54381 19.7485 1.36894 21.7658C1.1399 22.1594 1.20566 22.5328 1.53861 22.7317C1.85565 22.921 2.20132 22.8015 2.43248 22.4228C3.45677 20.7503 5.11304 20.014 7.06939 20.3631C9.48911 20.7947 11.0786 23.2511 10.541 25.7307C10.0203 28.1342 7.56988 29.6438 5.18833 29.0281C3.23304 28.5235 1.88851 26.8542 1.81853 24.8316C1.80686 24.5004 1.72947 24.2275 1.38168 24.1164C0.915122 23.9662 0.549287 24.2751 0.545045 24.8167C0.522778 28.1046 3.51933 30.7334 6.90715 30.3441C9.09784 30.0924 10.6725 28.9012 11.526 26.8859C12.3722 24.8855 12.1411 22.939 10.7891 21.2168C10.2791 20.5673 9.58029 20.0637 8.91757 19.447C10.6014 14.9817 12.3256 10.4096 14.0698 5.78352C14.1875 5.95384 14.2777 6.07973 14.3635 6.20773C18.0727 11.7467 21.7818 17.2858 25.4909 22.8258C25.5566 22.9242 25.6181 23.0268 25.6934 23.1178C25.9246 23.4013 26.3455 23.4796 26.618 23.2955C26.899 23.1062 26.9616 22.7666 26.759 22.4196C26.6074 22.1583 26.4473 21.897 26.2639 21.6569C26.1059 21.4495 26.109 21.2803 26.2267 21.0486C26.9393 19.6363 27.6349 18.2156 28.3379 16.7981C28.3878 16.6997 28.4503 16.6077 28.5426 16.4522V24.9955C28.4429 24.8876 28.3867 24.8199 28.3241 24.7596C28.0484 24.4941 27.7219 24.4708 27.4324 24.693C27.163 24.9003 27.1111 25.2071 27.2935 25.5414C27.3369 25.6228 27.3921 25.6979 27.443 25.7741C30.3208 30.0913 33.1975 34.4074 36.0764 38.7235C36.1421 38.8219 36.193 38.9647 36.2863 39.0039C36.5164 39.0991 36.791 39.2366 37.0031 39.1816C37.1653 39.1403 37.3615 38.8335 37.3657 38.641C37.3975 37.362 37.3954 36.081 37.3753 34.8009ZM17.0431 8.01457C16.8183 7.6824 16.6454 7.42746 16.4747 7.17039C15.9498 6.37911 15.4334 5.58253 14.8969 4.7997C14.7527 4.58919 14.74 4.46118 14.9361 4.27183C15.6264 3.60325 16.2966 2.91352 17.0431 2.16349V8.01457ZM18.3494 2.31371C19.1924 3.2605 19.9855 4.15229 20.8073 5.07581C20.0036 6.08396 19.2019 7.08682 18.3494 8.15527V2.31371ZM22.1402 13.415C22.1402 13.0426 22.1444 12.6703 22.1402 12.2979C22.1338 11.8208 21.9079 11.5584 21.5071 11.5521C21.0957 11.5457 20.8762 11.7922 20.872 12.2799C20.8667 12.7253 20.8709 13.1706 20.8709 13.616C20.8433 13.6223 20.8169 13.6298 20.7893 13.6361C19.994 12.4566 19.1998 11.277 18.3939 10.0817C19.203 9.08937 20.0004 8.11084 20.8709 7.04345C20.8709 7.91196 20.8487 8.67045 20.8847 9.42683C20.8953 9.6437 21.0236 9.93038 21.1943 10.0489C21.6153 10.3429 22.1296 10.0108 22.137 9.4628C22.1487 8.67151 22.1402 7.87917 22.1412 7.08788V6.59914C23.0086 7.5745 23.8028 8.46734 24.6182 9.38346C23.8176 10.7354 23.0213 12.081 22.225 13.4266C22.1964 13.4224 22.1688 13.4192 22.1402 13.415ZM24.668 19.3645C24.5864 19.2756 24.5228 19.2217 24.4782 19.155C23.7954 18.1352 23.1093 17.1165 22.4392 16.0882C22.3692 15.9814 22.3268 15.7741 22.383 15.6778C23.1093 14.4232 23.8569 13.1812 24.5981 11.935C24.6214 11.9435 24.6447 11.9509 24.668 11.9594V19.3645ZM28.3411 13.8445C27.5808 15.3911 26.8068 16.9303 26.0348 18.4716C26.0126 18.4642 25.9892 18.4568 25.967 18.4505V10.929C26.3285 11.3342 26.6392 11.6812 26.9499 12.0303C27.3889 12.5232 27.8321 13.012 28.2605 13.5155C28.3284 13.5948 28.3803 13.7641 28.3411 13.8445ZM29.781 23.9049V15.2367C30.6039 16.1602 31.3673 17.0118 32.1191 17.8739C32.1774 17.9406 32.1923 18.0971 32.1573 18.1828C31.396 20.0743 30.624 21.9615 29.8521 23.8488C29.8447 23.8668 29.8171 23.8774 29.781 23.9049ZM32.2856 30.8202C32.0629 30.4965 31.888 30.2447 31.7151 29.9897C31.1394 29.1381 30.5593 28.2887 29.9984 27.4276C29.921 27.3091 29.8776 27.0986 29.9284 26.9748C30.6665 25.1584 31.4235 23.3495 32.1774 21.5395C32.1955 21.4961 32.222 21.4548 32.2856 21.3353V30.8202ZM33.5856 29.0324V19.5856C33.6906 19.6818 33.768 19.74 33.8305 19.8109C34.507 20.5694 35.1878 21.3258 35.8494 22.098C35.9385 22.2017 36 22.4122 35.9576 22.5328C35.209 24.6433 34.4423 26.7474 33.6789 28.8525C33.6672 28.8864 33.646 28.9171 33.5856 29.0324Z" fill="white"/>
</svg>
