<svg width="965" height="614" viewBox="0 0 965 614" fill="none" xmlns="http://www.w3.org/2000/svg">
<path d="M668.585 339.355L668.414 340.322L694.105 344.83L694.275 343.864L668.585 339.355Z" fill="#B0AAAA"/>
<path d="M696.438 287.918L675.02 289.787L675.077 290.439L696.495 288.57L696.438 287.918Z" fill="#B0AAAA"/>
<path d="M683.086 303.453L697.416 303.203L697.421 303.53L683.089 303.78L683.086 303.453Z" fill="#B0AAAA"/>
<path d="M683.086 310.765L683.089 310.438L697.421 310.687L697.416 311.017L683.086 310.765Z" fill="#B0AAAA"/>
<path d="M697.297 299.483L682.973 299.981L682.984 300.308L697.308 299.81L697.297 299.483Z" fill="#B0AAAA"/>
<path d="M696.899 292.003L682.602 293L682.624 293.327L696.922 292.329L696.899 292.003Z" fill="#B0AAAA"/>
<path d="M682.836 296.473L697.149 295.724L697.166 296.052L682.853 296.8L682.836 296.473Z" fill="#B0AAAA"/>
<path d="M675.233 323.582L675.176 324.234L696.593 326.118L696.651 325.466L675.233 323.582Z" fill="#B0AAAA"/>
<path d="M683.015 313.947L683.004 314.274L697.328 314.775L697.339 314.448L683.015 313.947Z" fill="#B0AAAA"/>
<path d="M682.64 320.904L682.617 321.231L696.915 322.235L696.938 321.909L682.64 320.904Z" fill="#B0AAAA"/>
<path d="M682.836 317.747L682.853 317.42L697.166 318.169L697.149 318.496L682.836 317.747Z" fill="#B0AAAA"/>
<path d="M694.095 269.387L668.406 273.904L668.577 274.871L694.266 270.353L694.095 269.387Z" fill="#B0AAAA"/>
<path d="M680.668 338.254L680.617 338.577L694.774 340.808L694.825 340.485L680.668 338.254Z" fill="#B0AAAA"/>
<path d="M681.141 335.125L681.185 334.801L695.382 336.789L695.334 337.114L681.141 335.125Z" fill="#B0AAAA"/>
<path d="M682.035 327.864L682 328.189L696.253 329.693L696.288 329.368L682.035 327.864Z" fill="#B0AAAA"/>
<path d="M681.626 331.326L681.586 331.651L695.813 333.383L695.853 333.058L681.626 331.326Z" fill="#B0AAAA"/>
<path d="M694.781 273.394L680.625 275.63L680.676 275.953L694.833 273.717L694.781 273.394Z" fill="#B0AAAA"/>
<path d="M681.141 279.095L695.334 277.104L695.382 277.431L681.185 279.42L681.141 279.095Z" fill="#B0AAAA"/>
<path d="M696.254 284.532L682 286.026L682.034 286.352L696.289 284.857L696.254 284.532Z" fill="#B0AAAA"/>
<path d="M695.82 280.825L681.594 282.567L681.634 282.892L695.86 281.15L695.82 280.825Z" fill="#B0AAAA"/>
<path d="M653.113 369.235L653.224 368.928L653.87 369.161L653.758 369.468L653.113 369.235Z" fill="#B0AAAA"/>
<path d="M668.585 339.355L668.414 340.322L694.105 344.83L694.275 343.864L668.585 339.355Z" fill="#B0AAAA"/>
<path d="M657.949 388.351L657.672 388.944L677.164 397.993L677.441 397.4L657.949 388.351Z" fill="#B0AAAA"/>
<path d="M669.844 378.655L669.727 378.96L683.104 384.092L683.222 383.787L669.844 378.655Z" fill="#B0AAAA"/>
<path d="M672.129 372.421L672.237 372.111L685.789 376.767L685.683 377.077L672.129 372.421Z" fill="#B0AAAA"/>
<path d="M668.561 381.903L668.438 382.206L681.722 387.572L681.845 387.269L668.561 381.903Z" fill="#B0AAAA"/>
<path d="M665.829 388.354L665.695 388.653L678.792 394.46L678.925 394.161L665.829 388.354Z" fill="#B0AAAA"/>
<path d="M667.222 385.135L667.094 385.436L680.291 391.012L680.419 390.711L667.222 385.135Z" fill="#B0AAAA"/>
<path d="M669.452 356.745L669.281 357.38L690.045 362.944L690.216 362.31L669.452 356.745Z" fill="#B0AAAA"/>
<path d="M673.336 368.783L673.234 369.094L686.865 373.514L686.966 373.203L673.336 368.783Z" fill="#B0AAAA"/>
<path d="M675.297 362.431L675.389 362.117L689.168 366.055L689.076 366.371L675.297 362.431Z" fill="#B0AAAA"/>
<path d="M674.393 365.456L674.297 365.769L688.003 369.95L688.099 369.637L674.393 365.456Z" fill="#B0AAAA"/>
<path d="M639.867 397.587L639.703 397.871L639.99 398.035L640.154 397.752L639.867 397.587Z" fill="#B0AAAA"/>
<path d="M679.446 345.105L679.383 345.426L693.45 348.163L693.513 347.842L679.446 345.105Z" fill="#B0AAAA"/>
<path d="M678.771 348.568L678.703 348.888L692.724 351.852L692.792 351.532L678.771 348.568Z" fill="#B0AAAA"/>
<path d="M677.205 355.386L677.125 355.704L691.03 359.171L691.109 358.854L677.205 355.386Z" fill="#B0AAAA"/>
<path d="M677.934 352.287L678.009 351.968L691.974 355.185L691.899 355.504L677.934 352.287Z" fill="#B0AAAA"/>
<path d="M658.034 404.003L657.875 404.29L670.417 411.214L670.576 410.928L658.034 404.003Z" fill="#B0AAAA"/>
<path d="M659.701 400.919L659.547 401.208L672.205 407.912L672.359 407.623L659.701 400.919Z" fill="#B0AAAA"/>
<path d="M662.878 394.7L662.734 394.994L675.621 401.252L675.765 400.958L662.878 394.7Z" fill="#B0AAAA"/>
<path d="M661.313 397.799L661.164 398.09L673.939 404.571L674.088 404.279L661.313 397.799Z" fill="#B0AAAA"/>
<path d="M599.102 168.202L599.975 167.162L600.228 167.376L599.352 168.413L599.102 168.202Z" fill="#B0AAAA"/>
<path d="M603.754 451.545L604.007 451.334L620.773 471.266L620.522 471.477L603.754 451.545Z" fill="#B0AAAA"/>
<path d="M641.15 417.498L640.773 418.034L658.375 430.349L658.752 429.813L641.15 417.498Z" fill="#B0AAAA"/>
<path d="M638.495 432.943L638.289 433.197L649.432 442.187L649.639 441.933L638.495 432.943Z" fill="#B0AAAA"/>
<path d="M634.004 438.273L633.789 438.52L644.6 447.906L644.815 447.659L634.004 438.273Z" fill="#B0AAAA"/>
<path d="M640.679 430.213L640.477 430.471L651.766 439.277L651.968 439.019L640.679 430.213Z" fill="#B0AAAA"/>
<path d="M644.695 424.877L644.887 424.611L656.484 433.013L656.292 433.279L644.695 424.877Z" fill="#B0AAAA"/>
<path d="M642.815 427.395L642.617 427.656L654.056 436.269L654.254 436.008L642.815 427.395Z" fill="#B0AAAA"/>
<path d="M619.499 443.362L619.035 443.824L634.238 458.987L634.702 458.524L619.499 443.362Z" fill="#B0AAAA"/>
<path d="M631.673 440.929L631.453 441.173L642.106 450.736L642.326 450.492L631.673 440.929Z" fill="#B0AAAA"/>
<path d="M626.916 446.011L626.688 446.246L636.989 456.189L637.217 455.954L626.916 446.011Z" fill="#B0AAAA"/>
<path d="M629.094 443.719L629.319 443.481L639.801 453.228L639.576 453.469L629.094 443.719Z" fill="#B0AAAA"/>
<path d="M639.867 397.587L639.703 397.871L639.99 398.035L640.154 397.752L639.867 397.587Z" fill="#B0AAAA"/>
<path d="M614.212 458.055L613.965 458.269L623.379 469.052L623.627 468.837L614.212 458.055Z" fill="#B0AAAA"/>
<path d="M616.853 455.715L616.609 455.934L626.198 466.558L626.442 466.339L616.853 455.715Z" fill="#B0AAAA"/>
<path d="M621.951 450.975L621.715 451.203L631.684 461.477L631.92 461.25L621.951 450.975Z" fill="#B0AAAA"/>
<path d="M619.184 453.589L619.426 453.364L629.198 463.821L628.959 464.045L619.184 453.589Z" fill="#B0AAAA"/>
<path d="M654.367 410.325L654.537 410.045L666.823 417.407L666.654 417.687L654.367 410.325Z" fill="#B0AAAA"/>
<path d="M652.535 413.303L652.71 413.023L664.866 420.601L664.691 420.879L652.535 413.303Z" fill="#B0AAAA"/>
<path d="M648.902 418.853L648.719 419.125L660.601 427.118L660.785 426.847L648.902 418.853Z" fill="#B0AAAA"/>
<path d="M650.652 416.245L650.83 415.971L662.853 423.757L662.672 424.032L650.652 416.245Z" fill="#B0AAAA"/>
<path d="M515.747 492.57L514.777 492.74L519.299 518.365L520.268 518.195L515.747 492.57Z" fill="#B0AAAA"/>
<path d="M482.609 495.521H482.281V521.54H482.609V495.521Z" fill="#B0AAAA"/>
<path d="M532.832 493.438L532.195 493.609L537.775 514.317L538.411 514.147L532.832 493.438Z" fill="#B0AAAA"/>
<path d="M520.912 503.529L520.59 503.592L523.337 517.622L523.659 517.559L520.912 503.529Z" fill="#B0AAAA"/>
<path d="M513.984 504.757L513.66 504.808L515.897 518.927L516.221 518.876L513.984 504.757Z" fill="#B0AAAA"/>
<path d="M524.352 502.828L524.031 502.896L527.004 516.88L527.325 516.812L524.352 502.828Z" fill="#B0AAAA"/>
<path d="M531.131 501.266L530.812 501.346L534.285 515.214L534.603 515.135L531.131 501.266Z" fill="#B0AAAA"/>
<path d="M527.43 502.148L527.749 502.076L530.972 516.005L530.652 516.077L527.43 502.148Z" fill="#B0AAAA"/>
<path d="M499.658 499.327L499.004 499.385L500.893 520.745L501.546 520.687L499.658 499.327Z" fill="#B0AAAA"/>
<path d="M510.211 505.318L510.539 505.271L512.533 519.427L512.207 519.474L510.211 505.318Z" fill="#B0AAAA"/>
<path d="M503.561 506.133L503.234 506.167L504.745 520.385L505.072 520.351L503.561 506.133Z" fill="#B0AAAA"/>
<path d="M507.044 505.737L506.719 505.776L508.456 519.965L508.781 519.926L507.044 505.737Z" fill="#B0AAAA"/>
<path d="M485.785 507.215L486.113 507.209L486.363 521.501L486.035 521.506L485.785 507.215Z" fill="#B0AAAA"/>
<path d="M489.64 507.114L489.312 507.125L489.818 521.411L490.146 521.399L489.64 507.114Z" fill="#B0AAAA"/>
<path d="M496.577 506.748L496.25 506.771L497.26 521.03L497.587 521.007L496.577 506.748Z" fill="#B0AAAA"/>
<path d="M492.785 506.976L493.116 506.959L493.867 521.235L493.536 521.251L492.785 506.976Z" fill="#B0AAAA"/>
<path d="M547.625 496.392L547.934 496.286L552.602 509.802L552.29 509.907L547.625 496.392Z" fill="#B0AAAA"/>
<path d="M537.602 499.534L537.919 499.442L541.869 513.185L541.552 513.276L537.602 499.534Z" fill="#B0AAAA"/>
<path d="M541.247 498.464L540.934 498.56L545.129 512.228L545.443 512.133L541.247 498.464Z" fill="#B0AAAA"/>
<path d="M603.754 451.545L604.007 451.334L620.773 471.266L620.522 471.477L603.754 451.545Z" fill="#B0AAAA"/>
<path d="M564.54 481.862L563.945 482.138L573.018 501.579L573.613 501.303L564.54 481.862Z" fill="#B0AAAA"/>
<path d="M579.885 482.064L579.598 482.222L586.54 494.728L586.827 494.569L579.885 482.064Z" fill="#B0AAAA"/>
<path d="M585.66 478.742L585.941 478.573L593.323 490.826L593.042 490.996L585.66 478.742Z" fill="#B0AAAA"/>
<path d="M576.798 483.743L576.508 483.896L583.23 496.521L583.52 496.367L576.798 483.743Z" fill="#B0AAAA"/>
<path d="M570.545 486.931L570.25 487.074L576.522 499.928L576.817 499.785L570.545 486.931Z" fill="#B0AAAA"/>
<path d="M573.695 485.36L573.402 485.508L579.9 498.249L580.193 498.101L573.695 485.36Z" fill="#B0AAAA"/>
<path d="M593.709 464.995L593.172 465.371L605.523 482.923L606.06 482.547L593.709 464.995Z" fill="#B0AAAA"/>
<path d="M588.645 476.917L588.923 476.743L596.519 488.869L596.24 489.041L588.645 476.917Z" fill="#B0AAAA"/>
<path d="M594.803 472.919L594.531 473.102L602.546 484.953L602.818 484.77L594.803 472.919Z" fill="#B0AAAA"/>
<path d="M591.602 475.043L591.877 474.865L599.684 486.856L599.409 487.033L591.602 475.043Z" fill="#B0AAAA"/>
<path d="M546.906 484.213L547.215 484.102L556.137 508.548L555.828 508.662L546.906 484.213Z" fill="#B0AAAA"/>
<path d="M608.872 462.516L608.617 462.722L617.633 473.834L617.888 473.628L608.872 462.516Z" fill="#B0AAAA"/>
<path d="M606.102 464.74L605.844 464.941L614.674 476.201L614.932 475.999L606.102 464.74Z" fill="#B0AAAA"/>
<path d="M600.266 469.117L600.533 468.923L608.957 480.489L608.69 480.68L600.266 469.117Z" fill="#B0AAAA"/>
<path d="M603.324 466.868L603.062 467.065L611.698 478.474L611.96 478.277L603.324 466.868Z" fill="#B0AAAA"/>
<path d="M554.211 494.007L554.517 493.891L559.652 507.237L559.346 507.353L554.211 494.007Z" fill="#B0AAAA"/>
<path d="M557.765 492.608L557.461 492.73L562.842 505.979L563.146 505.857L557.765 492.608Z" fill="#B0AAAA"/>
<path d="M564.237 489.862L563.938 489.994L569.758 503.057L570.058 502.924L564.237 489.862Z" fill="#B0AAAA"/>
<path d="M560.99 491.286L560.688 491.414L566.279 504.576L566.581 504.449L560.99 491.286Z" fill="#B0AAAA"/>
<path d="M684.317 233.303L659.805 242.201L660.142 243.126L684.654 234.228L684.317 233.303Z" fill="#B0AAAA"/>
<path d="M668.559 199.751L645.969 212.759L646.133 213.043L668.723 200.035L668.559 199.751Z" fill="#B0AAAA"/>
<path d="M689.862 251.135L669.094 256.685L669.264 257.32L690.032 251.77L689.862 251.135Z" fill="#B0AAAA"/>
<path d="M672.129 241.799L685.683 237.143L685.789 237.454L672.237 242.109L672.129 241.799Z" fill="#B0AAAA"/>
<path d="M683.107 230.126L669.727 235.249L669.844 235.555L683.225 230.432L683.107 230.126Z" fill="#B0AAAA"/>
<path d="M686.873 240.691L673.242 245.108L673.344 245.42L686.975 241.002L686.873 240.691Z" fill="#B0AAAA"/>
<path d="M675.297 251.787L689.076 247.849L689.168 248.163L675.389 252.103L675.297 251.787Z" fill="#B0AAAA"/>
<path d="M688.003 244.263L674.297 248.442L674.393 248.755L688.099 244.576L688.003 244.263Z" fill="#B0AAAA"/>
<path d="M676.994 216.034L657.508 225.096L657.785 225.689L677.271 216.627L676.994 216.034Z" fill="#B0AAAA"/>
<path d="M681.731 226.642L668.441 231.997L668.564 232.3L681.853 226.946L681.731 226.642Z" fill="#B0AAAA"/>
<path d="M678.793 219.757L665.699 225.571L665.833 225.87L678.926 220.056L678.793 219.757Z" fill="#B0AAAA"/>
<path d="M680.288 223.197L667.094 228.78L667.222 229.081L680.416 223.498L680.288 223.197Z" fill="#B0AAAA"/>
<path d="M694.095 269.387L668.406 273.904L668.577 274.871L694.266 270.353L694.095 269.387Z" fill="#B0AAAA"/>
<path d="M670.411 203.01L657.875 209.941L658.034 210.227L670.57 203.297L670.411 203.01Z" fill="#B0AAAA"/>
<path d="M672.206 206.3L659.551 213.011L659.705 213.3L672.36 206.589L672.206 206.3Z" fill="#B0AAAA"/>
<path d="M675.617 212.962L662.734 219.228L662.878 219.522L675.76 213.256L675.617 212.962Z" fill="#B0AAAA"/>
<path d="M673.942 209.622L661.172 216.112L661.321 216.403L674.091 209.914L673.942 209.622Z" fill="#B0AAAA"/>
<path d="M693.457 266.054L679.387 268.779L679.449 269.1L693.519 266.375L693.457 266.054Z" fill="#B0AAAA"/>
<path d="M692.723 262.353L678.703 265.325L678.771 265.645L692.791 262.673L692.723 262.353Z" fill="#B0AAAA"/>
<path d="M691.024 255.069L677.117 258.527L677.197 258.844L691.104 255.386L691.024 255.069Z" fill="#B0AAAA"/>
<path d="M677.934 261.93L691.899 258.714L691.974 259.033L678.009 262.249L677.934 261.93Z" fill="#B0AAAA"/>
<path d="M646.83 168.899L626.848 185.622L627.482 186.376L647.465 169.654L646.83 168.899Z" fill="#B0AAAA"/>
<path d="M668.395 199.468L645.805 212.476L646.298 213.328L668.889 200.32L668.395 199.468Z" fill="#B0AAAA"/>
<path d="M634.07 155.086L618.867 170.248L619.331 170.711L634.534 155.548L634.07 155.086Z" fill="#B0AAAA"/>
<path d="M644.606 166.307L633.789 175.685L634.004 175.932L644.821 166.554L644.606 166.307Z" fill="#B0AAAA"/>
<path d="M649.432 172.04L638.293 181.036L638.499 181.29L649.638 172.294L649.432 172.04Z" fill="#B0AAAA"/>
<path d="M642.116 163.504L631.465 173.069L631.684 173.312L642.336 163.748L642.116 163.504Z" fill="#B0AAAA"/>
<path d="M636.99 158.031L626.68 167.961L626.908 168.196L637.218 158.266L636.99 158.031Z" fill="#B0AAAA"/>
<path d="M629.094 170.501L639.576 160.751L639.801 160.99L629.319 170.739L629.094 170.501Z" fill="#B0AAAA"/>
<path d="M658.206 183.68L640.594 195.98L640.97 196.516L658.582 184.216L658.206 183.68Z" fill="#B0AAAA"/>
<path d="M651.767 174.961L640.473 183.762L640.675 184.019L651.969 175.219L651.767 174.961Z" fill="#B0AAAA"/>
<path d="M644.695 189.343L656.292 180.941L656.484 181.204L644.887 189.606L644.695 189.343Z" fill="#B0AAAA"/>
<path d="M654.056 177.939L642.609 186.542L642.807 186.803L654.253 178.201L654.056 177.939Z" fill="#B0AAAA"/>
<path d="M599.403 167.865L599.109 168.213L599.361 168.424L599.654 168.075L599.403 167.865Z" fill="#B0AAAA"/>
<path d="M654.367 203.893L666.654 196.531L666.823 196.811L654.537 204.173L654.367 203.893Z" fill="#B0AAAA"/>
<path d="M652.535 200.917L664.691 193.342L664.866 193.619L652.71 201.195L652.535 200.917Z" fill="#B0AAAA"/>
<path d="M660.601 187.064L648.719 195.058L648.902 195.329L660.785 187.335L660.601 187.064Z" fill="#B0AAAA"/>
<path d="M650.652 197.972L662.672 190.186L662.853 190.461L650.83 198.247L650.652 197.972Z" fill="#B0AAAA"/>
<path d="M623.38 145.175L613.977 155.963L614.224 156.178L623.627 145.39L623.38 145.175Z" fill="#B0AAAA"/>
<path d="M626.192 147.65L616.602 158.273L616.845 158.492L626.436 147.869L626.192 147.65Z" fill="#B0AAAA"/>
<path d="M631.683 152.75L621.727 163.032L621.963 163.26L631.919 152.977L631.683 152.75Z" fill="#B0AAAA"/>
<path d="M619.184 160.629L628.959 150.175L629.198 150.4L619.426 160.854L619.184 160.629Z" fill="#B0AAAA"/>
<path d="M589.519 121.164L576.477 143.694L577.331 144.186L590.374 121.656L589.519 121.164Z" fill="#B0AAAA"/>
<path d="M605.324 131.101L592.992 148.666L593.53 149.042L605.862 131.476L605.324 131.101Z" fill="#B0AAAA"/>
<path d="M585.66 135.479L593.042 123.225L593.323 123.394L585.941 135.648L585.66 135.479Z" fill="#B0AAAA"/>
<path d="M586.539 119.487L579.59 131.989L579.877 132.148L586.825 119.645L586.539 119.487Z" fill="#B0AAAA"/>
<path d="M588.645 137.3L596.24 125.177L596.519 125.352L588.923 137.475L588.645 137.3Z" fill="#B0AAAA"/>
<path d="M602.538 129.248L594.523 141.099L594.795 141.282L602.81 129.431L602.538 129.248Z" fill="#B0AAAA"/>
<path d="M591.602 139.175L599.409 127.187L599.684 127.365L591.877 139.352L591.602 139.175Z" fill="#B0AAAA"/>
<path d="M572.837 112.458L563.75 131.893L564.345 132.169L573.431 112.735L572.837 112.458Z" fill="#B0AAAA"/>
<path d="M583.241 117.707L576.512 130.328L576.801 130.482L583.53 117.861L583.241 117.707Z" fill="#B0AAAA"/>
<path d="M576.545 114.309L570.262 127.157L570.557 127.301L576.84 114.453L576.545 114.309Z" fill="#B0AAAA"/>
<path d="M579.905 115.973L573.398 128.71L573.691 128.859L580.198 116.122L579.905 115.973Z" fill="#B0AAAA"/>
<path d="M554.211 120.211L559.346 106.864L559.652 106.984L554.517 120.33L554.211 120.211Z" fill="#B0AAAA"/>
<path d="M562.83 108.232L557.461 121.486L557.765 121.609L563.134 108.355L562.83 108.232Z" fill="#B0AAAA"/>
<path d="M569.74 111.151L563.91 124.21L564.21 124.343L570.04 111.284L569.74 111.151Z" fill="#B0AAAA"/>
<path d="M566.307 109.668L560.707 122.826L561.009 122.954L566.609 109.796L566.307 109.668Z" fill="#B0AAAA"/>
<path d="M617.621 140.363L608.602 151.472L608.857 151.678L617.876 140.569L617.621 140.363Z" fill="#B0AAAA"/>
<path d="M614.687 138.04L605.863 149.304L606.122 149.506L614.946 138.242L614.687 138.04Z" fill="#B0AAAA"/>
<path d="M600.266 145.103L608.69 133.537L608.957 133.729L600.533 145.295L600.266 145.103Z" fill="#B0AAAA"/>
<path d="M611.704 135.757L603.078 147.174L603.34 147.371L611.966 135.954L611.704 135.757Z" fill="#B0AAAA"/>
<path d="M519.295 95.8556L514.766 121.476L515.735 121.647L520.265 96.0261L519.295 95.8556Z" fill="#B0AAAA"/>
<path d="M546.906 130.005L555.828 105.558L556.137 105.669L547.215 130.118L546.906 130.005Z" fill="#B0AAAA"/>
<path d="M500.686 93.2973L498.812 114.659L499.466 114.716L501.34 93.3543L500.686 93.2973Z" fill="#B0AAAA"/>
<path d="M515.922 95.3004L513.68 109.419L514.004 109.47L516.246 95.3516L515.922 95.3004Z" fill="#B0AAAA"/>
<path d="M523.309 96.5901L520.574 110.622L520.896 110.685L523.631 96.6526L523.309 96.5901Z" fill="#B0AAAA"/>
<path d="M510.211 108.902L512.207 94.7466L512.533 94.7909L510.539 108.947L510.211 108.902Z" fill="#B0AAAA"/>
<path d="M504.76 93.8419L503.262 108.058L503.588 108.092L505.086 93.8761L504.76 93.8419Z" fill="#B0AAAA"/>
<path d="M508.481 94.2575L506.734 108.446L507.06 108.485L508.807 94.2974L508.481 94.2575Z" fill="#B0AAAA"/>
<path d="M537.6 99.7319L532.035 120.444L532.672 120.615L538.236 99.902L537.6 99.7319Z" fill="#B0AAAA"/>
<path d="M526.996 97.3347L524.016 111.317L524.337 111.385L527.316 97.4027L526.996 97.3347Z" fill="#B0AAAA"/>
<path d="M534.303 99.0109L530.836 112.881L531.154 112.96L534.622 99.0901L534.303 99.0109Z" fill="#B0AAAA"/>
<path d="M527.43 112.069L530.652 98.1406L530.972 98.2155L527.749 112.144L527.43 112.069Z" fill="#B0AAAA"/>
<path d="M547.625 117.829L552.29 104.311L552.602 104.419L547.934 117.934L547.625 117.829Z" fill="#B0AAAA"/>
<path d="M548.73 103.127L544.301 116.722L544.613 116.823L549.042 103.228L548.73 103.127Z" fill="#B0AAAA"/>
<path d="M537.602 114.684L541.552 100.944L541.869 101.036L537.919 114.776L537.602 114.684Z" fill="#B0AAAA"/>
<path d="M545.151 102.002L540.961 115.672L541.275 115.768L545.465 102.098L545.151 102.002Z" fill="#B0AAAA"/>
<path d="M485.785 107.006L486.035 92.7112L486.363 92.7167L486.113 107.011L485.785 107.006Z" fill="#B0AAAA"/>
<path d="M489.781 92.8074L489.281 107.093L489.609 107.105L490.109 92.8188L489.781 92.8074Z" fill="#B0AAAA"/>
<path d="M497.281 93.1938L496.281 107.453L496.609 107.476L497.608 93.2166L497.281 93.1938Z" fill="#B0AAAA"/>
<path d="M492.785 107.244L493.536 92.9663L493.867 92.9829L493.116 107.261L492.785 107.244Z" fill="#B0AAAA"/>
<path d="M555.523 105.447L546.602 129.894L547.529 130.23L556.451 105.784L555.523 105.447Z" fill="#B0AAAA"/>
<path d="M636.083 306.863H616.781V307.354H636.083V306.863Z" fill="#B0AAAA"/>
<path d="M577.316 470.053L576.461 470.545L589.504 493.076L590.358 492.583L577.316 470.053Z" fill="#B0AAAA"/>
<path d="M627.483 427.851L626.848 428.605L646.818 445.342L647.453 444.588L627.483 427.851Z" fill="#B0AAAA"/>
<path d="M646.298 400.869L645.805 401.722L668.395 414.73L668.889 413.877L646.298 400.869Z" fill="#B0AAAA"/>
<path d="M646.298 400.869L645.805 401.722L668.395 414.73L668.889 413.877L646.298 400.869Z" fill="#B0AAAA"/>
<path d="M660.15 371.111L659.812 372.036L684.322 380.942L684.66 380.017L660.15 371.111Z" fill="#B0AAAA"/>
<path d="M697.445 306.617H671.359V307.601H697.445V306.617Z" fill="#B0AAAA"/>
<path d="M603.754 162.673L620.522 142.744L620.773 142.954L604.007 162.883L603.754 162.673Z" fill="#B0AAAA"/>
<path d="M620.267 142.534L603.5 162.463L604.256 163.096L621.023 143.166L620.267 142.534Z" fill="#B0AAAA"/>
<path d="M482.94 92.6807H481.953V118.696H482.94V92.6807Z" fill="#B0AAAA"/>
<path d="M482.94 495.521H481.953V521.54H482.94V495.521Z" fill="#B0AAAA"/>
<path d="M547.548 483.971L546.621 484.308L555.551 508.751L556.479 508.414L547.548 483.971Z" fill="#B0AAAA"/>
<path d="M482.609 153.883H482.281V173.132H482.609V153.883Z" fill="#B0AAAA"/>
<path d="M544.625 497.388L544.312 497.489L548.744 511.083L549.056 510.982L544.625 497.388Z" fill="#B0AAAA"/>
<path d="M522.098 159.081L517.406 176.482L517.881 176.61L522.573 159.209L522.098 159.081Z" fill="#B0AAAA"/>
<path d="M630.791 267.204L613.34 271.867L613.467 272.341L630.918 267.678L630.791 267.204Z" fill="#B0AAAA"/>
<path d="M559.053 174.289L550.02 189.894L550.446 190.139L559.479 174.534L559.053 174.289Z" fill="#B0AAAA"/>
<path d="M615.373 230.286L599.727 239.295L599.973 239.72L615.619 230.711L615.373 230.286Z" fill="#B0AAAA"/>
<path d="M630.672 320.29L630.716 319.799L645.183 321.064L645.141 321.555L630.672 320.29Z" fill="#B0AAAA"/>
<path d="M626.225 345.364L626.141 345.68L640.17 349.419L640.255 349.102L626.225 345.364Z" fill="#B0AAAA"/>
<path d="M624.302 331.711L624.188 332.355L643.241 335.71L643.356 335.065L624.302 331.711Z" fill="#B0AAAA"/>
<path d="M626.24 345.272L626.113 345.746L640.144 349.48L640.271 349.006L626.24 345.272Z" fill="#B0AAAA"/>
<path d="M617.857 355.898L617.633 356.513L635.816 363.11L636.04 362.495L617.857 355.898Z" fill="#B0AAAA"/>
<path d="M617.385 369.705L617.246 370.001L630.412 376.113L630.55 375.816L617.385 369.705Z" fill="#B0AAAA"/>
<path d="M607.305 378.62L606.977 379.186L623.73 388.841L624.058 388.274L607.305 378.62Z" fill="#B0AAAA"/>
<path d="M617.415 369.59L617.207 370.035L630.373 376.147L630.58 375.702L617.415 369.59Z" fill="#B0AAAA"/>
<path d="M617.857 355.898L617.633 356.513L635.816 363.11L636.04 362.495L617.857 355.898Z" fill="#B0AAAA"/>
<path d="M604.438 392.116L604.25 392.384L616.149 400.691L616.337 400.423L604.438 392.116Z" fill="#B0AAAA"/>
<path d="M607.305 378.62L606.977 379.186L623.73 388.841L624.058 388.274L607.305 378.62Z" fill="#B0AAAA"/>
<path d="M604.203 392.437L604.487 392.035L616.384 400.342L616.1 400.747L604.203 392.437Z" fill="#B0AAAA"/>
<path d="M592.969 399.144L592.547 399.646L607.369 412.049L607.79 411.548L592.969 399.144Z" fill="#B0AAAA"/>
<path d="M587.787 411.937L587.555 412.168L597.823 422.409L598.055 422.178L587.787 411.937Z" fill="#B0AAAA"/>
<path d="M575.253 416.897L574.75 417.318L587.19 432.098L587.692 431.677L575.253 416.897Z" fill="#B0AAAA"/>
<path d="M587.787 411.937L587.555 412.168L597.823 422.409L598.055 422.178L587.787 411.937Z" fill="#B0AAAA"/>
<path d="M592.969 399.144L592.547 399.646L607.369 412.049L607.79 411.548L592.969 399.144Z" fill="#B0AAAA"/>
<path d="M567.952 428.565L567.684 428.753L576.015 440.619L576.283 440.432L567.952 428.565Z" fill="#B0AAAA"/>
<path d="M575.253 416.897L574.75 417.318L587.19 432.098L587.692 431.677L575.253 416.897Z" fill="#B0AAAA"/>
<path d="M567.602 428.823L568.007 428.543L576.337 440.406L575.934 440.689L567.602 428.823Z" fill="#B0AAAA"/>
<path d="M554.705 431.328L554.137 431.655L563.817 448.363L564.385 448.036L554.705 431.328Z" fill="#B0AAAA"/>
<path d="M545.485 441.551L545.188 441.689L551.319 454.821L551.616 454.683L545.485 441.551Z" fill="#B0AAAA"/>
<path d="M531.992 441.947L531.375 442.171L537.989 460.305L538.606 460.081L531.992 441.947Z" fill="#B0AAAA"/>
<path d="M545.559 441.52L545.113 441.727L551.242 454.86L551.689 454.653L545.559 441.52Z" fill="#B0AAAA"/>
<path d="M554.705 431.328L554.137 431.655L563.817 448.363L564.385 448.036L554.705 431.328Z" fill="#B0AAAA"/>
<path d="M521.122 450.426L520.805 450.51L524.554 464.505L524.871 464.421L521.122 450.426Z" fill="#B0AAAA"/>
<path d="M531.992 441.947L531.375 442.171L537.989 460.305L538.606 460.081L531.992 441.947Z" fill="#B0AAAA"/>
<path d="M521.183 450.413L520.707 450.539L524.452 464.536L524.927 464.409L521.183 450.413Z" fill="#B0AAAA"/>
<path d="M507.763 448.477L507.117 448.591L510.48 467.594L511.127 467.48L507.763 448.477Z" fill="#B0AAAA"/>
<path d="M495.258 454.975L495.583 454.944L496.851 469.375L496.523 469.403L495.258 454.975Z" fill="#B0AAAA"/>
<path d="M482.609 450.713H482.281V470.007H482.609V450.713Z" fill="#B0AAAA"/>
<path d="M495.172 454.981L495.664 454.939L496.929 469.367L496.437 469.408L495.172 454.981Z" fill="#B0AAAA"/>
<path d="M507.763 448.477L507.117 448.591L510.48 467.594L511.127 467.48L507.763 448.477Z" fill="#B0AAAA"/>
<path d="M482.445 522.194V520.882C600.636 520.882 696.789 424.986 696.789 307.11C696.789 189.235 600.636 93.338 482.445 93.338V92.0264C540.049 92.0264 594.205 114.399 634.94 155.022C675.672 195.646 698.104 249.657 698.104 307.11C698.104 364.563 675.672 418.572 634.94 459.198C594.208 499.822 540.052 522.194 482.445 522.194Z" fill="#B0AAAA"/>
<path d="M482.445 460.582V460.091C567.024 460.091 635.835 391.463 635.835 307.11C635.835 222.757 567.027 154.129 482.445 154.129V153.639C523.547 153.639 562.192 169.602 591.258 198.588C620.323 227.574 636.33 266.115 636.33 307.11C636.33 348.106 620.323 386.644 591.258 415.632C562.192 444.618 523.55 460.582 482.445 460.582Z" fill="#B0AAAA"/>
<path d="M482.445 507.439V507.045C592.984 507.045 682.915 417.354 682.915 307.11C682.915 196.866 592.987 107.175 482.445 107.175V106.781C509.562 106.781 535.867 112.077 560.632 122.523C584.551 132.614 606.032 147.058 624.48 165.457C642.928 183.855 657.411 205.279 667.528 229.135C678.002 253.833 683.313 280.068 683.313 307.113C683.313 334.157 678.002 360.392 667.528 385.091C657.411 408.947 642.928 430.371 624.48 448.766C606.032 467.165 584.551 481.609 560.632 491.7C535.867 502.146 509.562 507.442 482.445 507.442V507.439Z" fill="#B0AAAA"/>
<path d="M482.445 318.998V318.671C488.837 318.671 494.037 313.485 494.037 307.11C494.037 300.735 488.837 295.55 482.445 295.55V295.223C489.018 295.223 494.365 300.555 494.365 307.11C494.365 313.665 489.018 318.998 482.445 318.998Z" fill="#706F6F"/>
<path d="M482.445 267.279V266.952C504.649 266.952 522.711 284.968 522.711 307.11H522.382C522.382 285.148 504.466 267.279 482.445 267.279Z" fill="#706F6F"/>
<path d="M482.445 188.386V188.059C514.33 188.059 544.306 200.443 566.852 222.929C589.397 245.415 601.815 275.31 601.815 307.11H601.486C601.486 241.646 548.087 188.389 482.448 188.389L482.445 188.386Z" fill="#706F6F"/>
<path d="M482.445 413.669V413.342C541.178 413.342 588.961 365.686 588.961 307.11C588.961 248.534 541.18 200.878 482.445 200.878V200.551C510.983 200.551 537.816 211.635 557.996 231.761C578.176 251.887 589.289 278.646 589.289 307.11C589.289 335.575 578.176 362.334 557.996 382.46C537.816 402.586 510.986 413.669 482.445 413.669Z" fill="#706F6F"/>
<path d="M482.445 401.177V400.85C534.271 400.85 576.435 358.798 576.435 307.11C576.435 282.07 566.66 258.531 548.907 240.826L549.141 240.593C557.943 249.372 564.822 259.64 569.587 271.109C574.353 282.581 576.766 294.693 576.766 307.107C576.766 332.233 566.954 355.856 549.141 373.622C531.327 391.388 507.641 401.174 482.448 401.174L482.445 401.177Z" fill="#706F6F"/>
<path d="M482.445 450.877V450.549C561.75 450.549 626.265 386.203 626.265 307.11H626.593C626.593 345.513 611.599 381.614 584.373 408.769C557.148 435.922 520.948 450.877 482.445 450.877Z" fill="#B0AAAA"/>
<path d="M482.445 470.171V469.844C572.418 469.844 645.614 396.843 645.614 307.11H645.942C645.942 329.122 641.618 350.479 633.094 370.58C624.858 389.996 613.069 407.436 598.056 422.412C583.042 437.389 565.556 449.144 546.085 457.357C525.927 465.859 504.516 470.171 482.445 470.171Z" fill="#B0AAAA"/>
<path d="M616.008 326.856C616.199 326.526 616.43 326.299 616.7 326.172C616.97 326.044 617.273 326.011 617.606 326.072C618.11 326.16 618.502 326.416 618.78 326.84C619.058 327.261 619.144 327.774 619.038 328.373C618.93 328.975 618.668 329.43 618.251 329.735C617.834 330.04 617.376 330.148 616.87 330.059C616.55 330.001 616.286 329.868 616.077 329.657C615.869 329.446 615.732 329.158 615.663 328.795C615.449 329.194 615.168 329.477 614.82 329.643C614.473 329.81 614.084 329.854 613.655 329.779C613.063 329.674 612.602 329.377 612.274 328.886C611.946 328.395 611.843 327.81 611.962 327.128C612.085 326.446 612.385 325.933 612.863 325.586C613.341 325.24 613.883 325.121 614.49 325.229C614.94 325.309 615.296 325.489 615.56 325.772C615.824 326.055 615.974 326.416 616.008 326.856ZM614.328 326.102C614.086 326.061 613.842 326.075 613.594 326.149C613.347 326.224 613.141 326.363 612.977 326.568C612.813 326.771 612.707 327.003 612.66 327.264C612.588 327.669 612.66 328.027 612.874 328.337C613.088 328.648 613.397 328.839 613.8 328.908C614.209 328.981 614.573 328.908 614.89 328.681C615.207 328.456 615.402 328.14 615.474 327.733C615.543 327.333 615.474 326.978 615.254 326.671C615.037 326.363 614.729 326.172 614.331 326.102H614.328ZM617.478 326.942C617.15 326.884 616.864 326.942 616.619 327.114C616.375 327.289 616.222 327.544 616.161 327.88C616.102 328.207 616.161 328.493 616.327 328.739C616.494 328.983 616.731 329.133 617.031 329.189C617.342 329.244 617.623 329.183 617.876 329.006C618.126 328.828 618.279 328.578 618.338 328.26C618.396 327.935 618.338 327.647 618.171 327.397C618.001 327.145 617.77 326.995 617.481 326.945L617.478 326.942Z" fill="#706F6F"/>
<path d="M614.955 330.833C615.775 330.977 616.417 331.18 616.887 331.437C617.357 331.695 617.696 332.011 617.908 332.391C618.119 332.771 618.18 333.212 618.091 333.714C618.024 334.083 617.891 334.396 617.694 334.651C617.493 334.904 617.238 335.095 616.921 335.228C616.606 335.361 616.237 335.442 615.814 335.475C615.391 335.505 614.835 335.461 614.149 335.339C613.334 335.195 612.694 334.995 612.225 334.74C611.755 334.485 611.413 334.169 611.201 333.786C610.987 333.406 610.926 332.963 611.018 332.458C611.137 331.79 611.471 331.31 612.016 331.016C612.675 330.664 613.654 330.6 614.955 330.833ZM614.799 331.706C613.662 331.504 612.881 331.501 612.458 331.701C612.033 331.901 611.788 332.194 611.719 332.583C611.649 332.971 611.78 333.334 612.111 333.667C612.441 334 613.173 334.266 614.307 334.468C615.447 334.671 616.228 334.674 616.651 334.474C617.073 334.274 617.321 333.977 617.39 333.581C617.46 333.193 617.349 332.852 617.06 332.561C616.69 332.192 615.936 331.909 614.799 331.706Z" fill="#706F6F"/>
<path d="M613.138 349.284L613.919 349.57L612.354 353.834L611.722 353.604C611.428 353.022 610.986 352.39 610.396 351.705C609.804 351.023 609.159 350.426 608.456 349.913C607.963 349.55 607.393 349.226 606.754 348.94L607.06 348.108C607.577 348.308 608.166 348.638 608.831 349.101C609.495 349.564 610.101 350.102 610.652 350.718C611.202 351.33 611.636 351.929 611.953 352.512L613.138 349.284Z" fill="#706F6F"/>
<path d="M608.812 353.421C609.593 353.707 610.191 354.017 610.611 354.35C611.028 354.686 611.308 355.057 611.45 355.468C611.592 355.878 611.575 356.325 611.4 356.801C611.27 357.154 611.083 357.439 610.844 357.656C610.602 357.869 610.316 358.013 609.985 358.091C609.651 358.166 609.276 358.185 608.853 358.141C608.431 358.099 607.891 357.958 607.238 357.719C606.462 357.436 605.867 357.129 605.447 356.796C605.03 356.463 604.75 356.092 604.605 355.681C604.46 355.271 604.477 354.824 604.655 354.342C604.889 353.707 605.3 353.291 605.89 353.094C606.599 352.861 607.574 352.969 608.815 353.421H608.812ZM608.506 354.253C607.422 353.857 606.651 353.721 606.201 353.843C605.748 353.965 605.456 354.212 605.32 354.583C605.183 354.955 605.25 355.335 605.517 355.717C605.784 356.103 606.46 356.491 607.541 356.887C608.628 357.284 609.398 357.423 609.849 357.301C610.299 357.179 610.594 356.926 610.733 356.549C610.869 356.178 610.819 355.823 610.586 355.487C610.285 355.06 609.593 354.65 608.509 354.256L608.506 354.253Z" fill="#706F6F"/>
<path d="M600.896 374.695L601.269 373.922C601.6 374.024 601.869 374.055 602.072 374.01C602.4 373.933 602.653 373.744 602.826 373.45C602.962 373.212 603.017 372.965 602.99 372.71C602.954 372.374 602.812 372.044 602.562 371.72C602.311 371.396 601.883 371.052 601.277 370.697C601.447 371.035 601.522 371.371 601.505 371.709C601.488 372.044 601.397 372.355 601.23 372.638C600.941 373.134 600.512 373.45 599.942 373.589C599.372 373.725 598.797 373.628 598.216 373.292C597.835 373.07 597.526 372.785 597.293 372.43C597.059 372.075 596.94 371.706 596.934 371.318C596.926 370.93 597.029 370.553 597.24 370.189C597.601 369.568 598.124 369.194 598.811 369.066C599.498 368.939 600.365 369.18 601.419 369.787C602.595 370.467 603.323 371.177 603.607 371.92C603.852 372.566 603.788 373.209 603.415 373.85C603.137 374.327 602.776 374.64 602.331 374.79C601.886 374.939 601.408 374.906 600.899 374.695H600.896ZM600.04 370.134C599.781 369.984 599.503 369.898 599.206 369.87C598.905 369.843 598.638 369.893 598.402 370.017C598.166 370.142 597.985 370.314 597.86 370.528C597.676 370.844 597.646 371.185 597.771 371.559C597.893 371.934 598.174 372.247 598.611 372.499C599.03 372.743 599.428 372.824 599.801 372.74C600.173 372.657 600.457 372.444 600.654 372.105C600.852 371.77 600.896 371.412 600.79 371.038C600.685 370.664 600.435 370.361 600.043 370.134H600.04Z" fill="#706F6F"/>
<path d="M598.833 374.601C599.554 375.017 600.09 375.427 600.443 375.827C600.796 376.229 601.008 376.642 601.074 377.072C601.144 377.502 601.049 377.937 600.794 378.378C600.604 378.705 600.371 378.952 600.098 379.121C599.823 379.29 599.517 379.382 599.175 379.401C598.836 379.418 598.461 379.368 598.052 379.254C597.643 379.138 597.137 378.908 596.534 378.558C595.819 378.145 595.286 377.737 594.933 377.338C594.579 376.939 594.365 376.523 594.296 376.096C594.226 375.666 594.318 375.228 594.577 374.784C594.919 374.199 595.394 373.861 596.009 373.769C596.748 373.664 597.688 373.938 598.833 374.601ZM598.389 375.366C597.39 374.79 596.656 374.521 596.189 374.562C595.722 374.604 595.391 374.795 595.191 375.139C594.994 375.483 594.991 375.866 595.188 376.29C595.383 376.717 595.981 377.216 596.976 377.79C597.977 378.37 598.711 378.639 599.175 378.594C599.64 378.553 599.973 378.356 600.176 378.009C600.377 377.668 600.388 377.31 600.218 376.936C599.996 376.465 599.387 375.94 598.386 375.364L598.389 375.366Z" fill="#706F6F"/>
<path d="M587.561 388.532L587.036 389.273C586.655 389.04 586.299 388.946 585.974 388.99C585.646 389.034 585.37 389.187 585.148 389.45C584.881 389.769 584.773 390.138 584.828 390.557C584.881 390.978 585.109 391.355 585.504 391.688C585.879 392.004 586.266 392.148 586.663 392.121C587.061 392.093 587.403 391.907 587.689 391.566C587.87 391.353 587.984 391.122 588.031 390.87C588.079 390.618 588.065 390.379 587.995 390.152L588.598 389.6L590.923 392.442L588.671 395.113L588.04 394.583L589.847 392.442L588.646 390.937C588.598 391.447 588.426 391.879 588.129 392.234C587.731 392.703 587.236 392.961 586.638 393.011C586.041 393.061 585.487 392.869 584.976 392.44C584.489 392.032 584.186 391.536 584.072 390.953C583.927 390.243 584.105 389.592 584.609 388.995C585.02 388.507 585.496 388.225 586.029 388.144C586.566 388.067 587.078 388.194 587.567 388.53L587.561 388.532Z" fill="#706F6F"/>
<path d="M585.315 393.734C585.952 394.27 586.408 394.763 586.686 395.221C586.964 395.678 587.098 396.122 587.092 396.557C587.084 396.993 586.917 397.403 586.586 397.794C586.344 398.082 586.072 398.285 585.771 398.404C585.471 398.523 585.151 398.562 584.815 398.521C584.476 398.479 584.117 398.365 583.733 398.182C583.35 397.999 582.894 397.683 582.36 397.234C581.729 396.704 581.273 396.211 580.995 395.756C580.717 395.301 580.581 394.855 580.586 394.419C580.592 393.984 580.761 393.568 581.092 393.177C581.529 392.659 582.057 392.409 582.68 392.426C583.428 392.448 584.306 392.883 585.315 393.732V393.734ZM584.743 394.411C583.859 393.671 583.183 393.277 582.719 393.238C582.252 393.199 581.89 393.33 581.634 393.632C581.379 393.934 581.312 394.311 581.431 394.766C581.551 395.218 582.051 395.814 582.933 396.555C583.82 397.298 584.495 397.691 584.96 397.727C585.424 397.766 585.788 397.63 586.047 397.325C586.303 397.023 586.378 396.674 586.275 396.277C586.138 395.775 585.627 395.151 584.746 394.411H584.743Z" fill="#706F6F"/>
<path d="M506.969 435.62L507.82 435.473L508.768 440.88C508.94 440.65 509.174 440.409 509.471 440.156C509.769 439.904 510.041 439.704 510.291 439.563L510.436 440.384C509.999 440.689 509.63 441.033 509.329 441.413C509.029 441.792 508.829 442.145 508.734 442.469L508.187 442.563L506.972 435.623L506.969 435.62Z" fill="#706F6F"/>
<path d="M505.414 439.411C505.556 440.229 505.587 440.9 505.506 441.426C505.425 441.953 505.242 442.38 504.956 442.71C504.669 443.038 504.274 443.246 503.771 443.334C503.399 443.398 503.059 443.381 502.753 443.282C502.448 443.182 502.178 443.007 501.947 442.757C501.714 442.508 501.511 442.189 501.335 441.804C501.16 441.418 501.013 440.883 500.893 440.195C500.752 439.386 500.721 438.715 500.802 438.188C500.882 437.661 501.063 437.231 501.349 436.901C501.636 436.571 502.031 436.363 502.537 436.274C503.207 436.158 503.771 436.305 504.235 436.718C504.794 437.214 505.186 438.11 505.411 439.408L505.414 439.411ZM504.538 439.563C504.341 438.429 504.074 437.697 503.743 437.367C503.41 437.037 503.048 436.907 502.659 436.976C502.27 437.045 501.972 437.289 501.772 437.713C501.572 438.138 501.572 438.914 501.769 440.046C501.969 441.185 502.234 441.917 502.567 442.244C502.898 442.572 503.262 442.702 503.66 442.633C504.052 442.566 504.333 442.344 504.511 441.976C504.73 441.504 504.741 440.7 504.541 439.566L504.538 439.563Z" fill="#706F6F"/>
<path d="M528.045 430.634L527.762 429.855L532.135 428.277C532.213 428.468 532.249 428.668 532.244 428.873C532.241 429.212 532.169 429.567 532.027 429.944C531.885 430.321 531.651 430.781 531.326 431.327C530.82 432.176 530.503 432.816 530.375 433.252C530.247 433.687 530.239 434.056 530.35 434.364C530.467 434.685 530.681 434.913 530.99 435.051C531.298 435.19 531.64 435.19 532.01 435.057C532.402 434.916 532.672 434.685 532.822 434.366C532.972 434.048 532.972 433.682 532.825 433.266L533.689 433.049C533.859 433.69 533.815 434.242 533.559 434.702C533.303 435.162 532.861 435.506 532.233 435.734C531.599 435.964 531.031 435.969 530.534 435.75C530.036 435.534 529.694 435.165 529.505 434.647C529.41 434.383 529.369 434.103 529.385 433.809C529.402 433.515 529.486 433.182 529.633 432.808C529.783 432.437 530.058 431.899 530.464 431.194C530.803 430.609 531.018 430.221 531.101 430.027C531.187 429.83 531.248 429.641 531.284 429.464L528.04 430.634H528.045Z" fill="#706F6F"/>
<path d="M528.102 433.424C528.386 434.203 528.533 434.86 528.544 435.395C528.555 435.928 528.45 436.382 528.224 436.754C527.999 437.128 527.646 437.4 527.168 437.575C526.812 437.702 526.476 437.744 526.156 437.7C525.836 437.652 525.541 437.528 525.269 437.322C524.996 437.117 524.741 436.84 524.502 436.491C524.262 436.141 524.023 435.639 523.787 434.985C523.506 434.211 523.359 433.557 523.345 433.024C523.331 432.492 523.437 432.037 523.659 431.663C523.882 431.289 524.237 431.014 524.721 430.839C525.358 430.609 525.942 430.656 526.473 430.981C527.11 431.372 527.652 432.187 528.102 433.426V433.424ZM527.268 433.726C526.873 432.645 526.487 431.968 526.1 431.702C525.717 431.435 525.338 431.369 524.963 431.505C524.591 431.638 524.343 431.932 524.218 432.384C524.096 432.836 524.229 433.601 524.621 434.683C525.016 435.77 525.405 436.443 525.789 436.71C526.173 436.976 526.554 437.04 526.932 436.904C527.304 436.768 527.546 436.504 527.655 436.108C527.788 435.606 527.657 434.81 527.265 433.729L527.268 433.726Z" fill="#706F6F"/>
<path d="M553.302 419.492L552.61 420.022C552.281 419.648 551.959 419.426 551.645 419.359C551.331 419.293 551.025 419.343 550.727 419.512C550.374 419.714 550.149 420.005 550.046 420.388C549.943 420.771 549.996 421.142 550.205 421.503C550.402 421.847 550.677 422.063 551.03 422.157C551.383 422.252 551.734 422.199 552.081 421.999C552.223 421.919 552.382 421.788 552.562 421.614L552.857 422.315C552.804 422.337 552.762 422.36 552.732 422.376C552.412 422.559 552.173 422.806 552.015 423.119C551.856 423.433 551.876 423.76 552.073 424.107C552.231 424.381 552.454 424.553 552.743 424.628C553.032 424.7 553.324 424.653 553.619 424.484C553.911 424.317 554.1 424.087 554.189 423.793C554.278 423.499 554.244 423.153 554.089 422.756L554.914 422.459C555.112 423.011 555.126 423.519 554.962 423.982C554.795 424.442 554.472 424.811 553.989 425.088C553.655 425.28 553.307 425.382 552.946 425.402C552.585 425.421 552.256 425.349 551.967 425.188C551.678 425.027 551.453 424.808 551.292 424.531C551.141 424.267 551.075 423.987 551.091 423.691C551.108 423.394 551.219 423.103 551.422 422.817C551.014 422.942 550.633 422.928 550.282 422.784C549.932 422.637 549.643 422.368 549.418 421.974C549.112 421.442 549.045 420.882 549.22 420.291C549.395 419.698 549.779 419.232 550.374 418.893C550.911 418.586 551.445 418.491 551.984 418.605C552.521 418.722 552.96 419.016 553.302 419.492Z" fill="#706F6F"/>
<path d="M549.402 423.596C549.816 424.315 550.075 424.936 550.18 425.46C550.283 425.984 550.258 426.447 550.102 426.855C549.947 427.259 549.649 427.589 549.204 427.845C548.876 428.033 548.551 428.13 548.231 428.141C547.909 428.152 547.595 428.077 547.292 427.925C546.988 427.77 546.688 427.539 546.391 427.237C546.096 426.935 545.771 426.48 545.426 425.878C545.014 425.166 544.756 424.547 544.65 424.023C544.545 423.502 544.57 423.036 544.722 422.629C544.878 422.221 545.178 421.891 545.623 421.633C546.21 421.295 546.794 421.242 547.372 421.47C548.064 421.744 548.743 422.454 549.402 423.596ZM548.632 424.037C548.056 423.039 547.556 422.44 547.13 422.246C546.705 422.049 546.321 422.049 545.976 422.246C545.632 422.443 545.44 422.776 545.395 423.241C545.354 423.707 545.618 424.439 546.193 425.435C546.772 426.436 547.272 427.035 547.695 427.229C548.12 427.423 548.507 427.42 548.854 427.221C549.199 427.024 549.388 426.721 549.427 426.311C549.471 425.793 549.204 425.036 548.629 424.034L548.632 424.037Z" fill="#706F6F"/>
<path d="M568.485 405.863L569.566 407.153L571.907 405.201L572.416 405.808L572.878 411.351L572.336 411.803L569.411 408.315L568.682 408.922L568.173 408.317L568.902 407.71L567.82 406.421L568.482 405.869L568.485 405.863ZM570.075 407.757L572.11 410.184L571.766 406.349L570.075 407.757Z" fill="#706F6F"/>
<path d="M568.665 410.231C569.199 410.869 569.563 411.434 569.755 411.931C569.95 412.43 570.005 412.89 569.922 413.317C569.838 413.744 569.602 414.121 569.207 414.448C568.918 414.69 568.615 414.842 568.301 414.909C567.984 414.975 567.664 414.959 567.339 414.856C567.014 414.756 566.677 414.581 566.332 414.335C565.988 414.088 565.593 413.697 565.145 413.162C564.617 412.53 564.253 411.967 564.058 411.47C563.863 410.974 563.805 410.511 563.889 410.084C563.969 409.657 564.208 409.277 564.603 408.947C565.123 408.512 565.687 408.359 566.299 408.481C567.03 408.634 567.82 409.213 568.668 410.225L568.665 410.231ZM567.984 410.799C567.244 409.915 566.647 409.413 566.193 409.293C565.74 409.174 565.362 409.241 565.059 409.496C564.756 409.751 564.623 410.112 564.661 410.577C564.7 411.046 565.09 411.717 565.829 412.599C566.572 413.486 567.169 413.988 567.62 414.105C568.07 414.224 568.451 414.154 568.762 413.897C569.066 413.641 569.202 413.312 569.168 412.904C569.121 412.385 568.729 411.684 567.987 410.802L567.984 410.799Z" fill="#706F6F"/>
<path d="M486.949 439.763C487.78 439.763 488.45 439.849 488.956 440.018C489.462 440.19 489.854 440.442 490.13 440.78C490.405 441.116 490.541 441.54 490.541 442.05C490.541 442.427 490.466 442.757 490.313 443.04C490.163 443.323 489.943 443.559 489.657 443.745C489.371 443.93 489.02 444.075 488.611 444.18C488.2 444.285 487.647 444.338 486.949 444.338C486.123 444.338 485.456 444.252 484.95 444.083C484.444 443.914 484.052 443.661 483.774 443.323C483.496 442.988 483.359 442.561 483.359 442.048C483.359 441.371 483.601 440.839 484.088 440.453C484.674 439.99 485.625 439.76 486.949 439.76V439.763ZM486.949 440.65C485.792 440.65 485.025 440.783 484.644 441.055C484.26 441.324 484.071 441.657 484.071 442.053C484.071 442.45 484.263 442.782 484.647 443.051C485.03 443.32 485.798 443.456 486.952 443.456C488.105 443.456 488.878 443.323 489.259 443.051C489.64 442.782 489.829 442.447 489.829 442.045C489.829 441.643 489.662 441.332 489.326 441.096C488.898 440.8 488.105 440.653 486.952 440.653L486.949 440.65Z" fill="#706F6F"/>
<path d="M578.545 223.259L580.449 221.359L576.996 217.915L577.891 217.023L586.683 215.5L587.481 216.296L582.323 221.44L583.399 222.513L582.504 223.406L581.428 222.333L579.523 224.232L578.545 223.256V223.259ZM581.347 220.464L584.937 216.884L578.856 217.976L581.347 220.461V220.464Z" fill="#B0AAAA"/>
<path d="M583.647 224.191L584.76 225.128C584.337 225.702 584.137 226.254 584.162 226.778C584.187 227.305 584.395 227.765 584.785 228.153C585.254 228.622 585.83 228.844 586.511 228.813C587.192 228.785 587.826 228.478 588.413 227.893C588.969 227.338 589.253 226.742 589.261 226.11C589.269 225.474 589.022 224.906 588.516 224.401C588.202 224.088 587.846 223.875 587.448 223.766C587.051 223.655 586.667 223.642 586.294 223.725L585.496 222.69L590.356 219.382L594.316 223.331L593.381 224.263L590.206 221.096L587.637 222.801C588.449 222.946 589.116 223.278 589.642 223.802C590.337 224.496 590.682 225.319 590.679 226.276C590.676 227.233 590.295 228.089 589.539 228.844C588.819 229.562 587.985 229.975 587.039 230.078C585.886 230.211 584.865 229.836 583.984 228.957C583.261 228.236 582.872 227.443 582.819 226.584C582.766 225.724 583.041 224.925 583.647 224.193V224.191Z" fill="#B0AAAA"/>
<path d="M296.415 274.645L296.586 273.678L270.895 269.17L270.725 270.136L296.415 274.645Z" fill="#B0AAAA"/>
<path d="M268.562 326.082L289.98 324.213L289.923 323.561L268.505 325.43L268.562 326.082Z" fill="#B0AAAA"/>
<path d="M281.914 310.547L267.584 310.797L267.579 310.47L281.911 310.22L281.914 310.547Z" fill="#B0AAAA"/>
<path d="M281.914 303.235L281.911 303.562L267.579 303.313L267.584 302.983L281.914 303.235Z" fill="#B0AAAA"/>
<path d="M267.703 314.517L282.027 314.019L282.016 313.692L267.692 314.19L267.703 314.517Z" fill="#B0AAAA"/>
<path d="M268.101 321.997L282.398 321L282.376 320.673L268.078 321.671L268.101 321.997Z" fill="#B0AAAA"/>
<path d="M282.164 317.527L267.851 318.276L267.834 317.948L282.147 317.2L282.164 317.527Z" fill="#B0AAAA"/>
<path d="M289.767 290.418L289.824 289.766L268.407 287.882L268.349 288.534L289.767 290.418Z" fill="#B0AAAA"/>
<path d="M281.985 300.053L281.996 299.726L267.672 299.225L267.661 299.552L281.985 300.053Z" fill="#B0AAAA"/>
<path d="M282.36 293.096L282.383 292.769L268.085 291.765L268.062 292.091L282.36 293.096Z" fill="#B0AAAA"/>
<path d="M282.164 296.253L282.147 296.58L267.834 295.831L267.851 295.504L282.164 296.253Z" fill="#B0AAAA"/>
<path d="M270.905 344.613L296.594 340.096L296.423 339.129L270.734 343.647L270.905 344.613Z" fill="#B0AAAA"/>
<path d="M284.332 275.746L284.383 275.423L270.226 273.192L270.175 273.515L284.332 275.746Z" fill="#B0AAAA"/>
<path d="M283.859 278.875L283.815 279.199L269.618 277.211L269.666 276.886L283.859 278.875Z" fill="#B0AAAA"/>
<path d="M282.965 286.136L283 285.811L268.747 284.307L268.712 284.632L282.965 286.136Z" fill="#B0AAAA"/>
<path d="M283.374 282.674L283.414 282.349L269.187 280.617L269.147 280.942L283.374 282.674Z" fill="#B0AAAA"/>
<path d="M270.219 340.606L284.375 338.37L284.324 338.047L270.167 340.283L270.219 340.606Z" fill="#B0AAAA"/>
<path d="M283.859 334.905L269.666 336.896L269.618 336.569L283.815 334.58L283.859 334.905Z" fill="#B0AAAA"/>
<path d="M268.746 329.468L283 327.974L282.966 327.648L268.711 329.143L268.746 329.468Z" fill="#B0AAAA"/>
<path d="M269.18 333.175L283.406 331.433L283.366 331.108L269.14 332.85L269.18 333.175Z" fill="#B0AAAA"/>
<path d="M311.887 244.765L311.776 245.072L311.13 244.839L311.242 244.532L311.887 244.765Z" fill="#B0AAAA"/>
<path d="M296.415 274.645L296.586 273.678L270.895 269.17L270.725 270.136L296.415 274.645Z" fill="#B0AAAA"/>
<path d="M307.051 225.649L307.328 225.056L287.836 216.007L287.559 216.6L307.051 225.649Z" fill="#B0AAAA"/>
<path d="M295.156 235.345L295.273 235.04L281.896 229.908L281.778 230.213L295.156 235.345Z" fill="#B0AAAA"/>
<path d="M292.871 241.579L292.763 241.889L279.211 237.233L279.317 236.923L292.871 241.579Z" fill="#B0AAAA"/>
<path d="M296.439 232.097L296.562 231.794L283.278 226.428L283.155 226.731L296.439 232.097Z" fill="#B0AAAA"/>
<path d="M299.171 225.646L299.305 225.347L286.208 219.54L286.075 219.839L299.171 225.646Z" fill="#B0AAAA"/>
<path d="M297.778 228.865L297.906 228.564L284.709 222.988L284.581 223.289L297.778 228.865Z" fill="#B0AAAA"/>
<path d="M295.548 257.255L295.719 256.62L274.955 251.056L274.784 251.69L295.548 257.255Z" fill="#B0AAAA"/>
<path d="M291.664 245.217L291.766 244.906L278.135 240.486L278.034 240.797L291.664 245.217Z" fill="#B0AAAA"/>
<path d="M289.703 251.569L289.611 251.883L275.832 247.945L275.924 247.629L289.703 251.569Z" fill="#B0AAAA"/>
<path d="M290.607 248.544L290.703 248.231L276.997 244.05L276.901 244.363L290.607 248.544Z" fill="#B0AAAA"/>
<path d="M325.133 216.413L325.297 216.129L325.01 215.965L324.846 216.248L325.133 216.413Z" fill="#B0AAAA"/>
<path d="M285.554 268.895L285.617 268.574L271.55 265.837L271.487 266.158L285.554 268.895Z" fill="#B0AAAA"/>
<path d="M286.229 265.432L286.297 265.112L272.276 262.148L272.208 262.468L286.229 265.432Z" fill="#B0AAAA"/>
<path d="M287.795 258.614L287.875 258.296L273.97 254.829L273.891 255.146L287.795 258.614Z" fill="#B0AAAA"/>
<path d="M287.066 261.713L286.991 262.032L273.026 258.815L273.101 258.496L287.066 261.713Z" fill="#B0AAAA"/>
<path d="M306.966 209.997L307.125 209.71L294.583 202.786L294.424 203.072L306.966 209.997Z" fill="#B0AAAA"/>
<path d="M305.299 213.081L305.453 212.792L292.795 206.088L292.641 206.377L305.299 213.081Z" fill="#B0AAAA"/>
<path d="M302.122 219.3L302.266 219.006L289.379 212.748L289.235 213.042L302.122 219.3Z" fill="#B0AAAA"/>
<path d="M303.687 216.201L303.836 215.91L291.061 209.429L290.912 209.721L303.687 216.201Z" fill="#B0AAAA"/>
<path d="M365.898 445.798L365.025 446.838L364.772 446.624L365.648 445.587L365.898 445.798Z" fill="#B0AAAA"/>
<path d="M361.246 162.455L360.993 162.666L344.227 142.734L344.478 142.523L361.246 162.455Z" fill="#B0AAAA"/>
<path d="M323.85 196.502L324.227 195.966L306.625 183.651L306.248 184.187L323.85 196.502Z" fill="#B0AAAA"/>
<path d="M326.505 181.057L326.711 180.803L315.568 171.813L315.361 172.067L326.505 181.057Z" fill="#B0AAAA"/>
<path d="M330.996 175.727L331.211 175.48L320.4 166.094L320.185 166.341L330.996 175.727Z" fill="#B0AAAA"/>
<path d="M324.321 183.787L324.523 183.529L313.234 174.723L313.032 174.981L324.321 183.787Z" fill="#B0AAAA"/>
<path d="M320.305 189.123L320.113 189.389L308.516 180.987L308.708 180.721L320.305 189.123Z" fill="#B0AAAA"/>
<path d="M322.185 186.605L322.383 186.344L310.944 177.731L310.746 177.992L322.185 186.605Z" fill="#B0AAAA"/>
<path d="M345.501 170.638L345.965 170.176L330.762 155.013L330.298 155.476L345.501 170.638Z" fill="#B0AAAA"/>
<path d="M333.327 173.071L333.547 172.827L322.894 163.264L322.674 163.508L333.327 173.071Z" fill="#B0AAAA"/>
<path d="M338.084 167.989L338.312 167.754L328.011 157.811L327.783 158.046L338.084 167.989Z" fill="#B0AAAA"/>
<path d="M335.906 170.281L335.681 170.519L325.199 160.772L325.424 160.531L335.906 170.281Z" fill="#B0AAAA"/>
<path d="M325.133 216.413L325.297 216.129L325.01 215.965L324.846 216.248L325.133 216.413Z" fill="#B0AAAA"/>
<path d="M350.788 155.945L351.035 155.731L341.621 144.948L341.373 145.163L350.788 155.945Z" fill="#B0AAAA"/>
<path d="M348.147 158.285L348.391 158.066L338.802 147.442L338.558 147.661L348.147 158.285Z" fill="#B0AAAA"/>
<path d="M343.049 163.025L343.285 162.797L333.316 152.523L333.08 152.75L343.049 163.025Z" fill="#B0AAAA"/>
<path d="M345.816 160.411L345.574 160.636L335.802 150.179L336.041 149.955L345.816 160.411Z" fill="#B0AAAA"/>
<path d="M310.633 203.675L310.463 203.955L298.177 196.593L298.346 196.313L310.633 203.675Z" fill="#B0AAAA"/>
<path d="M312.465 200.697L312.29 200.977L300.134 193.399L300.309 193.121L312.465 200.697Z" fill="#B0AAAA"/>
<path d="M316.098 195.147L316.281 194.875L304.399 186.882L304.215 187.153L316.098 195.147Z" fill="#B0AAAA"/>
<path d="M314.348 197.755L314.17 198.029L302.147 190.243L302.328 189.968L314.348 197.755Z" fill="#B0AAAA"/>
<path d="M449.253 121.43L450.223 121.26L445.701 95.6349L444.732 95.805L449.253 121.43Z" fill="#B0AAAA"/>
<path d="M482.391 118.479H482.719V92.4604H482.391V118.479Z" fill="#B0AAAA"/>
<path d="M432.168 120.562L432.805 120.391L427.225 99.6827L426.589 99.8532L432.168 120.562Z" fill="#B0AAAA"/>
<path d="M444.088 110.471L444.41 110.408L441.663 96.3784L441.341 96.4412L444.088 110.471Z" fill="#B0AAAA"/>
<path d="M451.016 109.243L451.34 109.192L449.103 95.0727L448.779 95.1238L451.016 109.243Z" fill="#B0AAAA"/>
<path d="M440.648 111.172L440.969 111.104L437.996 97.12L437.675 97.1879L440.648 111.172Z" fill="#B0AAAA"/>
<path d="M433.869 112.734L434.188 112.654L430.715 98.7856L430.397 98.8648L433.869 112.734Z" fill="#B0AAAA"/>
<path d="M437.57 111.852L437.251 111.924L434.028 97.9952L434.348 97.9231L437.57 111.852Z" fill="#B0AAAA"/>
<path d="M465.342 114.673L465.996 114.615L464.107 93.2551L463.454 93.3125L465.342 114.673Z" fill="#B0AAAA"/>
<path d="M454.789 108.682L454.461 108.729L452.467 94.5734L452.793 94.5262L454.789 108.682Z" fill="#B0AAAA"/>
<path d="M461.439 107.867L461.766 107.833L460.255 93.6148L459.928 93.6493L461.439 107.867Z" fill="#B0AAAA"/>
<path d="M457.956 108.263L458.281 108.224L456.544 94.0346L456.219 94.0742L457.956 108.263Z" fill="#B0AAAA"/>
<path d="M479.215 106.785L478.887 106.791L478.637 92.4991L478.965 92.4936L479.215 106.785Z" fill="#B0AAAA"/>
<path d="M475.36 106.886L475.688 106.875L475.182 92.5891L474.854 92.6006L475.36 106.886Z" fill="#B0AAAA"/>
<path d="M468.423 107.252L468.75 107.229L467.74 92.9701L467.413 92.9932L468.423 107.252Z" fill="#B0AAAA"/>
<path d="M472.215 107.024L471.884 107.041L471.133 92.7654L471.464 92.7487L472.215 107.024Z" fill="#B0AAAA"/>
<path d="M417.375 117.608L417.066 117.714L412.398 104.198L412.71 104.093L417.375 117.608Z" fill="#B0AAAA"/>
<path d="M427.398 114.466L427.081 114.558L423.131 100.815L423.448 100.724L427.398 114.466Z" fill="#B0AAAA"/>
<path d="M423.753 115.536L424.066 115.44L419.871 101.772L419.557 101.867L423.753 115.536Z" fill="#B0AAAA"/>
<path d="M361.246 162.455L360.993 162.666L344.227 142.734L344.478 142.523L361.246 162.455Z" fill="#B0AAAA"/>
<path d="M400.46 132.138L401.055 131.862L391.982 112.421L391.387 112.697L400.46 132.138Z" fill="#B0AAAA"/>
<path d="M385.115 131.936L385.402 131.778L378.46 119.272L378.173 119.431L385.115 131.936Z" fill="#B0AAAA"/>
<path d="M379.34 135.258L379.059 135.427L371.677 123.174L371.958 123.004L379.34 135.258Z" fill="#B0AAAA"/>
<path d="M388.202 130.257L388.492 130.104L381.77 117.479L381.48 117.633L388.202 130.257Z" fill="#B0AAAA"/>
<path d="M394.455 127.069L394.75 126.926L388.478 114.072L388.183 114.215L394.455 127.069Z" fill="#B0AAAA"/>
<path d="M391.305 128.64L391.598 128.492L385.1 115.751L384.807 115.899L391.305 128.64Z" fill="#B0AAAA"/>
<path d="M371.291 149.005L371.828 148.629L359.477 131.077L358.94 131.453L371.291 149.005Z" fill="#B0AAAA"/>
<path d="M376.355 137.083L376.077 137.257L368.481 125.131L368.76 124.959L376.355 137.083Z" fill="#B0AAAA"/>
<path d="M370.197 141.081L370.469 140.898L362.454 129.047L362.182 129.23L370.197 141.081Z" fill="#B0AAAA"/>
<path d="M373.398 138.957L373.123 139.135L365.316 127.144L365.591 126.967L373.398 138.957Z" fill="#B0AAAA"/>
<path d="M418.094 129.787L417.785 129.898L408.863 105.452L409.172 105.338L418.094 129.787Z" fill="#B0AAAA"/>
<path d="M356.128 151.484L356.383 151.278L347.367 140.166L347.112 140.372L356.128 151.484Z" fill="#B0AAAA"/>
<path d="M358.898 149.26L359.156 149.059L350.326 137.799L350.068 138.001L358.898 149.26Z" fill="#B0AAAA"/>
<path d="M364.734 144.883L364.467 145.077L356.043 133.511L356.31 133.32L364.734 144.883Z" fill="#B0AAAA"/>
<path d="M361.676 147.132L361.938 146.935L353.302 135.526L353.04 135.723L361.676 147.132Z" fill="#B0AAAA"/>
<path d="M410.789 119.993L410.483 120.109L405.348 106.763L405.654 106.647L410.789 119.993Z" fill="#B0AAAA"/>
<path d="M407.235 121.392L407.539 121.27L402.158 108.021L401.854 108.143L407.235 121.392Z" fill="#B0AAAA"/>
<path d="M400.763 124.138L401.062 124.006L395.242 110.943L394.942 111.076L400.763 124.138Z" fill="#B0AAAA"/>
<path d="M404.01 122.714L404.312 122.586L398.721 109.424L398.419 109.551L404.01 122.714Z" fill="#B0AAAA"/>
<path d="M280.683 380.697L305.195 371.799L304.858 370.874L280.346 379.772L280.683 380.697Z" fill="#B0AAAA"/>
<path d="M296.441 414.249L319.031 401.241L318.867 400.957L296.277 413.965L296.441 414.249Z" fill="#B0AAAA"/>
<path d="M275.138 362.865L295.906 357.315L295.736 356.68L274.968 362.23L275.138 362.865Z" fill="#B0AAAA"/>
<path d="M292.871 372.201L279.317 376.857L279.211 376.546L292.763 371.891L292.871 372.201Z" fill="#B0AAAA"/>
<path d="M281.893 383.874L295.273 378.751L295.156 378.445L281.775 383.568L281.893 383.874Z" fill="#B0AAAA"/>
<path d="M278.127 373.309L291.758 368.892L291.656 368.58L278.025 372.998L278.127 373.309Z" fill="#B0AAAA"/>
<path d="M289.703 362.213L275.924 366.151L275.832 365.837L289.611 361.897L289.703 362.213Z" fill="#B0AAAA"/>
<path d="M276.997 369.737L290.703 365.558L290.607 365.245L276.901 369.424L276.997 369.737Z" fill="#B0AAAA"/>
<path d="M288.006 397.966L307.492 388.904L307.215 388.311L287.729 397.373L288.006 397.966Z" fill="#B0AAAA"/>
<path d="M283.269 387.358L296.559 382.003L296.436 381.7L283.147 387.054L283.269 387.358Z" fill="#B0AAAA"/>
<path d="M286.207 394.243L299.301 388.429L299.167 388.13L286.074 393.944L286.207 394.243Z" fill="#B0AAAA"/>
<path d="M284.712 390.803L297.906 385.22L297.778 384.919L284.584 390.502L284.712 390.803Z" fill="#B0AAAA"/>
<path d="M270.905 344.613L296.594 340.096L296.423 339.129L270.734 343.647L270.905 344.613Z" fill="#B0AAAA"/>
<path d="M294.589 410.99L307.125 404.059L306.966 403.773L294.43 410.703L294.589 410.99Z" fill="#B0AAAA"/>
<path d="M292.794 407.7L305.449 400.989L305.295 400.7L292.64 407.411L292.794 407.7Z" fill="#B0AAAA"/>
<path d="M289.383 401.038L302.266 394.772L302.122 394.478L289.24 400.744L289.383 401.038Z" fill="#B0AAAA"/>
<path d="M291.058 404.378L303.828 397.888L303.679 397.597L290.909 404.086L291.058 404.378Z" fill="#B0AAAA"/>
<path d="M271.543 347.946L285.613 345.221L285.551 344.9L271.481 347.625L271.543 347.946Z" fill="#B0AAAA"/>
<path d="M272.277 351.647L286.297 348.675L286.229 348.355L272.209 351.327L272.277 351.647Z" fill="#B0AAAA"/>
<path d="M273.976 358.931L287.883 355.473L287.803 355.156L273.896 358.614L273.976 358.931Z" fill="#B0AAAA"/>
<path d="M287.066 352.07L273.101 355.286L273.026 354.967L286.991 351.751L287.066 352.07Z" fill="#B0AAAA"/>
<path d="M318.17 445.101L338.152 428.378L337.518 427.624L317.535 444.346L318.17 445.101Z" fill="#B0AAAA"/>
<path d="M296.605 414.532L319.195 401.524L318.702 400.672L296.111 413.68L296.605 414.532Z" fill="#B0AAAA"/>
<path d="M330.93 458.914L346.133 443.752L345.669 443.289L330.466 458.452L330.93 458.914Z" fill="#B0AAAA"/>
<path d="M320.394 447.693L331.211 438.315L330.996 438.068L320.179 447.446L320.394 447.693Z" fill="#B0AAAA"/>
<path d="M315.568 441.96L326.707 432.964L326.501 432.71L315.362 441.706L315.568 441.96Z" fill="#B0AAAA"/>
<path d="M322.884 450.496L333.535 440.931L333.316 440.688L322.664 450.252L322.884 450.496Z" fill="#B0AAAA"/>
<path d="M328.01 455.969L338.32 446.039L338.092 445.804L327.782 455.734L328.01 455.969Z" fill="#B0AAAA"/>
<path d="M335.906 443.499L325.424 453.249L325.199 453.01L335.681 443.261L335.906 443.499Z" fill="#B0AAAA"/>
<path d="M306.794 430.32L324.406 418.02L324.03 417.484L306.418 429.784L306.794 430.32Z" fill="#B0AAAA"/>
<path d="M313.233 439.039L324.527 430.238L324.325 429.981L313.031 438.781L313.233 439.039Z" fill="#B0AAAA"/>
<path d="M320.305 424.657L308.708 433.059L308.516 432.796L320.113 424.394L320.305 424.657Z" fill="#B0AAAA"/>
<path d="M310.944 436.061L322.391 427.458L322.193 427.197L310.747 435.799L310.944 436.061Z" fill="#B0AAAA"/>
<path d="M365.597 446.135L365.891 445.787L365.639 445.576L365.346 445.925L365.597 446.135Z" fill="#B0AAAA"/>
<path d="M310.633 410.107L298.346 417.469L298.177 417.189L310.463 409.827L310.633 410.107Z" fill="#B0AAAA"/>
<path d="M312.465 413.083L300.309 420.658L300.134 420.381L312.29 412.805L312.465 413.083Z" fill="#B0AAAA"/>
<path d="M304.399 426.936L316.281 418.942L316.098 418.671L304.215 426.665L304.399 426.936Z" fill="#B0AAAA"/>
<path d="M314.348 416.028L302.328 423.814L302.147 423.539L314.17 415.753L314.348 416.028Z" fill="#B0AAAA"/>
<path d="M341.62 468.825L351.023 458.037L350.776 457.822L341.373 468.61L341.62 468.825Z" fill="#B0AAAA"/>
<path d="M338.808 466.35L348.398 455.727L348.155 455.508L338.564 466.131L338.808 466.35Z" fill="#B0AAAA"/>
<path d="M333.317 461.25L343.273 450.968L343.037 450.74L333.081 461.023L333.317 461.25Z" fill="#B0AAAA"/>
<path d="M345.816 453.371L336.041 463.825L335.802 463.6L345.574 453.146L345.816 453.371Z" fill="#B0AAAA"/>
<path d="M375.481 492.836L388.523 470.306L387.669 469.814L374.626 492.344L375.481 492.836Z" fill="#B0AAAA"/>
<path d="M359.676 482.899L372.008 465.334L371.47 464.958L359.138 482.524L359.676 482.899Z" fill="#B0AAAA"/>
<path d="M379.34 478.521L371.958 490.775L371.677 490.606L379.059 478.352L379.34 478.521Z" fill="#B0AAAA"/>
<path d="M378.461 494.513L385.41 482.011L385.123 481.852L378.175 494.355L378.461 494.513Z" fill="#B0AAAA"/>
<path d="M376.355 476.7L368.76 488.823L368.481 488.648L376.077 476.525L376.355 476.7Z" fill="#B0AAAA"/>
<path d="M362.462 484.752L370.477 472.901L370.205 472.718L362.19 484.569L362.462 484.752Z" fill="#B0AAAA"/>
<path d="M373.398 474.825L365.591 486.813L365.316 486.635L373.123 474.648L373.398 474.825Z" fill="#B0AAAA"/>
<path d="M392.163 501.542L401.25 482.107L400.655 481.831L391.569 501.265L392.163 501.542Z" fill="#B0AAAA"/>
<path d="M381.759 496.293L388.488 483.672L388.199 483.518L381.47 496.139L381.759 496.293Z" fill="#B0AAAA"/>
<path d="M388.455 499.691L394.738 486.843L394.443 486.699L388.16 499.547L388.455 499.691Z" fill="#B0AAAA"/>
<path d="M385.095 498.027L391.602 485.29L391.309 485.141L384.802 497.878L385.095 498.027Z" fill="#B0AAAA"/>
<path d="M410.789 493.789L405.654 507.136L405.348 507.016L410.483 493.67L410.789 493.789Z" fill="#B0AAAA"/>
<path d="M402.17 505.768L407.539 492.514L407.235 492.391L401.866 505.645L402.17 505.768Z" fill="#B0AAAA"/>
<path d="M395.26 502.849L401.09 489.79L400.79 489.657L394.96 502.716L395.26 502.849Z" fill="#B0AAAA"/>
<path d="M398.693 504.332L404.293 491.174L403.991 491.046L398.391 504.204L398.693 504.332Z" fill="#B0AAAA"/>
<path d="M347.379 473.637L356.398 462.528L356.143 462.322L347.124 473.431L347.379 473.637Z" fill="#B0AAAA"/>
<path d="M350.313 475.96L359.137 464.696L358.878 464.494L350.054 475.758L350.313 475.96Z" fill="#B0AAAA"/>
<path d="M364.734 468.897L356.31 480.463L356.043 480.271L364.467 468.705L364.734 468.897Z" fill="#B0AAAA"/>
<path d="M353.296 478.243L361.922 466.826L361.66 466.629L353.034 478.046L353.296 478.243Z" fill="#B0AAAA"/>
<path d="M445.705 518.144L450.234 492.524L449.265 492.353L444.735 517.974L445.705 518.144Z" fill="#B0AAAA"/>
<path d="M418.094 483.995L409.172 508.442L408.863 508.331L417.785 483.882L418.094 483.995Z" fill="#B0AAAA"/>
<path d="M464.314 520.703L466.188 499.341L465.534 499.284L463.66 520.646L464.314 520.703Z" fill="#B0AAAA"/>
<path d="M449.078 518.7L451.32 504.581L450.996 504.53L448.754 518.648L449.078 518.7Z" fill="#B0AAAA"/>
<path d="M441.691 517.41L444.426 503.378L444.104 503.315L441.369 517.347L441.691 517.41Z" fill="#B0AAAA"/>
<path d="M454.789 505.098L452.793 519.253L452.467 519.209L454.461 505.053L454.789 505.098Z" fill="#B0AAAA"/>
<path d="M460.24 520.158L461.738 505.942L461.412 505.908L459.914 520.124L460.24 520.158Z" fill="#B0AAAA"/>
<path d="M456.519 519.742L458.266 505.554L457.94 505.515L456.193 519.703L456.519 519.742Z" fill="#B0AAAA"/>
<path d="M427.4 514.268L432.965 493.556L432.328 493.385L426.764 514.098L427.4 514.268Z" fill="#B0AAAA"/>
<path d="M438.004 516.665L440.984 502.683L440.663 502.615L437.684 516.597L438.004 516.665Z" fill="#B0AAAA"/>
<path d="M430.697 514.989L434.164 501.119L433.846 501.04L430.378 514.91L430.697 514.989Z" fill="#B0AAAA"/>
<path d="M437.57 501.931L434.348 515.859L434.028 515.784L437.251 501.856L437.57 501.931Z" fill="#B0AAAA"/>
<path d="M417.375 496.171L412.71 509.69L412.398 509.581L417.066 496.066L417.375 496.171Z" fill="#B0AAAA"/>
<path d="M416.27 510.873L420.699 497.278L420.387 497.177L415.958 510.772L416.27 510.873Z" fill="#B0AAAA"/>
<path d="M427.398 499.316L423.448 513.056L423.131 512.964L427.081 499.224L427.398 499.316Z" fill="#B0AAAA"/>
<path d="M419.849 511.998L424.039 498.328L423.725 498.232L419.535 511.902L419.849 511.998Z" fill="#B0AAAA"/>
<path d="M479.215 506.994L478.965 521.289L478.637 521.283L478.887 506.989L479.215 506.994Z" fill="#B0AAAA"/>
<path d="M475.219 521.193L475.719 506.907L475.391 506.895L474.891 521.181L475.219 521.193Z" fill="#B0AAAA"/>
<path d="M467.719 520.806L468.719 506.547L468.391 506.524L467.392 520.783L467.719 520.806Z" fill="#B0AAAA"/>
<path d="M472.215 506.756L471.464 521.034L471.133 521.017L471.884 506.739L472.215 506.756Z" fill="#B0AAAA"/>
<path d="M409.477 508.553L418.398 484.106L417.471 483.77L408.549 508.216L409.477 508.553Z" fill="#B0AAAA"/>
<path d="M328.917 307.137H348.219V306.646H328.917V307.137Z" fill="#B0AAAA"/>
<path d="M387.684 143.947L388.539 143.455L375.496 120.924L374.642 121.417L387.684 143.947Z" fill="#B0AAAA"/>
<path d="M337.517 186.149L338.152 185.395L318.182 168.658L317.547 169.412L337.517 186.149Z" fill="#B0AAAA"/>
<path d="M318.702 213.131L319.195 212.278L296.605 199.27L296.111 200.123L318.702 213.131Z" fill="#B0AAAA"/>
<path d="M318.702 213.131L319.195 212.278L296.605 199.27L296.111 200.123L318.702 213.131Z" fill="#B0AAAA"/>
<path d="M304.85 242.889L305.188 241.964L280.678 233.058L280.34 233.983L304.85 242.889Z" fill="#B0AAAA"/>
<path d="M267.555 307.383H293.641V306.399H267.555V307.383Z" fill="#B0AAAA"/>
<path d="M361.246 451.327L344.478 471.256L344.227 471.046L360.993 451.117L361.246 451.327Z" fill="#B0AAAA"/>
<path d="M344.733 471.466L361.5 451.537L360.744 450.904L343.977 470.834L344.733 471.466Z" fill="#B0AAAA"/>
<path d="M482.06 521.319H483.047V495.303H482.06V521.319Z" fill="#B0AAAA"/>
<path d="M482.06 118.479H483.047V92.4604H482.06V118.479Z" fill="#B0AAAA"/>
<path d="M417.452 130.029L418.379 129.692L409.449 105.249L408.521 105.586L417.452 130.029Z" fill="#B0AAAA"/>
<path d="M482.391 460.117H482.719V440.868H482.391V460.117Z" fill="#B0AAAA"/>
<path d="M420.375 116.612L420.688 116.511L416.256 102.917L415.944 103.018L420.375 116.612Z" fill="#B0AAAA"/>
<path d="M442.902 454.919L447.594 437.518L447.119 437.39L442.427 454.791L442.902 454.919Z" fill="#B0AAAA"/>
<path d="M334.209 346.796L351.66 342.133L351.533 341.659L334.082 346.322L334.209 346.796Z" fill="#B0AAAA"/>
<path d="M405.947 439.711L414.98 424.106L414.554 423.861L405.521 439.466L405.947 439.711Z" fill="#B0AAAA"/>
<path d="M349.627 383.714L365.273 374.705L365.027 374.28L349.381 383.289L349.627 383.714Z" fill="#B0AAAA"/>
<path d="M334.328 293.71L334.284 294.201L319.817 292.936L319.859 292.445L334.328 293.71Z" fill="#B0AAAA"/>
<path d="M338.775 268.636L338.859 268.32L324.83 264.581L324.745 264.898L338.775 268.636Z" fill="#B0AAAA"/>
<path d="M340.698 282.289L340.812 281.645L321.759 278.29L321.644 278.935L340.698 282.289Z" fill="#B0AAAA"/>
<path d="M338.76 268.728L338.887 268.254L324.856 264.52L324.729 264.994L338.76 268.728Z" fill="#B0AAAA"/>
<path d="M347.143 258.102L347.367 257.487L329.184 250.89L328.96 251.505L347.143 258.102Z" fill="#B0AAAA"/>
<path d="M347.615 244.295L347.754 243.999L334.588 237.887L334.45 238.184L347.615 244.295Z" fill="#B0AAAA"/>
<path d="M357.695 235.38L358.023 234.814L341.27 225.159L340.942 225.726L357.695 235.38Z" fill="#B0AAAA"/>
<path d="M347.585 244.41L347.793 243.965L334.627 237.853L334.42 238.298L347.585 244.41Z" fill="#B0AAAA"/>
<path d="M347.143 258.102L347.367 257.487L329.184 250.89L328.96 251.505L347.143 258.102Z" fill="#B0AAAA"/>
<path d="M360.562 221.884L360.75 221.616L348.851 213.309L348.663 213.577L360.562 221.884Z" fill="#B0AAAA"/>
<path d="M357.695 235.38L358.023 234.814L341.27 225.159L340.942 225.726L357.695 235.38Z" fill="#B0AAAA"/>
<path d="M360.797 221.563L360.513 221.965L348.616 213.658L348.9 213.253L360.797 221.563Z" fill="#B0AAAA"/>
<path d="M372.031 214.856L372.453 214.354L357.631 201.951L357.21 202.452L372.031 214.856Z" fill="#B0AAAA"/>
<path d="M377.213 202.063L377.445 201.832L367.177 191.591L366.945 191.822L377.213 202.063Z" fill="#B0AAAA"/>
<path d="M389.747 197.103L390.25 196.682L377.81 181.902L377.308 182.323L389.747 197.103Z" fill="#B0AAAA"/>
<path d="M377.213 202.063L377.445 201.832L367.177 191.591L366.945 191.822L377.213 202.063Z" fill="#B0AAAA"/>
<path d="M372.031 214.856L372.453 214.354L357.631 201.951L357.21 202.452L372.031 214.856Z" fill="#B0AAAA"/>
<path d="M397.048 185.435L397.316 185.247L388.985 173.381L388.717 173.568L397.048 185.435Z" fill="#B0AAAA"/>
<path d="M389.747 197.103L390.25 196.682L377.81 181.902L377.308 182.323L389.747 197.103Z" fill="#B0AAAA"/>
<path d="M397.398 185.177L396.993 185.457L388.663 173.594L389.066 173.311L397.398 185.177Z" fill="#B0AAAA"/>
<path d="M410.295 182.672L410.863 182.345L401.183 165.637L400.615 165.964L410.295 182.672Z" fill="#B0AAAA"/>
<path d="M419.515 172.449L419.812 172.311L413.681 159.179L413.384 159.317L419.515 172.449Z" fill="#B0AAAA"/>
<path d="M419.441 172.48L419.887 172.273L413.758 159.14L413.311 159.347L419.441 172.48Z" fill="#B0AAAA"/>
<path d="M410.295 182.672L410.863 182.345L401.183 165.637L400.615 165.964L410.295 182.672Z" fill="#B0AAAA"/>
<path d="M443.878 163.574L444.195 163.49L440.446 149.495L440.129 149.579L443.878 163.574Z" fill="#B0AAAA"/>
<path d="M433.008 172.053L433.625 171.829L427.011 153.695L426.394 153.919L433.008 172.053Z" fill="#B0AAAA"/>
<path d="M443.817 163.587L444.293 163.461L440.548 149.464L440.073 149.591L443.817 163.587Z" fill="#B0AAAA"/>
<path d="M457.237 165.523L457.883 165.409L454.52 146.406L453.873 146.52L457.237 165.523Z" fill="#B0AAAA"/>
<path d="M469.742 159.025L469.417 159.056L468.149 144.625L468.477 144.597L469.742 159.025Z" fill="#B0AAAA"/>
<path d="M482.391 163.287H482.719V143.993H482.391V163.287Z" fill="#B0AAAA"/>
<path d="M469.828 159.019L469.336 159.061L468.071 144.633L468.563 144.592L469.828 159.019Z" fill="#B0AAAA"/>
<path d="M457.237 165.523L457.883 165.409L454.52 146.406L453.873 146.52L457.237 165.523Z" fill="#B0AAAA"/>
<path d="M482.555 91.806V93.1176C364.364 93.1176 268.211 189.014 268.211 306.89C268.211 424.765 364.364 520.662 482.555 520.662V521.974C424.951 521.974 370.795 499.602 330.06 458.978C289.328 418.354 266.896 364.343 266.896 306.89C266.896 249.437 289.328 195.428 330.06 154.802C370.792 114.178 424.948 91.806 482.555 91.806Z" fill="#B0AAAA"/>
<path d="M482.555 153.418V153.909C397.976 153.909 329.165 222.537 329.165 306.89C329.165 391.243 397.973 459.871 482.555 459.871V460.361C441.453 460.361 402.808 444.398 373.742 415.412C344.677 386.426 328.67 347.885 328.67 306.89C328.67 265.894 344.677 227.356 373.742 198.368C402.808 169.382 441.45 153.418 482.555 153.418Z" fill="#B0AAAA"/>
<path d="M482.555 106.561V106.955C372.016 106.955 282.085 196.646 282.085 306.89C282.085 417.134 372.013 506.825 482.555 506.825V507.219C455.438 507.219 429.133 501.923 404.368 491.477C380.449 481.386 358.968 466.942 340.52 448.543C322.072 430.145 307.589 408.721 297.472 384.865C286.998 360.167 281.687 333.932 281.687 306.887C281.687 279.843 286.998 253.608 297.472 228.909C307.589 205.053 322.072 183.629 340.52 165.234C358.968 146.835 380.449 132.391 404.368 122.3C429.133 111.854 455.438 106.558 482.555 106.558V106.561Z" fill="#B0AAAA"/>
<path d="M482.555 295.002V295.329C476.163 295.329 470.963 300.515 470.963 306.89C470.963 313.265 476.163 318.45 482.555 318.45V318.777C475.982 318.777 470.635 313.445 470.635 306.89C470.635 300.335 475.982 295.002 482.555 295.002Z" fill="#706F6F"/>
<path d="M482.555 346.721V347.048C460.351 347.048 442.289 329.032 442.289 306.89H442.618C442.618 328.852 460.534 346.721 482.555 346.721Z" fill="#706F6F"/>
<path d="M482.555 425.614V425.941C450.67 425.941 420.694 413.557 398.148 391.071C375.603 368.585 363.185 338.69 363.185 306.89H363.514C363.514 372.354 416.913 425.611 482.552 425.611L482.555 425.614Z" fill="#706F6F"/>
<path d="M482.555 200.331V200.658C423.822 200.658 376.039 248.314 376.039 306.89C376.039 365.466 423.82 413.122 482.555 413.122V413.449C454.017 413.449 427.184 402.365 407.004 382.239C386.824 362.113 375.711 335.354 375.711 306.89C375.711 278.425 386.824 251.666 407.004 231.54C427.184 211.414 454.014 200.331 482.555 200.331Z" fill="#706F6F"/>
<path d="M482.555 212.823V213.15C430.729 213.15 388.565 255.202 388.565 306.89C388.565 331.93 398.34 355.469 416.093 373.174L415.859 373.407C407.057 364.628 400.178 354.36 395.413 342.891C390.647 331.419 388.234 319.307 388.234 306.893C388.234 281.767 398.046 258.144 415.859 240.378C433.673 222.612 457.359 212.826 482.552 212.826L482.555 212.823Z" fill="#706F6F"/>
<path d="M482.555 163.123V163.451C403.25 163.451 338.735 227.797 338.735 306.89H338.407C338.407 268.487 353.401 232.386 380.627 205.231C407.852 178.078 444.052 163.123 482.555 163.123Z" fill="#B0AAAA"/>
<path d="M482.555 143.829V144.156C392.582 144.156 319.386 217.157 319.386 306.89H319.058C319.058 284.878 323.382 263.521 331.906 243.42C340.142 224.004 351.931 206.564 366.944 191.588C381.958 176.611 399.444 164.856 418.915 156.643C439.073 148.141 460.484 143.829 482.555 143.829Z" fill="#B0AAAA"/>
<path d="M348.992 287.144C348.801 287.474 348.57 287.701 348.3 287.828C348.03 287.956 347.727 287.989 347.394 287.928C346.89 287.84 346.498 287.584 346.22 287.16C345.942 286.739 345.856 286.226 345.962 285.627C346.07 285.025 346.332 284.57 346.749 284.265C347.166 283.96 347.624 283.852 348.13 283.941C348.45 283.999 348.714 284.132 348.923 284.343C349.131 284.554 349.268 284.842 349.337 285.205C349.551 284.806 349.832 284.523 350.18 284.357C350.527 284.19 350.916 284.146 351.345 284.221C351.937 284.326 352.398 284.623 352.726 285.114C353.054 285.605 353.157 286.19 353.038 286.872C352.915 287.554 352.615 288.067 352.137 288.414C351.659 288.76 351.117 288.879 350.51 288.771C350.06 288.691 349.704 288.511 349.44 288.228C349.176 287.945 349.026 287.584 348.992 287.144ZM350.672 287.898C350.914 287.939 351.158 287.925 351.406 287.851C351.653 287.776 351.859 287.637 352.023 287.432C352.187 287.229 352.293 286.997 352.34 286.736C352.412 286.331 352.34 285.973 352.126 285.663C351.912 285.352 351.603 285.161 351.2 285.092C350.791 285.019 350.427 285.092 350.11 285.319C349.793 285.544 349.598 285.86 349.526 286.267C349.457 286.667 349.526 287.022 349.746 287.329C349.963 287.637 350.271 287.828 350.669 287.898H350.672ZM347.522 287.058C347.85 287.116 348.136 287.058 348.381 286.886C348.625 286.711 348.778 286.456 348.839 286.12C348.898 285.793 348.839 285.507 348.673 285.261C348.506 285.017 348.269 284.867 347.969 284.811C347.658 284.756 347.377 284.817 347.124 284.994C346.874 285.172 346.721 285.422 346.662 285.74C346.604 286.065 346.662 286.353 346.829 286.603C346.999 286.855 347.23 287.005 347.519 287.055L347.522 287.058Z" fill="#706F6F"/>
<path d="M350.045 283.167C349.225 283.023 348.583 282.82 348.113 282.563C347.643 282.305 347.304 281.989 347.092 281.609C346.881 281.229 346.82 280.788 346.909 280.286C346.976 279.917 347.109 279.604 347.306 279.349C347.507 279.096 347.762 278.905 348.079 278.772C348.394 278.639 348.763 278.558 349.186 278.525C349.609 278.495 350.165 278.539 350.851 278.661C351.666 278.805 352.306 279.005 352.775 279.26C353.245 279.515 353.587 279.831 353.799 280.214C354.013 280.594 354.074 281.037 353.982 281.542C353.863 282.21 353.529 282.69 352.984 282.984C352.325 283.336 351.346 283.4 350.045 283.167ZM350.201 282.294C351.338 282.496 352.119 282.499 352.542 282.299C352.967 282.099 353.212 281.806 353.281 281.417C353.351 281.029 353.22 280.666 352.889 280.333C352.559 280 351.827 279.734 350.693 279.532C349.553 279.329 348.772 279.326 348.349 279.526C347.927 279.726 347.679 280.023 347.61 280.419C347.54 280.807 347.651 281.148 347.94 281.439C348.31 281.808 349.064 282.091 350.201 282.294Z" fill="#706F6F"/>
<path d="M351.862 264.716L351.081 264.43L352.646 260.166L353.278 260.396C353.572 260.978 354.014 261.61 354.604 262.295C355.196 262.977 355.841 263.574 356.544 264.087C357.037 264.45 357.607 264.774 358.246 265.06L357.94 265.892C357.423 265.692 356.834 265.362 356.169 264.899C355.505 264.436 354.899 263.898 354.348 263.282C353.798 262.67 353.364 262.071 353.047 261.488L351.862 264.716Z" fill="#706F6F"/>
<path d="M356.188 260.579C355.407 260.293 354.809 259.983 354.389 259.65C353.972 259.314 353.692 258.943 353.55 258.532C353.408 258.122 353.425 257.675 353.6 257.199C353.73 256.846 353.917 256.561 354.156 256.344C354.398 256.131 354.684 255.987 355.015 255.909C355.349 255.834 355.724 255.815 356.147 255.859C356.569 255.901 357.109 256.042 357.762 256.281C358.538 256.564 359.133 256.871 359.553 257.204C359.97 257.537 360.25 257.908 360.395 258.319C360.54 258.729 360.523 259.176 360.345 259.658C360.111 260.293 359.7 260.709 359.11 260.906C358.401 261.139 357.426 261.031 356.185 260.579H356.188ZM356.494 259.747C357.578 260.143 358.349 260.279 358.799 260.157C359.252 260.035 359.544 259.788 359.68 259.417C359.817 259.045 359.75 258.665 359.483 258.283C359.216 257.897 358.54 257.509 357.459 257.113C356.372 256.716 355.602 256.577 355.151 256.699C354.701 256.821 354.406 257.074 354.267 257.451C354.131 257.822 354.181 258.177 354.414 258.513C354.715 258.94 355.407 259.35 356.491 259.744L356.494 259.747Z" fill="#706F6F"/>
<path d="M364.104 239.305L363.731 240.078C363.4 239.976 363.131 239.945 362.928 239.99C362.6 240.067 362.347 240.256 362.174 240.55C362.038 240.788 361.983 241.035 362.01 241.29C362.046 241.626 362.188 241.956 362.438 242.28C362.689 242.604 363.117 242.948 363.723 243.303C363.553 242.965 363.478 242.629 363.495 242.291C363.512 241.956 363.603 241.645 363.77 241.362C364.059 240.866 364.488 240.55 365.058 240.411C365.628 240.275 366.203 240.372 366.784 240.708C367.165 240.93 367.474 241.215 367.707 241.57C367.941 241.925 368.06 242.294 368.066 242.682C368.074 243.07 367.971 243.447 367.76 243.811C367.399 244.432 366.876 244.806 366.189 244.934C365.502 245.061 364.635 244.82 363.581 244.213C362.405 243.533 361.677 242.823 361.393 242.08C361.148 241.434 361.212 240.791 361.585 240.15C361.863 239.673 362.224 239.36 362.669 239.21C363.114 239.061 363.592 239.094 364.101 239.305H364.104ZM364.96 243.866C365.219 244.016 365.497 244.102 365.794 244.13C366.095 244.157 366.362 244.107 366.598 243.983C366.834 243.858 367.015 243.686 367.14 243.472C367.324 243.156 367.354 242.815 367.229 242.441C367.107 242.066 366.826 241.753 366.389 241.501C365.97 241.257 365.572 241.176 365.199 241.26C364.827 241.343 364.543 241.556 364.346 241.895C364.148 242.23 364.104 242.588 364.21 242.962C364.315 243.336 364.565 243.639 364.957 243.866H364.96Z" fill="#706F6F"/>
<path d="M366.167 239.399C365.446 238.983 364.91 238.573 364.557 238.173C364.204 237.771 363.992 237.358 363.926 236.928C363.856 236.498 363.951 236.063 364.206 235.622C364.396 235.295 364.629 235.048 364.902 234.879C365.177 234.71 365.483 234.618 365.825 234.599C366.164 234.582 366.539 234.632 366.948 234.746C367.357 234.862 367.863 235.092 368.466 235.442C369.181 235.855 369.714 236.263 370.067 236.662C370.421 237.061 370.635 237.477 370.704 237.904C370.774 238.334 370.682 238.772 370.423 239.216C370.081 239.801 369.606 240.139 368.991 240.231C368.252 240.336 367.312 240.062 366.167 239.399ZM366.611 238.634C367.61 239.21 368.344 239.479 368.811 239.438C369.278 239.396 369.609 239.205 369.809 238.861C370.006 238.517 370.009 238.134 369.812 237.71C369.617 237.283 369.019 236.784 368.024 236.21C367.023 235.63 366.289 235.361 365.825 235.406C365.36 235.447 365.027 235.644 364.824 235.991C364.623 236.332 364.612 236.69 364.782 237.064C365.004 237.535 365.613 238.06 366.614 238.636L366.611 238.634Z" fill="#706F6F"/>
<path d="M377.439 225.468L377.964 224.727C378.345 224.96 378.701 225.054 379.026 225.01C379.354 224.966 379.63 224.813 379.852 224.55C380.119 224.231 380.227 223.862 380.172 223.443C380.119 223.022 379.891 222.645 379.496 222.312C379.121 221.996 378.734 221.852 378.337 221.879C377.939 221.907 377.597 222.093 377.311 222.434C377.13 222.647 377.016 222.878 376.969 223.13C376.921 223.382 376.935 223.621 377.005 223.848L376.402 224.4L374.077 221.558L376.329 218.887L376.96 219.417L375.153 221.558L376.354 223.063C376.402 222.553 376.574 222.121 376.871 221.766C377.269 221.297 377.764 221.039 378.362 220.989C378.959 220.939 379.513 221.131 380.024 221.56C380.511 221.968 380.814 222.464 380.928 223.047C381.073 223.757 380.895 224.408 380.391 225.005C379.98 225.493 379.504 225.775 378.971 225.856C378.434 225.933 377.922 225.806 377.433 225.47L377.439 225.468Z" fill="#706F6F"/>
<path d="M379.685 220.266C379.048 219.73 378.592 219.237 378.314 218.779C378.036 218.322 377.902 217.878 377.908 217.443C377.916 217.007 378.083 216.597 378.414 216.206C378.656 215.918 378.928 215.715 379.229 215.596C379.529 215.477 379.849 215.438 380.185 215.479C380.524 215.521 380.883 215.635 381.267 215.818C381.65 216.001 382.106 216.317 382.64 216.766C383.271 217.296 383.727 217.789 384.005 218.244C384.283 218.699 384.419 219.145 384.414 219.581C384.408 220.016 384.239 220.432 383.908 220.823C383.471 221.341 382.943 221.591 382.32 221.574C381.572 221.552 380.694 221.117 379.685 220.268V220.266ZM380.257 219.589C381.141 220.329 381.817 220.723 382.281 220.762C382.748 220.801 383.11 220.67 383.366 220.368C383.621 220.066 383.688 219.689 383.569 219.234C383.449 218.782 382.949 218.186 382.067 217.445C381.18 216.702 380.505 216.309 380.04 216.273C379.576 216.234 379.212 216.37 378.953 216.675C378.697 216.977 378.622 217.326 378.725 217.723C378.862 218.225 379.373 218.849 380.254 219.589H380.257Z" fill="#706F6F"/>
<path d="M458.031 178.38L457.18 178.527L456.232 173.12C456.06 173.35 455.826 173.591 455.529 173.844C455.231 174.096 454.959 174.296 454.709 174.437L454.564 173.616C455.001 173.311 455.37 172.967 455.671 172.587C455.971 172.208 456.171 171.855 456.266 171.531L456.813 171.437L458.028 178.377L458.031 178.38Z" fill="#706F6F"/>
<path d="M459.586 174.589C459.444 173.771 459.413 173.1 459.494 172.574C459.575 172.047 459.758 171.62 460.044 171.29C460.331 170.962 460.726 170.754 461.229 170.666C461.601 170.602 461.941 170.619 462.247 170.718C462.552 170.818 462.822 170.993 463.053 171.243C463.286 171.492 463.489 171.811 463.665 172.196C463.84 172.582 463.987 173.117 464.107 173.805C464.248 174.614 464.279 175.285 464.198 175.812C464.118 176.339 463.937 176.769 463.651 177.099C463.364 177.429 462.969 177.637 462.463 177.726C461.793 177.842 461.229 177.695 460.765 177.282C460.206 176.786 459.814 175.89 459.589 174.592L459.586 174.589ZM460.462 174.437C460.659 175.571 460.926 176.303 461.257 176.633C461.59 176.963 461.952 177.093 462.341 177.024C462.73 176.955 463.028 176.711 463.228 176.287C463.428 175.862 463.428 175.086 463.231 173.954C463.031 172.815 462.766 172.083 462.433 171.756C462.102 171.428 461.738 171.298 461.34 171.367C460.948 171.434 460.667 171.656 460.489 172.024C460.27 172.496 460.259 173.3 460.459 174.434L460.462 174.437Z" fill="#706F6F"/>
<path d="M436.955 183.366L437.238 184.145L432.865 185.723C432.787 185.532 432.751 185.332 432.756 185.127C432.759 184.788 432.831 184.433 432.973 184.056C433.115 183.679 433.349 183.219 433.674 182.673C434.18 181.824 434.497 181.184 434.625 180.748C434.753 180.313 434.761 179.944 434.65 179.636C434.533 179.315 434.319 179.087 434.01 178.949C433.702 178.81 433.36 178.81 432.99 178.943C432.598 179.084 432.328 179.315 432.178 179.634C432.028 179.952 432.028 180.318 432.175 180.734L431.311 180.951C431.141 180.31 431.185 179.758 431.441 179.298C431.697 178.838 432.139 178.494 432.767 178.266C433.401 178.036 433.969 178.031 434.466 178.25C434.964 178.466 435.306 178.835 435.495 179.353C435.59 179.617 435.631 179.897 435.615 180.191C435.598 180.485 435.514 180.818 435.367 181.192C435.217 181.563 434.942 182.101 434.536 182.806C434.197 183.391 433.982 183.779 433.899 183.973C433.813 184.17 433.752 184.359 433.716 184.536L436.96 183.366H436.955Z" fill="#706F6F"/>
<path d="M436.898 180.576C436.614 179.797 436.467 179.14 436.456 178.605C436.445 178.072 436.55 177.618 436.776 177.246C437.001 176.872 437.354 176.6 437.832 176.425C438.188 176.298 438.524 176.256 438.844 176.3C439.164 176.348 439.459 176.472 439.731 176.678C440.004 176.883 440.259 177.16 440.498 177.509C440.738 177.859 440.977 178.361 441.213 179.015C441.494 179.789 441.641 180.443 441.655 180.976C441.669 181.508 441.563 181.963 441.341 182.337C441.118 182.711 440.763 182.986 440.279 183.161C439.642 183.391 439.058 183.344 438.527 183.019C437.89 182.628 437.348 181.813 436.898 180.574V180.576ZM437.732 180.274C438.127 181.355 438.513 182.032 438.9 182.298C439.283 182.565 439.662 182.631 440.037 182.495C440.409 182.362 440.657 182.068 440.782 181.616C440.904 181.164 440.771 180.399 440.379 179.317C439.984 178.23 439.595 177.557 439.211 177.29C438.827 177.024 438.446 176.96 438.068 177.096C437.696 177.232 437.454 177.496 437.345 177.892C437.212 178.394 437.343 179.19 437.735 180.271L437.732 180.274Z" fill="#706F6F"/>
<path d="M411.698 194.508L412.39 193.978C412.719 194.352 413.041 194.574 413.355 194.641C413.669 194.707 413.975 194.657 414.273 194.488C414.626 194.286 414.851 193.995 414.954 193.612C415.057 193.229 415.004 192.858 414.795 192.497C414.598 192.153 414.323 191.937 413.97 191.843C413.617 191.748 413.266 191.801 412.919 192.001C412.777 192.081 412.618 192.212 412.438 192.386L412.143 191.685C412.196 191.663 412.238 191.64 412.268 191.624C412.588 191.441 412.827 191.194 412.985 190.881C413.144 190.567 413.124 190.24 412.927 189.893C412.769 189.619 412.546 189.447 412.257 189.372C411.968 189.3 411.676 189.347 411.381 189.516C411.089 189.683 410.9 189.913 410.811 190.207C410.722 190.501 410.756 190.847 410.911 191.244L410.086 191.541C409.888 190.989 409.874 190.481 410.038 190.018C410.205 189.558 410.528 189.189 411.011 188.912C411.345 188.72 411.693 188.618 412.054 188.598C412.415 188.579 412.744 188.651 413.033 188.812C413.322 188.973 413.547 189.192 413.708 189.469C413.859 189.733 413.925 190.013 413.909 190.309C413.892 190.606 413.781 190.897 413.578 191.183C413.986 191.058 414.367 191.072 414.718 191.216C415.068 191.363 415.357 191.632 415.582 192.026C415.888 192.558 415.955 193.118 415.78 193.709C415.605 194.302 415.221 194.768 414.626 195.107C414.089 195.414 413.555 195.509 413.016 195.395C412.479 195.278 412.04 194.984 411.698 194.508Z" fill="#706F6F"/>
<path d="M415.598 190.404C415.184 189.685 414.925 189.064 414.82 188.54C414.717 188.016 414.742 187.553 414.898 187.145C415.053 186.741 415.351 186.411 415.796 186.155C416.124 185.967 416.449 185.87 416.769 185.859C417.091 185.848 417.405 185.923 417.708 186.075C418.012 186.23 418.312 186.461 418.609 186.763C418.904 187.065 419.229 187.52 419.574 188.122C419.986 188.834 420.244 189.453 420.35 189.977C420.455 190.498 420.43 190.964 420.278 191.371C420.122 191.779 419.822 192.109 419.377 192.367C418.79 192.705 418.206 192.758 417.628 192.53C416.936 192.256 416.257 191.546 415.598 190.404ZM416.368 189.963C416.944 190.961 417.444 191.56 417.87 191.754C418.295 191.951 418.679 191.951 419.024 191.754C419.368 191.557 419.56 191.224 419.605 190.759C419.646 190.293 419.382 189.561 418.807 188.565C418.228 187.564 417.728 186.965 417.305 186.771C416.88 186.577 416.493 186.58 416.146 186.779C415.801 186.976 415.612 187.279 415.573 187.689C415.529 188.207 415.796 188.964 416.371 189.966L416.368 189.963Z" fill="#706F6F"/>
<path d="M396.515 208.137L395.434 206.847L393.093 208.799L392.584 208.192L392.122 202.649L392.664 202.197L395.589 205.685L396.318 205.078L396.827 205.683L396.098 206.29L397.18 207.579L396.518 208.131L396.515 208.137ZM394.925 206.243L392.89 203.816L393.234 207.651L394.925 206.243Z" fill="#706F6F"/>
<path d="M396.335 203.769C395.801 203.131 395.437 202.566 395.245 202.069C395.05 201.57 394.995 201.11 395.078 200.683C395.162 200.256 395.398 199.879 395.793 199.552C396.082 199.31 396.385 199.158 396.699 199.091C397.016 199.025 397.336 199.041 397.661 199.144C397.986 199.244 398.323 199.419 398.668 199.665C399.012 199.912 399.407 200.303 399.855 200.838C400.383 201.47 400.747 202.033 400.942 202.53C401.137 203.026 401.195 203.489 401.111 203.916C401.031 204.343 400.792 204.723 400.397 205.053C399.877 205.488 399.313 205.641 398.701 205.519C397.97 205.366 397.18 204.787 396.332 203.775L396.335 203.769ZM397.016 203.201C397.756 204.085 398.353 204.587 398.807 204.707C399.26 204.826 399.638 204.759 399.941 204.504C400.244 204.249 400.377 203.888 400.339 203.423C400.3 202.954 399.91 202.283 399.171 201.401C398.428 200.514 397.831 200.012 397.38 199.895C396.93 199.776 396.549 199.846 396.238 200.103C395.934 200.359 395.798 200.688 395.832 201.096C395.879 201.615 396.271 202.316 397.013 203.198L397.016 203.201Z" fill="#706F6F"/>
<path d="M478.051 174.237C477.22 174.237 476.55 174.151 476.044 173.982C475.538 173.81 475.146 173.558 474.87 173.22C474.595 172.884 474.459 172.46 474.459 171.95C474.459 171.573 474.534 171.243 474.687 170.96C474.837 170.677 475.057 170.441 475.343 170.255C475.629 170.07 475.98 169.925 476.389 169.82C476.8 169.715 477.353 169.662 478.051 169.662C478.877 169.662 479.544 169.748 480.05 169.917C480.556 170.086 480.948 170.339 481.226 170.677C481.504 171.012 481.641 171.439 481.641 171.952C481.641 172.629 481.399 173.161 480.912 173.547C480.326 174.01 479.375 174.24 478.051 174.24V174.237ZM478.051 173.35C479.208 173.35 479.975 173.217 480.356 172.945C480.74 172.676 480.929 172.343 480.929 171.947C480.929 171.55 480.737 171.218 480.353 170.949C479.97 170.68 479.202 170.544 478.048 170.544C476.895 170.544 476.122 170.677 475.741 170.949C475.36 171.218 475.171 171.553 475.171 171.955C475.171 172.357 475.338 172.668 475.674 172.904C476.102 173.2 476.895 173.347 478.048 173.347L478.051 173.35Z" fill="#706F6F"/>
<path d="M386.455 390.741L384.551 392.641L388.004 396.085L387.109 396.977L378.317 398.5L377.519 397.704L382.677 392.56L381.601 391.487L382.496 390.594L383.572 391.667L385.477 389.768L386.455 390.744V390.741ZM383.653 393.536L380.063 397.116L386.144 396.024L383.653 393.539V393.536Z" fill="#B0AAAA"/>
<path d="M381.353 389.809L380.24 388.872C380.663 388.298 380.863 387.746 380.838 387.222C380.813 386.695 380.605 386.235 380.215 385.847C379.746 385.378 379.17 385.156 378.489 385.187C377.808 385.215 377.174 385.522 376.587 386.107C376.031 386.662 375.747 387.258 375.739 387.89C375.731 388.526 375.978 389.094 376.484 389.599C376.798 389.912 377.154 390.125 377.552 390.234C377.949 390.345 378.333 390.358 378.706 390.275L379.504 391.31L374.644 394.618L370.684 390.669L371.619 389.737L374.794 392.904L377.363 391.199C376.551 391.054 375.884 390.722 375.358 390.198C374.663 389.504 374.318 388.681 374.321 387.724C374.324 386.767 374.705 385.911 375.461 385.156C376.181 384.438 377.015 384.025 377.961 383.922C379.114 383.789 380.135 384.164 381.016 385.043C381.739 385.764 382.128 386.557 382.181 387.416C382.234 388.276 381.959 389.075 381.353 389.807V389.809Z" fill="#B0AAAA"/>
</svg>
