<svg width="509" height="606" viewBox="0 0 509 606" fill="none" xmlns="http://www.w3.org/2000/svg">
<path d="M296.417 274.645L296.588 273.678L270.897 269.17L270.727 270.136L296.417 274.645Z" fill="#B0AAAA"/>
<path d="M268.562 326.082L289.98 324.213L289.923 323.561L268.505 325.43L268.562 326.082Z" fill="#B0AAAA"/>
<path d="M281.916 310.547L267.586 310.797L267.58 310.47L281.913 310.22L281.916 310.547Z" fill="#B0AAAA"/>
<path d="M281.916 303.235L281.913 303.562L267.58 303.313L267.586 302.983L281.916 303.235Z" fill="#B0AAAA"/>
<path d="M267.703 314.517L282.027 314.019L282.016 313.692L267.692 314.19L267.703 314.517Z" fill="#B0AAAA"/>
<path d="M268.099 321.997L282.396 321L282.374 320.674L268.076 321.671L268.099 321.997Z" fill="#B0AAAA"/>
<path d="M282.166 317.527L267.853 318.276L267.836 317.948L282.149 317.2L282.166 317.527Z" fill="#B0AAAA"/>
<path d="M289.767 290.418L289.824 289.766L268.407 287.882L268.349 288.534L289.767 290.418Z" fill="#B0AAAA"/>
<path d="M281.985 300.053L281.996 299.726L267.672 299.225L267.661 299.552L281.985 300.053Z" fill="#B0AAAA"/>
<path d="M282.36 293.096L282.383 292.769L268.085 291.765L268.062 292.091L282.36 293.096Z" fill="#B0AAAA"/>
<path d="M282.166 296.253L282.149 296.58L267.836 295.831L267.853 295.504L282.166 296.253Z" fill="#B0AAAA"/>
<path d="M270.903 344.613L296.592 340.096L296.421 339.129L270.732 343.647L270.903 344.613Z" fill="#B0AAAA"/>
<path d="M284.334 275.746L284.385 275.423L270.228 273.192L270.176 273.515L284.334 275.746Z" fill="#B0AAAA"/>
<path d="M283.861 278.875L283.817 279.199L269.62 277.211L269.668 276.887L283.861 278.875Z" fill="#B0AAAA"/>
<path d="M282.965 286.136L283 285.811L268.747 284.306L268.712 284.632L282.965 286.136Z" fill="#B0AAAA"/>
<path d="M283.374 282.674L283.414 282.349L269.187 280.617L269.147 280.942L283.374 282.674Z" fill="#B0AAAA"/>
<path d="M270.219 340.606L284.375 338.37L284.324 338.047L270.167 340.283L270.219 340.606Z" fill="#B0AAAA"/>
<path d="M283.861 334.905L269.668 336.896L269.62 336.569L283.817 334.581L283.861 334.905Z" fill="#B0AAAA"/>
<path d="M268.748 329.468L283.002 327.974L282.968 327.648L268.713 329.142L268.748 329.468Z" fill="#B0AAAA"/>
<path d="M269.182 333.175L283.408 331.433L283.368 331.108L269.142 332.85L269.182 333.175Z" fill="#B0AAAA"/>
<path d="M311.887 244.764L311.776 245.072L311.13 244.839L311.242 244.532L311.887 244.764Z" fill="#B0AAAA"/>
<path d="M296.417 274.645L296.588 273.678L270.897 269.17L270.727 270.136L296.417 274.645Z" fill="#B0AAAA"/>
<path d="M307.051 225.649L307.328 225.056L287.836 216.007L287.559 216.6L307.051 225.649Z" fill="#B0AAAA"/>
<path d="M295.158 235.345L295.275 235.04L281.898 229.908L281.78 230.213L295.158 235.345Z" fill="#B0AAAA"/>
<path d="M292.871 241.579L292.763 241.889L279.211 237.233L279.317 236.923L292.871 241.579Z" fill="#B0AAAA"/>
<path d="M296.441 232.097L296.564 231.794L283.28 226.428L283.157 226.731L296.441 232.097Z" fill="#B0AAAA"/>
<path d="M299.173 225.646L299.307 225.347L286.21 219.54L286.077 219.839L299.173 225.646Z" fill="#B0AAAA"/>
<path d="M297.78 228.865L297.908 228.564L284.711 222.988L284.583 223.289L297.78 228.865Z" fill="#B0AAAA"/>
<path d="M295.55 257.255L295.721 256.62L274.957 251.056L274.786 251.69L295.55 257.255Z" fill="#B0AAAA"/>
<path d="M291.662 245.217L291.764 244.906L278.133 240.486L278.032 240.797L291.662 245.217Z" fill="#B0AAAA"/>
<path d="M289.705 251.569L289.613 251.883L275.834 247.945L275.926 247.629L289.705 251.569Z" fill="#B0AAAA"/>
<path d="M290.607 248.544L290.703 248.231L276.997 244.05L276.901 244.363L290.607 248.544Z" fill="#B0AAAA"/>
<path d="M325.131 216.413L325.295 216.129L325.008 215.965L324.844 216.248L325.131 216.413Z" fill="#B0AAAA"/>
<path d="M285.554 268.895L285.617 268.574L271.55 265.836L271.487 266.158L285.554 268.895Z" fill="#B0AAAA"/>
<path d="M286.231 265.432L286.299 265.112L272.278 262.148L272.21 262.468L286.231 265.432Z" fill="#B0AAAA"/>
<path d="M287.793 258.614L287.873 258.296L273.968 254.829L273.889 255.146L287.793 258.614Z" fill="#B0AAAA"/>
<path d="M287.066 261.713L286.991 262.032L273.026 258.815L273.101 258.496L287.066 261.713Z" fill="#B0AAAA"/>
<path d="M306.966 209.997L307.125 209.71L294.583 202.786L294.424 203.072L306.966 209.997Z" fill="#B0AAAA"/>
<path d="M305.301 213.081L305.455 212.792L292.796 206.088L292.643 206.377L305.301 213.081Z" fill="#B0AAAA"/>
<path d="M302.124 219.3L302.268 219.006L289.381 212.748L289.237 213.042L302.124 219.3Z" fill="#B0AAAA"/>
<path d="M303.687 216.201L303.836 215.91L291.061 209.429L290.912 209.721L303.687 216.201Z" fill="#B0AAAA"/>
<path d="M365.898 445.798L365.025 446.838L364.772 446.624L365.648 445.587L365.898 445.798Z" fill="#B0AAAA"/>
<path d="M361.246 162.455L360.993 162.666L344.227 142.734L344.478 142.523L361.246 162.455Z" fill="#B0AAAA"/>
<path d="M323.85 196.502L324.227 195.966L306.625 183.651L306.248 184.187L323.85 196.502Z" fill="#B0AAAA"/>
<path d="M326.505 181.057L326.711 180.803L315.568 171.813L315.361 172.067L326.505 181.057Z" fill="#B0AAAA"/>
<path d="M330.994 175.727L331.209 175.48L320.398 166.094L320.183 166.341L330.994 175.727Z" fill="#B0AAAA"/>
<path d="M324.323 183.787L324.525 183.529L313.236 174.723L313.034 174.981L324.323 183.787Z" fill="#B0AAAA"/>
<path d="M320.305 189.122L320.113 189.389L308.516 180.987L308.708 180.72L320.305 189.122Z" fill="#B0AAAA"/>
<path d="M322.187 186.605L322.385 186.344L310.946 177.731L310.748 177.992L322.187 186.605Z" fill="#B0AAAA"/>
<path d="M345.501 170.639L345.965 170.176L330.762 155.013L330.298 155.476L345.501 170.639Z" fill="#B0AAAA"/>
<path d="M333.325 173.071L333.545 172.827L322.892 163.264L322.672 163.508L333.325 173.071Z" fill="#B0AAAA"/>
<path d="M338.084 167.989L338.312 167.754L328.011 157.811L327.783 158.047L338.084 167.989Z" fill="#B0AAAA"/>
<path d="M335.906 170.281L335.681 170.519L325.199 160.772L325.424 160.531L335.906 170.281Z" fill="#B0AAAA"/>
<path d="M325.131 216.413L325.295 216.129L325.008 215.965L324.844 216.248L325.131 216.413Z" fill="#B0AAAA"/>
<path d="M350.788 155.945L351.035 155.73L341.621 144.948L341.373 145.163L350.788 155.945Z" fill="#B0AAAA"/>
<path d="M348.147 158.285L348.391 158.066L338.802 147.442L338.558 147.661L348.147 158.285Z" fill="#B0AAAA"/>
<path d="M343.049 163.025L343.285 162.797L333.316 152.523L333.08 152.75L343.049 163.025Z" fill="#B0AAAA"/>
<path d="M345.816 160.412L345.574 160.636L335.802 150.179L336.041 149.955L345.816 160.412Z" fill="#B0AAAA"/>
<path d="M310.631 203.675L310.461 203.955L298.175 196.593L298.344 196.313L310.631 203.675Z" fill="#B0AAAA"/>
<path d="M312.465 200.697L312.29 200.977L300.134 193.399L300.309 193.121L312.465 200.697Z" fill="#B0AAAA"/>
<path d="M316.098 195.147L316.281 194.875L304.399 186.882L304.215 187.153L316.098 195.147Z" fill="#B0AAAA"/>
<path d="M314.348 197.755L314.17 198.029L302.147 190.243L302.328 189.968L314.348 197.755Z" fill="#B0AAAA"/>
<path d="M449.253 121.43L450.223 121.26L445.701 95.6349L444.732 95.805L449.253 121.43Z" fill="#B0AAAA"/>
<path d="M482.391 118.479H482.719V92.4604H482.391V118.479Z" fill="#B0AAAA"/>
<path d="M432.168 120.562L432.805 120.391L427.225 99.6827L426.589 99.8532L432.168 120.562Z" fill="#B0AAAA"/>
<path d="M444.088 110.471L444.41 110.408L441.663 96.3784L441.341 96.4412L444.088 110.471Z" fill="#B0AAAA"/>
<path d="M451.016 109.243L451.34 109.192L449.103 95.0726L448.779 95.1236L451.016 109.243Z" fill="#B0AAAA"/>
<path d="M440.648 111.172L440.969 111.104L437.996 97.12L437.675 97.1879L440.648 111.172Z" fill="#B0AAAA"/>
<path d="M433.869 112.734L434.188 112.654L430.715 98.7856L430.397 98.8648L433.869 112.734Z" fill="#B0AAAA"/>
<path d="M437.57 111.852L437.251 111.924L434.028 97.9953L434.348 97.9232L437.57 111.852Z" fill="#B0AAAA"/>
<path d="M465.342 114.673L465.996 114.615L464.107 93.2549L463.454 93.3124L465.342 114.673Z" fill="#B0AAAA"/>
<path d="M454.789 108.682L454.461 108.729L452.467 94.5734L452.793 94.5262L454.789 108.682Z" fill="#B0AAAA"/>
<path d="M461.439 107.867L461.766 107.833L460.255 93.6148L459.928 93.6493L461.439 107.867Z" fill="#B0AAAA"/>
<path d="M457.956 108.263L458.281 108.224L456.544 94.0344L456.219 94.0741L457.956 108.263Z" fill="#B0AAAA"/>
<path d="M479.215 106.785L478.887 106.791L478.637 92.4992L478.965 92.4937L479.215 106.785Z" fill="#B0AAAA"/>
<path d="M475.36 106.886L475.688 106.875L475.182 92.5891L474.854 92.6006L475.36 106.886Z" fill="#B0AAAA"/>
<path d="M468.423 107.252L468.75 107.229L467.74 92.97L467.413 92.993L468.423 107.252Z" fill="#B0AAAA"/>
<path d="M472.215 107.024L471.884 107.041L471.133 92.7654L471.464 92.7487L472.215 107.024Z" fill="#B0AAAA"/>
<path d="M417.375 117.608L417.066 117.714L412.398 104.198L412.71 104.093L417.375 117.608Z" fill="#B0AAAA"/>
<path d="M427.398 114.467L427.081 114.558L423.131 100.815L423.448 100.724L427.398 114.467Z" fill="#B0AAAA"/>
<path d="M423.753 115.536L424.066 115.44L419.871 101.771L419.557 101.867L423.753 115.536Z" fill="#B0AAAA"/>
<path d="M361.246 162.455L360.993 162.666L344.227 142.734L344.478 142.523L361.246 162.455Z" fill="#B0AAAA"/>
<path d="M400.46 132.138L401.055 131.862L391.982 112.421L391.387 112.697L400.46 132.138Z" fill="#B0AAAA"/>
<path d="M385.115 131.936L385.402 131.778L378.46 119.272L378.173 119.43L385.115 131.936Z" fill="#B0AAAA"/>
<path d="M379.34 135.258L379.059 135.427L371.677 123.174L371.958 123.004L379.34 135.258Z" fill="#B0AAAA"/>
<path d="M388.202 130.257L388.492 130.104L381.77 117.479L381.48 117.633L388.202 130.257Z" fill="#B0AAAA"/>
<path d="M394.455 127.069L394.75 126.926L388.478 114.072L388.183 114.215L394.455 127.069Z" fill="#B0AAAA"/>
<path d="M391.305 128.64L391.598 128.492L385.1 115.751L384.807 115.899L391.305 128.64Z" fill="#B0AAAA"/>
<path d="M371.291 149.005L371.828 148.629L359.477 131.077L358.94 131.453L371.291 149.005Z" fill="#B0AAAA"/>
<path d="M376.355 137.083L376.077 137.257L368.481 125.131L368.76 124.959L376.355 137.083Z" fill="#B0AAAA"/>
<path d="M370.197 141.081L370.469 140.898L362.454 129.047L362.182 129.23L370.197 141.081Z" fill="#B0AAAA"/>
<path d="M373.398 138.957L373.123 139.135L365.316 127.145L365.591 126.967L373.398 138.957Z" fill="#B0AAAA"/>
<path d="M418.094 129.787L417.785 129.898L408.863 105.452L409.172 105.338L418.094 129.787Z" fill="#B0AAAA"/>
<path d="M356.128 151.484L356.383 151.278L347.367 140.166L347.112 140.372L356.128 151.484Z" fill="#B0AAAA"/>
<path d="M358.898 149.26L359.156 149.059L350.326 137.799L350.068 138.001L358.898 149.26Z" fill="#B0AAAA"/>
<path d="M364.734 144.883L364.467 145.077L356.043 133.511L356.31 133.32L364.734 144.883Z" fill="#B0AAAA"/>
<path d="M361.676 147.132L361.938 146.935L353.302 135.526L353.04 135.723L361.676 147.132Z" fill="#B0AAAA"/>
<path d="M410.789 119.993L410.483 120.109L405.348 106.763L405.654 106.647L410.789 119.993Z" fill="#B0AAAA"/>
<path d="M407.235 121.392L407.539 121.27L402.158 108.021L401.854 108.143L407.235 121.392Z" fill="#B0AAAA"/>
<path d="M400.763 124.138L401.062 124.006L395.242 110.943L394.942 111.076L400.763 124.138Z" fill="#B0AAAA"/>
<path d="M404.01 122.714L404.312 122.586L398.721 109.424L398.419 109.551L404.01 122.714Z" fill="#B0AAAA"/>
<path d="M280.685 380.697L305.197 371.799L304.86 370.874L280.347 379.772L280.685 380.697Z" fill="#B0AAAA"/>
<path d="M296.441 414.249L319.031 401.241L318.867 400.957L296.277 413.965L296.441 414.249Z" fill="#B0AAAA"/>
<path d="M275.138 362.865L295.906 357.315L295.736 356.68L274.968 362.23L275.138 362.865Z" fill="#B0AAAA"/>
<path d="M292.871 372.201L279.317 376.857L279.211 376.546L292.763 371.891L292.871 372.201Z" fill="#B0AAAA"/>
<path d="M281.893 383.874L295.273 378.751L295.156 378.445L281.775 383.568L281.893 383.874Z" fill="#B0AAAA"/>
<path d="M278.127 373.309L291.758 368.892L291.656 368.58L278.025 372.998L278.127 373.309Z" fill="#B0AAAA"/>
<path d="M289.705 362.213L275.926 366.151L275.834 365.837L289.613 361.897L289.705 362.213Z" fill="#B0AAAA"/>
<path d="M276.997 369.737L290.703 365.558L290.607 365.245L276.901 369.424L276.997 369.737Z" fill="#B0AAAA"/>
<path d="M288.006 397.966L307.492 388.904L307.215 388.311L287.729 397.373L288.006 397.966Z" fill="#B0AAAA"/>
<path d="M283.269 387.358L296.559 382.003L296.436 381.7L283.147 387.054L283.269 387.358Z" fill="#B0AAAA"/>
<path d="M286.207 394.243L299.301 388.429L299.167 388.13L286.074 393.944L286.207 394.243Z" fill="#B0AAAA"/>
<path d="M284.71 390.803L297.904 385.22L297.776 384.919L284.582 390.502L284.71 390.803Z" fill="#B0AAAA"/>
<path d="M270.903 344.613L296.592 340.096L296.421 339.129L270.732 343.647L270.903 344.613Z" fill="#B0AAAA"/>
<path d="M294.589 410.99L307.125 404.059L306.966 403.773L294.43 410.703L294.589 410.99Z" fill="#B0AAAA"/>
<path d="M292.794 407.7L305.449 400.989L305.295 400.7L292.64 407.411L292.794 407.7Z" fill="#B0AAAA"/>
<path d="M289.383 401.038L302.266 394.772L302.122 394.478L289.24 400.744L289.383 401.038Z" fill="#B0AAAA"/>
<path d="M291.059 404.378L303.83 397.888L303.681 397.597L290.911 404.086L291.059 404.378Z" fill="#B0AAAA"/>
<path d="M271.543 347.946L285.613 345.221L285.551 344.9L271.481 347.625L271.543 347.946Z" fill="#B0AAAA"/>
<path d="M272.277 351.647L286.297 348.675L286.229 348.355L272.209 351.327L272.277 351.647Z" fill="#B0AAAA"/>
<path d="M273.976 358.931L287.883 355.473L287.803 355.156L273.896 358.614L273.976 358.931Z" fill="#B0AAAA"/>
<path d="M287.066 352.07L273.101 355.286L273.026 354.967L286.991 351.751L287.066 352.07Z" fill="#B0AAAA"/>
<path d="M318.17 445.101L338.152 428.378L337.518 427.624L317.535 444.346L318.17 445.101Z" fill="#B0AAAA"/>
<path d="M296.603 414.532L319.193 401.524L318.7 400.672L296.109 413.68L296.603 414.532Z" fill="#B0AAAA"/>
<path d="M330.93 458.914L346.133 443.752L345.669 443.289L330.466 458.452L330.93 458.914Z" fill="#B0AAAA"/>
<path d="M320.396 447.693L331.213 438.315L330.998 438.068L320.181 447.446L320.396 447.693Z" fill="#B0AAAA"/>
<path d="M315.568 441.96L326.707 432.964L326.501 432.71L315.362 441.706L315.568 441.96Z" fill="#B0AAAA"/>
<path d="M322.884 450.496L333.535 440.931L333.316 440.688L322.664 450.252L322.884 450.496Z" fill="#B0AAAA"/>
<path d="M328.01 455.969L338.32 446.039L338.092 445.804L327.782 455.734L328.01 455.969Z" fill="#B0AAAA"/>
<path d="M335.906 443.499L325.424 453.249L325.199 453.01L335.681 443.261L335.906 443.499Z" fill="#B0AAAA"/>
<path d="M306.794 430.32L324.406 418.02L324.03 417.484L306.418 429.784L306.794 430.32Z" fill="#B0AAAA"/>
<path d="M313.233 439.039L324.527 430.238L324.325 429.981L313.031 438.781L313.233 439.039Z" fill="#B0AAAA"/>
<path d="M320.305 424.657L308.708 433.059L308.516 432.796L320.113 424.394L320.305 424.657Z" fill="#B0AAAA"/>
<path d="M310.942 436.061L322.389 427.458L322.191 427.197L310.745 435.799L310.942 436.061Z" fill="#B0AAAA"/>
<path d="M365.597 446.135L365.891 445.787L365.639 445.576L365.346 445.925L365.597 446.135Z" fill="#B0AAAA"/>
<path d="M310.631 410.107L298.344 417.469L298.175 417.189L310.461 409.827L310.631 410.107Z" fill="#B0AAAA"/>
<path d="M312.465 413.083L300.309 420.658L300.134 420.381L312.29 412.805L312.465 413.083Z" fill="#B0AAAA"/>
<path d="M304.401 426.936L316.283 418.942L316.1 418.671L304.217 426.665L304.401 426.936Z" fill="#B0AAAA"/>
<path d="M314.348 416.028L302.328 423.814L302.147 423.539L314.17 415.753L314.348 416.028Z" fill="#B0AAAA"/>
<path d="M341.62 468.825L351.023 458.037L350.776 457.822L341.373 468.61L341.62 468.825Z" fill="#B0AAAA"/>
<path d="M338.808 466.35L348.398 455.727L348.155 455.508L338.564 466.131L338.808 466.35Z" fill="#B0AAAA"/>
<path d="M333.317 461.25L343.273 450.968L343.037 450.74L333.081 461.023L333.317 461.25Z" fill="#B0AAAA"/>
<path d="M345.816 453.371L336.041 463.825L335.802 463.6L345.574 453.146L345.816 453.371Z" fill="#B0AAAA"/>
<path d="M375.481 492.836L388.523 470.306L387.669 469.814L374.626 492.344L375.481 492.836Z" fill="#B0AAAA"/>
<path d="M359.676 482.899L372.008 465.334L371.47 464.958L359.138 482.524L359.676 482.899Z" fill="#B0AAAA"/>
<path d="M379.34 478.521L371.958 490.775L371.677 490.606L379.059 478.352L379.34 478.521Z" fill="#B0AAAA"/>
<path d="M378.461 494.513L385.41 482.011L385.123 481.852L378.175 494.355L378.461 494.513Z" fill="#B0AAAA"/>
<path d="M376.355 476.7L368.76 488.823L368.481 488.648L376.077 476.525L376.355 476.7Z" fill="#B0AAAA"/>
<path d="M362.462 484.752L370.477 472.901L370.205 472.718L362.19 484.569L362.462 484.752Z" fill="#B0AAAA"/>
<path d="M373.398 474.825L365.591 486.813L365.316 486.635L373.123 474.648L373.398 474.825Z" fill="#B0AAAA"/>
<path d="M392.163 501.542L401.25 482.107L400.655 481.831L391.569 501.265L392.163 501.542Z" fill="#B0AAAA"/>
<path d="M381.759 496.293L388.488 483.672L388.199 483.518L381.47 496.139L381.759 496.293Z" fill="#B0AAAA"/>
<path d="M388.455 499.691L394.738 486.843L394.443 486.699L388.16 499.547L388.455 499.691Z" fill="#B0AAAA"/>
<path d="M385.095 498.027L391.602 485.29L391.309 485.141L384.802 497.878L385.095 498.027Z" fill="#B0AAAA"/>
<path d="M410.789 493.789L405.654 507.136L405.348 507.016L410.483 493.67L410.789 493.789Z" fill="#B0AAAA"/>
<path d="M402.17 505.768L407.539 492.514L407.235 492.391L401.866 505.645L402.17 505.768Z" fill="#B0AAAA"/>
<path d="M395.26 502.849L401.09 489.79L400.79 489.657L394.96 502.716L395.26 502.849Z" fill="#B0AAAA"/>
<path d="M398.693 504.332L404.293 491.174L403.991 491.046L398.391 504.204L398.693 504.332Z" fill="#B0AAAA"/>
<path d="M347.379 473.637L356.398 462.528L356.143 462.322L347.124 473.431L347.379 473.637Z" fill="#B0AAAA"/>
<path d="M350.313 475.96L359.137 464.696L358.878 464.494L350.054 475.758L350.313 475.96Z" fill="#B0AAAA"/>
<path d="M364.734 468.897L356.31 480.463L356.043 480.271L364.467 468.705L364.734 468.897Z" fill="#B0AAAA"/>
<path d="M353.296 478.243L361.922 466.826L361.66 466.629L353.034 478.046L353.296 478.243Z" fill="#B0AAAA"/>
<path d="M445.705 518.144L450.234 492.524L449.265 492.353L444.735 517.974L445.705 518.144Z" fill="#B0AAAA"/>
<path d="M418.094 483.995L409.172 508.442L408.863 508.331L417.785 483.882L418.094 483.995Z" fill="#B0AAAA"/>
<path d="M464.314 520.703L466.188 499.341L465.534 499.284L463.66 520.646L464.314 520.703Z" fill="#B0AAAA"/>
<path d="M449.078 518.7L451.32 504.581L450.996 504.53L448.754 518.648L449.078 518.7Z" fill="#B0AAAA"/>
<path d="M441.691 517.41L444.426 503.378L444.104 503.315L441.369 517.347L441.691 517.41Z" fill="#B0AAAA"/>
<path d="M454.789 505.098L452.793 519.253L452.467 519.209L454.461 505.053L454.789 505.098Z" fill="#B0AAAA"/>
<path d="M460.24 520.158L461.738 505.942L461.412 505.908L459.914 520.124L460.24 520.158Z" fill="#B0AAAA"/>
<path d="M456.519 519.742L458.266 505.554L457.94 505.515L456.193 519.703L456.519 519.742Z" fill="#B0AAAA"/>
<path d="M427.4 514.268L432.965 493.556L432.328 493.385L426.764 514.098L427.4 514.268Z" fill="#B0AAAA"/>
<path d="M438.004 516.665L440.984 502.683L440.663 502.615L437.684 516.597L438.004 516.665Z" fill="#B0AAAA"/>
<path d="M430.697 514.989L434.164 501.119L433.846 501.04L430.378 514.91L430.697 514.989Z" fill="#B0AAAA"/>
<path d="M437.57 501.931L434.348 515.859L434.028 515.785L437.251 501.856L437.57 501.931Z" fill="#B0AAAA"/>
<path d="M417.375 496.171L412.71 509.689L412.398 509.581L417.066 496.066L417.375 496.171Z" fill="#B0AAAA"/>
<path d="M416.27 510.873L420.699 497.278L420.387 497.177L415.958 510.772L416.27 510.873Z" fill="#B0AAAA"/>
<path d="M427.398 499.316L423.448 513.056L423.131 512.964L427.081 499.224L427.398 499.316Z" fill="#B0AAAA"/>
<path d="M419.849 511.998L424.039 498.328L423.725 498.232L419.535 511.902L419.849 511.998Z" fill="#B0AAAA"/>
<path d="M479.215 506.994L478.965 521.289L478.637 521.283L478.887 506.989L479.215 506.994Z" fill="#B0AAAA"/>
<path d="M475.219 521.193L475.719 506.907L475.391 506.895L474.891 521.181L475.219 521.193Z" fill="#B0AAAA"/>
<path d="M467.719 520.806L468.719 506.547L468.391 506.524L467.392 520.783L467.719 520.806Z" fill="#B0AAAA"/>
<path d="M472.215 506.756L471.464 521.034L471.133 521.017L471.884 506.739L472.215 506.756Z" fill="#B0AAAA"/>
<path d="M409.477 508.553L418.398 484.106L417.471 483.77L408.549 508.216L409.477 508.553Z" fill="#B0AAAA"/>
<path d="M328.917 307.137H348.219V306.646H328.917V307.137Z" fill="#B0AAAA"/>
<path d="M387.684 143.947L388.539 143.455L375.496 120.924L374.642 121.416L387.684 143.947Z" fill="#B0AAAA"/>
<path d="M337.517 186.149L338.152 185.395L318.182 168.658L317.547 169.412L337.517 186.149Z" fill="#B0AAAA"/>
<path d="M318.702 213.131L319.195 212.278L296.605 199.27L296.111 200.123L318.702 213.131Z" fill="#B0AAAA"/>
<path d="M318.702 213.131L319.195 212.278L296.605 199.27L296.111 200.123L318.702 213.131Z" fill="#B0AAAA"/>
<path d="M304.852 242.889L305.189 241.964L280.68 233.058L280.342 233.983L304.852 242.889Z" fill="#B0AAAA"/>
<path d="M267.553 307.383H293.639V306.399H267.553V307.383Z" fill="#B0AAAA"/>
<path d="M361.246 451.327L344.478 471.256L344.227 471.046L360.993 451.117L361.246 451.327Z" fill="#B0AAAA"/>
<path d="M344.733 471.466L361.5 451.537L360.744 450.904L343.977 470.834L344.733 471.466Z" fill="#B0AAAA"/>
<path d="M482.06 521.319H483.047V495.304H482.06V521.319Z" fill="#B0AAAA"/>
<path d="M482.06 118.479H483.047V92.4604H482.06V118.479Z" fill="#B0AAAA"/>
<path d="M417.452 130.029L418.379 129.692L409.449 105.249L408.521 105.586L417.452 130.029Z" fill="#B0AAAA"/>
<path d="M482.391 460.117H482.719V440.868H482.391V460.117Z" fill="#B0AAAA"/>
<path d="M420.375 116.612L420.688 116.511L416.256 102.917L415.944 103.018L420.375 116.612Z" fill="#B0AAAA"/>
<path d="M482.391 440.868H482.719V143.993H482.391V440.868Z" fill="#B0AAAA"/>
<path d="M442.902 454.919L447.594 437.518L447.119 437.39L442.427 454.791L442.902 454.919Z" fill="#B0AAAA"/>
<path d="M334.209 346.796L351.66 342.133L351.533 341.659L334.082 346.322L334.209 346.796Z" fill="#B0AAAA"/>
<path d="M405.947 439.711L414.98 424.106L414.554 423.861L405.521 439.466L405.947 439.711Z" fill="#B0AAAA"/>
<path d="M349.627 383.714L365.273 374.705L365.027 374.28L349.381 383.289L349.627 383.714Z" fill="#B0AAAA"/>
<path d="M334.33 293.71L334.286 294.201L319.819 292.936L319.861 292.445L334.33 293.71Z" fill="#B0AAAA"/>
<path d="M482.578 306.729L482.52 307.051L377.461 288.575L377.519 288.253L482.578 306.729Z" fill="#706F6F"/>
<path d="M338.775 268.636L338.859 268.32L324.83 264.582L324.745 264.898L338.775 268.636Z" fill="#B0AAAA"/>
<path d="M340.698 282.289L340.812 281.645L321.759 278.29L321.644 278.935L340.698 282.289Z" fill="#B0AAAA"/>
<path d="M338.76 268.728L338.887 268.253L324.856 264.52L324.729 264.994L338.76 268.728Z" fill="#B0AAAA"/>
<path d="M347.143 258.102L347.367 257.487L329.184 250.89L328.96 251.505L347.143 258.102Z" fill="#B0AAAA"/>
<path d="M347.615 244.295L347.754 243.999L334.588 237.887L334.45 238.184L347.615 244.295Z" fill="#B0AAAA"/>
<path d="M357.695 235.38L358.023 234.814L341.27 225.159L340.942 225.726L357.695 235.38Z" fill="#B0AAAA"/>
<path d="M347.585 244.41L347.793 243.965L334.627 237.853L334.42 238.298L347.585 244.41Z" fill="#B0AAAA"/>
<path d="M347.143 258.102L347.367 257.487L329.184 250.89L328.96 251.505L347.143 258.102Z" fill="#B0AAAA"/>
<path d="M360.562 221.884L360.75 221.616L348.851 213.309L348.663 213.577L360.562 221.884Z" fill="#B0AAAA"/>
<path d="M357.695 235.38L358.023 234.814L341.27 225.159L340.942 225.726L357.695 235.38Z" fill="#B0AAAA"/>
<path d="M360.797 221.563L360.513 221.965L348.616 213.658L348.9 213.253L360.797 221.563Z" fill="#B0AAAA"/>
<path d="M372.031 214.856L372.453 214.354L357.631 201.951L357.21 202.452L372.031 214.856Z" fill="#B0AAAA"/>
<path d="M377.213 202.063L377.445 201.832L367.177 191.59L366.945 191.822L377.213 202.063Z" fill="#B0AAAA"/>
<path d="M389.747 197.103L390.25 196.682L377.81 181.902L377.308 182.323L389.747 197.103Z" fill="#B0AAAA"/>
<path d="M377.213 202.063L377.445 201.832L367.177 191.59L366.945 191.822L377.213 202.063Z" fill="#B0AAAA"/>
<path d="M372.031 214.856L372.453 214.354L357.631 201.951L357.21 202.452L372.031 214.856Z" fill="#B0AAAA"/>
<path d="M397.048 185.435L397.316 185.247L388.985 173.381L388.717 173.568L397.048 185.435Z" fill="#B0AAAA"/>
<path d="M389.747 197.103L390.25 196.682L377.81 181.902L377.308 182.323L389.747 197.103Z" fill="#B0AAAA"/>
<path d="M397.398 185.177L396.993 185.457L388.663 173.594L389.066 173.311L397.398 185.177Z" fill="#B0AAAA"/>
<path d="M410.295 182.672L410.863 182.345L401.183 165.637L400.615 165.964L410.295 182.672Z" fill="#B0AAAA"/>
<path d="M419.515 172.449L419.812 172.311L413.681 159.179L413.384 159.317L419.515 172.449Z" fill="#B0AAAA"/>
<path d="M419.441 172.48L419.887 172.273L413.758 159.14L413.311 159.347L419.441 172.48Z" fill="#B0AAAA"/>
<path d="M410.295 182.672L410.863 182.345L401.183 165.637L400.615 165.964L410.295 182.672Z" fill="#B0AAAA"/>
<path d="M443.878 163.574L444.195 163.49L440.446 149.495L440.129 149.579L443.878 163.574Z" fill="#B0AAAA"/>
<path d="M433.008 172.053L433.625 171.829L427.011 153.695L426.394 153.918L433.008 172.053Z" fill="#B0AAAA"/>
<path d="M443.817 163.587L444.293 163.46L440.548 149.464L440.073 149.591L443.817 163.587Z" fill="#B0AAAA"/>
<path d="M457.237 165.523L457.883 165.409L454.52 146.406L453.873 146.52L457.237 165.523Z" fill="#B0AAAA"/>
<path d="M469.742 159.025L469.417 159.056L468.149 144.625L468.477 144.597L469.742 159.025Z" fill="#B0AAAA"/>
<path d="M482.391 163.287H482.719V143.993H482.391V163.287Z" fill="#B0AAAA"/>
<path d="M469.828 159.019L469.336 159.061L468.071 144.633L468.563 144.592L469.828 159.019Z" fill="#B0AAAA"/>
<path d="M457.237 165.523L457.883 165.409L454.52 146.406L453.873 146.52L457.237 165.523Z" fill="#B0AAAA"/>
<path d="M482.555 91.8059V93.1175C364.364 93.1175 268.211 189.014 268.211 306.89C268.211 424.765 364.364 520.662 482.555 520.662V521.974C424.951 521.974 370.795 499.601 330.06 458.978C289.328 418.354 266.896 364.343 266.896 306.89C266.896 249.437 289.328 195.428 330.06 154.802C370.792 114.178 424.948 91.8059 482.555 91.8059Z" fill="#B0AAAA"/>
<path d="M482.555 153.418V153.909C397.976 153.909 329.165 222.537 329.165 306.89C329.165 391.243 397.973 459.871 482.555 459.871V460.361C441.453 460.361 402.808 444.398 373.742 415.412C344.677 386.426 328.67 347.885 328.67 306.89C328.67 265.894 344.677 227.356 373.742 198.368C402.808 169.382 441.45 153.418 482.555 153.418Z" fill="#B0AAAA"/>
<path d="M482.555 106.561V106.955C372.016 106.955 282.085 196.646 282.085 306.89C282.085 417.134 372.013 506.825 482.555 506.825V507.219C455.438 507.219 429.133 501.923 404.368 491.477C380.449 481.386 358.968 466.942 340.52 448.543C322.072 430.145 307.589 408.721 297.472 384.865C286.998 360.167 281.687 333.932 281.687 306.887C281.687 279.843 286.998 253.608 297.472 228.909C307.589 205.053 322.072 183.629 340.52 165.234C358.968 146.835 380.449 132.391 404.368 122.3C429.133 111.854 455.438 106.558 482.555 106.558V106.561Z" fill="#B0AAAA"/>
<path d="M482.555 295.002V295.329C476.163 295.329 470.963 300.515 470.963 306.89C470.963 313.265 476.163 318.45 482.555 318.45V318.777C475.982 318.777 470.635 313.445 470.635 306.89C470.635 300.334 475.982 295.002 482.555 295.002Z" fill="#706F6F"/>
<path d="M482.555 346.721V347.048C460.351 347.048 442.289 329.032 442.289 306.89H442.618C442.618 328.852 460.534 346.721 482.555 346.721Z" fill="#706F6F"/>
<path d="M482.555 425.614V425.941C450.67 425.941 420.694 413.557 398.148 391.071C375.603 368.585 363.185 338.69 363.185 306.89H363.514C363.514 372.354 416.913 425.611 482.552 425.611L482.555 425.614Z" fill="#706F6F"/>
<path d="M482.555 200.331V200.658C423.822 200.658 376.039 248.314 376.039 306.89C376.039 365.466 423.82 413.122 482.555 413.122V413.449C454.017 413.449 427.184 402.365 407.004 382.239C386.824 362.113 375.711 335.354 375.711 306.89C375.711 278.425 386.824 251.666 407.004 231.54C427.184 211.414 454.014 200.331 482.555 200.331Z" fill="#706F6F"/>
<path d="M482.555 212.823V213.15C430.729 213.15 388.565 255.202 388.565 306.89C388.565 331.93 398.34 355.469 416.093 373.174L415.859 373.407C407.057 364.628 400.178 354.36 395.413 342.891C390.647 331.419 388.234 319.307 388.234 306.893C388.234 281.767 398.046 258.144 415.859 240.378C433.673 222.612 457.359 212.826 482.552 212.826L482.555 212.823Z" fill="#706F6F"/>
<path d="M482.555 163.123V163.45C403.25 163.45 338.735 227.797 338.735 306.89H338.407C338.407 268.487 353.401 232.386 380.627 205.231C407.852 178.078 444.052 163.123 482.555 163.123Z" fill="#B0AAAA"/>
<path d="M482.555 143.829V144.156C392.582 144.156 319.386 217.157 319.386 306.89H319.058C319.058 284.878 323.382 263.521 331.906 243.42C340.142 224.003 351.931 206.564 366.944 191.588C381.958 176.611 399.444 164.856 418.915 156.643C439.073 148.141 460.484 143.829 482.555 143.829Z" fill="#B0AAAA"/>
<path d="M348.992 287.144C348.801 287.474 348.57 287.701 348.3 287.828C348.03 287.956 347.727 287.989 347.394 287.928C346.89 287.84 346.498 287.584 346.22 287.16C345.942 286.739 345.856 286.226 345.962 285.627C346.07 285.025 346.332 284.57 346.749 284.265C347.166 283.96 347.624 283.852 348.13 283.941C348.45 283.999 348.714 284.132 348.923 284.343C349.131 284.554 349.268 284.842 349.337 285.205C349.551 284.806 349.832 284.523 350.18 284.357C350.527 284.19 350.916 284.146 351.345 284.221C351.937 284.326 352.398 284.623 352.726 285.114C353.054 285.605 353.157 286.19 353.038 286.872C352.915 287.554 352.615 288.067 352.137 288.414C351.659 288.76 351.117 288.879 350.51 288.771C350.06 288.691 349.704 288.511 349.44 288.228C349.176 287.945 349.026 287.584 348.992 287.144ZM350.672 287.898C350.914 287.939 351.158 287.925 351.406 287.851C351.653 287.776 351.859 287.637 352.023 287.432C352.187 287.229 352.293 286.997 352.34 286.736C352.412 286.331 352.34 285.973 352.126 285.663C351.912 285.352 351.603 285.161 351.2 285.092C350.791 285.019 350.427 285.092 350.11 285.319C349.793 285.544 349.598 285.86 349.526 286.267C349.457 286.667 349.526 287.022 349.746 287.329C349.963 287.637 350.271 287.828 350.669 287.898H350.672ZM347.522 287.058C347.85 287.116 348.136 287.058 348.381 286.886C348.625 286.711 348.778 286.456 348.839 286.12C348.898 285.793 348.839 285.507 348.673 285.261C348.506 285.017 348.269 284.867 347.969 284.811C347.658 284.756 347.377 284.817 347.124 284.994C346.874 285.172 346.721 285.422 346.662 285.74C346.604 286.065 346.662 286.353 346.829 286.603C346.999 286.855 347.23 287.005 347.519 287.055L347.522 287.058Z" fill="#706F6F"/>
<path d="M350.045 283.167C349.225 283.023 348.583 282.82 348.113 282.563C347.643 282.305 347.304 281.989 347.092 281.609C346.881 281.229 346.82 280.788 346.909 280.286C346.976 279.917 347.109 279.604 347.306 279.349C347.507 279.096 347.762 278.905 348.079 278.772C348.394 278.639 348.763 278.558 349.186 278.525C349.609 278.495 350.165 278.539 350.851 278.661C351.666 278.805 352.306 279.005 352.775 279.26C353.245 279.515 353.587 279.831 353.799 280.214C354.013 280.594 354.074 281.037 353.982 281.542C353.863 282.21 353.529 282.69 352.984 282.984C352.325 283.336 351.346 283.4 350.045 283.167ZM350.201 282.294C351.338 282.496 352.119 282.499 352.542 282.299C352.967 282.099 353.212 281.806 353.281 281.417C353.351 281.029 353.22 280.666 352.889 280.333C352.559 280 351.827 279.734 350.693 279.532C349.553 279.329 348.772 279.326 348.349 279.526C347.927 279.726 347.679 280.023 347.61 280.419C347.54 280.807 347.651 281.148 347.94 281.439C348.31 281.808 349.064 282.091 350.201 282.294Z" fill="#706F6F"/>
<path d="M351.862 264.716L351.081 264.43L352.646 260.165L353.278 260.396C353.572 260.978 354.014 261.61 354.604 262.295C355.196 262.977 355.841 263.573 356.544 264.086C357.037 264.45 357.607 264.774 358.246 265.06L357.94 265.892C357.423 265.692 356.834 265.362 356.169 264.899C355.505 264.436 354.899 263.898 354.348 263.282C353.798 262.669 353.364 262.07 353.047 261.488L351.862 264.716Z" fill="#706F6F"/>
<path d="M356.188 260.579C355.407 260.293 354.809 259.983 354.389 259.65C353.972 259.314 353.692 258.943 353.55 258.532C353.408 258.122 353.425 257.675 353.6 257.199C353.73 256.846 353.917 256.561 354.156 256.344C354.398 256.131 354.684 255.987 355.015 255.909C355.349 255.834 355.724 255.815 356.147 255.859C356.569 255.901 357.109 256.042 357.762 256.281C358.538 256.564 359.133 256.871 359.553 257.204C359.97 257.537 360.25 257.908 360.395 258.319C360.54 258.729 360.523 259.176 360.345 259.658C360.111 260.293 359.7 260.709 359.11 260.906C358.401 261.139 357.426 261.031 356.185 260.579H356.188ZM356.494 259.747C357.578 260.143 358.349 260.279 358.799 260.157C359.252 260.035 359.544 259.788 359.68 259.417C359.817 259.045 359.75 258.665 359.483 258.283C359.216 257.897 358.54 257.509 357.459 257.113C356.372 256.716 355.602 256.577 355.151 256.699C354.701 256.821 354.406 257.074 354.267 257.451C354.131 257.822 354.181 258.177 354.414 258.513C354.715 258.94 355.407 259.35 356.491 259.744L356.494 259.747Z" fill="#706F6F"/>
<path d="M364.104 239.305L363.731 240.078C363.4 239.976 363.131 239.945 362.928 239.99C362.6 240.067 362.347 240.256 362.174 240.55C362.038 240.788 361.983 241.035 362.01 241.29C362.046 241.626 362.188 241.956 362.438 242.28C362.689 242.604 363.117 242.948 363.723 243.303C363.553 242.965 363.478 242.629 363.495 242.291C363.512 241.956 363.603 241.645 363.77 241.362C364.059 240.866 364.488 240.55 365.058 240.411C365.628 240.275 366.203 240.372 366.784 240.708C367.165 240.93 367.474 241.215 367.707 241.57C367.941 241.925 368.06 242.294 368.066 242.682C368.074 243.07 367.971 243.447 367.76 243.811C367.399 244.432 366.876 244.806 366.189 244.934C365.502 245.061 364.635 244.82 363.581 244.213C362.405 243.533 361.677 242.823 361.393 242.08C361.148 241.434 361.212 240.791 361.585 240.15C361.863 239.673 362.224 239.36 362.669 239.21C363.114 239.061 363.592 239.094 364.101 239.305H364.104ZM364.96 243.866C365.219 244.016 365.497 244.102 365.794 244.13C366.095 244.157 366.362 244.107 366.598 243.983C366.834 243.858 367.015 243.686 367.14 243.472C367.324 243.156 367.354 242.815 367.229 242.441C367.107 242.066 366.826 241.753 366.389 241.501C365.97 241.257 365.572 241.176 365.199 241.26C364.827 241.343 364.543 241.556 364.346 241.895C364.148 242.23 364.104 242.588 364.21 242.962C364.315 243.336 364.565 243.639 364.957 243.866H364.96Z" fill="#706F6F"/>
<path d="M366.167 239.399C365.446 238.983 364.91 238.573 364.557 238.173C364.204 237.771 363.992 237.358 363.926 236.928C363.856 236.498 363.951 236.063 364.206 235.622C364.396 235.295 364.629 235.048 364.902 234.879C365.177 234.71 365.483 234.618 365.825 234.599C366.164 234.582 366.539 234.632 366.948 234.746C367.357 234.862 367.863 235.092 368.466 235.442C369.181 235.855 369.714 236.263 370.067 236.662C370.421 237.061 370.635 237.477 370.704 237.904C370.774 238.334 370.682 238.772 370.423 239.216C370.081 239.801 369.606 240.139 368.991 240.231C368.252 240.336 367.312 240.062 366.167 239.399ZM366.611 238.634C367.61 239.21 368.344 239.479 368.811 239.438C369.278 239.396 369.609 239.205 369.809 238.861C370.006 238.517 370.009 238.134 369.812 237.71C369.617 237.283 369.019 236.784 368.024 236.21C367.023 235.63 366.289 235.361 365.825 235.406C365.36 235.447 365.027 235.644 364.824 235.991C364.623 236.332 364.612 236.69 364.782 237.064C365.004 237.535 365.613 238.06 366.614 238.636L366.611 238.634Z" fill="#706F6F"/>
<path d="M377.439 225.468L377.964 224.727C378.345 224.96 378.701 225.055 379.026 225.01C379.354 224.966 379.63 224.813 379.852 224.55C380.119 224.231 380.227 223.862 380.172 223.443C380.119 223.022 379.891 222.645 379.496 222.312C379.121 221.996 378.734 221.852 378.337 221.88C377.939 221.907 377.597 222.093 377.311 222.434C377.13 222.648 377.016 222.878 376.969 223.13C376.921 223.382 376.935 223.621 377.005 223.848L376.402 224.4L374.077 221.558L376.329 218.887L376.96 219.417L375.153 221.558L376.354 223.064C376.402 222.553 376.574 222.121 376.871 221.766C377.269 221.297 377.764 221.039 378.362 220.989C378.959 220.939 379.513 221.131 380.024 221.561C380.511 221.968 380.814 222.465 380.928 223.047C381.073 223.757 380.895 224.408 380.391 225.005C379.98 225.493 379.504 225.775 378.971 225.856C378.434 225.934 377.922 225.806 377.433 225.47L377.439 225.468Z" fill="#706F6F"/>
<path d="M379.685 220.266C379.048 219.73 378.592 219.237 378.314 218.779C378.036 218.322 377.902 217.878 377.908 217.443C377.916 217.007 378.083 216.597 378.414 216.206C378.656 215.918 378.928 215.715 379.229 215.596C379.529 215.477 379.849 215.438 380.185 215.479C380.524 215.521 380.883 215.635 381.267 215.818C381.65 216.001 382.106 216.317 382.64 216.766C383.271 217.296 383.727 217.789 384.005 218.244C384.283 218.699 384.419 219.145 384.414 219.581C384.408 220.016 384.239 220.432 383.908 220.823C383.471 221.341 382.943 221.591 382.32 221.574C381.572 221.552 380.694 221.117 379.685 220.268V220.266ZM380.257 219.589C381.141 220.329 381.817 220.723 382.281 220.762C382.748 220.801 383.11 220.67 383.366 220.368C383.621 220.066 383.688 219.689 383.569 219.234C383.449 218.782 382.949 218.186 382.067 217.445C381.18 216.702 380.505 216.309 380.04 216.273C379.576 216.234 379.212 216.37 378.953 216.675C378.697 216.977 378.622 217.326 378.725 217.723C378.862 218.225 379.373 218.849 380.254 219.589H380.257Z" fill="#706F6F"/>
<path d="M458.031 178.38L457.18 178.527L456.232 173.12C456.06 173.35 455.826 173.591 455.529 173.844C455.231 174.096 454.959 174.296 454.709 174.437L454.564 173.616C455.001 173.311 455.37 172.967 455.671 172.587C455.971 172.208 456.171 171.855 456.266 171.531L456.813 171.437L458.028 178.377L458.031 178.38Z" fill="#706F6F"/>
<path d="M459.586 174.589C459.444 173.771 459.413 173.1 459.494 172.573C459.575 172.047 459.758 171.62 460.044 171.29C460.331 170.962 460.726 170.754 461.229 170.666C461.601 170.602 461.941 170.618 462.247 170.718C462.552 170.818 462.822 170.993 463.053 171.242C463.286 171.492 463.489 171.811 463.665 172.196C463.84 172.582 463.987 173.117 464.107 173.805C464.248 174.614 464.279 175.285 464.198 175.812C464.118 176.339 463.937 176.769 463.651 177.099C463.364 177.429 462.969 177.637 462.463 177.726C461.793 177.842 461.229 177.695 460.765 177.282C460.206 176.786 459.814 175.89 459.589 174.592L459.586 174.589ZM460.462 174.437C460.659 175.571 460.926 176.303 461.257 176.633C461.59 176.963 461.952 177.093 462.341 177.024C462.73 176.955 463.028 176.711 463.228 176.286C463.428 175.862 463.428 175.086 463.231 173.954C463.031 172.815 462.766 172.083 462.433 171.755C462.102 171.428 461.738 171.298 461.34 171.367C460.948 171.434 460.667 171.656 460.489 172.024C460.27 172.496 460.259 173.3 460.459 174.434L460.462 174.437Z" fill="#706F6F"/>
<path d="M436.955 183.366L437.238 184.145L432.865 185.723C432.787 185.532 432.751 185.332 432.756 185.127C432.759 184.788 432.831 184.433 432.973 184.056C433.115 183.679 433.349 183.219 433.674 182.673C434.18 181.824 434.497 181.184 434.625 180.748C434.753 180.313 434.761 179.944 434.65 179.636C434.533 179.315 434.319 179.087 434.01 178.949C433.702 178.81 433.36 178.81 432.99 178.943C432.598 179.084 432.328 179.315 432.178 179.634C432.028 179.952 432.028 180.318 432.175 180.734L431.311 180.951C431.141 180.31 431.185 179.758 431.441 179.298C431.697 178.838 432.139 178.494 432.767 178.266C433.401 178.036 433.969 178.031 434.466 178.25C434.964 178.466 435.306 178.835 435.495 179.353C435.59 179.617 435.631 179.897 435.615 180.191C435.598 180.485 435.514 180.818 435.367 181.192C435.217 181.563 434.942 182.101 434.536 182.806C434.197 183.391 433.982 183.779 433.899 183.973C433.813 184.17 433.752 184.359 433.716 184.536L436.96 183.366H436.955Z" fill="#706F6F"/>
<path d="M436.898 180.576C436.614 179.797 436.467 179.14 436.456 178.605C436.445 178.072 436.55 177.618 436.776 177.246C437.001 176.872 437.354 176.6 437.832 176.425C438.188 176.298 438.524 176.256 438.844 176.3C439.164 176.348 439.459 176.472 439.731 176.678C440.004 176.883 440.259 177.16 440.498 177.509C440.738 177.859 440.977 178.361 441.213 179.015C441.494 179.789 441.641 180.443 441.655 180.976C441.669 181.508 441.563 181.963 441.341 182.337C441.118 182.711 440.763 182.986 440.279 183.161C439.642 183.391 439.058 183.344 438.527 183.019C437.89 182.628 437.348 181.813 436.898 180.574V180.576ZM437.732 180.274C438.127 181.355 438.513 182.032 438.9 182.298C439.283 182.565 439.662 182.631 440.037 182.495C440.409 182.362 440.657 182.068 440.782 181.616C440.904 181.164 440.771 180.399 440.379 179.317C439.984 178.23 439.595 177.557 439.211 177.29C438.827 177.024 438.446 176.96 438.068 177.096C437.696 177.232 437.454 177.496 437.345 177.892C437.212 178.394 437.343 179.19 437.735 180.271L437.732 180.274Z" fill="#706F6F"/>
<path d="M411.698 194.508L412.39 193.978C412.719 194.352 413.041 194.574 413.355 194.641C413.669 194.707 413.975 194.657 414.273 194.488C414.626 194.286 414.851 193.995 414.954 193.612C415.057 193.229 415.004 192.858 414.795 192.497C414.598 192.153 414.323 191.937 413.97 191.843C413.617 191.748 413.266 191.801 412.919 192.001C412.777 192.081 412.618 192.212 412.438 192.386L412.143 191.685C412.196 191.663 412.238 191.64 412.268 191.624C412.588 191.441 412.827 191.194 412.985 190.881C413.144 190.567 413.124 190.24 412.927 189.893C412.769 189.619 412.546 189.447 412.257 189.372C411.968 189.3 411.676 189.347 411.381 189.516C411.089 189.683 410.9 189.913 410.811 190.207C410.722 190.501 410.756 190.847 410.911 191.244L410.086 191.541C409.888 190.989 409.874 190.481 410.038 190.018C410.205 189.558 410.528 189.189 411.011 188.912C411.345 188.72 411.693 188.618 412.054 188.598C412.415 188.579 412.744 188.651 413.033 188.812C413.322 188.973 413.547 189.192 413.708 189.469C413.859 189.733 413.925 190.013 413.909 190.309C413.892 190.606 413.781 190.897 413.578 191.183C413.986 191.058 414.367 191.072 414.718 191.216C415.068 191.363 415.357 191.632 415.582 192.026C415.888 192.558 415.955 193.118 415.78 193.709C415.605 194.302 415.221 194.768 414.626 195.107C414.089 195.414 413.555 195.509 413.016 195.395C412.479 195.278 412.04 194.984 411.698 194.508Z" fill="#706F6F"/>
<path d="M415.598 190.404C415.184 189.685 414.925 189.064 414.82 188.54C414.717 188.016 414.742 187.553 414.898 187.145C415.053 186.74 415.351 186.41 415.796 186.155C416.124 185.967 416.449 185.87 416.769 185.859C417.091 185.848 417.405 185.922 417.708 186.075C418.012 186.23 418.312 186.46 418.609 186.763C418.904 187.065 419.229 187.52 419.574 188.121C419.986 188.834 420.244 189.452 420.35 189.976C420.455 190.498 420.43 190.964 420.278 191.371C420.122 191.779 419.822 192.109 419.377 192.367C418.79 192.705 418.206 192.758 417.628 192.53C416.936 192.256 416.257 191.546 415.598 190.404ZM416.368 189.963C416.944 190.961 417.444 191.56 417.87 191.754C418.295 191.951 418.679 191.951 419.024 191.754C419.368 191.557 419.56 191.224 419.605 190.758C419.646 190.293 419.382 189.561 418.807 188.565C418.228 187.564 417.728 186.965 417.305 186.771C416.88 186.577 416.493 186.58 416.146 186.779C415.801 186.976 415.612 187.278 415.573 187.689C415.529 188.207 415.796 188.964 416.371 189.965L416.368 189.963Z" fill="#706F6F"/>
<path d="M396.515 208.137L395.434 206.847L393.093 208.799L392.584 208.192L392.122 202.649L392.664 202.197L395.589 205.685L396.318 205.078L396.827 205.683L396.098 206.29L397.18 207.579L396.518 208.131L396.515 208.137ZM394.925 206.243L392.89 203.816L393.234 207.651L394.925 206.243Z" fill="#706F6F"/>
<path d="M396.335 203.769C395.801 203.131 395.437 202.566 395.245 202.069C395.05 201.57 394.995 201.11 395.078 200.683C395.162 200.256 395.398 199.879 395.793 199.552C396.082 199.31 396.385 199.158 396.699 199.091C397.016 199.025 397.336 199.041 397.661 199.144C397.986 199.244 398.323 199.419 398.668 199.665C399.012 199.912 399.407 200.303 399.855 200.838C400.383 201.47 400.747 202.033 400.942 202.53C401.137 203.026 401.195 203.489 401.111 203.916C401.031 204.343 400.792 204.723 400.397 205.053C399.877 205.488 399.313 205.641 398.701 205.519C397.97 205.366 397.18 204.787 396.332 203.775L396.335 203.769ZM397.016 203.201C397.756 204.085 398.353 204.587 398.807 204.707C399.26 204.826 399.638 204.759 399.941 204.504C400.244 204.249 400.377 203.888 400.339 203.423C400.3 202.954 399.91 202.283 399.171 201.401C398.428 200.514 397.831 200.012 397.38 199.895C396.93 199.776 396.549 199.846 396.238 200.103C395.934 200.359 395.798 200.688 395.832 201.096C395.879 201.615 396.271 202.316 397.013 203.198L397.016 203.201Z" fill="#706F6F"/>
<path d="M478.051 174.237C477.22 174.237 476.55 174.152 476.044 173.982C475.538 173.81 475.146 173.558 474.87 173.22C474.595 172.884 474.459 172.46 474.459 171.95C474.459 171.573 474.534 171.243 474.687 170.96C474.837 170.677 475.057 170.441 475.343 170.256C475.629 170.07 475.98 169.926 476.389 169.82C476.8 169.715 477.353 169.662 478.051 169.662C478.877 169.662 479.544 169.748 480.05 169.917C480.556 170.086 480.948 170.339 481.226 170.677C481.504 171.013 481.641 171.44 481.641 171.953C481.641 172.629 481.399 173.162 480.912 173.547C480.326 174.01 479.375 174.24 478.051 174.24V174.237ZM478.051 173.35C479.208 173.35 479.975 173.217 480.356 172.945C480.74 172.676 480.929 172.344 480.929 171.947C480.929 171.55 480.737 171.218 480.353 170.949C479.97 170.68 479.202 170.544 478.048 170.544C476.895 170.544 476.122 170.677 475.741 170.949C475.36 171.218 475.171 171.553 475.171 171.955C475.171 172.357 475.338 172.668 475.674 172.904C476.102 173.2 476.895 173.347 478.048 173.347L478.051 173.35Z" fill="#706F6F"/>
<path d="M386.455 390.741L384.551 392.641L388.004 396.085L387.109 396.977L378.317 398.5L377.519 397.704L382.677 392.56L381.601 391.487L382.496 390.594L383.572 391.667L385.477 389.768L386.455 390.744V390.741ZM383.653 393.536L380.063 397.116L386.144 396.024L383.653 393.539V393.536Z" fill="#B0AAAA"/>
<path d="M381.353 389.809L380.24 388.872C380.663 388.298 380.863 387.746 380.838 387.222C380.813 386.695 380.605 386.235 380.215 385.847C379.746 385.378 379.17 385.156 378.489 385.187C377.808 385.215 377.174 385.522 376.587 386.107C376.031 386.662 375.747 387.258 375.739 387.89C375.731 388.526 375.978 389.094 376.484 389.599C376.798 389.912 377.154 390.125 377.552 390.234C377.949 390.345 378.333 390.358 378.706 390.275L379.504 391.31L374.644 394.618L370.684 390.669L371.619 389.737L374.794 392.904L377.363 391.199C376.551 391.054 375.884 390.722 375.358 390.198C374.663 389.504 374.318 388.681 374.321 387.724C374.324 386.767 374.705 385.911 375.461 385.156C376.181 384.438 377.015 384.025 377.961 383.922C379.114 383.789 380.135 384.164 381.016 385.043C381.739 385.764 382.128 386.557 382.181 387.416C382.234 388.276 381.959 389.075 381.353 389.807V389.809Z" fill="#B0AAAA"/>
<path d="M374.089 415.413L482.727 307.064L482.377 306.715L373.739 415.064L374.089 415.413Z" fill="#B0AAAA"/>
<path d="M482.377 307.066L482.727 306.717L374.089 198.369L373.739 198.718L482.377 307.066Z" fill="#B0AAAA"/>
<path d="M316.57 307.137H482.555V306.646H316.57V307.137Z" fill="#B0AAAA"/>
</svg>
