<svg width="44" height="44" viewBox="0 0 44 44" fill="none" xmlns="http://www.w3.org/2000/svg">
<path d="M9.27251 5.21957C9.18167 5.28945 9.09084 5.35932 9 5.4292V5.21957H9.27251Z" fill="white"/>
<path d="M20.0795 37.1243H9.70312V38.0746H20.0795V37.1243Z" fill="white"/>
<path d="M21.7655 34.6088V36.4255H8.03516V34.6088H9.17411V35.2796H20.6266V34.6088H21.7655Z" fill="white"/>
<path d="M28.2783 5.37326L28.1875 5.60385V5.37326H28.2783Z" fill="white"/>
<path d="M35.1233 6.07204V6.09416C35.1233 6.09416 35.1011 6.07204 35.0938 6.07204H35.1233Z" fill="white"/>
<path d="M36.6623 38.396V38.6406H36.3828C36.4736 38.5637 36.5715 38.4799 36.6623 38.396Z" fill="white"/>
<path d="M35.0938 6.07209C35.0938 6.07209 35.1159 6.07209 35.1233 6.09421V6.07209H35.0938Z" fill="white"/>
<path d="M22.0039 41.75V38.1445" stroke="white" stroke-miterlimit="10"/>
<path d="M22.0039 5.84851V2.24298" stroke="white" stroke-miterlimit="10"/>
<path d="M5.87198 21.2209H2.27344" stroke="white" stroke-miterlimit="10"/>
<path d="M41.7235 21.2209H38.125" stroke="white" stroke-miterlimit="10"/>
<path d="M6.02003 24.3442L2.48438 25.036" stroke="white" stroke-miterlimit="10"/>
<path d="M41.2192 17.4547L37.6836 18.1464" stroke="white" stroke-miterlimit="10"/>
<path d="M6.89408 27.7192L3.58203 29.1447" stroke="white" stroke-miterlimit="10"/>
<path d="M39.8441 13.5346L36.5391 14.9601" stroke="white" stroke-miterlimit="10"/>
<path d="M8.38846 30.6819L5.42578 32.7362" stroke="white" stroke-miterlimit="10"/>
<path d="M37.8424 10.2017L34.8867 12.256" stroke="white" stroke-miterlimit="10"/>
<path d="M34.3611 8.85311L33.0195 10.1947" stroke="white" stroke-miterlimit="10"/>
<path d="M15.0362 38.7734L14.4492 40.2548" stroke="white" stroke-miterlimit="10"/>
<path d="M29.0151 3.52863L28.2814 5.37332L28.1906 5.60391L27.6875 6.87562" fill="white"/>
<path d="M29.0151 3.52863L28.2814 5.37332L28.1906 5.60391L27.6875 6.87562" stroke="white" stroke-miterlimit="10"/>
<path d="M18.7587 38.7734L18.2695 41.3937" stroke="white" stroke-miterlimit="10"/>
<path d="M25.4498 2.55043L24.793 6.09307" stroke="white" stroke-miterlimit="10"/>
<path d="M25.9379 41.3518L25.2461 37.8161" stroke="white" stroke-miterlimit="10"/>
<path d="M18.3633 2.58533L18.8734 5.2196L19.0061 5.91835" fill="white"/>
<path d="M18.3633 2.58533L18.8734 5.2196L19.0061 5.91835" stroke="white" stroke-miterlimit="10"/>
<path d="M30.126 40.0032L29.5391 38.6406" stroke="white" stroke-miterlimit="10"/>
<path d="M14.4453 3.74521L15.0812 5.21957L15.3886 5.91831" fill="white"/>
<path d="M14.4453 3.74521L15.0812 5.21957L15.3886 5.91831" stroke="white" stroke-miterlimit="10"/>
<path d="M38.7602 32.4428L35.7695 30.4374" stroke="white" stroke-miterlimit="10"/>
<path d="M8.95547 12.4726L5.96484 10.4742" stroke="white" stroke-miterlimit="10"/>
<path d="M40.5814 28.6974L37.2344 27.3559" stroke="white" stroke-miterlimit="10"/>
<path d="M7.29703 15.3025L3.95703 13.9539" stroke="white" stroke-miterlimit="10"/>
<path d="M41.5387 24.8195L37.9961 24.1627" stroke="white" stroke-miterlimit="10"/>
<path d="M6.27311 18.3211L2.73047 17.6713" stroke="white" stroke-miterlimit="10"/>
<path d="M43.986 21.2209C43.9371 19.7815 43.7485 18.377 43.434 17.0214C43.0777 15.4912 42.5676 14.0308 41.9177 12.6403C41.2959 11.3267 40.5482 10.0829 39.6887 8.92298C38.9341 7.89582 38.0816 6.93156 37.1593 6.05812C35.07 4.0667 32.5895 2.48753 29.8434 1.43942C28.5717 0.950294 27.2371 0.579959 25.8606 0.335398C24.6098 0.118787 23.3171 0 22.0035 0C20.613 0 19.2504 0.132762 17.9298 0.377323C16.4065 0.663808 14.9462 1.10402 13.5487 1.67699C9.74051 3.27013 6.47038 5.89741 4.09465 9.21645C3.22122 10.4253 2.47356 11.7319 1.86565 13.1085C1.28569 14.4291 0.82452 15.8196 0.517072 17.259C0.230586 18.5377 0.0628874 19.8653 0.0139752 21.2209C0.00698777 21.4794 0 21.738 0 21.9965C0 23.1774 0.0908365 24.3373 0.27251 25.4693C0.524059 27.0554 0.943306 28.5857 1.51628 30.0391C2.06829 31.4505 2.76005 32.7851 3.57758 34.0289C4.31126 35.1469 5.14277 36.195 6.05812 37.1593C8.17532 39.3813 10.7467 41.1561 13.6255 42.344C14.9811 42.903 16.3926 43.3222 17.8669 43.6017C19.2085 43.8603 20.592 43.993 22.0035 43.993C23.4988 43.993 24.9522 43.8463 26.3637 43.5598C27.9917 43.2314 29.5499 42.7283 31.0173 42.0645C32.9738 41.191 34.7836 40.0311 36.3837 38.6406H34.9023C33.5957 39.6608 32.1702 40.5203 30.647 41.205C29.2355 41.8479 27.7402 42.337 26.189 42.6514C24.8334 42.9239 23.4359 43.0637 22.0035 43.0637C20.6479 43.0637 19.3203 42.9379 18.0346 42.6864C16.6232 42.4208 15.2606 42.0156 13.9679 41.4705C12.277 40.7788 10.6908 39.8634 9.25838 38.7734H8.99984V38.5708C8.41988 38.1166 7.86787 37.6344 7.34382 37.1243H7.33683C7.1272 36.9147 6.92457 36.7051 6.72193 36.4955C5.84151 35.5731 5.04494 34.5669 4.35318 33.4909C3.57059 32.296 2.90678 31.0103 2.38272 29.6617C1.83071 28.2712 1.43243 26.8039 1.19486 25.2876C1.02716 24.2185 0.936319 23.1145 0.936319 21.9965C0.936319 21.738 0.943307 21.4794 0.957282 21.2209C0.999207 19.9212 1.15992 18.6565 1.43942 17.4267C1.73988 16.0502 2.18009 14.7226 2.74607 13.4648C3.32603 12.1442 4.03875 10.9004 4.87026 9.74051C5.60394 8.71336 6.42846 7.74909 7.33683 6.87566H7.34382C7.86787 6.35858 8.41988 5.87645 8.99984 5.42925C9.09068 5.35938 9.18152 5.2895 9.27235 5.21963C10.6908 4.13657 12.249 3.2282 13.919 2.53645C15.2536 1.98444 16.6511 1.5582 18.1045 1.29268C19.3692 1.05511 20.6689 0.929332 22.0035 0.929332C23.2612 0.929332 24.491 1.04113 25.6859 1.25774C27.0065 1.48134 28.2782 1.8377 29.501 2.30586C31.4715 3.05352 33.3022 4.09465 34.9373 5.37335H35.8247V6.11402C36.0553 6.30967 36.2789 6.51231 36.4955 6.72193C37.3829 7.55344 38.2004 8.4688 38.9201 9.45403C39.7446 10.558 40.4644 11.7529 41.0513 13.0106C41.6872 14.3383 42.1763 15.7427 42.5117 17.2031C42.8191 18.5028 43.0008 19.8444 43.0427 21.2209C43.0567 21.4794 43.0637 21.738 43.0637 21.9965C43.0637 23.0376 42.9868 24.0578 42.8401 25.057C42.6375 26.4894 42.2811 27.866 41.799 29.1866C41.2959 30.5981 40.639 31.9327 39.8495 33.1764C38.9481 34.6159 37.879 35.9365 36.6632 37.1174V38.3961C38.2004 37.0265 39.535 35.4543 40.632 33.7005C41.4496 32.4008 42.1344 31.0033 42.6724 29.543C43.1755 28.1594 43.5458 26.72 43.7624 25.2247C43.9231 24.1696 44 23.0935 44 21.9965C44 21.738 43.993 21.4794 43.986 21.2209Z" fill="white"/>
<path d="M35.872 36.0483L34.2649 35.6709C34.2649 35.6709 33.7828 34.9582 33.0141 33.8053C32.8884 33.6236 32.7626 33.428 32.6298 33.2253C30.2541 29.6268 25.9289 22.9049 24.1121 18.9639C26.8582 14.9252 29.7929 11.5153 31.414 9.72653C31.5887 9.53786 31.7354 9.37715 31.8752 9.22343C32.3853 8.67142 32.6857 8.36397 32.6857 8.36397L35.1244 8.04255V6.09305C35.1244 6.09305 35.1034 6.07209 35.0964 6.07209H28.8846V8.08447L28.8496 8.13339L19.9127 20.6619H19.0812V9.41209H15.5874V20.6619H14.3576V9.41209H10.6753V20.6619H9.84375V22.9747H10.6753V34.5809H14.3576V22.9747H15.5874V34.5809H19.0812V22.9747H19.9127L27.9552 36.2649L28.3116 36.8518L28.9754 37.9419H35.9629V36.0692L35.872 36.0483ZM13.2047 33.7494H11.8561V22.9747H13.2047V33.7494ZM13.2047 20.6619H11.8561V10.3973H13.2047V20.6619Z" fill="white"/>
<path d="M21.7694 7.56738V9.38412H20.6305V8.71333H9.17802V9.38412H8.03906V7.56738H21.7694Z" fill="white"/>
<path d="M29.3388 2.71814C28.1439 2.25697 26.9002 1.91458 25.6075 1.69098C24.4406 1.47437 23.2318 1.36956 22.002 1.36956C20.7023 1.36956 19.4236 1.48835 18.1938 1.72592C16.7684 1.98446 15.3988 2.39672 14.0922 2.94174C12.6318 3.54266 11.2622 4.31128 10.0045 5.21965H11.5767C12.4851 4.65366 13.4423 4.15756 14.4415 3.7453C15.6853 3.22822 16.9989 2.82994 18.3615 2.58538C19.5424 2.35479 20.7582 2.24299 22.002 2.24299C23.1759 2.24299 24.3288 2.3478 25.4468 2.55044C26.6766 2.76006 27.8714 3.08847 29.0104 3.52868C30.2961 4.01781 31.5259 4.6327 32.6648 5.37337H34.1951C32.7137 4.26935 31.0857 3.37496 29.3388 2.71814ZM2.73057 17.6713C3.01006 16.3786 3.42931 15.1348 3.96036 13.954C4.50538 12.7172 5.17618 11.5573 5.96576 10.4742C6.39199 9.88028 6.84618 9.3143 7.3353 8.77626V7.49756C6.57367 8.26618 5.87492 9.09769 5.23906 9.98509C4.41454 11.1171 3.7158 12.3329 3.14981 13.6256C2.59781 14.8623 2.16458 16.162 1.87111 17.5106C1.5986 18.7124 1.43789 19.9492 1.39596 21.2209C1.38199 21.4795 1.375 21.738 1.375 21.9965C1.375 23.0866 1.45885 24.1557 1.62655 25.2038C1.85713 26.6921 2.24843 28.1315 2.78647 29.4941C3.29655 30.8147 3.9394 32.0655 4.70802 33.2393C5.3858 34.2945 6.16839 35.2797 7.03484 36.1811C7.13266 36.2859 7.23748 36.3907 7.3353 36.4815V35.2168C6.62957 34.4412 5.99371 33.6167 5.42772 32.7362C4.69404 31.6113 4.07216 30.4094 3.58304 29.1447C3.07295 27.838 2.70262 26.4615 2.48601 25.0361C2.32529 24.0439 2.24843 23.0307 2.24843 21.9965C2.24843 21.738 2.25542 21.4795 2.26939 21.2209C2.31132 20.0051 2.46504 18.8172 2.73057 17.6713ZM32.6369 38.6406C31.8333 39.1577 30.9948 39.6119 30.1214 40.0032C28.8008 40.6041 27.3963 41.0653 25.9359 41.3518C24.6642 41.6173 23.3505 41.7501 22.002 41.7501C20.7233 41.7501 19.4795 41.6313 18.2707 41.3937C16.9431 41.1422 15.6643 40.7578 14.4485 40.2548C13.4493 39.8425 12.4851 39.3464 11.5767 38.7734H10.0115C11.2832 39.6888 12.6597 40.4574 14.1271 41.0653C15.3918 41.5894 16.7264 41.9946 18.11 42.2532C19.3677 42.4977 20.6744 42.6235 22.002 42.6235C23.4064 42.6235 24.776 42.4837 26.1036 42.2112C27.6269 41.9108 29.0872 41.4356 30.4708 40.8068C31.7844 40.2128 33.0282 39.4861 34.1741 38.6406H32.6369ZM42.601 21.2209C42.5591 19.8723 42.3774 18.5587 42.0769 17.287C41.7485 15.8546 41.2664 14.485 40.6515 13.1853C40.0715 11.9556 39.3658 10.7887 38.5622 9.70559C37.8495 8.74133 37.0529 7.84693 36.1865 7.0294C36.0677 6.9176 35.9489 6.8058 35.8232 6.70099V7.90283C36.5568 8.60856 37.2276 9.37718 37.8425 10.2017C38.6111 11.2358 39.2889 12.3538 39.8409 13.5347C40.4349 14.7715 40.903 16.0851 41.2175 17.4547C41.5109 18.6705 41.6856 19.9282 41.7276 21.2209C41.7415 21.4795 41.7485 21.738 41.7485 21.9965C41.7485 22.9538 41.6786 23.8971 41.5389 24.8195C41.3572 26.1611 41.0288 27.4537 40.5816 28.6975C40.1065 30.0181 39.4986 31.2689 38.7579 32.4428C38.0871 33.5258 37.3045 34.539 36.438 35.4683L36.6616 35.5173V36.5025C37.7307 35.4194 38.674 34.2246 39.4846 32.9319C40.2532 31.7091 40.896 30.4024 41.3922 29.0259C41.8603 27.7332 42.2097 26.3777 42.4053 24.9732C42.5521 24.0019 42.622 23.0097 42.622 21.9965C42.622 21.738 42.6219 21.4795 42.601 21.2209Z" fill="white"/>
<path d="M20.0756 5.9184H9.69922V7.05735H20.0756V5.9184Z" fill="white"/>
<path d="M38.1297 21.2209C38.0808 20.1658 37.934 19.1386 37.6825 18.1464C37.417 17.0354 37.0257 15.9663 36.5366 14.9601C36.0754 14.0028 35.5164 13.0945 34.8875 12.256C34.3215 11.5153 33.6997 10.8305 33.0219 10.1947C32.8262 10.013 32.6236 9.83133 32.4209 9.66363C32.2812 9.81735 32.1275 9.98505 31.9598 10.1737C32.1554 10.3274 32.3511 10.5021 32.5397 10.6768C33.1896 11.2847 33.7835 11.9485 34.3215 12.6543C34.9294 13.4508 35.4605 14.3103 35.9077 15.2256C36.3758 16.1899 36.7532 17.2101 37.0117 18.2792C37.2493 19.2295 37.396 20.2147 37.4449 21.2209C37.4589 21.4794 37.4659 21.7379 37.4659 21.9965C37.4659 22.6882 37.417 23.373 37.3261 24.0438C37.1934 25.0989 36.9418 26.1191 36.5994 27.0973C36.2361 28.1385 35.7679 29.1377 35.202 30.06C34.608 31.0173 33.9163 31.9187 33.1407 32.7222C33.2734 32.9249 33.3992 33.1205 33.525 33.3092C34.3774 32.4357 35.1321 31.4785 35.7679 30.4373C36.3619 29.4731 36.858 28.4389 37.2353 27.3559C37.5986 26.3357 37.8572 25.2666 37.9969 24.1626C38.1017 23.4569 38.1507 22.7302 38.1507 21.9965C38.1507 21.7379 38.1437 21.4794 38.1297 21.2209ZM27.2991 36.5234C26.5934 36.7819 25.8597 36.9916 25.1121 37.1453C24.1059 37.3549 23.0647 37.4597 22.0027 37.4597C21.5904 37.4597 21.1781 37.4457 20.7729 37.4108V38.0956C21.1781 38.1305 21.5904 38.1445 22.0027 38.1445C23.1137 38.1445 24.1967 38.0327 25.2448 37.8161C26.0763 37.6484 26.8799 37.4178 27.6625 37.1173L27.2991 36.5234ZM6.95866 18.4469C7.18226 17.4407 7.51766 16.4764 7.94389 15.561C8.37711 14.6038 8.90816 13.7024 9.53004 12.8639C9.67678 12.6682 9.82352 12.4726 9.97724 12.2769V11.2148C9.61389 11.6201 9.2785 12.0394 8.95707 12.4726C8.31423 13.353 7.75523 14.2963 7.30105 15.3025C6.86084 16.2598 6.51146 17.273 6.27389 18.3211C6.05029 19.2574 5.91054 20.2287 5.86862 21.2209C5.85464 21.4794 5.84766 21.7379 5.84766 21.9965C5.84766 22.7931 5.90356 23.5757 6.02234 24.3443C6.19004 25.5112 6.48351 26.6431 6.89577 27.7192C7.28707 28.7603 7.79017 29.7526 8.39109 30.6819C8.85226 31.4156 9.38331 32.1143 9.97724 32.7642V31.709C9.60691 31.2549 9.26452 30.7867 8.95009 30.2906C8.3841 29.4032 7.90896 28.4459 7.53163 27.4467C7.14034 26.4195 6.86084 25.3365 6.70013 24.2115C6.59531 23.4918 6.53941 22.7511 6.53941 21.9965C6.53941 21.7379 6.53941 21.4794 6.56038 21.2209C6.6023 20.2706 6.73506 19.3413 6.95866 18.4469ZM27.6835 6.87563C26.7541 6.52626 25.7899 6.26074 24.7906 6.09304C23.8823 5.93233 22.9529 5.84848 22.0027 5.84848C21.5834 5.84848 21.1781 5.86245 20.7729 5.89739V6.58915C21.1781 6.54722 21.5904 6.53325 22.0027 6.53325C22.911 6.53325 23.8054 6.61011 24.6719 6.77082C25.6222 6.93153 26.5445 7.18308 27.4319 7.51149C27.6904 7.60932 27.942 7.71413 28.1865 7.81894V7.07827C28.0189 7.00839 27.8512 6.93852 27.6835 6.87563Z" fill="white" stroke="white" stroke-width="0.75" stroke-miterlimit="10"/>
</svg>
