<svg width="40" height="36" viewBox="0 0 40 36" fill="none" xmlns="http://www.w3.org/2000/svg">
<path d="M25.8403 3.7081C25.8254 4.06672 25.5508 4.2254 25.1839 4.25819C23.709 4.39148 22.2913 4.72683 20.9966 5.4832C19.8472 6.15495 19.0339 7.19378 18.0626 8.09826C18.8812 9.15613 19.6786 10.1897 20.4791 11.2222C20.9556 11.8371 20.9203 12.4176 20.3731 12.9634C19.0721 14.2614 17.7731 15.5594 16.4721 16.8564C16.0564 17.2711 15.8465 17.2827 15.3757 16.9209C14.3387 16.1233 13.3027 15.3246 12.2657 14.5269C12.1511 14.4391 12.0335 14.3556 11.8712 14.235C11.3951 15.113 10.5649 14.9501 9.73779 14.9437C9.73779 15.2823 9.73355 15.5943 9.73779 15.9064C9.74521 16.2576 9.61903 16.5369 9.36455 16.7855C8.51414 17.617 7.68389 18.4696 6.83243 19.3001C6.14744 19.9686 5.1751 20.0236 4.44876 19.4619C4.06915 19.1689 3.98645 18.8219 4.22078 18.5088C4.45512 18.1956 4.80716 18.1681 5.19206 18.4548C5.49745 18.6812 5.76359 18.6727 6.03504 18.3988C6.80698 17.6191 7.59058 16.8521 8.35721 16.0672C8.4537 15.9678 8.51521 15.7974 8.52263 15.6557C8.5449 15.2474 8.52263 14.838 8.53429 14.4286C8.54808 13.9642 8.76015 13.7642 9.2267 13.7505C9.38575 13.7462 9.54693 13.7314 9.7028 13.7526C10.3772 13.8414 10.9243 13.6743 11.358 13.1031C11.6284 12.7487 11.9359 12.7677 12.3272 13.0671C13.4204 13.9007 14.5072 14.7417 15.5962 15.5785C15.6694 15.6345 15.7426 15.6874 15.7818 15.7171C17.0107 14.491 18.2238 13.2808 19.4708 12.0357C19.2725 11.7754 19.0371 11.4623 18.7974 11.1523C18.1432 10.306 17.4858 9.46186 16.8326 8.6145C16.5039 8.18818 16.5134 7.95756 16.8803 7.57673C17.5218 6.91027 18.1623 6.24276 18.8133 5.58688C20.1398 4.25078 21.7579 3.46902 23.6867 3.09876C23.5308 2.9824 23.4312 2.89459 23.3188 2.82689C20.1101 0.866654 16.8315 0.722784 13.4808 2.45135C13.3992 2.49366 13.3218 2.54655 13.2391 2.58675C12.8605 2.774 12.5255 2.69571 12.341 2.38047C12.1437 2.04301 12.2254 1.66006 12.6156 1.48445C13.5148 1.07823 14.4055 0.599013 15.3523 0.364166C19.2322 -0.594266 22.6476 0.350413 25.5667 3.06491C25.7258 3.21301 25.8477 3.49441 25.8392 3.7081H25.8403Z" fill="white"/>
<path d="M39.4197 32.5816C39.3657 33.7559 38.7814 34.7355 37.5588 35.2813C36.3405 35.8251 34.9472 35.5627 33.9664 34.6011C32.7215 33.3803 31.4936 32.1416 30.2594 30.9091C25.9755 26.6353 21.6917 22.3615 17.4079 18.0877C16.9467 17.6276 16.8756 17.2785 17.181 16.9759C17.498 16.6617 17.813 16.7252 18.2944 17.2034C23.8336 22.7064 29.3719 28.2105 34.9122 33.7136C35.7032 34.4996 36.7296 34.5461 37.5429 33.8437C38.3064 33.1846 38.4198 32.1278 37.8122 31.3175C37.7412 31.2223 37.6532 31.1398 37.5832 31.0446C37.368 30.7483 37.3998 30.4246 37.6606 30.193C37.913 29.9687 38.2597 29.9698 38.5174 30.2279C39.126 30.8361 39.4113 31.5819 39.4197 32.5816Z" fill="white"/>
<path d="M11.4522 3.97257C11.3737 4.07836 11.2741 4.16722 11.1808 4.26137C9.60083 5.83865 8.01561 7.41171 6.44629 8.99957C6.30844 9.13921 6.22467 9.37617 6.20347 9.57717C6.16423 9.94214 6.20134 10.3156 6.18862 10.6848C6.17272 11.183 5.96065 11.4507 5.48667 11.3777C4.368 11.2042 3.58122 11.6506 2.90895 12.4948C2.53359 12.9676 2.05855 13.3612 1.62805 13.7907C1.15513 14.2635 1.15301 14.4836 1.61533 14.9469C2.26002 15.5922 2.90683 16.2344 3.54941 16.8807C3.7795 17.1113 3.84843 17.379 3.67347 17.6709C3.51972 17.9248 3.28008 18.0306 2.99484 17.9534C2.8623 17.9174 2.73082 17.8275 2.63326 17.7291C1.90904 16.995 1.18058 16.2661 0.47969 15.5108C-0.162883 14.821 -0.160762 13.7812 0.491354 13.1031C1.35236 12.2092 2.22715 11.3248 3.13481 10.4785C3.35218 10.2764 3.718 10.1981 4.02975 10.1378C4.31922 10.0818 4.62884 10.1262 4.95119 10.1262C4.96073 9.9982 4.98618 9.90723 4.9724 9.82154C4.84197 8.97947 5.21628 8.39235 5.81644 7.8211C7.33804 6.37394 8.80239 4.86541 10.289 3.38122C10.3834 3.28813 10.4724 3.18763 10.5785 3.1104C10.8499 2.91364 11.1214 2.92845 11.3716 3.15166C11.6187 3.37064 11.6505 3.70175 11.4522 3.97257Z" fill="white"/>
<path d="M33.9353 26.6025C33.6989 26.8342 33.4179 26.8575 33.1422 26.6649C33.0139 26.575 32.9068 26.4555 32.7944 26.3433C28.8393 22.3784 24.8842 18.4125 20.9301 14.4465C20.8549 14.3714 20.7425 14.3058 20.717 14.217C20.6576 14.0022 20.5569 13.743 20.6279 13.5632C20.6979 13.3855 20.9598 13.2839 21.1804 13.1157C21.4327 13.2924 21.6554 13.4045 21.823 13.5717C24.8418 16.5866 27.8532 19.6089 30.8667 22.6292C31.8274 23.5929 32.7891 24.5545 33.7498 25.5193C33.8431 25.6124 33.9406 25.7044 34.0127 25.8123C34.1994 26.0926 34.1718 26.3709 33.9353 26.6025Z" fill="white"/>
<path d="M26.0841 21.5417C25.9367 21.7374 25.8424 21.9744 25.6727 22.0558C25.502 22.1394 25.2528 22.0897 25.045 22.0579C24.9559 22.0442 24.8796 21.9331 24.8043 21.8591C23.9719 21.0297 23.1385 20.2003 22.3082 19.3678C21.9519 19.0102 21.9169 18.6495 22.2022 18.3691C22.4863 18.0888 22.8384 18.1258 23.2042 18.4887C24.0387 19.3159 24.8743 20.1432 25.6992 20.98C25.8402 21.1228 25.9314 21.3143 26.0841 21.5417Z" fill="white"/>
<path d="M36.7227 29.3996C36.4587 29.6503 36.1342 29.6524 35.8373 29.3742C35.4917 29.0494 35.1301 28.7299 34.8406 28.3575C34.7144 28.1946 34.6699 27.8804 34.7346 27.6837C34.7939 27.5017 35.0506 27.3843 35.234 27.2267C35.4461 27.3441 35.6147 27.4012 35.7334 27.5102C36.0727 27.8244 36.4004 28.1513 36.7164 28.4877C37.0058 28.7966 36.9974 29.1383 36.7227 29.3996Z" fill="white"/>
<path d="M21.4275 17.0521C21.4148 17.526 20.8539 17.8519 20.4849 17.5599C20.0851 17.2436 19.7203 16.8701 19.3991 16.4734C19.292 16.3412 19.2983 16.0302 19.3779 15.8599C19.4595 15.6874 19.696 15.5891 19.7914 15.515C20.2951 15.5171 21.4381 16.6744 21.4275 17.0521Z" fill="white"/>
<path d="M36.8638 32.4526C36.8532 32.79 36.5478 33.0788 36.2138 33.0682C35.8755 33.0566 35.5903 32.753 35.5998 32.4155C35.6104 32.0685 35.8967 31.8009 36.2498 31.8104C36.5998 31.8199 36.8744 32.1066 36.8638 32.4526Z" fill="white"/>
</svg>
