<svg width="33" height="33" viewBox="0 0 33 33" fill="none" xmlns="http://www.w3.org/2000/svg">
<path d="M10.4495 8.36981C10.3444 8.36981 10.2488 8.37069 10.1621 8.37156C10.2488 8.37069 10.3444 8.37069 10.4495 8.37069C10.5608 8.36981 10.6712 8.37243 10.7824 8.37243C10.6712 8.37243 10.5608 8.36981 10.4495 8.36981Z" fill="white"/>
<path d="M30.8922 30.018C30.5628 30.4285 30.094 30.3979 29.9276 29.9708C29.8321 29.7245 29.9363 29.5358 30.0967 29.3489C30.8493 28.4746 31.2883 27.4632 31.439 26.319C31.8192 23.4253 29.8137 20.6067 26.9381 20.0092C23.1907 19.2319 19.7763 22.1334 19.9471 25.9495C20.0777 28.8755 22.5432 31.2967 25.4784 31.3814C25.5222 31.3832 25.566 31.3823 25.6098 31.3832C26.0312 31.3954 26.245 31.5806 26.2354 31.9247C26.2249 32.2653 26.0058 32.4365 25.5739 32.4269C24.5663 32.4042 23.6078 32.1736 22.7045 31.7238C21.6662 31.2067 20.8146 30.473 20.1574 29.521C20.0374 29.3463 19.9147 29.2799 19.7053 29.2869C19.2576 29.3035 18.809 29.2983 18.3613 29.2904C17.4877 29.2747 16.8569 28.6729 16.7956 27.8047C16.7658 27.3898 16.5984 27.1994 16.2637 27.202C15.9317 27.2046 15.7722 27.3924 15.7415 27.8152C15.6785 28.6659 15.0511 29.2703 14.1986 29.2895C13.75 29.3 13.3014 29.3018 12.8537 29.2878C12.6382 29.2817 12.5085 29.3463 12.3727 29.5289C10.7176 31.757 8.49039 32.7649 5.74712 32.3282C2.99245 31.8889 1.16915 30.239 0.296487 27.5959C-0.205557 26.077 -0.0215689 24.5695 0.486608 23.0768C2.11453 18.2868 3.72668 13.4916 5.35284 8.70081C6.10459 6.48839 7.93929 5.18434 10.2918 5.17648C12.1826 5.17036 14.0733 5.17561 15.9641 5.17561C18.0634 5.17561 20.1618 5.16949 22.2602 5.17735C24.5242 5.18521 26.5 6.6063 27.1615 8.68858C27.2693 9.02835 27.1519 9.31309 26.8627 9.41179C26.5596 9.51573 26.3055 9.38122 26.1662 9.04407C26.1417 8.9838 26.1233 8.92091 26.0996 8.85977C25.6931 7.84309 25.0149 7.05874 23.9968 6.64386C23.5018 6.44297 22.9445 6.29885 22.4144 6.29535C18.3043 6.26653 14.1951 6.27177 10.085 6.28313C8.44221 6.28749 6.9133 7.34086 6.38321 8.88685C5.09525 12.6426 3.84496 16.4124 2.57977 20.1769C2.57364 20.1953 2.57889 20.218 2.57889 20.2957C3.51902 19.5795 4.53362 19.1192 5.66475 18.9349C5.99769 18.8807 6.33677 18.851 6.6741 18.8371C7.12795 18.8187 7.34875 19.0022 7.347 19.3576C7.34437 19.7 7.13584 19.866 6.70039 19.8791C5.09525 19.9306 3.7074 20.5053 2.62446 21.6897C1.0605 23.3999 0.62767 25.4053 1.40571 27.575C2.17936 29.735 3.78362 31.0154 6.07392 31.3211C9.70914 31.8068 12.823 28.9183 12.5742 25.2691C12.413 22.9195 11.1758 21.2705 8.99069 20.3464C8.91008 20.3123 8.82509 20.2905 8.74536 20.2555C8.44045 20.1184 8.30378 19.8424 8.40191 19.5681C8.50266 19.2886 8.80932 19.1611 9.1335 19.2738C10.198 19.6441 11.1189 20.2433 11.8452 21.0975C12.2991 21.633 12.6723 22.2356 13.0885 22.8165C13.1796 22.3265 13.2786 21.8085 13.3715 21.2897C13.8578 18.5794 14.3423 15.8691 14.8277 13.1588C14.8952 12.7824 15.158 12.5623 15.4743 12.6156C15.767 12.6645 15.9448 12.9475 15.8782 13.3248C15.5646 15.104 15.2421 16.8814 14.9215 18.6589C14.5018 20.9831 14.0409 23.3012 13.6799 25.6342C13.5415 26.5251 13.4679 27.4212 13.1244 28.3008C13.5056 28.3008 13.8438 28.3139 14.1793 28.2973C14.5263 28.2798 14.6691 28.1034 14.6963 27.7112C14.7716 26.6343 15.7389 25.9652 16.7614 26.2831C17.3765 26.4744 17.7865 27.0002 17.8391 27.6641C17.8794 28.1715 18.0196 28.3008 18.5392 28.3034C18.7906 28.3043 19.0421 28.3025 19.2935 28.3008C19.3146 28.2999 19.3356 28.2912 19.3838 28.2807C19.2839 27.9401 19.1498 27.6073 19.0929 27.2614C18.922 26.2316 18.7967 25.1948 18.6268 24.1651C18.0538 20.6966 17.4694 17.2299 16.8902 13.7624C16.856 13.5589 16.8122 13.3554 16.7965 13.1501C16.7719 12.8348 16.9568 12.5963 17.2345 12.5562C17.5298 12.5134 17.7883 12.6942 17.8435 13.0156C18.045 14.1851 18.236 15.3555 18.4288 16.5268C18.7626 18.5567 19.0938 20.5866 19.4267 22.6173C19.4328 22.6566 19.453 22.6942 19.488 22.7894C20.5158 20.8451 22.0149 19.528 24.1379 19.0266C26.2661 18.5235 28.2076 18.9655 29.9915 20.363C29.9451 20.2066 29.9197 20.1105 29.8873 20.0162C28.9445 17.2107 28 14.4061 27.0564 11.6015C27.0213 11.4984 26.981 11.3962 26.9617 11.2897C26.9065 10.9962 27.0502 10.7473 27.3096 10.6687C27.5803 10.5857 27.8335 10.6966 27.9536 10.9718C28.0403 11.1709 28.1025 11.3805 28.1726 11.5867C29.507 15.511 30.8659 19.4275 32.1671 23.3632C32.9705 25.7923 32.493 28.0248 30.8922 30.018Z" fill="white"/>
<path d="M30.4676 25.6979C30.4282 28.1995 28.5138 30.2101 25.9747 30.3874C23.5617 30.556 21.3853 28.7759 21.0427 26.3539C20.7632 24.3782 21.7594 22.4339 23.5188 21.5229C23.7913 21.3823 24.0953 21.4679 24.2521 21.7308C24.3809 21.9465 24.2986 22.1858 24.0471 22.3762C23.6922 22.6444 23.3015 22.8828 23.001 23.2043C21.9452 24.3293 21.7437 26.0272 22.4604 27.3985C23.142 28.7043 24.6473 29.5044 26.0833 29.3236C27.7147 29.1183 28.9089 28.0728 29.2857 26.5207C29.8272 24.2961 28.1738 22.123 25.8818 22.0234C25.675 22.0138 25.4218 21.9221 25.2886 21.7779C25.1923 21.674 25.1931 21.3805 25.2737 21.2434C25.3526 21.1089 25.5839 20.998 25.7521 20.9927C27.847 20.9281 29.8237 22.488 30.2977 24.5712C30.3818 24.9407 30.4125 25.3224 30.4676 25.6979Z" fill="white"/>
<path d="M7.49593 30.2844C7.30142 30.3115 7.10516 30.3316 6.9089 30.3342C6.52952 30.3403 6.31924 30.163 6.30347 29.8451C6.28682 29.5088 6.49272 29.3053 6.88261 29.293C7.71672 29.266 8.46673 29.0118 9.12297 28.4947C10.4004 27.4885 10.849 25.6988 10.2059 24.1878C9.57858 22.7125 7.98922 21.7867 6.43139 21.9876C4.73075 22.2068 3.44892 23.4078 3.2106 25.0368C2.98543 26.5828 3.51725 27.8134 4.82274 28.6974C5.15393 28.9218 5.25995 29.2389 5.0891 29.4966C4.90949 29.7664 4.56866 29.7935 4.22345 29.5647C2.47725 28.4074 1.69659 26.2273 2.31166 24.2288C2.91884 22.2549 4.75966 20.9159 6.8537 20.9237C9.32975 20.9333 11.387 22.8593 11.5394 25.3093C11.6936 27.7986 9.95095 29.9446 7.49593 30.2844Z" fill="white"/>
<path d="M23.9096 4.76336C23.645 4.83761 23.3856 4.65069 23.2735 4.29433C23.1175 3.79647 22.9703 3.29599 22.817 2.79725C22.5383 1.89237 21.9662 1.28882 21.0156 1.09841C20.0711 0.908875 19.3263 1.28358 18.7209 1.9736C18.3284 2.42255 18.1891 2.96233 18.2513 3.55452C18.2714 3.7493 18.2951 3.94408 18.3056 4.13973C18.3231 4.48474 18.1488 4.72057 17.8614 4.75638C17.5924 4.78957 17.2971 4.53714 17.2603 4.22445C17.2218 3.90041 17.199 3.57461 17.1797 3.35538C17.1745 1.85568 18.0489 0.678286 19.4551 0.185666C20.7851 -0.279877 22.2781 0.143741 23.142 1.3028C23.4539 1.72117 23.6563 2.22952 23.8587 2.71689C24.0287 3.12654 24.1303 3.565 24.2548 3.99299C24.3616 4.35983 24.2145 4.67864 23.9096 4.76336Z" fill="white"/>
<path d="M15.3492 3.39905C15.3281 3.64798 15.3098 3.93097 15.2791 4.21222C15.2397 4.58256 14.9803 4.81489 14.6815 4.75899C14.3179 4.69174 14.1331 4.40612 14.2741 4.02094C14.7297 2.78415 13.7852 0.973506 11.9181 1.05212C10.9482 1.09317 10.0852 1.76921 9.78377 2.71864C9.61905 3.23746 9.47098 3.76065 9.31064 4.28035C9.19499 4.65331 8.97682 4.79306 8.66052 4.70659C8.36788 4.62623 8.26362 4.36769 8.37665 3.98862C8.53874 3.44621 8.68243 2.89769 8.87168 2.36577C9.3343 1.06871 10.2289 0.238943 11.615 0.0432926C12.86 -0.132269 13.8956 0.314059 14.678 1.29056C15.1582 1.88974 15.3439 2.60334 15.3492 3.39905Z" fill="white"/>
<path d="M28.3422 25.6237C28.3019 26.6054 27.8559 27.3418 27.0796 27.8885C26.8352 28.0606 26.4917 28.0082 26.3401 27.8021C26.1649 27.5636 26.2201 27.2125 26.4681 27.0151C26.5872 26.9208 26.723 26.8448 26.8325 26.74C27.4862 26.1154 27.4239 25.0429 26.7046 24.4655C26.6284 24.4044 26.5425 24.3555 26.4654 24.2952C26.2052 24.0926 26.1491 23.793 26.3217 23.551C26.4996 23.3021 26.7949 23.2383 27.0726 23.4165C27.8839 23.9353 28.3045 24.6813 28.3422 25.6237Z" fill="white"/>
<path d="M11.5431 7.84051C11.5475 8.15407 11.3486 8.35322 11.006 8.36807C10.9315 8.37156 10.8562 8.37243 10.7817 8.37243C10.6704 8.37243 10.56 8.36981 10.4488 8.37069C10.3086 8.37069 10.1859 8.37069 10.0773 8.37331C10.044 8.37418 10.0115 8.37505 9.98 8.3768C9.96073 8.37768 9.9432 8.37855 9.9248 8.37942C9.83719 8.38379 9.76097 8.39165 9.69263 8.40475C9.6751 8.40737 9.65757 8.41087 9.6418 8.41523C9.6234 8.41785 9.60676 8.42309 9.59011 8.42833C9.58047 8.43008 9.57084 8.43357 9.5612 8.43707C9.53842 8.44406 9.51738 8.45279 9.49723 8.4624C9.48935 8.46589 9.48059 8.46939 9.47359 8.47375C9.4657 8.47725 9.45781 8.48161 9.4508 8.48598C9.44642 8.4886 9.44292 8.49035 9.43854 8.49384C9.42627 8.50083 9.414 8.50956 9.40261 8.5183C9.3921 8.52529 9.38159 8.53402 9.37195 8.54276C9.36143 8.55149 9.35092 8.5611 9.34128 8.57158C9.32726 8.58555 9.31499 8.59953 9.30273 8.61525C9.29134 8.62835 9.28082 8.64233 9.27031 8.65805C9.25454 8.67901 9.23964 8.70259 9.22562 8.72792C9.20722 8.75937 9.1897 8.79431 9.1713 8.83186C9.15378 8.86942 9.13538 8.91047 9.11786 8.95415C9.08631 9.02926 9.05477 9.11311 9.0206 9.20919C9.00746 9.24587 8.99432 9.28431 8.9803 9.32448C8.9768 9.33322 8.97329 9.34283 8.96979 9.35243C8.95928 9.383 8.94876 9.41357 8.93737 9.44589C8.86553 9.65115 8.80156 9.85903 8.7227 10.0617C8.60442 10.3639 8.24958 10.5429 7.9841 10.4442C7.7379 10.3525 7.631 10.0486 7.73965 9.7219C7.86757 9.34021 7.99724 8.95851 8.13743 8.58206C8.43533 7.78374 9.09158 7.33042 9.94321 7.32518C10.2928 7.32343 10.6424 7.31907 10.992 7.32693C11.3407 7.33566 11.5396 7.52782 11.5431 7.84051Z" fill="white"/>
<path d="M9.46531 25.8613C9.38558 26.0998 9.26992 26.5164 9.10783 26.9147C8.99743 27.1855 8.576 27.2737 8.30964 27.1226C8.09323 27.0003 8.05994 26.7723 8.21327 26.4675C8.59002 25.7233 8.38587 24.9093 7.68406 24.4254C7.42384 24.2463 7.25912 24.0402 7.37215 23.717C7.48868 23.3851 7.86455 23.2681 8.18348 23.469C8.98868 23.9791 9.40573 24.7171 9.46531 25.8613Z" fill="white"/>
<path d="M29.2512 31.3963C28.8149 31.6741 28.3391 31.9029 27.8529 32.0846C27.7398 32.1265 27.4752 31.9448 27.3754 31.8016C27.2229 31.5823 27.2886 31.2985 27.5182 31.1701C27.9519 30.9273 28.418 30.7403 28.871 30.5325C28.899 30.5194 28.9358 30.5246 28.9682 30.5211C28.9866 30.5028 29.0059 30.4853 29.0252 30.4678C29.1365 30.5823 29.3196 30.6853 29.3424 30.8155C29.3765 31.005 29.366 31.3238 29.2512 31.3963Z" fill="white"/>
<path d="M7.98544 12.2313C7.87154 12.5588 7.78304 12.9003 7.62446 13.206C7.5272 13.3956 7.31955 13.5275 7.23106 13.6166C6.79648 13.6235 6.51785 13.324 6.59758 13.0279C6.70798 12.6208 6.84992 12.2191 7.01639 11.8313C7.14168 11.5395 7.47287 11.4539 7.76989 11.5963C8.05377 11.7326 8.07656 11.9666 7.98544 12.2313Z" fill="white"/>
</svg>
