<svg width="40" height="40" viewBox="0 0 40 40" fill="none" xmlns="http://www.w3.org/2000/svg">
<path d="M39.3753 34.8009C39.3679 34.3598 38.9278 34.1101 38.5153 34.2656C38.21 34.3799 38.1135 34.6222 38.1156 34.9258C38.1177 35.4283 38.1156 35.9318 38.1156 36.4353C37.2715 35.2907 36.5007 34.1408 35.75 32.9782C35.6821 32.8735 35.698 32.6757 35.7446 32.5445C36.4774 30.4552 37.2207 28.3701 37.964 26.2851C37.9894 26.2131 38.0371 26.1497 38.1156 26.0058C38.1156 26.9177 38.1145 27.7354 38.1166 28.5531C38.1177 29.0831 38.3181 29.3286 38.7423 29.3317C39.1706 29.336 39.3848 29.0884 39.3848 28.569C39.3869 26.4977 39.3976 24.4253 39.3721 22.353C39.3689 22.0779 39.247 21.7457 39.0657 21.5405C32.8446 14.4845 26.6087 7.44015 20.3749 0.395786C19.9189 -0.119398 19.6411 -0.128918 19.1586 0.351355C17.9975 1.50761 16.8312 2.65963 15.6839 3.82964C15.4771 4.03909 15.3 4.30568 15.194 4.57967C14.3277 6.83082 13.4826 9.08937 12.6301 11.3448C11.6471 13.9461 10.6642 16.5463 9.66638 19.1857C9.54232 19.1635 9.45218 19.1518 9.36417 19.1317C7.07275 18.6377 4.54381 19.7485 3.36894 21.7658C3.1399 22.1594 3.20566 22.5328 3.53861 22.7317C3.85565 22.921 4.20132 22.8015 4.43248 22.4228C5.45677 20.7503 7.11304 20.014 9.06939 20.3631C11.4891 20.7947 13.0786 23.2511 12.541 25.7307C12.0203 28.1342 9.56988 29.6438 7.18833 29.0281C5.23304 28.5235 3.88851 26.8542 3.81853 24.8316C3.80686 24.5004 3.72947 24.2275 3.38168 24.1164C2.91512 23.9662 2.54929 24.2751 2.54505 24.8167C2.52278 28.1046 5.51933 30.7334 8.90715 30.3441C11.0978 30.0923 12.6725 28.9012 13.526 26.8859C14.3722 24.8855 14.1411 22.939 12.7891 21.2168C12.2791 20.5673 11.5803 20.0637 10.9176 19.447C12.6014 14.9817 14.3256 10.4096 16.0698 5.78352C16.1875 5.95384 16.2777 6.07973 16.3635 6.20773C20.0727 11.7467 23.7818 17.2858 27.4909 22.8258C27.5566 22.9242 27.6181 23.0268 27.6934 23.1178C27.9246 23.4013 28.3455 23.4796 28.618 23.2955C28.899 23.1062 28.9616 22.7666 28.759 22.4196C28.6074 22.1583 28.4473 21.897 28.2639 21.6569C28.1059 21.4495 28.109 21.2803 28.2267 21.0486C28.9393 19.6363 29.6349 18.2156 30.3379 16.7981C30.3878 16.6997 30.4503 16.6077 30.5426 16.4522V24.9955C30.4429 24.8876 30.3867 24.8199 30.3241 24.7596C30.0484 24.4941 29.7219 24.4708 29.4324 24.693C29.163 24.9003 29.1111 25.2071 29.2935 25.5414C29.3369 25.6228 29.3921 25.6979 29.443 25.7741C32.3208 30.0913 35.1975 34.4074 38.0764 38.7235C38.1421 38.8219 38.193 38.9647 38.2863 39.0039C38.5164 39.0991 38.791 39.2366 39.0031 39.1816C39.1653 39.1403 39.3615 38.8335 39.3657 38.641C39.3975 37.362 39.3954 36.081 39.3753 34.8009ZM19.0431 8.01457C18.8183 7.6824 18.6454 7.42746 18.4747 7.17039C17.9498 6.37911 17.4334 5.58253 16.8969 4.7997C16.7527 4.58919 16.74 4.46119 16.9361 4.27183C17.6264 3.60325 18.2966 2.91352 19.0431 2.16349V8.01457ZM20.3494 2.31371C21.1924 3.2605 21.9855 4.15229 22.8073 5.07581C22.0036 6.08396 21.2019 7.08682 20.3494 8.15527V2.31371ZM24.1402 13.415C24.1402 13.0426 24.1444 12.6703 24.1402 12.2979C24.1338 11.8208 23.9079 11.5584 23.5071 11.5521C23.0957 11.5457 22.8762 11.7922 22.872 12.2799C22.8667 12.7253 22.8709 13.1706 22.8709 13.616C22.8433 13.6223 22.8169 13.6298 22.7893 13.6361C21.994 12.4566 21.1998 11.277 20.3939 10.0817C21.203 9.08937 22.0004 8.11084 22.8709 7.04345C22.8709 7.91196 22.8487 8.67045 22.8847 9.42683C22.8953 9.6437 23.0236 9.93038 23.1943 10.0489C23.6153 10.3429 24.1296 10.0108 24.137 9.4628C24.1487 8.67151 24.1402 7.87917 24.1412 7.08788V6.59914C25.0086 7.5745 25.8028 8.46734 26.6182 9.38346C25.8176 10.7354 25.0213 12.081 24.225 13.4266C24.1964 13.4224 24.1688 13.4192 24.1402 13.415ZM26.668 19.3645C26.5864 19.2756 26.5228 19.2217 26.4782 19.155C25.7954 18.1352 25.1093 17.1165 24.4392 16.0882C24.3692 15.9814 24.3268 15.7741 24.383 15.6778C25.1093 14.4232 25.8569 13.1812 26.5981 11.935C26.6214 11.9435 26.6447 11.9509 26.668 11.9594V19.3645ZM30.3411 13.8445C29.5808 15.3911 28.8068 16.9303 28.0348 18.4716C28.0126 18.4642 27.9892 18.4568 27.967 18.4505V10.929C28.3285 11.3342 28.6392 11.6812 28.9499 12.0303C29.3889 12.5232 29.8321 13.012 30.2605 13.5155C30.3284 13.5948 30.3803 13.7641 30.3411 13.8445ZM31.781 23.9049V15.2367C32.6039 16.1602 33.3673 17.0118 34.1191 17.8739C34.1774 17.9406 34.1923 18.0971 34.1573 18.1828C33.396 20.0743 32.624 21.9615 31.8521 23.8488C31.8447 23.8668 31.8171 23.8774 31.781 23.9049ZM34.2856 30.8202C34.0629 30.4965 33.888 30.2447 33.7151 29.9897C33.1394 29.1381 32.5593 28.2887 31.9984 27.4276C31.921 27.3091 31.8775 27.0986 31.9284 26.9748C32.6665 25.1584 33.4235 23.3495 34.1774 21.5395C34.1955 21.4961 34.222 21.4548 34.2856 21.3353V30.8202ZM35.5856 29.0324V19.5856C35.6906 19.6818 35.768 19.74 35.8305 19.8109C36.507 20.5694 37.1878 21.3258 37.8494 22.098C37.9385 22.2017 38 22.4122 37.9576 22.5328C37.209 24.6433 36.4423 26.7474 35.6789 28.8525C35.6672 28.8864 35.646 28.9171 35.5856 29.0324Z" fill="white"/>
<path d="M1.26596 38.7257C1.22461 39.0811 0.974384 39.3022 0.621287 39.2874C0.26819 39.2726 0.0561189 39.0853 0.0105238 38.7341C-0.00750215 38.5902 0.00309411 38.4432 0.00309411 38.2983V19.6533C0.00309411 13.4256 0.00203376 7.19686 0.00309411 0.969173C0.00309411 0.810493 -0.0106977 0.647581 0.0221732 0.495247C0.0868546 0.186349 0.296812 0.0213208 0.613857 0.0128579C0.945747 0.00333703 1.17266 0.16096 1.25219 0.487842C1.28188 0.613729 1.27233 0.750194 1.27233 0.88137V38.4094C1.27233 38.5151 1.27869 38.622 1.26596 38.7257Z" fill="white"/>
<path d="M11.4327 24.5851C11.4433 25.0643 11.2301 25.334 10.8283 25.3499C10.4232 25.3647 10.1984 25.1246 10.1645 24.6401C10.0903 23.5864 9.39149 22.8935 8.32902 22.8184C7.84974 22.7856 7.60797 22.5529 7.62812 22.1467C7.64826 21.7479 7.9176 21.5416 8.40324 21.5543C10.033 21.5987 11.3956 22.9612 11.4327 24.5851Z" fill="white"/>
<path d="M8.562 16.3855C7.69463 16.8341 6.81773 17.2625 5.94294 17.6962C5.87402 17.7301 5.79238 17.7375 5.71603 17.7576C5.68953 17.7819 5.66408 17.8062 5.63757 17.8295C5.45731 17.6634 5.21977 17.527 5.11268 17.3228C4.98119 17.07 5.07874 16.7865 5.35019 16.6458C6.23028 16.193 7.11356 15.7466 8.00532 15.3192C8.32978 15.1637 8.61501 15.2927 8.7677 15.6006C8.92357 15.9137 8.85996 16.2311 8.562 16.3855Z" fill="white"/>
<path d="M8.85511 33.6701C8.7671 33.9578 8.56988 34.1789 8.11711 34.1419C8.0853 34.1303 7.95699 34.0985 7.84141 34.0425C7.07371 33.6627 6.30709 33.2798 5.54257 32.8936C5.15661 32.699 5.0018 32.3478 5.14813 32.0293C5.29233 31.7173 5.6783 31.6125 6.07275 31.8051C6.87756 32.1986 7.68023 32.5974 8.47656 33.0089C8.7321 33.1412 8.95266 33.3527 8.85511 33.6701Z" fill="white"/>
<path d="M3.81215 14.6051C3.81215 15.0134 3.82062 15.4218 3.80896 15.8291C3.7973 16.2427 3.55236 16.4818 3.17275 16.4786C2.79314 16.4765 2.55139 16.2363 2.54609 15.8195C2.53655 14.9902 2.53655 14.1608 2.54715 13.3325C2.55246 12.9189 2.80164 12.6798 3.1823 12.683C3.56191 12.6851 3.79836 12.9241 3.81002 13.342C3.82063 13.763 3.81215 14.1841 3.81215 14.6051Z" fill="white"/>
<path d="M3.80968 36.0958C3.80438 36.5136 3.56051 36.7527 3.1809 36.7548C2.8013 36.7559 2.55848 36.5168 2.54681 36.1032C2.53515 35.6821 2.54469 35.2611 2.54469 34.8401C2.54469 34.4191 2.53621 34.0234 2.54681 33.6161C2.55742 33.1983 2.79493 32.9602 3.17453 32.9581C3.5552 32.9571 3.80438 33.1951 3.80968 33.6098C3.82029 34.4381 3.81923 35.2675 3.80968 36.0958Z" fill="white"/>
<path d="M39.3797 32.3668C39.35 32.7296 39.1125 32.9476 38.7615 32.9528C38.3957 32.9581 38.1391 32.7318 38.1221 32.3499C38.1051 31.9701 38.1051 31.5882 38.1221 31.2074C38.1391 30.8424 38.3851 30.6202 38.7329 30.615C39.0637 30.6097 39.3415 30.8445 39.3765 31.1862C39.3977 31.3935 39.3807 31.6051 39.3807 31.8156H39.3829C39.3829 31.9997 39.3945 32.1848 39.3797 32.3668Z" fill="white"/>
</svg>
