<svg width="141" height="23" viewBox="0 0 141 23" fill="none" xmlns="http://www.w3.org/2000/svg">
<path d="M0.212172 19.3876L9.7857 3.0233C9.95425 2.73585 10.1949 2.49752 10.4838 2.3319C10.7726 2.16629 11.0997 2.0791 11.4325 2.0791C11.7654 2.0791 12.0924 2.16629 12.3813 2.3319C12.6702 2.49752 12.9108 2.73585 13.0793 3.0233L22.6529 19.3876C22.8211 19.6759 22.911 20.0035 22.9136 20.3375C22.9161 20.6714 22.8314 21.0002 22.6677 21.2913C22.504 21.5822 22.2671 21.8252 21.9806 21.996C21.694 22.1668 21.3678 22.2596 21.0344 22.2649H1.87921C1.54576 22.2596 1.2196 22.1668 0.932983 21.996C0.646437 21.8252 0.409537 21.5822 0.245851 21.2913C0.0821654 21.0002 -0.00252747 20.6714 5.74451e-05 20.3375C0.00264236 20.0035 0.0925056 19.6759 0.260677 19.3876" fill="black"/>
<path d="M30.8856 0.443999C28.8535 0.408134 26.8529 0.969661 25.1151 2.06371C23.3774 3.15775 21.9734 4.73972 21.0653 6.62686C20.8312 7.11197 20.7181 7.65034 20.7363 8.19261C20.7544 8.7348 20.9034 9.26365 21.1693 9.73076L28.0227 21.8725C28.143 22.0945 28.3108 22.2848 28.5133 22.4288C28.7157 22.5727 28.9474 22.6663 29.1903 22.7024C29.6909 22.7765 30.196 22.8125 30.7017 22.8103C33.549 22.8082 36.2796 21.6363 38.2966 19.5508C40.3136 17.4653 41.453 14.636 41.4657 11.6811C41.4684 8.74587 40.3619 5.92655 38.3837 3.82859C36.4055 1.7307 33.7135 0.521421 30.8856 0.460606" fill="black"/>
<path d="M58.1503 1.02079H43.6796C43.4728 1.01926 43.2697 1.07692 43.0928 1.18733C42.9161 1.29766 42.7724 1.45645 42.6779 1.64599C42.5835 1.83553 42.542 2.04838 42.5581 2.26077C42.5741 2.47323 42.647 2.6768 42.7687 2.84901C44.5709 5.42986 45.5331 8.53287 45.5171 11.7124C45.5192 14.8367 44.575 17.8839 42.8162 20.4289C42.6956 20.6013 42.6235 20.8046 42.6075 21.0164C42.5915 21.2283 42.6323 21.4406 42.7255 21.6301C42.8187 21.8197 42.9607 21.9791 43.1359 22.0912C43.3112 22.2032 43.513 22.2634 43.7192 22.2652H58.1816C58.8118 22.2652 59.4168 22.0073 59.8618 21.5481C60.3075 21.089 60.5582 20.4661 60.5582 19.8168V3.43672C60.5582 2.78737 60.3075 2.16454 59.8618 1.70534C59.4168 1.24621 58.8118 0.988281 58.1816 0.988281" fill="black"/>
<path d="M81.4785 13.8848L78.6281 6.66861H74.3009L71.4429 13.8848H69.8281V18.8025H72.5731V16.5195H80.227V18.8025H82.9878V13.8848H81.4785ZM76.6826 9.19386L78.5151 13.8848H74.5269L76.3352 9.19386H76.6826ZM89.2127 6.44965C88.5028 6.41638 87.7936 6.52692 87.1299 6.77415C86.467 7.02138 85.864 7.39994 85.3604 7.88551C84.856 8.37116 84.4631 8.95317 84.2045 9.59446C83.9458 10.2357 83.829 10.922 83.8601 11.6097C83.8351 12.2958 83.9564 12.9796 84.2166 13.6182C84.4775 14.2567 84.8712 14.8364 85.374 15.3208C85.8761 15.8051 86.4761 16.1838 87.1367 16.4332C87.7974 16.6825 88.5043 16.7971 89.2127 16.7698C89.9211 16.7984 90.6281 16.6846 91.2887 16.4356C91.9493 16.1865 92.5501 15.8077 93.0522 15.323C93.5543 14.8382 93.9472 14.2581 94.2058 13.619C94.4652 12.9799 94.5851 12.2958 94.5578 11.6097C94.5896 10.9224 94.4736 10.2363 94.2165 9.59497C93.9586 8.95376 93.5657 8.37153 93.0628 7.88581C92.5599 7.40009 91.9577 7.02146 91.294 6.77415C90.6311 6.52685 89.9227 6.41631 89.2127 6.44965ZM89.2127 14.0803C88.8851 14.0822 88.5597 14.0184 88.2586 13.8927C87.9574 13.7671 87.6867 13.5824 87.4629 13.3503C87.2391 13.1181 87.0677 12.8437 86.9585 12.5441C86.85 12.2445 86.8068 11.9263 86.8311 11.6097C86.8061 11.2938 86.85 10.9764 86.9585 10.6776C87.0677 10.3789 87.2399 10.1052 87.4637 9.87437C87.6874 9.64345 87.959 9.46026 88.2601 9.33635C88.5612 9.21245 88.8858 9.15068 89.2127 9.15486C89.5434 9.14517 89.8719 9.20283 90.1783 9.32424C90.4839 9.44565 90.76 9.62809 90.9883 9.85961C91.2174 10.0912 91.3926 10.3666 91.5041 10.6681C91.6156 10.9696 91.6596 11.2904 91.6346 11.6097C91.652 11.928 91.6027 12.2466 91.4889 12.5457C91.3752 12.8449 91.1992 13.1185 90.9724 13.3497C90.7464 13.5809 90.4733 13.7649 90.1707 13.8905C89.8681 14.0162 89.5419 14.0807 89.2127 14.0803ZM105.675 6.68425L102.897 10.5934H102.591L99.8535 6.68425H96.4464V16.5352H99.2884V11.1172H99.6844L102.026 14.4633H103.39L105.772 11.1172H106.127V16.5352H108.961V6.68425H105.675ZM112.86 13.1811C112.368 13.1811 111.895 13.3706 111.547 13.7078C111.199 14.0451 111.003 14.5025 111.003 14.9794C111.002 15.2162 111.05 15.4509 111.143 15.67C111.235 15.8891 111.372 16.0881 111.545 16.2559C111.717 16.4238 111.922 16.5569 112.148 16.6477C112.374 16.7386 112.616 16.7854 112.86 16.7854C113.106 16.7865 113.348 16.7404 113.575 16.65C113.802 16.5596 114.008 16.4266 114.181 16.2587C114.355 16.0908 114.492 15.8913 114.586 15.6718C114.679 15.4522 114.727 15.2168 114.725 14.9794C114.725 14.7426 114.677 14.5081 114.583 14.2895C114.489 14.0707 114.352 13.8721 114.178 13.7051C114.005 13.538 113.8 13.4057 113.574 13.3158C113.347 13.2259 113.105 13.1801 112.86 13.1811ZM137.081 6.68425L134.417 13.2906H134.038L131.413 6.68425H128.087L132.124 15.6909L132.656 16.5352L132.447 16.8244H129.217V19.5373H131.09C133.513 19.5373 135.006 18.4897 136.023 16.1678L140.206 6.68425H137.081ZM122.549 6.44965C121.968 6.42608 121.389 6.53074 120.856 6.75557C120.324 6.9804 119.85 7.31959 119.472 7.7475V6.72325H116.728V19.5373H119.602V15.5266C119.971 15.9127 120.418 16.221 120.915 16.4322C121.412 16.6434 121.949 16.753 122.492 16.7541C125.48 16.7541 127.239 14.6276 127.239 11.5706C127.239 8.70139 125.439 6.44965 122.549 6.44965ZM121.927 14.1506C121.591 14.1518 121.259 14.0852 120.951 13.9554C120.643 13.8254 120.367 13.635 120.139 13.396C119.911 13.1571 119.737 12.8749 119.628 12.5674C119.519 12.2599 119.477 11.9337 119.505 11.6097C119.473 11.2838 119.513 10.9551 119.62 10.6448C119.727 10.3345 119.901 10.0493 120.129 9.80783C120.358 9.56625 120.635 9.37367 120.945 9.24234C121.254 9.11101 121.589 9.04395 121.927 9.04535C122.265 9.04395 122.6 9.11101 122.909 9.24234C123.219 9.37367 123.497 9.56625 123.725 9.80783C123.953 10.0493 124.127 10.3345 124.234 10.6448C124.341 10.9551 124.381 11.2838 124.349 11.6097C124.377 11.9337 124.335 12.2599 124.226 12.5674C124.117 12.8749 123.943 13.1571 123.715 13.396C123.487 13.635 123.211 13.8254 122.903 13.9554C122.595 14.0852 122.263 14.1518 121.927 14.1506Z" fill="black"/>
</svg>
