<svg width="123" height="25" viewBox="0 0 123 25" fill="none" xmlns="http://www.w3.org/2000/svg">
<path d="M118.875 9.86764C118.875 11.0862 118.17 11.9074 116.415 11.9074H110.557V7.28174H116.415C118.189 7.28174 118.875 8.10091 118.875 9.3419V9.86764ZM107.565 5.07486V19.5816H110.557V14.1367H115.646L119.088 19.5816H122.424L118.81 13.884C120.82 13.3379 121.89 11.8667 121.89 9.5742C121.89 6.69283 120.116 5.07486 116.823 5.07486H107.565ZM87.4218 12.2661C87.4218 17.8597 90.4575 19.8343 96.1662 19.8343C101.875 19.8343 104.911 17.8576 104.911 12.2661C104.911 6.67449 101.875 4.82422 96.1662 4.82422C90.4575 4.82422 87.4218 6.75804 87.4218 12.2661ZM101.896 13.0445C101.896 16.3028 99.9706 17.5438 96.1662 17.5438C92.3618 17.5438 90.4367 16.2825 90.4367 13.0445V11.5508C90.4367 8.35563 92.339 7.11465 96.1662 7.11465C99.9934 7.11465 101.896 8.35563 101.896 11.5508V13.0445ZM81.8001 5.0769V19.5836H84.7923V5.07486H81.8001V5.0769ZM74.3943 19.5836H78.4557V5.07486H75.6977V16.7226L67.5521 5.07486H63.4679V19.5816H66.226V7.91344L74.3922 19.5816L74.3943 19.5836ZM45.3844 13.6966C45.3844 17.9025 47.9062 19.8363 52.9311 19.8363C57.9561 19.8363 60.3079 17.9025 60.3079 13.6966V5.07486H57.4857V13.611C57.4857 16.6594 55.9026 17.5642 52.9311 17.5642C49.9597 17.5642 48.3766 16.6594 48.3766 13.611V5.07486H45.3844V13.6945V13.6966ZM35.0859 17.2504V19.5836H38.7205C41.35 19.5836 42.2907 18.4282 42.2907 16.1989V5.07486H39.3193V15.5448C39.3193 16.6391 38.8924 17.2484 37.759 17.2484H35.0859V17.2504Z" fill="black"/>
<path d="M24.483 11.9056C24.4146 13.7742 23.648 14.6056 21.7437 14.6056C19.8394 14.6056 19.0727 13.7823 19.0043 11.9056C18.9359 10.0268 18.9463 7.80153 19.0043 6.03073C19.0623 4.25993 19.8394 3.33072 21.7437 3.33072C23.648 3.33072 24.4146 4.15397 24.483 6.03073C24.5514 7.90953 24.5514 10.0288 24.483 11.9056ZM11.8057 11.9056C11.7373 13.7742 10.9707 14.6056 9.06636 14.6056C7.16207 14.6056 6.39538 13.7823 6.327 11.9056C6.25862 10.0268 6.26898 7.80153 6.327 6.03073C6.38502 4.25993 7.16207 3.33072 9.06636 3.33072C10.9707 3.33072 11.7373 4.15397 11.8057 6.03073C11.8741 7.90953 11.8741 10.0288 11.8057 11.9056ZM27.7839 7.63648C27.6368 2.32203 24.3856 0.164062 20.202 0.164062C18.967 0.164062 17.7507 0.461573 16.6587 1.0301C15.5666 1.59864 14.6321 2.42188 13.9359 3.42649C13.2396 2.42188 12.3051 1.59864 11.2131 1.0301C10.1211 0.461573 8.90681 0.164062 7.67182 0.164062C3.48818 0.164062 0.228715 2.32203 0.0898819 7.63648C0.000780155 10.958 -0.0572396 13.5419 0.0898819 16.9694C0.315744 22.1391 3.48818 24.4418 7.67182 24.4418C8.90681 24.4418 10.1231 24.1443 11.2152 23.5757C12.3072 23.0072 13.2417 22.1839 13.9379 21.1793C14.6342 22.1839 15.5687 23.0072 16.6607 23.5757C17.7527 24.1443 18.9691 24.4418 20.2041 24.4418C24.3877 24.4418 27.5601 22.1371 27.786 16.9694C27.9331 13.5419 27.8751 10.958 27.786 7.63851L27.7839 7.63648Z" fill="black"/>
</svg>
