<svg width="129" height="38" viewBox="0 0 129 38" fill="none" xmlns="http://www.w3.org/2000/svg">
<path d="M37.3625 0.637695H0V38.0002H37.3625V0.637695Z" fill="black"/>
<path d="M24.7148 3.51172V5.24414H28.5318V12.0225V12.1338H30.6697V5.24414H34.4866V3.51172H24.7148Z" fill="white"/>
<path d="M11.3706 3.51172L8.6222 9.21312L5.87552 3.51172H2.875V12.1338H4.97921V5.96343L7.66462 11.1766H9.58152L12.2687 5.96343V12.1338H14.3711V3.51172H11.3706Z" fill="white"/>
<path d="M32.3507 32.5778C32.3115 32.9035 32.1638 33.206 31.9324 33.4368C31.6921 33.6569 31.3966 33.8073 31.078 33.8699C30.6117 33.963 30.1382 34.0059 29.663 33.9987C29.1575 34.0077 28.6538 33.9343 28.1714 33.7786C27.7763 33.6498 27.4363 33.3921 27.2032 33.0449C26.97 32.6977 26.8543 32.1967 26.8543 31.5596V30.6559C26.8543 30.0134 26.9718 29.5123 27.2032 29.167C27.4345 28.8216 27.7745 28.5639 28.1679 28.4333C28.6502 28.2794 29.1539 28.2042 29.6594 28.2131C30.1347 28.206 30.6081 28.2489 31.0745 28.342C31.3931 28.4064 31.6885 28.5549 31.9288 28.7751C32.1602 29.0059 32.308 29.3083 32.3471 29.634H34.4866C34.4474 28.9558 34.1911 28.308 33.7532 27.7908C33.3225 27.3148 32.7636 26.9712 32.146 26.8048C31.3343 26.59 30.4978 26.488 29.6577 26.5059C28.6324 26.5059 27.7425 26.6544 27.0145 26.9461C26.2936 27.2253 25.6902 27.7443 25.304 28.4154C24.9267 29.0668 24.7291 29.9347 24.7148 31.0013V31.0997L24.8288 31.105H24.7148V31.2035C24.7273 32.2683 24.9267 33.138 25.304 33.7894C25.6902 34.4622 26.2936 34.9812 27.0145 35.2586C27.7443 35.5503 28.6342 35.6988 29.6577 35.6988C30.496 35.7167 31.3343 35.6147 32.146 35.4C32.7654 35.2335 33.3225 34.8899 33.7532 34.4139C34.1911 33.8949 34.4474 33.2489 34.4866 32.5707L32.3489 32.5761L32.3507 32.5778Z" fill="white"/>
<path d="M124.606 21.4929L126.029 24.7083H123.192L124.606 21.4929ZM123.712 20.575L120.61 27.5293H121.953L122.737 25.7451H126.49L127.273 27.5293H128.757L125.666 20.575H123.713H123.712ZM114.602 27.5293H116.138L118.355 21.7237V27.5293H119.769V20.575H117.624L115.457 26.2703L113.311 20.575H111.094V27.5293H112.396V21.753L114.602 27.5293ZM103.814 20.575V27.5293H109.875V26.4305H105.237V24.5051H108.777V23.4459H105.237V21.672H109.833V20.5732H103.813L103.814 20.575ZM98.5638 21.7237V27.5293H99.9868V21.7237H102.854V20.575H95.6953V21.7237H98.5621H98.5638ZM87.7187 24.0625C87.7187 26.713 89.133 27.6516 91.614 27.6516C93.831 27.6516 95.0716 26.9971 95.3252 25.3541H93.8918C93.6573 26.3117 92.905 26.5528 91.614 26.5528C90.099 26.5528 89.1538 26.0086 89.1538 24.3966V23.6905C89.1538 22.0475 90.1198 21.5532 91.614 21.5532C92.9571 21.5532 93.699 21.8356 93.8814 22.8328H95.3148C95.1115 21.1192 93.8501 20.4544 91.614 20.4544C89.133 20.4544 87.7187 21.4223 87.7187 24.0625ZM85.0413 22.3092V27.531H86.4556V20.5767H84.9301L80.7307 25.7985V20.5767H79.3077V27.531H80.8436L85.043 22.3092H85.0413ZM70.5597 24.0625C70.5597 26.713 71.974 27.6516 74.455 27.6516C76.672 27.6516 77.9126 26.9971 78.1662 25.3541H76.7328C76.4983 26.3117 75.746 26.5528 74.455 26.5528C72.94 26.5528 71.9948 26.0086 71.9948 24.3966V23.6905C71.9948 22.0475 72.9608 21.5532 74.455 21.5532C75.7981 21.5532 76.54 21.8356 76.7224 22.8328H78.1558C77.9525 21.1192 76.6911 20.4544 74.455 20.4544C71.974 20.4544 70.5597 21.4223 70.5597 24.0625ZM61.3043 24.0228C61.3043 26.7043 62.7481 27.6516 65.4638 27.6516C68.1794 27.6516 69.6232 26.7043 69.6232 24.0228C69.6232 21.3413 68.1794 20.4544 65.4638 20.4544C62.7481 20.4544 61.3043 21.381 61.3043 24.0228ZM68.1881 24.3966C68.1881 25.9586 67.2724 26.5528 65.462 26.5528C63.6516 26.5528 62.736 25.9483 62.736 24.3966V23.6801C62.736 22.1473 63.6412 21.5532 65.462 21.5532C67.2829 21.5532 68.1881 22.1473 68.1881 23.6801V24.3966ZM59.5373 20.5767L56.7609 23.4097H55.7132V20.5767H54.2902V27.531H55.7132V24.5567H56.7105L59.5877 27.531H61.4172L57.9597 23.923L61.2244 20.5767H59.5356H59.5373ZM47.9833 24.5085H51.5937C51.5538 26.0499 50.6277 26.5545 49.1526 26.5545C47.8721 26.5545 47.0885 26.2824 46.8435 25.3748H45.4102C45.6447 26.9868 46.9356 27.6533 49.1526 27.6533C51.5625 27.6533 53.0375 26.756 53.0375 24.0642C53.0375 21.3723 51.5833 20.4561 49.1943 20.4561C46.9982 20.4561 45.6864 21.071 45.4519 22.7949H46.8853C47.0885 21.7977 47.9121 21.5549 49.1839 21.5549C50.6173 21.5549 51.5225 22.0285 51.5833 23.4803H47.9833V24.5085ZM62.9306 14.5919C62.9306 17.2424 64.3448 18.1811 66.8259 18.1811C69.0429 18.1811 70.2834 17.5266 70.5371 15.8836H69.1037C68.8691 16.8412 68.1168 17.0823 66.8259 17.0823C65.3109 17.0823 64.3657 16.5381 64.3657 14.9261V14.2199C64.3657 12.5769 65.3317 12.0827 66.8259 12.0827C68.169 12.0827 68.9108 12.3651 69.0933 13.3623H70.5267C70.3234 11.6487 69.062 10.9839 66.8259 10.9839C64.3448 10.9839 62.9306 11.9518 62.9306 14.5919ZM58.3732 12.2532V18.0588H59.7962V12.2532H62.663V11.1044H55.5047V12.2532H58.3715H58.3732ZM49.3854 18.0588H50.9213L53.1383 12.2532V18.0588H54.5526V11.1044H52.4069L50.2403 16.7998L48.0945 11.1044H45.8775V18.0588H47.1789V12.2824L49.3854 18.0588Z" fill="black"/>
</svg>
