<svg width="110" height="33" viewBox="0 0 110 33" fill="none" xmlns="http://www.w3.org/2000/svg">
<path fill-rule="evenodd" clip-rule="evenodd" d="M19.1875 10.3379L9.89089 31.4888C11.7639 32.2613 13.817 32.6909 15.9673 32.6909C18.1177 32.6909 20.0843 32.2794 21.9213 31.5357L19.6089 10.4029C19.4648 10.392 19.3207 10.374 19.1839 10.3379H19.1875ZM20.4085 10.291C20.5886 10.2296 20.7651 10.1502 20.92 10.0455L31.2791 21.2148C30.0833 25.2868 27.317 28.6838 23.6791 30.6982L20.4085 10.291ZM21.8781 8.33796L29.0099 7.47517C30.8469 10.0816 31.9275 13.2584 31.9275 16.6915C31.9275 17.5362 31.859 18.3701 31.733 19.1787L21.5071 9.46066C21.7268 9.13938 21.8601 8.75311 21.8745 8.33796H21.8781ZM19.771 6.08172C20.6499 6.09977 21.3954 6.64849 21.716 7.4138L27.8105 5.96259C25.1018 2.95908 21.273 0.991644 16.9795 0.720895L19.2307 6.14309C19.4036 6.10338 19.5837 6.0745 19.7746 6.07811L19.771 6.08172ZM18.3698 6.57268C18.0349 6.84704 17.7827 7.21526 17.6602 7.64845L4.07378 6.01313C6.80404 2.96269 10.6833 0.969984 15.0308 0.717285L18.3734 6.57268H18.3698ZM17.5882 8.48236C17.6098 8.67008 17.6458 8.85419 17.7107 9.02386L0.219718 19.3267C0.0756405 18.4676 0 17.5867 0 16.6879C0 13.3558 1.01935 10.2621 2.75908 7.69899L17.5918 8.48236H17.5882ZM18.1393 9.70975C18.2366 9.81805 18.3446 9.91191 18.4635 9.99855L8.20519 30.6693C4.60326 28.6586 1.85859 25.2868 0.662755 21.2473L18.1429 9.70975H18.1393ZM80.9101 23.2183H88.5102V20.6444H83.6332V17.8611H87.833V15.3594H83.6332V12.6519H88.5102V10.1321H80.9101V23.2183ZM90.0086 12.6158H92.8037V23.2183H95.5051V12.6158H98.3002V10.1357H90.0086V12.6158ZM106.984 10.1357L103.249 17.7311H103.213V10.1357H100.512V23.2219H103.062L106.7 16.0994H106.722V23.2219H109.441V10.1357H106.984ZM45.2726 11.1321C44.9016 10.7927 44.4586 10.5437 43.9399 10.3812C43.4212 10.2188 42.8557 10.1357 42.2434 10.1357H38.0976V23.2219H40.817V18.4495H42.3911C43.0178 18.4495 43.5797 18.3484 44.0804 18.1499C44.5811 17.9477 45.0061 17.6662 45.3555 17.3052C45.7049 16.9405 45.975 16.5001 46.1623 15.9875C46.3496 15.4749 46.4433 14.9045 46.4433 14.28C46.4433 13.5616 46.3388 12.9479 46.1335 12.4281C45.9282 11.9082 45.64 11.4786 45.2726 11.1393V11.1321ZM43.3204 15.5327C43.0142 15.7854 42.6576 15.9081 42.2578 15.9081H40.8134V12.6555H42.2398C42.7153 12.6555 43.0899 12.7782 43.3636 13.0237C43.6374 13.2692 43.7778 13.6735 43.7778 14.2367C43.7778 14.8468 43.6229 15.2836 43.3168 15.5327H43.3204ZM55.8047 11.3703C55.4661 10.9732 55.0338 10.652 54.5116 10.4101C53.9857 10.1646 53.3662 10.0419 52.6566 10.0419C51.893 10.0419 51.2446 10.1682 50.7151 10.4281C50.1821 10.6844 49.7462 11.013 49.4112 11.4173C49.0727 11.818 48.8313 12.2656 48.68 12.7602C48.5288 13.2548 48.4531 13.7493 48.4531 14.2367V18.8972C48.4531 19.4856 48.5324 20.0524 48.6873 20.5902C48.8421 21.1317 49.0907 21.601 49.4292 22.009C49.7678 22.4169 50.2001 22.7382 50.7332 22.9764C51.2662 23.2147 51.9038 23.3338 52.6566 23.3338C53.2653 23.3338 53.8272 23.2364 54.3351 23.0414C54.8429 22.8465 55.2788 22.5649 55.6498 22.1931C56.0172 21.8249 56.3053 21.3772 56.5142 20.8574C56.7196 20.3375 56.824 19.7527 56.824 19.1029V14.2331C56.824 13.7168 56.7412 13.2114 56.5719 12.7097C56.4026 12.2079 56.1504 11.7602 55.8119 11.3667L55.8047 11.3703ZM54.0757 19.2943C54.0757 19.7347 53.9353 20.0776 53.6543 20.3303C53.3734 20.5794 53.0384 20.7058 52.653 20.7058C52.1127 20.7058 51.7273 20.5469 51.4968 20.2184C51.2662 19.8935 51.151 19.4784 51.151 18.9802V14.1284C51.151 13.9804 51.1798 13.8179 51.2338 13.6482C51.2915 13.4786 51.3779 13.3233 51.4968 13.1789C51.6156 13.0345 51.7705 12.9154 51.9578 12.8216C52.1451 12.7277 52.3756 12.6808 52.653 12.6808C52.9303 12.6808 53.1536 12.7349 53.3373 12.8396C53.5174 12.9443 53.6651 13.0743 53.7768 13.2223C53.8884 13.3739 53.9677 13.5327 54.0109 13.6952C54.0541 13.8576 54.0757 14.0056 54.0757 14.1284V19.3015V19.2943ZM62.2377 13.6446C62.2881 13.475 62.3674 13.3197 62.4826 13.1753C62.5943 13.0345 62.7456 12.9118 62.9329 12.8179C63.1202 12.7241 63.3543 12.6772 63.628 12.6772C63.9018 12.6772 64.1143 12.7277 64.3052 12.8288C64.4925 12.9299 64.651 13.049 64.7735 13.1862C64.8995 13.3233 64.9896 13.4786 65.0472 13.6482C65.1012 13.8179 65.1445 13.9659 65.1697 14.0923L67.7378 13.3197C67.6514 12.8938 67.5001 12.4822 67.2876 12.0887C67.0751 11.6952 66.7977 11.3451 66.4628 11.0454C66.1242 10.7458 65.7208 10.5076 65.2417 10.3235C64.7663 10.1393 64.2296 10.0491 63.628 10.0491C62.8644 10.0491 62.2161 10.1754 61.6866 10.4354C61.1535 10.6917 60.7213 11.0202 60.3935 11.4245C60.0621 11.8252 59.8208 12.2728 59.6731 12.7674C59.5219 13.262 59.4498 13.7565 59.4498 14.2439V18.9044C59.4498 19.4928 59.5255 20.0596 59.6839 20.5975C59.8388 21.139 60.0838 21.6083 60.4115 22.0162C60.7429 22.4241 61.1751 22.7454 61.7046 22.9873C62.2377 23.2219 62.8752 23.3447 63.628 23.3447C64.6906 23.3447 65.5911 23.0559 66.3295 22.4783C67.0679 21.9007 67.5289 21.1065 67.7198 20.0921L65.1301 19.3412C65.0796 19.7672 64.9103 20.1029 64.6258 20.3448C64.3376 20.5902 64.0062 20.713 63.6317 20.713C63.095 20.713 62.7132 20.5505 62.497 20.2256C62.2773 19.9007 62.1693 19.4856 62.1693 18.9874V14.1356C62.1693 13.9876 62.1909 13.8251 62.2413 13.6555L62.2377 13.6446ZM72.8202 13.6446C72.867 13.475 72.9498 13.3197 73.0651 13.1753C73.1768 13.0345 73.328 12.9118 73.5153 12.8179C73.7026 12.7241 73.9332 12.6772 74.2069 12.6772C74.4807 12.6772 74.6932 12.7277 74.8805 12.8288C75.0678 12.9299 75.2227 13.049 75.3487 13.1862C75.4748 13.3233 75.5648 13.4786 75.6225 13.6482C75.6765 13.8179 75.7197 13.9659 75.7449 14.0923L78.3131 13.3197C78.2267 12.8938 78.0754 12.4822 77.8629 12.0887C77.6504 11.6952 77.373 11.3451 77.038 11.0454C76.6994 10.7458 76.2924 10.5076 75.8206 10.3235C75.3415 10.1393 74.8084 10.0491 74.2069 10.0491C73.4433 10.0491 72.795 10.1754 72.2655 10.4354C71.7324 10.6917 71.3038 11.0202 70.9724 11.4245C70.641 11.8252 70.3997 12.2728 70.252 12.7674C70.1043 13.262 70.0287 13.7565 70.0287 14.2439V18.9044C70.0287 19.4928 70.1079 20.0596 70.2628 20.5975C70.4177 21.139 70.6626 21.6083 70.994 22.0162C71.3254 22.4241 71.7576 22.7454 72.2871 22.9873C72.8202 23.2219 73.4613 23.3447 74.2105 23.3447C75.2731 23.3447 76.1736 23.0559 76.912 22.4783C77.6504 21.9007 78.1114 21.1065 78.3023 20.0921L75.7125 19.3412C75.6657 19.7672 75.4964 20.1029 75.2082 20.3448C74.9201 20.5902 74.5887 20.713 74.2141 20.713C73.6774 20.713 73.2956 20.5505 73.0795 20.2256C72.8598 19.9007 72.7517 19.4856 72.7517 18.9874V14.1356C72.7517 13.9876 72.7769 13.8251 72.8274 13.6555L72.8202 13.6446Z" fill="black"/>
</svg>
