<svg width="630" height="102" viewBox="0 0 630 102" fill="none" xmlns="http://www.w3.org/2000/svg">
<path d="M0.95294 85.8791L43.9511 12.3813C44.7081 11.0903 45.7888 10.0199 47.0864 9.27604C48.3836 8.53221 49.8526 8.14062 51.3475 8.14062C52.8425 8.14062 54.3114 8.53221 55.609 9.27604C56.9062 10.0199 57.987 11.0903 58.744 12.3813L101.742 85.8791C102.498 87.1742 102.901 88.6454 102.913 90.1454C102.925 91.6454 102.544 93.1221 101.809 94.4292C101.074 95.736 100.01 96.8273 98.7226 97.5944C97.4356 98.3618 95.9704 98.7784 94.473 98.8023H8.44021C6.94255 98.7784 5.47768 98.3618 4.19036 97.5944C2.90338 96.8273 1.83938 95.736 1.10421 94.4292C0.369034 93.1221 -0.0113518 91.6454 0.000258007 90.1454C0.0118678 88.6454 0.415476 87.1742 1.17079 85.8791" fill="white"/>
<path d="M138.706 0.796324C129.579 0.63524 120.594 3.15726 112.789 8.07101C104.984 12.9848 98.6782 20.0899 94.5997 28.5657C93.5483 30.7446 93.0401 33.1626 93.1218 35.5981C93.2034 38.0333 93.8722 40.4085 95.0667 42.5065L125.848 97.0392C126.388 98.0365 127.142 98.8913 128.051 99.5378C128.96 100.184 130.001 100.605 131.092 100.767C133.34 101.1 135.609 101.261 137.88 101.252C150.668 101.242 162.932 95.9785 171.991 86.6119C181.051 77.2452 186.168 64.5375 186.225 51.2663C186.237 38.083 181.267 25.4204 172.382 15.9977C163.498 6.57538 151.407 1.14405 138.706 0.870911" fill="white"/>
<path d="M261.171 3.38625H196.177C195.249 3.37936 194.336 3.63833 193.542 4.13422C192.748 4.62977 192.103 5.34297 191.679 6.19425C191.254 7.04554 191.068 8.00151 191.14 8.95542C191.212 9.90967 191.54 10.824 192.086 11.5974C200.181 23.189 204.502 37.1257 204.43 51.406C204.44 65.4385 200.199 79.1245 192.3 90.5548C191.758 91.3293 191.434 92.2423 191.362 93.1938C191.29 94.1453 191.473 95.0988 191.892 95.9501C192.311 96.8014 192.949 97.5177 193.736 98.0208C194.523 98.5239 195.429 98.7946 196.355 98.8025H261.311C264.142 98.8025 266.859 97.6441 268.857 95.5816C270.859 93.5195 271.985 90.7222 271.985 87.8057V14.237C271.985 11.3206 270.859 8.52324 268.857 6.4608C266.859 4.39871 264.142 3.24023 261.311 3.24023" fill="white"/>
<path d="M365.966 61.162L353.164 28.7517H333.729L320.893 61.162H313.641V83.2492H325.969V72.9957H360.345V83.2492H372.746V61.162H365.966ZM344.426 40.0935L352.657 61.162H334.745L342.866 40.0935H344.426ZM400.704 27.7683C397.515 27.6188 394.33 28.1153 391.349 29.2257C388.372 30.3361 385.664 32.0363 383.402 34.2172C381.136 36.3984 379.372 39.0125 378.21 41.8927C377.048 44.7726 376.524 47.8551 376.663 50.9438C376.551 54.0256 377.096 57.0965 378.264 59.9645C379.436 62.8326 381.204 65.436 383.463 67.6116C385.718 69.7869 388.413 71.4878 391.38 72.6078C394.347 73.7277 397.522 74.2424 400.704 74.1196C403.886 74.248 407.061 73.737 410.028 72.6186C412.995 71.5 415.693 69.7985 417.948 67.6215C420.203 65.4443 421.968 62.8388 423.13 59.9685C424.295 57.0982 424.833 54.0253 424.71 50.9438C424.853 47.857 424.332 44.7752 423.177 41.895C422.019 39.0151 420.254 36.4001 417.996 34.2185C415.737 32.037 413.032 30.3364 410.052 29.2257C407.074 28.115 403.892 27.6185 400.704 27.7683ZM400.704 62.0402C399.232 62.0488 397.771 61.7621 396.418 61.1977C395.066 60.6335 393.85 59.8039 392.845 58.7614C391.84 57.7187 391.07 56.4862 390.579 55.1406C390.092 53.795 389.898 52.3659 390.007 50.9438C389.895 49.525 390.092 48.0995 390.579 46.7575C391.07 45.4159 391.843 44.1867 392.848 43.1499C393.853 42.1127 395.073 41.29 396.425 40.7335C397.777 40.177 399.236 39.8995 400.704 39.9183C402.189 39.8748 403.664 40.1337 405.04 40.679C406.413 41.2243 407.653 42.0438 408.679 43.0836C409.707 44.1237 410.494 45.3605 410.995 46.7146C411.496 48.0688 411.694 49.5098 411.581 50.9438C411.66 52.3735 411.438 53.8042 410.927 55.1479C410.416 56.4915 409.626 57.7203 408.607 58.7588C407.592 59.7973 406.366 60.6236 405.006 61.1878C403.647 61.7522 402.182 62.0422 400.704 62.0402ZM474.641 28.8219L462.166 46.3792H460.79L448.495 28.8219H433.193V73.066H445.957V48.7319H447.736L458.252 63.7605H464.38L475.077 48.7319H476.672V73.066H489.399V28.8219H474.641ZM506.912 58.0017C504.701 58.0017 502.579 58.8528 501.015 60.3673C499.452 61.8822 498.573 63.9364 498.573 66.0783C498.569 67.1419 498.781 68.1959 499.2 69.1799C499.615 70.164 500.228 71.058 501.005 71.8118C501.778 72.5655 502.698 73.1633 503.713 73.5714C504.729 73.9794 505.815 74.1899 506.912 74.1899C508.016 74.1945 509.106 73.9877 510.125 73.5816C511.143 73.1755 512.07 72.5784 512.847 71.8243C513.627 71.0702 514.243 70.1742 514.662 69.1882C515.081 68.2018 515.296 67.1448 515.289 66.0783C515.289 65.0148 515.074 63.9618 514.652 62.9797C514.23 61.9973 513.613 61.1053 512.833 60.3551C512.056 59.6046 511.133 59.0105 510.118 58.6067C509.099 58.2029 508.013 57.9971 506.912 58.0017ZM615.699 28.8219L603.732 58.4936H602.029L590.242 28.8219H575.304L593.434 69.2739L595.825 73.066L594.885 74.3651H580.38V86.5498H588.79C599.671 86.5498 606.379 81.8446 610.947 71.4159L629.731 28.8219H615.699ZM550.428 27.7683C547.819 27.6624 545.22 28.1325 542.825 29.1422C540.433 30.152 538.308 31.6754 536.611 33.5974V28.9971H524.283V86.5498H537.194V68.536C538.849 70.2702 540.856 71.6551 543.091 72.6035C545.322 73.5522 547.734 74.0444 550.173 74.0494C563.592 74.0494 571.495 64.4982 571.495 50.7683C571.495 37.8816 563.408 27.7683 550.428 27.7683ZM547.635 62.3559C546.126 62.3612 544.634 62.0623 543.251 61.479C541.868 60.8955 540.628 60.0401 539.606 58.967C538.58 57.8938 537.8 56.6264 537.31 55.2452C536.819 53.864 536.632 52.3993 536.758 50.9438C536.615 49.4801 536.792 48.0038 537.275 46.6101C537.756 45.2163 538.536 43.9357 539.561 42.851C540.587 41.766 541.834 40.9011 543.223 40.3112C544.613 39.7214 546.116 39.4202 547.635 39.4265C549.154 39.4202 550.657 39.7214 552.047 40.3112C553.436 40.9011 554.687 41.766 555.709 42.851C556.734 43.9357 557.514 45.2163 557.998 46.6101C558.478 48.0038 558.655 49.4801 558.512 50.9438C558.638 52.3993 558.451 53.864 557.96 55.2452C557.47 56.6264 556.69 57.8938 555.668 58.967C554.642 60.0401 553.402 60.8955 552.019 61.479C550.636 62.0623 549.144 62.3612 547.635 62.3559Z" fill="white"/>
</svg>
