<svg width="238" height="47" viewBox="0 0 238 47" fill="none" xmlns="http://www.w3.org/2000/svg">
<path d="M230.131 18.7852C230.131 21.1443 228.767 22.7341 225.37 22.7341H214.029V13.7791H225.37C228.803 13.7791 230.131 15.3649 230.131 17.7674V18.7852ZM208.236 9.50671V37.5907H214.029V27.0499H223.881L230.544 37.5907H237.003L230.007 26.5607C233.898 25.5034 235.968 22.6552 235.968 18.2171C235.968 12.639 232.534 9.50671 226.16 9.50671H208.236ZM169.241 23.4284C169.241 34.2573 175.117 38.0799 186.169 38.0799C197.221 38.0799 203.098 34.2533 203.098 23.4284C203.098 12.6035 197.221 9.02148 186.169 9.02148C175.117 9.02148 169.241 12.7652 169.241 23.4284ZM197.261 24.9354C197.261 31.2433 193.534 33.6458 186.169 33.6458C178.804 33.6458 175.077 31.2039 175.077 24.9354V22.0437C175.077 15.8581 178.76 13.4556 186.169 13.4556C193.578 13.4556 197.261 15.8581 197.261 22.0437V24.9354ZM158.357 9.51066V37.5947H164.15V9.50671H158.357V9.51066ZM144.02 37.5947H151.883V9.50671H146.543V32.056L130.774 9.50671H122.868V37.5907H128.207V15.002L144.016 37.5907L144.02 37.5947ZM87.8591 26.1977C87.8591 34.3401 92.7411 38.0838 102.469 38.0838C112.197 38.0838 116.75 34.3401 116.75 26.1977V9.50671H111.286V26.0321C111.286 31.9337 108.222 33.6852 102.469 33.6852C96.7165 33.6852 93.6517 31.9337 93.6517 26.0321V9.50671H87.8591V26.1938V26.1977ZM67.9219 33.0777V37.5947H74.9581C80.0487 37.5947 81.8699 35.3579 81.8699 31.0421V9.50671H76.1174V29.7758C76.1174 31.8942 75.291 33.0738 73.0967 33.0738H67.9219V33.0777Z" fill="white"/>
<path d="M47.3975 22.7307C47.2651 26.3482 45.7809 27.9578 42.0943 27.9578C38.4077 27.9578 36.9234 26.364 36.7911 22.7307C36.6587 19.0935 36.6787 14.7856 36.7911 11.3575C36.9034 7.92933 38.4077 6.13043 42.0943 6.13043C45.7809 6.13043 47.2651 7.72419 47.3975 11.3575C47.5299 14.9947 47.5299 19.0974 47.3975 22.7307ZM22.8551 22.7307C22.7227 26.3482 21.2384 27.9578 17.5519 27.9578C13.8653 27.9578 12.381 26.364 12.2487 22.7307C12.1163 19.0935 12.1363 14.7856 12.2487 11.3575C12.361 7.92933 13.8653 6.13043 17.5519 6.13043C21.2384 6.13043 22.7227 7.72419 22.8551 11.3575C22.9875 14.9947 22.9875 19.0974 22.8551 22.7307ZM53.7878 14.4661C53.503 4.17769 47.209 0 39.1097 0C36.7189 0 34.3641 0.575961 32.25 1.6766C30.136 2.77724 28.3268 4.37099 26.9789 6.31585C25.631 4.37099 23.8219 2.77724 21.7078 1.6766C19.5937 0.575961 17.243 0 14.8521 0C6.75288 0 0.442776 4.17769 0.174005 14.4661C0.00151033 20.8963 -0.110812 25.8985 0.174005 32.5339C0.61126 42.5422 6.75288 47 14.8521 47C17.243 47 19.5977 46.424 21.7118 45.3234C23.8259 44.2228 25.6351 42.629 26.9829 40.6842C28.3308 42.629 30.14 44.2228 32.254 45.3234C34.3681 46.424 36.7229 47 39.1137 47C47.213 47 53.3546 42.5383 53.7918 32.5339C54.0767 25.8985 53.9643 20.8963 53.7918 14.47L53.7878 14.4661Z" fill="white"/>
</svg>
