<svg width="224" height="65" viewBox="0 0 224 65" fill="none" xmlns="http://www.w3.org/2000/svg">
<path d="M65 0H0V65H65V0Z" fill="white"/>
<path d="M43 5V8.01392H49.6403V19.8063V20H53.3597V8.01392H60V5H43Z" fill="black"/>
<path d="M19.78 5L14.9985 14.9188L10.22 5H5V20H8.66073V9.26527L13.3326 18.3347H16.6674L21.3423 9.26527V20H25V5H19.78Z" fill="black"/>
<path d="M56.2842 55.5669C56.216 56.1335 55.959 56.6597 55.5565 57.0613C55.1384 57.4442 54.6244 57.7058 54.0701 57.8147C53.2588 57.9766 52.4352 58.0513 51.6084 58.0389C50.729 58.0544 49.8526 57.9268 49.0135 57.6559C48.326 57.4318 47.7346 56.9835 47.329 56.3795C46.9233 55.7755 46.722 54.9038 46.722 53.7954V52.2232C46.722 51.1056 46.9264 50.2338 47.329 49.633C47.7315 49.0321 48.3229 48.5838 49.0073 48.3565C49.8464 48.0888 50.7228 47.958 51.6022 47.9736C52.429 47.9611 53.2526 48.0358 54.0639 48.1977C54.6182 48.3098 55.1322 48.5682 55.5503 48.9512C55.9528 49.3528 56.2098 49.8789 56.278 50.4455H60C59.9319 49.2656 59.486 48.1386 58.7242 47.2388C57.9749 46.4107 57.0026 45.8129 55.9281 45.5234C54.516 45.1498 53.0607 44.9724 51.5991 45.0035C49.8155 45.0035 48.2672 45.2619 47.0007 45.7694C45.7466 46.255 44.6969 47.1579 44.025 48.3254C43.3685 49.4586 43.0248 50.9686 43 52.8241V52.9953L43.1982 53.0047H43V53.1759C43.0217 55.0283 43.3685 56.5414 44.025 57.6746C44.6969 58.8452 45.7466 59.7481 47.0007 60.2306C48.2703 60.7381 49.8186 60.9965 51.5991 60.9965C53.0576 61.0276 54.516 60.8502 55.9281 60.4766C57.0056 60.1871 57.9749 59.5893 58.7242 58.7612C59.486 57.8583 59.9319 56.7344 60 55.5545L56.2811 55.5638L56.2842 55.5669Z" fill="black"/>
<path d="M216.779 36.2827L219.254 41.8765H214.318L216.779 36.2827ZM215.222 34.6857L209.827 46.7843H212.163L213.526 43.6802H220.055L221.419 46.7843H224L218.623 34.6857H215.225H215.222ZM199.374 46.7843H202.046L205.903 36.6842V46.7843H208.364V34.6857H204.631L200.862 44.5941L197.129 34.6857H193.272V46.7843H195.536V36.7351L199.374 46.7843ZM180.607 34.6857V46.7843H191.15V44.8727H183.082V41.523H189.239V39.6803H183.082V36.5943H191.077V34.6827H180.604L180.607 34.6857ZM171.472 36.6842V46.7843H173.948V36.6842H178.935V34.6857H166.482V36.6842H171.469H171.472ZM152.605 40.753C152.605 45.3641 155.065 46.997 159.382 46.997C163.238 46.997 165.397 45.8585 165.838 43.0001H163.344C162.936 44.666 161.627 45.0854 159.382 45.0854C156.746 45.0854 155.102 44.1387 155.102 41.3342V40.1058C155.102 37.2474 156.782 36.3875 159.382 36.3875C161.718 36.3875 163.009 36.8789 163.326 38.6137H165.82C165.466 35.6325 163.272 34.476 159.382 34.476C155.065 34.476 152.605 36.1598 152.605 40.753ZM147.947 37.7029V46.7873H150.407V34.6887H147.753L140.448 43.7731V34.6887H137.972V46.7873H140.644L147.95 37.7029H147.947ZM122.753 40.753C122.753 45.3641 125.213 46.997 129.53 46.997C133.387 46.997 135.545 45.8585 135.986 43.0001H133.493C133.084 44.666 131.776 45.0854 129.53 45.0854C126.894 45.0854 125.25 44.1387 125.25 41.3342V40.1058C125.25 37.2474 126.93 36.3875 129.53 36.3875C131.866 36.3875 133.157 36.8789 133.474 38.6137H135.968C135.614 35.6325 133.42 34.476 129.53 34.476C125.213 34.476 122.753 36.1598 122.753 40.753ZM106.651 40.6841C106.651 45.3491 109.163 46.997 113.888 46.997C118.612 46.997 121.124 45.3491 121.124 40.6841C121.124 36.019 118.612 34.476 113.888 34.476C109.163 34.476 106.651 36.0879 106.651 40.6841ZM118.627 41.3342C118.627 44.0518 117.034 45.0854 113.885 45.0854C110.735 45.0854 109.142 44.0338 109.142 41.3342V40.0878C109.142 37.4212 110.717 36.3875 113.885 36.3875C117.052 36.3875 118.627 37.4212 118.627 40.0878V41.3342ZM103.577 34.6887L98.747 39.6174H96.9244V34.6887H94.4488V46.7873H96.9244V41.6129H98.6594L103.665 46.7873H106.848L100.833 40.5103L106.512 34.6887H103.574H103.577ZM83.4766 41.529H89.7576C89.6881 44.2106 88.077 45.0884 85.5108 45.0884C83.2831 45.0884 81.9199 44.615 81.4937 43.0361H79C79.4081 45.8405 81.6539 47 85.5108 47C89.7032 47 92.2695 45.439 92.2695 40.756C92.2695 36.0729 89.7395 34.479 85.5834 34.479C81.7627 34.479 79.4806 35.5486 79.0726 38.5478H81.5662C81.9199 36.813 83.3526 36.3905 85.5652 36.3905C88.0589 36.3905 89.6337 37.2145 89.7395 39.7403H83.4766V41.529ZM109.48 24.277C109.48 28.8881 111.941 30.521 116.257 30.521C120.114 30.521 122.272 29.3825 122.714 26.5241H120.22C119.812 28.19 118.503 28.6095 116.257 28.6095C113.622 28.6095 111.977 27.6627 111.977 24.8582V23.6298C111.977 20.7715 113.658 19.9116 116.257 19.9116C118.594 19.9116 119.884 20.4029 120.202 22.1377H122.696C122.342 19.1565 120.147 18 116.257 18C111.941 18 109.48 19.6839 109.48 24.277ZM101.552 20.2082V30.3083H104.028V20.2082H109.015V18.2097H96.5617V20.2082H101.549H101.552ZM85.9158 30.3083H88.5879L92.4448 20.2082V30.3083H94.9052V18.2097H91.1723L87.403 28.1181L83.67 18.2097H79.8131V30.3083H82.0771V20.2591L85.9158 30.3083Z" fill="white"/>
</svg>
